<?xml version="1.0" encoding="utf-8"?>
<!-- Generator: Adobe Illustrator 27.1.1, SVG Export Plug-In . SVG Version: 6.00 Build 0)  -->
<svg version="1.1" id="Layer_1" xmlns="http://www.w3.org/2000/svg" xmlns:xlink="http://www.w3.org/1999/xlink" x="0px" y="0px"
	 viewBox="0 0 175 34" style="enable-background:new 0 0 175 34;" xml:space="preserve">
<style type="text/css">
	.st0{clip-path:url(#SVGID_00000068668183959047462520000002544125612765613730_);}
</style>
<g>
	<defs>
		<rect id="SVGID_1_" y="0.1" width="175" height="33.9"/>
	</defs>
	<clipPath id="SVGID_00000183963036280380944480000003133282343424528276_">
		<use xlink:href="#SVGID_1_"  style="overflow:visible;"/>
	</clipPath>
	<g style="clip-path:url(#SVGID_00000183963036280380944480000003133282343424528276_);">
		<g>
			<path d="M46.6,26.5c-8.3-2.9-11.9-6.1-12-9.1c-0.1-4.3,6.5-7.1,14.1-10.3c2.7-1.2,5.3-2.3,7.4-3.4l1-0.5l0.2,1.1
				c0.5,3.5-0.6,6.8-3,9.3c-2.6,2.7-7.1,3.9-9.2,3.6L44,15.9c3.4,0.4,7-1,9.3-3.3c1.8-1.9,2.7-4.3,2.6-6.9c-1.9,1-4.1,1.9-6.5,2.9
				c-6.5,2.8-13.3,5.7-13.2,8.9c0.1,1.6,2.1,4.6,10.1,7.4L46.6,26.5z"/>
		</g>
		<g>
			<path d="M40.7,9.5L40.2,8C42,6.7,43.6,5.7,45,4.8c1.7-1.2,3.5-2.4,6.3-4.1l1-0.6l0.2,1.1c0.1,1.1,0.2,2.5,0.1,3.4L51,5.4
				c0.2-0.7,0.2-1.6,0.1-2.8C48.9,3.9,47.3,5,45.9,6C44.5,6.9,42.5,8.3,40.7,9.5z"/>
		</g>
		<g>
			<path d="M33.6,9c0,1.2-1.8,1.2-1.8,0C31.8,7.9,33.6,7.9,33.6,9z"/>
		</g>
		<path d="M49.3,28c0-0.6-0.2-1.7-0.5-2.9c-0.7-2.5-2.1-4.9-4.6-7.7c-3.4-3.9-4.3-7-4.9-9.2c-0.5-1.6-0.8-2.9-2-3.6l0,0
			c-2.5-1.6-5.4-0.8-7.1,0.8c-1.8,1.7-2.4,4-1.7,6.2L23.3,17l6.9-5.6c-1.1-2-0.2-3.9,1-5c1.3-1.2,3.4-1.8,5.3-0.6
			c0.7,0.5,0.9,1.4,1.4,2.8c0.7,2.2,1.6,5.6,5.2,9.8c2.3,2.6,3.6,4.9,4.2,7.1c0.3,1.1,0.4,2.1,0.4,2.5c0,1.8,0,2.4,0,3.2L46.1,32
			c0-0.1,0-0.1,0-0.2c0.1-0.7,0.3-1.6,0.6-2.6l-1.5-0.4c-0.3,1.1-0.4,2-0.6,2.7c-0.1,0.6-0.2,1-0.3,1.3s0,0.6,0.2,0.8
			s0.4,0.4,0.7,0.4h0.2l3.9-1.8v-0.5C49.4,30.6,49.4,30.2,49.3,28z"/>
	</g>
	<g style="clip-path:url(#SVGID_00000183963036280380944480000003133282343424528276_);">
		<g>
			<path d="M66.2,14.9h1.3V4.1h-1.3V2.8h6.2c0.9,0,1.8,0.1,2.5,0.4c0.8,0.3,1.5,0.7,2,1.3c0.6,0.6,1,1.3,1.3,2.1s0.5,1.8,0.5,2.8
				c0,1.1-0.2,2-0.5,2.8s-0.8,1.5-1.3,2.1c-0.6,0.6-1.2,1-2,1.3S73.3,16,72.4,16h-6.2C66.2,16,66.2,14.9,66.2,14.9z M70.6,14.8h1.2
				c0.6,0,1.2-0.1,1.6-0.2c0.5-0.1,0.8-0.3,1.1-0.6c0.3-0.3,0.5-0.6,0.6-1.1s0.2-1,0.2-1.6V7.7c0-0.6-0.1-1.2-0.2-1.6
				C75,5.6,74.8,5.3,74.5,5s-0.7-0.5-1.1-0.6c-0.5-0.1-1-0.2-1.6-0.2h-1.2C70.6,4.2,70.6,14.8,70.6,14.8z"/>
			<path d="M81.5,14.9h1.3V4.1h-1.3V2.8h5.8v1.3H86v10.8h1.3v1.3h-5.8V14.9z"/>
			<path d="M95.9,16.4c-0.9,0-1.7-0.2-2.4-0.5c-0.7-0.3-1.4-0.8-1.9-1.4c-0.5-0.6-0.9-1.3-1.2-2.2c-0.3-0.8-0.4-1.8-0.4-2.9
				s0.2-2.1,0.5-3s0.8-1.6,1.3-2.2c0.6-0.6,1.2-1,2-1.3c0.7-0.3,1.6-0.4,2.4-0.4c0.9,0,1.6,0.1,2.1,0.4s0.9,0.6,1,0.9h0.1v-1h2.2V7
				h-2.2V6.2c0-0.7-0.2-1.2-0.6-1.6S97.7,4,96.8,4c-1.2,0-2,0.3-2.6,0.9s-0.8,1.5-0.8,2.8v3.6c0,1.2,0.3,2,0.8,2.6s1.2,0.9,2.1,0.9
				s1.5-0.2,2-0.7c0.4-0.5,0.6-1,0.6-1.7v-1.8H97V9.4h5.9v1.3h-1v5.5h-1l-1.2-1.9h-0.1c-0.1,0.2-0.2,0.4-0.4,0.7
				c-0.2,0.2-0.5,0.5-0.8,0.7s-0.7,0.4-1.1,0.5C96.9,16.3,96.4,16.4,95.9,16.4z"/>
			<path d="M105.5,14.9h1.3V4.1h-1.3V2.8h5.8v1.3H110v10.8h1.3v1.3h-5.8V14.9z"/>
			<path d="M116.4,14.9h1.8V4.2h-2.5v2.2h-2.2V2.8H126v3.5h-2.2V4.2h-2.5v10.7h1.8v1.3h-6.7C116.4,16.2,116.4,14.9,116.4,14.9z"/>
			<path d="M126.6,14.9h1l4.1-12h2.6l4.1,12h1v1.3h-5.6v-1.3h1.5l-0.9-2.8h-4.3l-0.9,2.8h1.5v1.3h-4.1L126.6,14.9L126.6,14.9z
				 M130.5,10.8h3.6l-1.8-5.6h-0.1L130.5,10.8z"/>
			<path d="M141.4,14.9h1.3V4.1h-1.3V2.8h5.9v1.3h-1.4v10.7h3.6v-2.6h2.2v3.9h-10.3V14.9z"/>
			<path d="M87.1,20.3h-1V19h5.6v1.3h-1.5l2.2,9.4h0.1l2.6-10.6h2.6l2.8,10.6h0.1l2.1-9.4H101V19h4.1v1.3h-1l-2.9,12h-3l-2.6-9.6
				h-0.1L93,32.4h-3L87.1,20.3z"/>
			<path d="M107.1,31.1h1.3V20.3h-1.3V19h10.6v3.5h-2.2v-2.2h-4v4.3h2.5v-1.1h1.4v3.7H114v-1.1h-2.5V31h4.1v-2.6h2.2v3.9H107
				L107.1,31.1C107,31.1,107.1,31.1,107.1,31.1z"/>
			<path d="M120.6,31.1h1.3V20.3h-1.3V19h10.6v3.5H129v-2.2h-4V25h2.5v-1.1h1.4v3.7h-1.4v-1.1H125v4.7h1.8v1.3h-6.2
				C120.6,32.5,120.6,31.1,120.6,31.1z"/>
		</g>
	</g>
</g>
</svg>
