<?xml version="1.0" encoding="utf-8"?>
<!-- Generator: Adobe Illustrator 27.1.1, SVG Export Plug-In . SVG Version: 6.00 Build 0)  -->
<svg version="1.1" id="Layer_1" xmlns="http://www.w3.org/2000/svg" xmlns:xlink="http://www.w3.org/1999/xlink" x="0px" y="0px"
	 viewBox="0 0 176 36" style="enable-background:new 0 0 176 36;" xml:space="preserve">
<g>
	<defs>
		<rect id="SVGID_1_" width="176" height="36"/>
	</defs>
	<clipPath id="SVGID_00000047022976709404998530000009762792906528391072_">
		<use xlink:href="#SVGID_1_"  style="overflow:visible;"/>
	</clipPath>
	<g style="clip-path:url(#SVGID_00000047022976709404998530000009762792906528391072_);">
		<g>
			<g>
				<path d="M45.4,27.9c-8.7-3.1-12.4-6.3-12.5-9.5c-0.1-4.4,6.8-7.3,14.7-10.8c2.8-1.2,5.5-2.4,7.7-3.5l1-0.5l0.1,1.1
					c0.5,3.6-0.6,7.1-3.1,9.7c-2.7,2.8-7.4,4.1-9.6,3.7l-1.2-1.4c3.6,0.4,7.3-1,9.6-3.5c1.9-1.9,2.8-4.5,2.8-7.2c-2,1-4.3,2-6.7,3
					c-6.8,2.9-13.9,5.9-13.8,9.2c0.1,1.6,2.2,4.8,10.5,7.7L45.4,27.9z"/>
			</g>
			<g>
				<path d="M39.2,10.2l-0.5-1.6c1.9-1.2,3.6-2.3,5-3.3c1.8-1.2,3.7-2.5,6.5-4.3l1-0.6l0.2,1.2c0.1,1,0.2,2.5,0.1,3.4l-1.7,0.8
					C50,5.1,50,4.1,49.9,2.8c-2.3,1.5-3.9,2.6-5.4,3.6C43.1,7.5,41.1,8.9,39.2,10.2z"/>
			</g>
			<g>
				<path d="M31.8,9.7c0,1.2-1.9,1.2-1.9,0S31.8,8.5,31.8,9.7z"/>
			</g>
			<path d="M48.2,29.4c0-0.6-0.2-1.8-0.5-3c-0.7-2.6-2.2-5.1-4.7-8c-3.5-4.1-4.4-7.3-5.1-9.6c-0.5-1.7-0.9-3-2-3.8l0,0
				c-2.6-1.7-5.6-0.8-7.4,0.8c-1.9,1.7-2.5,4.2-1.7,6.4L21.3,18l7.2-5.8c-1.1-2.1-0.2-4.1,1.1-5.2c1.4-1.2,3.6-1.9,5.5-0.7
				c0.7,0.5,1,1.5,1.4,2.9c0.7,2.3,1.7,5.8,5.5,10.2c2.4,2.7,3.8,5.1,4.4,7.4c0.3,1.1,0.5,2.2,0.5,2.6c0,1.9,0,2.5,0,3.3l-1.8,0.8
				c0-0.1,0-0.1,0-0.2c0.1-0.7,0.3-1.6,0.6-2.7l-1.6-0.4c-0.3,1.1-0.5,2.1-0.6,2.8c-0.1,0.6-0.2,1.1-0.3,1.4c-0.1,0.3,0,0.6,0.2,0.8
				s0.5,0.4,0.8,0.4h0.2l4.1-1.9v-0.5C48.2,32.2,48.2,31.6,48.2,29.4z"/>
		</g>
		<g>
			<g>
				<path d="M65.7,15.8h1.4V4.6h-1.4V3.3h6.5c1,0,1.8,0.2,2.6,0.5c0.8,0.3,1.5,0.8,2.1,1.3c0.6,0.6,1.1,1.3,1.4,2.2s0.5,1.8,0.5,2.9
					s-0.2,2.1-0.5,2.9c-0.3,0.9-0.8,1.6-1.4,2.2s-1.3,1-2.1,1.3C74,16.8,73.1,17,72.2,17h-6.5C65.7,17,65.7,15.8,65.7,15.8z
					 M70.3,15.7h1.3c0.7,0,1.2-0.1,1.7-0.2c0.5-0.1,0.9-0.3,1.2-0.6c0.3-0.3,0.5-0.7,0.7-1.1c0.1-0.5,0.2-1,0.2-1.7V8.4
					c0-0.7-0.1-1.2-0.2-1.7s-0.4-0.8-0.7-1.1c-0.3-0.3-0.7-0.5-1.2-0.6s-1-0.2-1.7-0.2h-1.3V15.7z"/>
				<path d="M81.7,15.8h1.4V4.6h-1.4V3.3h6v1.3h-1.4v11.2h1.4V17h-6V15.8z"/>
				<path d="M96.7,17.2c-0.9,0-1.7-0.2-2.5-0.5s-1.4-0.8-2-1.4c-0.5-0.6-1-1.4-1.3-2.2c-0.3-0.9-0.5-1.9-0.5-3
					c0-1.2,0.2-2.2,0.5-3.1s0.8-1.6,1.4-2.3c0.6-0.6,1.3-1.1,2.1-1.4c0.8-0.3,1.6-0.5,2.5-0.5s1.6,0.2,2.2,0.5
					c0.5,0.3,0.9,0.6,1.1,0.9h0.1v-1h2.3v4.4h-2.3V6.8c0-0.7-0.2-1.2-0.6-1.7c-0.4-0.4-1.1-0.6-2.1-0.6c-1.2,0-2.1,0.3-2.7,0.9
					S94,7,94,8.3v3.8c0,1.2,0.3,2.1,0.8,2.7s1.3,0.9,2.2,0.9c0.9,0,1.6-0.2,2-0.7s0.7-1.1,0.7-1.8v-1.9h-2V10h6.2v1.3h-1v5.7h-1.1
					l-1.2-2h-0.1c-0.1,0.2-0.2,0.5-0.4,0.7c-0.2,0.3-0.5,0.5-0.8,0.7c-0.3,0.2-0.7,0.4-1.2,0.6C97.7,17.2,97.2,17.2,96.7,17.2z"/>
				<path d="M106.7,15.8h1.4V4.6h-1.4V3.3h6v1.3h-1.4v11.2h1.4V17h-6V15.8z"/>
				<path d="M118,15.8h1.9V4.7h-2.6V7H115V3.3h13V7h-2.3V4.7h-2.6v11.1h1.9V17h-7V15.8z"/>
				<path d="M128.6,15.8h1l4.3-12.5h2.7l4.3,12.5h1V17h-5.8v-1.3h1.6l-1-2.9h-4.5l-1,2.9h1.6V17h-4.3L128.6,15.8L128.6,15.8z
					 M132.7,11.5h3.8l-1.9-5.8h-0.1L132.7,11.5z"/>
				<path d="M144,15.8h1.4V4.6H144V3.3h6.1v1.3h-1.5v11.1h3.8V13h2.3V17H144L144,15.8L144,15.8z"/>
				<path d="M87.5,21.4h-1v-1.3h5.8v1.3h-1.6l2.3,9.7h0.1L95.9,20h2.6l2.9,11.1h0.1l2.1-9.7H102v-1.3h4.3v1.3h-1L102.2,34h-3.1
					l-2.7-10h-0.1l-2.7,10h-3.1L87.5,21.4z"/>
				<path d="M108.4,32.7h1.4V21.4h-1.4v-1.3h11.1v3.7h-2.3v-2.3h-4.1v4.5h2.6v-1.2h1.5v3.8h-1.5v-1.2h-2.6v5.1h4.3v-2.7h2.3v4.1
					h-11.2L108.4,32.7L108.4,32.7z"/>
				<path d="M122.4,32.7h1.4V21.4h-1.4v-1.3h11.1v3.7h-2.3v-2.3h-4.1v4.8h2.6v-1.2h1.5v3.8h-1.5v-1.2h-2.6v4.9h1.9V34h-6.5
					L122.4,32.7L122.4,32.7z"/>
			</g>
		</g>
	</g>
</g>
<rect x="-1.2" y="-2.3" style="fill:none;stroke:#FFFFFF;stroke-width:0.25;stroke-miterlimit:10;" width="178.9" height="40.1"/>
</svg>
