<?xml version="1.0" encoding="utf-8"?>
<!-- Generator: Adobe Illustrator 27.1.1, SVG Export Plug-In . SVG Version: 6.00 Build 0)  -->
<svg version="1.1" id="Layer_1" xmlns="http://www.w3.org/2000/svg" xmlns:xlink="http://www.w3.org/1999/xlink" x="0px" y="0px"
	 viewBox="0 0 87 140" style="enable-background:new 0 0 87 140;" xml:space="preserve">
<style type="text/css">
	.st0{fill:#444444;}
</style>
<g>
	<path class="st0" d="M24.8,64.5c0-0.1,0-0.2,0-0.3c-0.4-0.1-0.8,0-1.2-0.3c-0.3-0.2-0.7-0.3-1-0.5c-0.3-0.2-0.6-0.5-1-0.7
		c0.1-0.2,0.2-0.3,0.4-0.5c-0.2-0.1-0.3-0.2-0.5-0.3c-0.2,0-0.8-0.1-0.9-0.1c-0.3-0.1-0.3-0.4-0.2-0.6c0.1,0,0.3,0.1,0.5,0.1
		c0-0.1-0.1-0.2-0.1-0.2c-0.4-0.1-0.8-0.2-1.2-0.3c-0.2-0.1-0.4-0.1-0.6-0.2c0,0,0-0.1,0-0.1c0.1,0,0.2,0,0.4-0.1
		c0.1-0.2-0.2-0.6-0.4-0.6c-0.2,0-0.3,0-0.5,0c-0.3,0-0.6-0.1-0.7-0.4c0.2,0,0.3-0.1,0.5-0.1c-0.1-0.3-0.3-0.5-0.6-0.4
		c0.1,0.2,0.1,0.3,0.2,0.5c-0.6-0.5-1.3-0.9-1.9-1.2c-0.6-0.3-1.2-0.7-1.8-1c-0.5-0.2-0.9-0.6-1.4-0.7c-0.1,0-0.2-0.1-0.4-0.2
		c0.2-0.1,0.4-0.2,0.5-0.2c0.5,0,1,0.1,1.5,0.2c0.4,0,0.7,0.1,1.1,0.1c0.4,0,0.7-0.1,0.6-0.8c0.5,0.8,1.2,0.4,1.6,0.7
		c0.1-0.1,0.2-0.2,0.2-0.2c0.4,0.1,0.8,0.3,1.2,0.4c0.1-0.2,0.2-0.3,0.2-0.5c0.2,0.1,0.5,0.2,0.7,0.3c0.3-0.4,0.6-0.5,1-0.2
		c0.2,0.1,0.5,0.1,0.7,0c0.4-0.2,0.7-0.2,1,0.1c0.1,0.1,0.2,0.1,0.4,0.1c0.1-0.2,0.2-0.3,0.3-0.5c0.4-0.1,0.8,0.1,1,0.4
		c0.3,0.3,0.4,0.2,0.6,0c0.3,0.1,0.6,0.3,0.8,0.2c0.2-0.1,0.2-0.5,0.4-0.8c0.2-0.1,0.3,0.1,0.5,0.4c0.1,0.2,0.3,0.4,0.5,0.5
		c0.4,0.2,0.7,0,0.7-0.5c0-0.1,0-0.1,0-0.3c0.1,0.1,0.3,0.2,0.3,0.3c0.1,0.2,0.2,0.3,0.4,0.5c0.4,0.3,0.7,0.2,0.9-0.3
		c0-0.1,0.1-0.2,0.1-0.3c0.4,0.2,0.4,0.2,0.7,0.7c0.2,0,0.4,0,0.6,0.1c0.5,0.1,0.6,0.1,0.7-0.4c0-0.1,0.1-0.2,0.1-0.4
		c0.3,0,0.6,0,0.9,0.2c0.1,0.1,0.4,0.1,0.7,0.2c0,0.1,0.1,0.3,0.1,0.5c0.3,0,0.5,0,0.8,0c0.1-0.3,0.2-0.6,0.3-1.1
		c0.5,0.5,1,0.8,1.4,1.2c0.2-0.3,0.3-0.5,0.4-0.7c0.5,0.2,1,0.3,1.6,0.5c0-0.3,0-0.6,0.1-0.9c0.8,0.2,1.4,1.1,2.4,0.8
		c0.1-0.3,0.2-0.6,0.4-1c-0.2-0.3-0.5-0.3-0.8-0.3c-0.5,0-1.1,0-1.6,0.1c-0.6,0.1-1.2,0-1.8,0c-1.4-0.1-2.8-0.1-4.2-0.1
		c-0.5,0-1,0.1-1.4-0.3l0,0c0.4-0.7,1-0.9,1.7-0.6c0.2,0.1,0.3,0.2,0.4,0.3c0.5,0.4,0.8,0.4,1.2-0.1c0,0,0.1-0.1,0.1-0.1
		c0.7,0.4,1.5,0.4,2.4,0.4c0.1-0.3,0.1-0.7,0.2-1c-0.5-0.4-1-0.4-1.5-0.4c-0.5,0-1,0-1.5-0.1c0.3-0.4,0.6-0.5,0.9-0.5
		c0.4,0,0.8-0.2,1.3-0.3c0.3,0,0.4-0.3,0.4-0.5c0-0.3-0.2-0.4-0.4-0.4c-0.3,0-0.6-0.1-0.9-0.1c-0.1,0-0.3-0.1-0.5-0.1
		c0.1-0.3,0.4-0.3,0.6-0.3c0.4,0,0.7-0.1,0.9-0.4c0.3-0.4,0.1-0.8-0.3-0.9c-0.4-0.1-0.7-0.2-1.1,0c-0.2,0.1-0.4-0.1-0.7-0.1
		c-0.4,0-0.7,0.1-1.1,0.1c-0.2,0-0.5,0-0.5-0.3l0,0c0.5-0.2,0.9-0.3,1.5-0.1c0.1,0,0.3,0,0.4,0l0.8-0.1c0.3-0.1,0.5,0,0.7-0.2
		c0.1-0.1,0.2-0.4,0.2-0.6c0-0.2-0.2-0.3-0.4-0.4c-0.8,0-1.5-0.1-2.3-0.1c-0.5,0-1-0.1-1.4,0.1c-0.4,0.1-0.9,0-1.4-0.2
		c-0.2-0.1-0.4-0.1-0.5,0c-0.7,0.3-1.5,0.3-2.2,0.1c-0.9-0.2-1.7-0.2-2.6,0c-0.3,0-0.4,0.2-0.4,0.5c0,0.2,0.1,0.4,0.1,0.5
		c0,0.2,0,0.4-0.1,0.5c-0.6,0.5-0.6,0.6-0.3,1.2c0,0.1,0.1,0.1,0.2,0.2c0.5-0.1,1.1-0.2,1.6-0.2c0.3,0.2,0.5,0.3,0.8,0.6
		c0,0.2-0.2,0.3-0.5,0.3c-0.7-0.1-1.5-0.1-2.2-0.2c-0.5,0-0.7,0.2-0.5,0.7c0.1,0.3,0.3,0.5,0.4,0.8c0.1,0.2,0.2,0.3,0,0.5
		c-0.3,0.2-0.3,0.5-0.1,0.8c0.1,0.2,0.3,0.5,0.5,0.7c-0.3,0.2-0.7,0.2-1.1,0.2c-0.8,0-1.7-0.1-2.5-0.1c-1.5,0-3.1-0.1-4.6-0.1
		c-0.7,0-1.4,0-2.1-0.1c-0.2,0-0.4-0.2-0.6-0.2c0,0,0,0,0,0c-0.1-0.3-0.4-0.6-0.1-1c0.1-0.1-0.1-0.4-0.2-0.6
		c-0.1-0.3-0.4-0.5-0.5-0.7c-0.1-0.2-0.1-0.4,0-0.6c0.1-0.3,0.1-0.5-0.1-0.8C13,50.4,13,50.3,13,50.1c0.1-0.7,0.1-1.5,0.2-2.2
		c0-0.1,0-0.1,0-0.3c-0.2,0-0.4,0-0.6-0.1c-0.3,0-0.6,0-0.9,0c-0.4,0-0.6-0.3-0.8-0.6c-0.2-0.3,0-0.7,0.2-0.9
		c0.1-0.2,0.3-0.3,0.5-0.4c-0.3-1.1,0.6-1.5,1.3-1.9c0.3-0.2,0.7-0.1,1.1-0.1c0.1,0,0.3,0,0.4-0.1c0.2-0.4,0.6-0.4,1-0.5
		c0.1-0.5,0.1-0.9,0.7-1c0-0.5-0.2-1,0.4-1.1c0-0.3,0-0.7,0.1-0.9c0.1-0.2,0.4-0.3,0.8-0.5c0-0.6,0.2-1.2,1-1.2
		c0.2-0.3,0.2-0.7,0.4-0.9c0.2-0.2,0.5-0.2,0.8-0.3c-0.1-0.7,0.3-1,0.9-1.1c0-0.1,0.1-0.2,0-0.3c-0.1-0.4,0.1-0.7,0.5-0.8
		c0.3-0.1,0.5-0.3,0.6-0.7c0-0.2,0.3-0.3,0.4-0.5c0.2-0.2,0.5-0.3,0.7-0.5c-0.1-0.2-0.2-0.2-0.3-0.3c0,0,0-0.1,0.1-0.1
		c0.3-0.2,0.6-0.4,0.6-0.9c0-0.1,0.2-0.3,0.3-0.3c0.2-0.1,0.3-0.1,0.6-0.1c0.2-0.4,0.4-0.9,0.9-0.9c0.1,0,0.2-0.2,0.2-0.3
		c0.1-0.4,0.4-0.6,0.8-0.6c0.1,0,0.2,0,0.2-0.1c0.3-0.5,0.9-0.8,1.2-1.2c0.2-0.3,0.4-0.5,0.7-0.6c0.3-0.1,0.5-0.2,0.6-0.5
		c0,0,0-0.1,0.1-0.1c0.5-0.4,0.9-0.8,1.4-1.2c0.1-0.1,0.2-0.1,0.2-0.1c0.1-0.7,0.8-0.9,1.1-1.4c0.4-0.5,1-0.9,1.5-1.3
		c0.1,0,0.1,0,0.2-0.1c0.5-0.9,1.6-1.2,2.2-2c0.1-0.2,0.4-0.2,0.6-0.3c0,0,0,0,0,0c-0.1,0.2-0.2,0.5-0.3,0.7
		c-0.5,0.3-0.5,0.3-0.5,0.8c-0.2,0.1-0.5,0.2-0.5,0.3c-0.1,0.3-0.2,0.4-0.4,0.6c-0.1,0.1-0.2,0.3-0.2,0.4c0,0.1,0,0.3-0.1,0.3
		c-0.3,0.3-0.7,0.5-0.4,1c0,0,0,0.1,0,0.1c-0.2,0.5-0.4,0.9-0.6,1.4c0,0.1-0.1,0.2,0,0.3c0.1,0.2,0,0.4-0.2,0.6
		c-0.2,0.4-0.1,0.7,0.3,0.8c0.1,0,0.2,0.1,0.4,0.1c-1.3-0.1-1.3-0.1-1.2,1c-0.3,0.2-0.4,0.5-0.3,0.9c0.1,0.4,0,0.9-0.1,1.4
		c-0.1,0.3-0.1,0.6,0.1,0.8c0.3,0.2,0.5,0,0.8-0.1c-0.3-0.6,0-0.9,0.4-1.1c0-0.3-0.1-0.6-0.1-0.8c0.2-0.3,0.6-0.2,0.6-0.7
		c-0.1-0.4-0.4-0.3-0.8-0.5c0.5-0.1,0.9-0.2,1.3-0.2c0-0.3,0-0.6-0.1-0.8c0.2,0,0.4-0.1,0.6-0.1c0.1-0.1,0.3-0.2,0.3-0.3
		c0-0.1-0.1-0.3-0.3-0.3c-0.2-0.1-0.5-0.1-0.7-0.2c0,0,0-0.1,0-0.1c0.5-0.1,1-0.1,1.6-0.2c-0.1-0.4-0.1-0.6-0.1-0.9
		c0.2-0.1,0.5-0.2,0.8-0.3c-0.2-0.3-0.3-0.6-0.5-0.9c0.3-0.1,0.7-0.2,1-0.3c0.1-0.7-0.7-0.4-0.9-0.8c0.5-0.2,1.1,0.2,1.5-0.4
		c-0.3,0-0.5-0.1-0.7-0.1c-0.4,0-0.4,0-0.6-0.2c0.6-0.1,1.1-0.2,1.6-0.3c0-0.1,0-0.1,0-0.2c-0.1,0-0.3-0.1-0.4-0.1
		c-0.2,0-0.5,0-0.7-0.1c0,0,0-0.1-0.1-0.1c0.1-0.1,0.3-0.2,0.4-0.3c-0.2-0.3-0.5-0.2-0.7-0.2c-0.2,0-0.4,0-0.4-0.2
		c0.3,0,0.6,0,0.9,0c0.6,0,1.1-0.1,1.7-0.1c0.2,0,0.4-0.1,0.6-0.1c-0.1-0.2-0.1-0.3-0.2-0.5c0.2-0.1,0.3-0.2,0.6-0.3
		c-0.7-0.5-1.4-0.2-2-0.4c0.3-0.2,0.6-0.4,1-0.4c0.2,0,0.5,0,0.7-0.1c0.5-0.1,0.5-0.1,0.5-0.8c-0.7,0-1.5,0.2-2.2,0c0,0,0,0,0,0
		c0.1-0.2,0.2-0.3,0.3-0.5c0-0.2-0.1-0.4-0.1-0.7c-0.1,0-0.3,0-0.4-0.1c0.2-0.5,0.1-0.9-0.1-1.3c-0.1-0.3-0.2-0.6-0.3-0.9
		c-0.1-0.1-0.1-0.3-0.2-0.4c-0.1-0.1-0.2-0.3-0.2-0.4c0.1-0.8-0.4-1.6-0.1-2.4c0-0.1,0-0.3,0-0.5c0-0.2-0.1-0.3,0-0.5
		c0.4-0.8,0-1.6,0.1-2.5c0.1-0.9,0.2-1.1,1-1.1c0.1,0,0.2,0,0.3,0c1.1-0.4,2.3-0.4,3.4-0.5c0.3,0,0.5,0,0.8-0.1
		c0.1,0,0.3-0.2,0.3-0.3C42.2,6.1,42,6,41.7,6c-0.7,0-1.4,0.1-2.1,0.1c-0.6,0-1.2,0.1-1.7,0.1c-0.3,0-0.5,0.1-0.8,0.2
		c-0.4,0.2-0.8,0.2-1.2,0.2c-0.2-0.4,0-0.7,0.3-0.9c0.5-0.5,1.1-0.9,1.7-1.3c0.2-0.2,0.5-0.3,0.8-0.4c2.1-0.6,4.3-0.5,6.4-0.1
		c0.7,0.1,1.3,0.5,1.8,1C47,5,47.1,5.1,47.2,5.2c0.7,0.2,0.7,0.8,0.9,1.3c0,0-0.1,0.1-0.2,0.2c0.9,0.6,0.7,1.6,0.8,2.5
		c0.2,1.4,0.1,2.9,0,4.3c-0.1,0.7-0.1,1.5-0.4,2.2c-0.2,0.7-0.6,1.5-0.5,2.4c0,0.2-0.2,0.4-0.3,0.6c0,0.3,0.6,0.4,0.4,0.8
		c0.2,0.1,0.4,0.1,0.7,0.2c-0.1,0.1-0.2,0.2-0.2,0.3c0.2,0,0.4,0.1,0.6,0.1c-0.1,0.1-0.1,0.2-0.2,0.2c-0.2,0-0.4,0-0.7,0.1
		c0.3,0.3,0.4,0.6,0.8,0.6c0.1,0,0.2,0.1,0.3,0.2c0.5,0.4,1.1,0.8,1.6,1.2c0.1,0,0.1,0.1,0.2,0.1c0.5-0.2,0.7,0.2,1,0.5
		c0.4,0.4,0.4,0.4,1,0.3c0.2,0.5,0.4,1.1,1.2,1.1c0.1,0.3,0.3,0.6,0.4,0.9c0.3,0,0.5,0,0.7,0.3c0.3,0.4,0.7,0.8,1.3,1
		c0.4,0.1,0.4,0.3,0.2,0.6c0.4,0.3,0.8,0.5,1.2,0.8c0.1,0.1,0.1,0.4,0.3,0.5c0.4,0.4,0.8,0.8,1.3,1.1c0.3,0.2,0.5,0.4,0.6,0.8
		c0,0.1,0.1,0.2,0.2,0.3c0.4,0,0.5,0.4,0.6,0.7c0.4,0.7,0.8,1.4,1.6,1.7c0.1,0,0.2,0.3,0.3,0.4c0.1,0.3,0.3,0.6,0.6,0.8
		c0.1,0.1,0.2,0.2,0.3,0.3c0.2,0.3,0.4,0.6,0.8,0.7c0.2,0.1,0.4,0.4,0.6,0.6c0.2,0.2,0.4,0.3,0.5,0.4c0.3,0.4,0.6,0.8,1,1.3
		c-0.2,0.1-0.3,0.2-0.4,0.2c0.1,0.3,0.3,0.2,0.5,0.2c0.3,0,0.5,0.1,0.7,0.4c0.3,0.5,0.8,1,1.2,1.4c-0.2,0.3-0.2,0.4,0.1,0.6
		c0.1,0,0.2,0.1,0.2,0.1c0.2,0.2,0.5,0.5,0.7,0.8c-0.1,0.1-0.3,0.1-0.5,0.3c0.5,0.1,1,0.1,1.2,0.7c-0.1,0.1-0.2,0.2-0.3,0.4
		c0.3,0.1,0.5,0.1,0.6,0.1c0.6,0.1,0.7,0.2,0.5,0.9c0.5,0,0.9,0.2,1.3,0.7c-0.1,0.1-0.1,0.2-0.2,0.3c0,0.3,0.3,0.2,0.4,0.2
		c0.1,0,0.2,0.2,0.4,0.2c-0.1,0.1-0.2,0.2-0.4,0.3c0,0-0.1,0-0.2,0c-0.6,0-1.2,0-1.7,0c0,0-0.1,0-0.2,0.1c1,0.2,2,0.4,3,0.7
		c0.1,0.6,0,0.7-0.5,0.6c-0.4,0-0.7,0-1.1,0c0.4,0.1,0.8,0.3,1.2,0.4c0.3,0.1,0.3,0.1,0.5,0.5c-0.2,0.2-0.4,0.4-0.6,0.6
		c0.1,0.1,0.2,0.3,0.2,0.5c0.4,0.1,0.9-0.2,1.1,0.3c-0.2,0.6-0.8,0.2-1.2,0.5c0.1,0.5,0.5,0.6,0.9,0.9c0.1-0.1,0.2-0.2,0.3-0.4
		c0.1,0.4,0.1,0.6-0.3,0.7c-0.2,0.1-0.4,0.2-0.7,0.2c0.3,0.3,0.6,0.6,0.9,0.8c-0.2,0.8-0.7,0.8-1.3,0.8c0,0.5,0.3,0.3,0.6,0.4
		c-0.1,0.5-0.1,1-0.2,1.5c0,0.1-0.1,0.1-0.2,0.2c-0.4,0.2-0.5,1.1-1.3,0.8c0.1-0.2,0.3-0.4,0.4-0.5c0,0-0.1-0.1-0.1-0.1
		c-0.1,0.2-0.2,0.4-0.2,0.6c-0.3,0-0.6,0.2-0.7,0.5c-0.1,0.2-0.3,0.3-0.5,0.4C70.4,57,70,57,69.6,57.1c-0.3,0.1-0.5,0.2-0.7,0.5
		c-0.1,0.1-0.2,0.3-0.3,0.3c-0.5,0-0.7,0.3-0.9,0.7c-0.1,0.1-0.2,0.2-0.3,0.3c-0.4,0.2-0.6,0.5-0.8,0.9c-0.1,0.1-0.2,0.3-0.3,0.4
		c-0.4,0.3-1,0.4-1.2,1c0,0,0,0-0.1,0c-1.1,0.3-1.8,1.3-2.8,1.7c-0.6,0.3-0.7,0.6-0.2,1.2c0.3,0.3,0.4,0.6,0.3,1c0,0.2,0,0.3,0,0.6
		c-0.2,0.1-0.4,0.3-0.7,0.4c0.3,0.2,0.3,0.2,0.7,0.2c0.1,0.1,0.2,0.3,0.2,0.5c0.1,0.4-0.1,0.6-0.5,0.6c-0.3,0-0.5,0.2-0.6,0.5
		c-0.5-0.3-1.5-0.3-1.9,0c0.1,0.3,0.3,0.3,0.5,0.2c0.3-0.1,0.6-0.1,0.9,0c0.2,0.1,0.4,0,0.4-0.3c0.4,0.1,0.8,0.1,1,0.5
		c0-0.2,0.1-0.3,0.1-0.5c0.4,0.4,0.4,0.5,0.2,0.9c-0.1,0.4-0.6,0.2-0.8,0.6c0.2,0.2,0.4,0.4,0.6,0.7c0.1-0.1,0.2-0.2,0.3-0.3
		c0.2,0.1,0.3,0.2,0.5,0.2c0,0.4-0.2,0.6-0.5,0.8c-0.2,0.1-0.4,0.3-0.5,0.4c-0.1,0-0.2-0.1-0.3-0.1c-0.4,0.2-0.8,0.2-1.2,0.1
		c-0.3,0-0.6,0-0.8,0.2c0.4,0.3,0.7,0.3,1.1,0.2c0.3-0.1,0.6-0.1,0.9-0.2c0.2,0,0.3-0.1,0.3-0.3c0.2,0.1,0.4,0.2,0.6,0.2
		c0.2,0.1,0.3,0.1,0.6,0.2c0.2,0.5-0.1,0.9-0.6,1.2c0.1,0.4,0.5,0.4,0.8,0.5c0.1,0.2,0.1,0.5,0.2,0.7c-0.1,0.1-0.2,0.1-0.4,0.2
		c0.1,0.1,0.1,0.2,0.2,0.3c0.6,1,0.6,1-0.4,1.6c-0.1,0-0.1,0.1-0.3,0.2c0.1,0.1,0.1,0.3,0.2,0.3c0.3,0,0.7,0,1.1,0
		c0.3,0.6-0.3,0.9-0.5,1.3c0,0.5,0.4,0.2,0.6,0.3c0.1,0.3,0.2,0.6,0.3,0.9c-0.5,0.3-0.6,0.8,0,1.2c0.4,0.3,0.8,0.5,0.8,1.1
		c-0.1-0.1-0.2-0.1-0.2-0.2c0,0-0.1-0.1-0.1-0.2c-0.1,0-0.3-0.1-0.3,0c-0.1,0.1-0.1,0.3-0.1,0.3c0.3,0.3,0.2,0.8,0.7,0.9
		c0.3,0,0.4,0.5,0.5,1.1c-0.2-0.3-0.4-0.6-0.6-0.8c-0.3,0.1-0.4,0.2-0.3,0.5c0.2,0.3,0.4,0.6,0.5,0.9c0,0,0.1,0,0.2-0.1
		c0.2,0.2,0.1,0.4-0.1,0.5c-0.1,0.1-0.3,0.2-0.3,0.3c0,0.1,0,0.2,0.1,0.3c0.5-0.2,0.3,0.4,0.6,0.5c0.3-0.3-0.1-0.7,0.1-1
		c0.3,0.3,0.2,0.7,0.3,1.1c0,0.1,0,0.4,0.1,0.4c0.3,0.3,0.4,0.6,0.4,1c0,0.1,0.1,0.3,0.2,0.4c0,0,0,0,0,0.1c0.1,0.5,0.2,1,0.4,1.4
		c0.3,0.4,0.3,0.9,0.2,1.3c0,0.1,0,0.3,0,0.4c0.5,0.4,0.3,1.1,0.6,1.5c0.3,0.5,0.4,1,0.6,1.5c0,0.1,0.2,0.3,0.2,0.4
		c0.1,0.4,0.2,0.8,0.4,1.2c0.3,0.6,0.4,1.3,0.7,1.9c0.2,0.4,0.3,0.7,0.4,1.1c0,0.2,0.1,0.5,0.2,0.7c0,0.1,0.1,0.2,0.1,0.2
		c0.3,0.9,0.4,1.8,0.8,2.6c0.3,0.8,0.5,1.7,0.8,2.5c0.1,0.4,0.2,0.7,0.3,1.1c0.2,0.8,0.4,1.7,0.6,2.5c0,0.2,0.1,0.3,0.2,0.4
		c0.2,0.8,0.3,1.6,0.4,2.4c0,0.2,0,0.3,0.1,0.5c0.3,0.5,0.4,1,0.4,1.6c0,0.2,0.1,0.3,0.2,0.5c0.1,0.2,0.2,0.3,0.2,0.5
		c0.1,1.6,0.8,3,0.9,4.6c0,0.2,0.1,0.4,0.2,0.6c0.1,0.3,0.3,0.6,0.4,0.9c0.2,0.9,0.5,1.7,0.7,2.5c0.3,1,0.5,2.1,0.6,3.2
		c0,0.6-0.2,1.2-0.4,1.8c-0.1,0.2-0.2,0.4-0.3,0.6c-0.7,1.9-2.2,3-3.9,3.9c-1.6,0.8-3.4,1.2-5.1,1.7c-3.1,0.9-6.3,1.6-9.5,2
		c-2.5,0.3-4.9,0.6-7.4,0.8c-4.4,0.4-8.8,0-13.2-0.2c-1.5-0.1-3.1-0.2-4.6-0.3c-3.1-0.3-6.2-0.6-9.3-1.2c-1.6-0.3-3.2-0.6-4.8-1.1
		c-1.9-0.6-3.7-1.4-5.5-2.4c-1.5-0.8-2.6-2-3.6-3.4c-0.8-1.2-1.4-2.5-1.5-3.9C9,123.2,9,122.6,8.9,122c0-0.3,0-0.7,0.1-1
		c0.3-0.8,0.7-1.6,1.1-2.4c0,0.2,0,0.4,0,0.6c0.5-0.1,0.5-0.4,0.5-0.7c-0.1-0.7,0-1.3,0.2-1.9c0.1-0.3,0.2-0.5,0.4-0.8
		c0,0.3,0,0.5,0,0.8c0.7-0.5,0.7-0.5,0.3-1.2c-0.1,0-0.1,0.1-0.2,0.1c0-0.2,0-0.3,0-0.4c0.3-0.2,0.6-0.4,0.9-0.6
		c0.2,0.2,0.4,0.4,0.2,0.7c-0.5,0.5-0.4,1-0.1,1.5c-0.4,0.4-0.8,0.7-0.7,1.2c0,0.2,0.2,0.4,0.4,0.7c0.3-0.4,0.5-0.8,0.8-1.1
		c-0.1-0.3-0.3-0.7-0.2-1c0-0.3,0.3-0.7,0.4-1c-0.4-0.7-0.3-1.4,0.3-2.1c-0.3-0.6-0.3-1.1,0.1-1.6c0.3-0.4,0.3-0.7-0.2-1.1
		c0.2-0.4,0.4-0.7,0.6-1.1c0.2-0.2,0.3-0.5,0.2-0.7c-0.1-0.4,0-0.8,0.2-1.2c0.1-0.2,0.2-0.5,0.1-0.6c-0.3-0.6-0.1-1,0.3-1.5
		c0.2-0.2,0.3-0.4,0.1-0.6c-0.5,0.2-0.8,0.6-0.7,1.2c0,0.3,0,0.6-0.2,0.8c-0.4,0.4,0,1-0.3,1.4c-0.3,0.4-0.6,0.8-0.5,1.3
		c0,0.1,0,0.2,0,0.3c-0.1,0.1-0.2,0.2-0.3,0.4c0-0.3,0-0.4,0-0.5c0.2-1.3,0.7-2.5,1.1-3.7c0.1-0.2,0-0.4,0.1-0.7
		c0.1-0.4,0.2-0.8,0.3-1.2c0.1-0.2,0.1-0.4,0.1-0.6c0-0.4,0-0.7,0.3-1c0.2-0.2,0.3-0.3,0.2-0.6c-0.1-0.4-0.1-0.8,0.2-1.1
		c0.1-0.1,0.1-0.2,0.1-0.3c0.1-0.8,0.4-1.5,0.5-2.3c0.1-0.6,0.4-1.2,0.6-1.8c0.1-0.4,0.2-0.7,0.1-1.1c-0.1-0.4,0-0.8,0.2-1.1
		c0.2-0.2,0.2-0.4,0.2-0.7c0-0.1-0.1-0.2,0-0.3c0.1-0.4,0.4-0.8,0.4-1.2c0-0.5,0.1-0.8,0.4-1.2c0-0.1,0.1-0.1,0.1-0.2
		c0.1-0.6,0.2-1.3,0.6-1.8c0,0,0-0.1,0-0.1c-0.2-0.6,0.1-1.1,0.5-1.6c-0.1-0.3-0.2-0.6-0.1-0.8c0.4-0.6,0.2-1.4,0.6-2.1c0,0,0,0,0,0
		c0,0.3,0.1,0.6,0.1,0.9c0,0.3,0.2,0.5,0.5,0.6c0.2-0.6,0.5-1.2,0.4-1.9c-0.1-0.5,0.2-1,0.5-1.4c-0.3-0.5-0.2-1,0.1-1.5
		c0.1-0.1,0.1-0.4,0.1-0.5c-0.2-0.4-0.1-0.8,0.1-1.1c0.3-0.5,0.3-1,0.2-1.6c0.2,0,0.2,0,0.3,0c0.1-0.8-0.3-1.7,0.3-2.4
		c-0.3-0.5-0.3-1,0-1.6c0.1-0.2,0-0.4,0-0.6c-0.2-0.5,0-0.9,0.3-1.3c0.3-0.4,0.9-0.4,1.3-0.2c0.3,0.1,0.6,0.3,0.9,0.3
		c0.7,0,0.7-0.1,1.3,0.2c0.1-0.1,0.1-0.2,0.2-0.4c0.3,0.2,0.6,0.4,1,0.7c-0.6,0.2-1.2,0.4-1.7,0.6c0.1,0.5,0.7,0.6,1.1,1.1
		c-0.3,0-0.5,0-0.7,0.1c-0.3,0.1-0.6,0.2-0.7,0.4c-0.2,0.3,0,0.8,0.4,0.9c0.2,0.1,0.5,0.1,0.8,0.3c-0.2,0-0.4,0.1-0.6,0.1
		c-0.7,0.2-0.8,0.7-0.4,1.2c0.1,0.1,0.3,0.2,0.4,0.3c-1,0.8-1.1,1-0.4,2c-0.1,0.2-0.3,0.3-0.4,0.5c-0.4,0.6-0.1,1.2,0.6,1.2
		c0.5,0,1.1,0,1.6,0c0.1-0.4,0.1-0.7,0.2-1.2c-0.6-0.2-1.2-0.3-1.8-0.5c0.1-0.2,0.2-0.4,0.2-0.7c0.2,0,0.4,0,0.6,0.1
		c0.4,0.6,0.6,0.7,1.3,0.4c0-0.4,0.1-0.9,0.1-1.4c-0.7,0.2-1.5-0.2-2.1,0.4c0,0-0.1-0.1-0.1-0.1c0.1-0.2,0.2-0.4,0.3-0.5
		c0.3-0.2,0.6-0.3,0.9-0.4c0.2,0,0.4,0.1,0.6,0.1c0.2,0,0.4,0,0.6,0c0.1-0.6,0.3-1.1,0.4-1.6c0,0-0.1-0.1-0.1-0.1l0,0
		c0.6-0.3,1.1-0.3,1.7,0c0.3,0.2,0.8,0.1,1.3,0.1c0-0.1,0.1-0.3,0.2-0.5c0.3,0.3,0.6,0.5,0.9,0.8c-0.5,0-1,0-1.5,0
		c-0.2,0-0.4,0.1-0.6,0.2c-0.2,0.1-0.4,0.3-0.3,0.5c0.1,0.2,0.2,0.3,0.4,0.4c0.6,0.2,1.2,0.5,1.7,0.7c-0.4,0.2-0.7,0.1-1.1,0
		c-0.4-0.1-0.8,0.3-0.9,0.7c0,0.2,0.3,0.8,0.5,0.7c0.5-0.1,0.9,0.2,1.4,0.1c0.5,0,0.9,0,1.1-0.4c0.4,0.2,0.7,0.3,1.1,0.4
		c0.1-0.2,0.1-0.4,0.1-0.6c0.1,0.2,0.2,0.4,0.3,0.6c0.2,0,0.4-0.1,0.7-0.1c0-0.5,0-0.9,0-1.3c-0.8,0.1-1.5-0.1-2.2,0.4
		c-0.3-0.5-0.3-0.5-0.7-0.5c-0.1,0-0.2-0.1-0.3-0.1c0.3-0.1,0.6-0.2,1-0.3c0,0,0.2,0.1,0.3,0.2c0.3,0.1,0.7,0.2,0.9,0.1
		c0.5-0.3,0.9-0.1,1.3-0.2c0.1,0,0.1,0,0.2-0.1c0-0.5,0-0.9,0-1.4c-0.3,0-0.7,0.1-1,0.1c-0.7-0.1-1.4-0.2-2.2-0.3
		c-0.1,0-0.1,0-0.2,0c0.2-0.2,0.4-0.3,0.7-0.2c0.4,0.2,0.6,0,0.8-0.4c0.5,0.2,0.9,0.4,1.3,0.4c0.4,0.1,0.8,0,1.3,0c0-0.5,0-1,0-1.5
		c-0.9,0-1.7,0-2.5,0.2c-0.2-0.3-0.7-0.6-0.4-1c0.6,0,1.2,0,1.8,0c0.4,0,0.6,0.3,0.8,0.5c0.7-0.3,0.8-0.5,0.4-1.4
		c-0.2,0.1-0.5,0.1-0.7,0.2c-0.7,0.5-1.4,0.2-2.1,0.1c-0.1,0-0.2-0.2-0.3-0.3c-0.7,0-1.4,0.1-2.1-0.2c-0.2-0.1-0.5,0-0.7,0.1
		c-0.2,0-0.5,0.1-0.7,0.1c-0.7-0.2-1.4-0.1-2,0c-0.2-0.1-0.2-0.3,0-0.4c0.1-0.1,0.3-0.2,0.5-0.4c0.2,0.1,0.4,0.2,0.7,0.2
		c0.4,0.1,0.8,0.2,1.2,0.1c0.4-0.1,0.8,0.1,1.2,0.2c0.2,0,0.3,0.1,0.5,0.1c0.4-0.6,0.4-0.5,1-0.3c0.7,0.2,1.5,0.2,2.2,0.3
		c0.1,0,0.2,0,0.2-0.1c0.2-0.4,0.5-0.3,0.9-0.3c0.6,0.1,1.2,0.1,1.7,0.3c0.7,0.2,1.2,0,1.6-0.6c0.3,0.2,0.7,0.4,1.1,0.4
		c0.3,0,0.6,0,0.9,0.2c0.1,0.1,0.3,0.1,0.4,0c0.5-0.1,0.9,0,1.4,0.1c0.3,0,0.5,0,0.8,0c0.4-0.1,0.9-0.2,1.3-0.2c0.4,0,0.8,0,1.1,0.2
		c0.4,0.3,0.8,0.2,1.1,0.1c0.7-0.3,1.4-0.2,2.1-0.1c0.3,0,0.7,0,1-0.2c0.4-0.4,0.9-0.5,1.4-0.1c0.2,0.1,0.6,0.1,0.8,0.1
		c0.2,0,0.3-0.3,0.4-0.5c-0.6-0.6-1.1-0.6-1.7-0.3c-0.1,0.1-0.3,0.1-0.5,0.1c-1-0.2-1.9-0.3-2.9,0c-0.2,0.1-0.4,0-0.6-0.1
		c-0.3,0-0.6-0.1-0.8-0.1c-0.5,0-1,0.1-1.5,0.1c-0.4,0-0.8,0.1-1,0c-0.8-0.4-1.7-0.1-2.5-0.1c-0.6,0-1.2,0.1-1.9,0.2
		c0,0-0.1,0.2-0.2,0.3c0-0.4-0.2-0.6-0.7-0.6c-1,0-2,0-3,0.4c-0.3-0.5-0.8-0.5-1.3-0.5c-0.6,0-1.2,0.2-1.8,0.4
		c-0.4,0.1-0.5,0-0.4-0.5c-0.5,0-1.1,0-1.6,0c-0.2,0-0.4-0.1-0.4-0.3c0-0.3,0.2-0.3,0.4-0.3c0.3,0,0.6,0,0.9,0c0.2,0,0.4,0,0.6,0.2
		c0.2,0.3,0.6,0.2,0.7,0.1c0.4-0.6,0.8-0.2,1.3-0.1c0.4,0.1,1.2,0.1,1.6,0.1c0.6-0.1,1.2-0.1,1.7-0.1c0.2,0,0.5,0.2,0.8,0
		c0,0,0.1,0,0.2,0c0.5,0.5,0.9,0.2,1.3-0.1c0.2-0.2,0.4-0.2,0.6-0.1c0.6,0.2,1.2,0.3,1.9,0.2c0.1,0,0.3,0,0.4,0.1
		c0.6,0.3,0.6,0.3,1-0.2c0,0,0.1-0.1,0.1-0.1c0.1,0.1,0.3,0.1,0.4,0.2c0.3,0.1,0.5,0.1,0.8,0.1c0.4-0.1,0.9-0.1,1.3,0
		c0.8,0.2,0.8,0.2,1.2-0.4c0.5,0.1,0.9,0.3,1.4,0.4c0.4,0.1,0.6,0,0.5-0.5c0-0.2-0.1-0.3-0.1-0.4c-0.1-0.3-0.4-0.3-0.5-0.2
		c-0.2,0.2-0.4,0.1-0.5,0.2c-0.4,0.4-0.7,0.2-1,0c-0.4-0.3-0.7-0.3-1.1,0.1c-0.3,0.3-0.7,0.3-1,0.1c-0.3-0.2-0.6-0.2-0.9-0.2
		c-0.2,0-0.5,0.1-0.7-0.2c-0.1-0.2-0.5-0.1-0.8-0.1c-0.4,0-0.9,0.1-1.3,0.1c-0.5,0-1,0-1.3,0.5c-0.3-0.1-0.3-0.6-0.8-0.5
		c-0.4,0.1-0.8,0-1,0.4c-0.5-0.4-0.9-0.1-1.4,0.2c-0.2-0.1-0.3-0.2-0.5-0.3c-0.1,0.1-0.2,0.2-0.4,0.4c0.2-0.5,0-0.6-0.3-0.6
		c-0.5,0-0.9,0.1-1.4,0.1c-0.4,0.1-0.8,0.2-1.2-0.1c-0.4-0.2-0.8,0-1.2,0.3c-0.5-0.3-1-0.3-1.5,0.1c0-0.2-0.1-0.4-0.1-0.5
		c-0.3-0.1-0.7,0.1-1-0.4c0.1-0.1,0.3-0.2,0.4-0.2c0.6,0,1.3,0,1.9,0.3c0.1,0.1,0.4,0.1,0.5,0c0.6-0.6,1.3-0.4,2-0.3
		c0.2,0,0.4,0.1,0.6,0.2c0.7,0.2,0.8,0.2,1.1-0.4c0.4,0,0.7,0.1,1.1,0c0.4,0,0.9-0.1,1.1,0.4c0,0.1,0.4,0.1,0.5,0
		c0.4-0.5,0.9-0.3,1.3-0.2c0.1,0,0.3,0.1,0.4,0.1c0.5-0.1,0.8,0,1.2,0.3c0.2-0.2,0.3-0.4,0.4-0.5c0.2,0,0.4,0,0.6,0.1
		c0.2,0,0.4,0.2,0.6,0.2c0.2,0,0.4-0.1,0.6,0c0.3,0.1,0.6,0.1,0.8-0.3c0.1-0.3,0.3-0.3,0.6-0.2c0.3,0.1,0.6,0.2,0.9,0.3
		c0.3,0.2,0.6,0.1,0.8-0.1c0.5-0.5,1-0.3,1.5-0.1c0.6,0.2,0.7,0.2,1-0.4c-0.2-0.2-0.5-0.4-0.8-0.7c-0.2,0.1-0.6,0.2-1,0.3
		c-0.2,0-0.5,0.1-0.7,0c-0.6-0.5-1.1-0.2-1.6,0c-0.1,0.1-0.3,0.2-0.4,0.2c-0.1,0-0.1,0-0.2-0.1c-0.6-0.7-1.3-0.5-2-0.2
		c-0.3,0.1-0.7,0-1,0c-0.4-0.1-0.7-0.1-1.1-0.1c-0.7,0.1-1.3,0.1-2,0.2c-0.1,0-0.2,0-0.2-0.1c-0.3-0.2-0.4-0.1-0.6,0.2
		c-0.2,0.4-0.5,0.4-0.8,0.3c-0.1-0.1-0.3-0.2-0.4-0.1c-0.5,0.2-0.8-0.1-1-0.5c-0.5,0.1-0.9,0.1-1.3,0.3c-0.4,0.2-0.9,0.1-1.3,0.1
		c0,0,0,0-0.1,0c-0.2-0.1-0.2-0.4-0.5-0.3c-0.2,0.1-0.4,0.1-0.7,0.1c-0.1-0.3-0.2-0.5-0.3-0.8c0.4-0.4,1,0.2,1.3-0.4
		c0.2,0.1,0.4,0.2,0.6,0.3c0.1,0.1,0.2,0.1,0.3,0.2c0.2,0.6,0.7,0.4,1.2,0.5c0.1-0.2,0.2-0.4,0.3-0.7c1.1,0,2.2,0.1,3.3,0.1
		c0.1,0,0.2,0,0.4,0c0.2,0,0.5,0.1,0.7,0.2c0.5,0.2,0.5,0.2,0.8-0.1c0.2-0.1,0.4-0.2,0.7-0.2c0.6,0.1,1.2,0.2,1.8,0.4
		c0.4,0.1,0.7,0.1,1-0.1c0.1-0.1,0.3-0.2,0.5-0.3c0.2,0.4,0.5,0.3,0.8,0.2c0.3-0.1,0.6-0.1,0.9,0c0.4,0.2,0.5-0.2,0.6-0.4
		c0.2,0.1,0.2,0.1,0.2-0.2c-0.1,0.1-0.1,0.2-0.2,0.3c-0.2-0.6-0.4-0.8-0.9-0.7c-0.4,0-0.8,0.1-1.2,0.2c-0.3,0-0.5,0.2-0.8-0.1
		c-0.1-0.1-0.5,0-0.7,0c-0.5,0-1,0.1-1.5,0.2c-0.4,0.1-0.7,0.2-1.1,0.4c-0.4-0.6-0.4-0.5-1.2-0.4c-0.5,0.1-1.1,0.2-1.6,0.2
		c-0.7,0-1.4,0-2-0.1c-0.5-0.1-0.9-0.1-1.4,0c-0.4,0.1-0.9,0.1-1.4,0c-0.4-0.1-0.9,0.1-1.3-0.2c-0.1-0.1-0.3,0-0.5,0
		c-0.8,0.1-1.6,0.2-2.3-0.1c-0.3-0.1-0.7,0-1.1,0c-0.1,0.1-0.1,0.2-0.2,0.4c-0.1,0-0.1,0-0.1,0c-0.1-0.4-0.8-0.3-0.8-0.8
		c0.7,0,1.5,0.1,2.2,0.1c0.1-0.2,0.2-0.4,0.3-0.5c0.5,0.1,1,0.1,1.4,0.4c0.2,0.1,0.6,0.2,0.9,0.2c0.1,0,0.3-0.1,0.3-0.2
		c0-0.6,0.4-0.5,0.9-0.7c0,0.2,0,0.4,0,0.6c0,0,0.1,0.1,0.2,0.1c0.4,0.1,0.9,0.1,1.3,0.2c0.4,0.1,0.7,0.1,1-0.2
		c0.1-0.1,0.3-0.1,0.4,0c0.6,0.3,1.1,0.2,1.7-0.1c0.3-0.1,0.8-0.1,1.1,0.1c0.3,0.2,0.6-0.2,0.7,0.2c0.1-0.1,0.2-0.1,0.4-0.2
		c0.6-0.4,1.2-0.3,1.8-0.1c0.4,0.1,0.9,0.3,1.3,0.1c0-0.1,0.1-0.2,0.1-0.3c0-0.8-0.5-1-1.2-0.7c-0.6,0.3-0.6,0.3-1.5,0.2
		c0-0.3-0.3-0.6,0.3-0.7c0.1,0,0.1-0.3,0.2-0.5c-0.7-0.2-1.3-0.2-2,0.1c0.4,0.5,1.3,0,1.3,0.9c-0.8-0.2-1.6,0.1-2.4,0.3
		c-0.2-0.3-0.4-0.6-0.3-1c0-0.1-0.1-0.3-0.1-0.3c-0.4-0.1-0.9-0.2-1.2,0.1c-0.1,0.1-0.2,0.4-0.3,0.6c0.4,0,0.6,0.1,1,0.1
		c-0.9,0.5-1.5,0.5-1.7-0.1c0.1,0,0.2,0,0.2-0.1c0.1-0.1,0.3-0.3,0.3-0.4c0-0.2-0.2-0.2-0.4-0.2c-0.4,0-0.8-0.1-1.1,0.1
		c-0.2,0.1-0.5,0.1-0.7,0.1c0.2,0.3,0.5,0.3,0.7,0.3c0.2,0,0.3,0,0.5,0c0.5,0.1,0.5,0.3,0.2,0.8c-0.3-0.3-0.6-0.3-1-0.2
		c-0.4,0.1-0.9,0.1-1.3-0.3c0.5-0.2,0.9-0.5,0.8-1.1c-0.4,0.4-1,0.1-1.4,0.4c-0.2,0.4,0.2,0.4,0.4,0.6c-0.8,0.8-1.8,0.6-2.8,0.7
		c0.1-0.2,0.2-0.4,0.3-0.5c-0.1,0-0.3-0.1-0.4-0.1c0-0.3-0.1-0.5-0.1-0.8c-0.2,0.1-0.3,0.1-0.4,0.1c0.1,0.2,0.2,0.4,0.3,0.6
		c-0.4,0.3-0.7,0.2-1.1,0.1c0-0.2,0.1-0.4,0.1-0.5c0-0.1-0.2-0.4-0.2-0.3c-0.4,0-0.9,0-1.3,0.3c0.6-0.1,1,0.2,1.4,0.6
		c-0.2,0.2-0.4,0.3-0.6,0.2c-0.3-0.2-0.5-0.2-0.9,0C25.4,64.5,25.1,64.4,24.8,64.5L24.8,64.5z M66.9,120.8c-0.2-0.2-0.4-0.2-0.6,0
		C66.4,121.1,66.4,121.1,66.9,120.8c0.3,0,0.5-0.1,0.6-0.4C67.2,120.4,67,120.5,66.9,120.8z M68.6,95.3c-0.4,0-0.7,0.2-0.8,0.5
		c-0.4,0.1-0.9,0.3-1.4,0.4c0.5,0.3,1,0.1,1.4-0.4c0.2,0.1,0.4,0.2,0.6-0.2C68.4,95.6,68.5,95.4,68.6,95.3c0.1,0,0.3,0.1,0.4,0.1
		c0,0,0.1-0.1,0.1-0.1C69,95.2,68.9,95,68.8,95C68.6,95,68.6,95.2,68.6,95.3z M65.6,120.9c-0.7,0.1-0.7,0.1-0.9,0.8
		C65.1,121.4,65.4,121.1,65.6,120.9c0.1,0.1,0.2,0.2,0.4,0.3C66,120.8,65.8,120.8,65.6,120.9z M66.9,90.3c0.1,0,0.3,0.1,0.4,0.1
		c0.1-0.2,0.2-0.3,0.3-0.5c-0.1-0.1-0.2-0.2-0.4-0.4C67.1,89.9,66.7,89.9,66.9,90.3c-0.1,0-0.2,0-0.3,0c0,0.1,0.1,0.1,0.1,0.2
		C66.7,90.5,66.8,90.4,66.9,90.3z M46.4,11.7c0-0.1,0-0.3,0-0.5c-0.3,0.1-0.7,0.1-0.6,0.4C45.9,12,46.2,11.8,46.4,11.7
		c0.4,0.4,0.9,0.4,1.2,0C47,11.3,47,11.3,46.4,11.7z M21.9,59.1c-0.5-0.3-1-0.2-1.6-0.1C21,59.5,21.3,59.5,21.9,59.1
		c0.6,0.4,0.6,0.4,1.1,0C22.6,58.9,22.3,58.7,21.9,59.1z M60.9,109.8c-0.7-0.2-1.4-0.1-2.1,0c0.1,0.4,0.2,0.5,0.5,0.4
		C59.8,110.1,60.4,110,60.9,109.8c0.6,0.2,1.1,0,1.6-0.4C62,109.2,61.3,109.4,60.9,109.8z M66.7,94.1c0.7,0,1.3-0.1,2-0.4
		c-0.2-0.2-0.3-0.4-0.5-0.6C67.7,93.5,67.2,93.8,66.7,94.1c-0.5-0.1-0.8,0.1-1.3,0.3C65.9,94.8,66.3,94.7,66.7,94.1z M61.9,49.8
		c0.1,0.2,0.1,0.3,0.2,0.6c0.1-0.3,0.3-0.2,0.5-0.1c0.2,0.1,0.4,0,0.6-0.1c0.1-0.1,0.1-0.3,0.3-0.6C62.8,49.7,62.4,49.8,61.9,49.8
		c-0.6,0-1.2-0.1-1.8-0.1c-0.7,0-0.8,0.3-0.5,0.9c0.4,0,0.8-0.1,1.1-0.3C61.2,50.2,61.6,50,61.9,49.8z M60.7,42.2L60.7,42.2
		c-0.2,0-0.4,0-0.6,0c0.3,0.7,0.4,0.8,1.4,0.7c0-0.1,0.1-0.3,0.1-0.4c0,0,0.1,0,0.1,0c0,0.3,0.1,0.6,0.1,0.8c-0.3,0-0.5,0-0.4,0.4
		c-0.2,0-0.5,0-0.7-0.1c-0.3-0.1-0.8-0.2-0.8-0.4c-0.1-0.5-0.4-0.5-0.8-0.6c-0.3-0.1-0.6-0.3-0.9-0.5c0.1-0.3,0.3-0.3,0.5-0.3
		c0.5,0,1-0.1,1.5-0.1c0.1,0,0.3-0.1,0.4-0.2c0.7,0.4,2,0.3,2.8-0.3c-0.9-0.1-1.8-0.2-2.6-0.1c-0.1,0-0.1,0.2-0.2,0.4
		c-0.3-0.1-0.6-0.3-1-0.3c-0.2,0-0.4-0.1-0.3-0.5c0.3,0,0.6-0.1,1-0.1c0.8,0,1.7,0,2.5-0.3c-0.1-0.3-0.4-0.4-0.6-0.4
		c-0.7,0-1.4,0-2.2,0c-0.3,0-0.6,0.3-0.7,0.2c-0.4-0.3-0.5,0.2-0.8,0.2c-0.3,0-0.5,0.1-0.6-0.3l0,0c0.2-0.2,0.3-0.5,0.5-0.5
		c0.5-0.1,1-0.4,1.6-0.3c0.4,0.1,0.9,0,1.3,0c0.1,0,0.3-0.1,0.4-0.1c-0.2-0.4-0.5-0.4-0.9-0.4c-1.1,0-2.1,0-3.2,0
		c-0.2,0-0.5,0.1-0.5-0.3c0.6,0,1.3-0.1,1.9-0.1c0.6-0.1,1.2,0,1.9-0.3c-0.2-0.4-0.5-0.5-0.9-0.5c-0.3,0-0.6,0-0.9,0
		c-0.3,0-0.6,0-1.1-0.2c0.7-0.3,1.3-0.1,1.8-0.4c-0.1-0.4-0.3-0.5-0.6-0.5c-0.2,0-0.5,0-0.7,0c-0.5,0-1,0-1.6,0
		c0.2-0.2,0.2-0.3,0.3-0.4c0.3,0.1,0.6,0.1,0.9,0.1c0.2,0,0.4-0.1,0.5-0.2c0.1-0.2-0.1-0.4-0.3-0.5c-0.1-0.1-0.3-0.1-0.4-0.1
		c-0.2,0-0.4,0-0.6-0.1c0,0-0.1-0.1-0.2-0.1c0.2-0.1,0.3-0.1,0.5-0.2c-0.1-0.4-0.4-0.6-0.8-0.6c-0.3,0-0.5,0-0.8,0
		c-0.4,0-0.8-0.2-1,0.3c0,0-0.2,0-0.4,0c0-0.1,0-0.3,0.1-0.3c0.2-0.1,0.5-0.2,0.7-0.2c0.3-0.1,0.6-0.1,0.9-0.1
		c-0.3-0.6-0.5-0.7-0.9-0.7c-0.3,0.1-0.6,0-1-0.2c0.3-0.1,0.5-0.1,0.7-0.2c0.3-0.1,0.3-0.4,0.1-0.5c-0.2-0.1-0.4-0.1-0.6-0.2
		c-0.2,0-0.4-0.1-0.5-0.1c0-0.8-0.1-0.9-0.8-0.8c-0.3,0-0.5,0.1-0.8,0.1c-0.6,0-1.1-0.1-1.8-0.3c0.8-0.4,1.5,0,2.2-0.4
		c-0.1-0.4-0.3-0.6-0.8-0.5c-0.3,0.1-0.6,0.1-0.9,0c-0.3,0-0.5-0.1-0.5-0.5c0.4,0,0.7,0,1.1-0.1c0-0.1,0.1-0.4,0-0.5
		c-0.3-0.2-0.6-0.3-0.9-0.5c0-0.7-0.5-0.8-1.1-0.9c-0.1-0.7-0.2-0.8-1-1l0,0c-0.1-0.7-0.2-0.8-0.9-0.8c-0.2,0-0.5,0-0.7,0
		c-0.5,0.1-0.8,0-1.2-0.2c0-0.3,0-0.6,0-0.8l0,0c0.1,0.2,0.2,0.4,0.3,0.6c0.5-0.1,1-0.1,1.5-0.1c0-0.4-0.2-0.5-0.5-0.5
		c-0.3,0-0.6,0-0.9,0c-0.1,0-0.2-0.1-0.2-0.2c0-0.1,0.1-0.2,0.1-0.3c0.2-0.1,0.4-0.1,0.8-0.2c-0.3-0.2-0.4-0.4-0.6-0.4
		c-0.5-0.1-1-0.1-1.5-0.1c-0.6,0-1.2,0.2-1.7,0c-0.2-0.1-0.4,0-0.5,0c-0.1,0-0.2,0.2-0.3,0.3c0.1,0.1,0.2,0.3,0.3,0.3
		c0.3,0.1,0.6,0.1,0.8,0c0.7-0.1,1.3,0,2,0.1c0.1,0.3,0,0.4-0.3,0.4c-0.2,0-0.4-0.1-0.7-0.1c-0.5,0-0.6,0.2-0.3,0.7
		c0.3,0,0.7-0.2,1.1,0.2c-1,0.3-1.9,0.4-2.9,0c0.5-0.4,1,0,1.4-0.3c0-0.6,0-0.6-0.5-0.7c-0.3,0-0.7,0-1,0c-0.3,0-0.4,0.2-0.3,0.6
		c0,0.1,0.1,0.2,0.1,0.3c0,0.1-0.1,0.1-0.1,0.1c-0.4,0.2-0.6,0.5-0.4,0.8c0.1,0.4,0.4,0.3,0.7,0.2c0.2,0,0.4-0.1,0.6,0.2
		c-0.4,0-0.7,0-0.9,0.1c-0.2,0-0.5,0.1-0.5,0.2c-0.1,0.4-0.4,0.7-0.6,1c-0.1,0.2,0,0.4,0,0.5c-0.1,0.4-0.2,0.6-0.3,0.9
		c0,0.1,0,0.3-0.1,0.3c-0.3,0.2-0.2,0.5-0.2,0.7c0,0.1,0,0.3,0,0.3c-0.4,0.4-0.2,0.8-0.2,1.2c-0.2,0.1-0.4,0.1-0.6,0.2
		c0,0.3,0.1,0.6,0.1,1c-0.5,0.3-0.4,0.8-0.4,1.3c-1-0.1-0.6,0.7-0.7,1.1c-0.3,0.2-0.7,0.1-0.7,0.5c0,0.3,0,0.6,0,0.9
		c-0.2,0-0.4,0.1-0.6,0.1c0,0.1-0.1,0.2-0.1,0.3c0,0.2-0.4,0.9-0.5,1.1C37.1,38.7,37,38.8,37,39c0,0.1,0,0.3,0.1,0.5
		c-0.3,0.1-0.7,0.1-0.9,0.3c-0.2,0.2-0.1,0.6-0.2,1c-0.5,0-0.6,0.4-0.6,0.9c0,0.3-0.2,0.3-0.4,0.4c-0.2,0.1-0.5,0.2-0.5,0.3
		c-0.1,0.4-0.4,0.6-0.6,0.9c-0.3,0.4-0.5,0.6-1,0.3c0.1,0.5,0.3,0.4,0.6,0.4c1.6,0,3.2,0,4.8,0c0.2,0,0.3,0,0.5,0
		c0.9,0,1.7,0.1,2.6,0.1c0.3,0,0.5-0.1,0.8-0.1c-0.1-0.5,0.2-0.7,0.6-0.8c-0.2-0.5,0-0.8,0.4-1.1c-0.2-0.5-0.1-0.5,0-1
		c0.1-0.2,0.1-0.4,0.1-0.6c0-0.3,0.1-0.5,0.4-0.5c0.4,0,0.5-0.3,0.5-0.6c0-0.2,0-0.5,0.1-0.5c0.4-0.2,0.3-0.5,0.2-0.8
		c0-0.2,0-0.3,0-0.4c0.2-0.2,0.4-0.4,0.4-0.6c0-0.2-0.1-0.5-0.2-0.7c0.7-0.4,0.6-0.7-0.1-1.2c0.2-0.1,0.4-0.1,0.5-0.2
		c0.1-0.1,0.3-0.1,0.3-0.2c0-0.1-0.1-0.3-0.2-0.4c-0.2-0.1-0.5-0.1-0.8-0.1c-0.2,0-0.5,0-0.8,0.1c0.1-0.2,0.1-0.3,0.2-0.4
		c0.4,0.2,0.8-0.3,1.2,0c0.3,0.2,0.6-0.2,0.5-0.6c-0.1-0.2-0.1-0.3-0.2-0.5c0.7-0.3,0.8-0.4,0.3-1c-0.3-0.1-0.7,0.3-1-0.2
		c0.4-0.1,0.7-0.2,1.1-0.3C45.3,31,45.3,31,44.8,31c-0.4,0-0.9,0-1.4-0.1c0.2-0.4,0.5-0.3,0.7-0.3c0.4,0,0.9,0.2,1.2-0.4
		c-0.1-0.2-0.2-0.4-0.3-0.6c0.5-0.4,0.5-0.5,0.1-1c-0.7,0.2-1.1,0.2-1.6,0l0,0c0.3-0.3,0.7-0.2,1.1-0.3c0.4,0,0.8,0,1.2-0.3
		c-1.1-0.6-2.3,0-3.4-0.4c0.2-0.1,0.2-0.2,0.3-0.2c0.4-0.1,0.8,0,1.2,0c0.6,0.1,1.2,0,1.8-0.3c-0.1-0.3-0.2-0.5-0.4-0.8
		c0.5,0,1,0.1,1.4,0.1c0,0,0,0.1,0,0.1c-0.1,0-0.1,0.1-0.2,0.1c-0.2,0-0.4,0-0.4,0.3c0,0.3,0.2,0.4,0.5,0.4c0.3,0,0.6,0,0.9,0
		c0.2,0,0.2,0,0.2,0.3c-0.3,0.1-0.7,0.1-0.9,0.5c0.6,0.2,1.2,0.7,1.8,0.1c0.1,0.1,0.3,0.3,0.4,0.4c-0.4,0.3-0.9,0.3-1.3,0.2
		c-0.1,0-0.2,0.1-0.3,0.2c0.1,0.1,0.2,0.3,0.2,0.3c0.3,0,0.6,0,0.9,0c0.3,0,0.6,0,0.8,0c0,0.3-0.1,0.5-0.3,0.5
		c-0.2,0-0.4-0.1-0.5-0.1c-0.3,0-0.5,0.2-0.4,0.6c0.4,0.1,0.6,0.4,0.7,0.8c0,0.1,0.1,0.4,0.2,0.4c0.4,0.2,0.5,0.6,0.6,1
		c0.5,0.1,0.9,0.3,1.4,0.4c-0.2,0.2-0.3,0.3-0.5,0.5c0.2,0.2,0.4,0.3,0.6,0.4c0.2,0.1,0.4,0,0.6,0c0.4,0.4-0.1,0.5-0.3,0.8
		c0.1,0.1,0.2,0.3,0.4,0.3c0.5,0.1,0.7,0.4,0.8,0.9c0,0.1,0.1,0.3,0.2,0.3c0.4,0.2,0.6,0.5,0.7,1c0.8-0.1,0.8,0.7,1.2,1.1
		c0.6,0,1.3,0.1,1.9,0.1c-0.2,0.2-0.3,0.3-0.5,0.5c-0.1,0-0.3-0.1-0.5-0.1c-0.1,0.5-0.1,0.5,0.6,0.7c0.1,0.4,0.2,0.8,0.4,1.3
		c0.3,0,0.8,0,1.2,0c0.4,0,0.8-0.1,1.2,0.2c-1,0.4-1.3,1.4-0.7,2.3c0.2,0,0.5,0,0.7-0.1c0.1,0.3-0.4,0.6-0.1,1c0.1,0,0.2,0,0.3,0
		c0.6,0.1,1.3-0.2,1.9-0.1c0.2,0.1,0.3-0.1,0.3-0.3c0.2,0.2,0.4,0.3,0.6,0c-0.1-0.1-0.1-0.3-0.2-0.4c0-0.1,0.1-0.1,0.1-0.2
		c0.5-0.7,0.5-0.7,1.3-0.4c0.2,0.1,0.5,0.1,0.7,0c-0.1-0.2-0.2-0.3-0.4-0.5C62.7,42.2,61.7,42.2,60.7,42.2z M58.6,108
		c1.1,0.7,2.2,0.1,3.3-0.3c0.1,0,0.1-0.2,0.2-0.3c-0.1,0-0.3-0.1-0.4-0.1c0,0,0,0-0.1,0c-0.7,0.2-1.5,0.4-2.3,0.4
		C59.1,107.7,58.7,107.7,58.6,108c-0.2,0-0.3-0.1-0.6-0.2c0.1,0.3,0.2,0.4,0.3,0.7C58.4,108.3,58.5,108.2,58.6,108z M55.8,94.4
		c0.1,0.1,0.1,0.2,0.2,0.2c0.6,0,1.1,0,1.7-0.3c-0.2-0.2-0.4-0.4-0.6-0.4c-0.5,0-1-0.1-1.5,0.2c-0.8-0.4-1.7,0.1-2.6,0
		c0.1,0.3,0.1,0.5,0.2,0.6c0.4,0.1,0.8,0.3,1.1,0.3c0.2-0.2,0.4-0.4,0.6-0.6c0.3,0.2,0.5,0.3,0.7,0.4C55.7,94.8,55.8,94.6,55.8,94.4
		z M50.1,43.5c0,0.2-0.1,0.4-0.1,0.6c0.6,0,1.1,0,1.6,0c0.2,0,0.4,0,0.4-0.3c0-0.2-0.2-0.3-0.4-0.3c-0.2,0-0.4,0-0.6,0
		c0,0,0-0.1,0-0.1c0.2-0.1,0.3-0.2,0.4-0.3c-0.2-0.7-0.6-0.8-1.3-0.3C50.1,43.1,50.1,43.3,50.1,43.5L50.1,43.5z M57.3,96.1
		c0.2,0.2,0.2,0.7,0.7,0.6c0.2-0.3,0-0.6-0.2-0.7C57.7,95.9,57.4,95.7,57.3,96.1c-0.8,0-1.5,0-2.3,0c-0.5,0-0.8,0.1-1.1,0.7
		c0.5-0.1,0.9-0.1,1,0.5c0.1,0,0.1,0,0.2,0c0.1-0.2,0.2-0.4,0.3-0.6c0,0.1,0.1,0.1,0.1,0.2c0.6,0,1.1-0.1,1.8-0.1
		C57.3,96.5,57.3,96.3,57.3,96.1z M12.3,122.5c0-0.2,0.1-0.4,0-0.5c-0.3-0.4-0.6-0.8-1-1.3c-0.6,0.9-0.4,1.7,0.6,2.5
		C12.1,123,12.2,122.8,12.3,122.5c0.1,0.4,0.3,0.7,0.3,1.1c0,0.4,0.2,0.6,0.5,0.8c0.7,0.4,1.4,0.8,2,1.2c0.1,0.1,0.3,0.1,0.5,0.2
		c0.2-0.6,0.3-1.1,0.4-1.6c-0.4-0.2-0.9-0.2-1.3-0.5c-0.7-0.5-1.4-0.8-2.2-1.2C12.6,122.4,12.4,122.5,12.3,122.5z M30.3,89.9
		c-0.6,0.1-1.1,0.1-1.7,0.2c-0.1,0-0.2,0-0.3,0c-0.3,0.1-0.5,0.7-0.4,1.1c0.1,0.4,0.4,0.4,0.7,0.4c0.5,0.1,0.9,0.1,1.4,0.1
		c0.3,0,0.6-0.1,1-0.1c0.1,0,0.2-0.1,0.4,0c0.2,0,0.4,0.1,0.6,0.1c0.5-0.5,0.5-0.7,0.3-1.2c-0.2-0.4-0.6-0.4-0.9-0.4
		s-0.7,0.1-1.1,0.1C30.3,90.1,30.3,90,30.3,89.9c0.3-0.1,0.5-0.1,0.8-0.1c0.6,0,1.1,0,1.7,0c0-0.5,0-1,0-1.4
		c-0.4-0.1-0.7-0.1-1.1-0.1c-0.7-0.2-1.4-0.1-2.1-0.1c-0.4,0-0.7,0.6-0.7,1c0,0.4,0.2,0.5,0.7,0.6C30,89.8,30.2,89.7,30.3,89.9z
		 M36.3,118.6c-0.2,0-0.3,0-0.5,0c-1,0-1.2,0.3-0.9,1.4c0,0.1,0.1,0.2,0.2,0.3c0.8,0.1,1.6,0.2,2.5,0.2c1.2,0.1,2.3-0.2,3.5-0.1
		c0.2,0,0.3-0.2,0.5-0.3c0.2,0.2,0.4,0.3,0.7,0.1c0.3-0.2,0.3-0.5,0.2-0.9c0-0.3-0.1-0.5-0.5-0.5c-0.7,0-1.5,0-2.2,0
		c-0.1,0-0.2,0.2-0.3,0.2c-0.2-0.1-0.4-0.2-0.5-0.3c-0.7-0.1-1.3-0.1-2-0.1C36.7,118.7,36.5,118.6,36.3,118.6
		c0.1-0.1,0.2-0.2,0.3-0.2c1.1,0,2.1-0.1,3.1,0c0.3,0,0.2-0.2,0.4-0.2c0.1,0.1,0.2,0.2,0.3,0.2c0.6,0,1.2,0,1.8,0
		c0.1,0,0.3-0.2,0.3-0.3c0.1-0.2,0.1-0.4,0-0.6c0-0.4-0.2-0.5-0.6-0.6c-1.2,0-2.5,0-3.7-0.1c-0.8,0-1.6-0.1-2.5-0.1
		c-0.5,0-0.6,0.1-0.7,0.6c-0.1,0.5,0.1,0.8,0.5,1C35.9,118.4,36.1,118.5,36.3,118.6z M25.3,105.3c-0.1,0.1-0.3,0.1-0.4,0.2
		c-0.4,0.2-0.6,0.6-0.6,1c0,0.5,0.4,0.5,0.7,0.6c0.3,0.1,0.7,0.1,1,0.1c0.1,0,0.3,0,0.4,0.1c0.5,0.3,1,0.2,1.5,0.2c0.7,0,1-0.3,1-1
		c0-0.1,0-0.3,0-0.4c-0.2-0.2-0.6-0.1-0.6-0.5c1.2-0.1,1.2-0.1,1.2-1.4c0,0,0,0,0-0.1c-0.6-0.1-1.2-0.2-1.8-0.3
		c-0.6-0.1-1.2-0.1-1.8-0.2c0,0,0-0.1,0-0.1c0.2-0.1,0.4-0.2,0.5-0.3c0.3,0.1,0.5,0.2,0.7,0.2c0.6-0.1,1.2,0.4,1.7-0.1
		c0.3,0.3,0.7,0,1,0.2c0-0.4,0-0.7,0-1c-0.2,0-0.4,0-0.6,0c-0.3-0.1-0.6-0.1-0.8-0.3c-0.3-0.4-0.5-0.2-0.8-0.1c0,0,0,0,0,0
		c-0.3-0.1-0.5-0.3-0.8-0.4c-0.1,0.1-0.2,0.2-0.2,0.3c-0.3-0.2-1.5-0.6-1.8-0.4c-0.2,0.1-0.4,0.3-0.5,0.5c-0.2,0.5,0.1,0.9,0.6,1.1
		c0.1,0.1,0.3,0.1,0.5,0.2c-0.2,0.1-0.3,0.1-0.3,0.1c-0.5,0.1-0.7,0.3-0.7,0.7c0,0.4,0.1,0.6,0.6,0.8
		C25.1,105.1,25.2,105.2,25.3,105.3z M31.6,33.4c-1.2,0-1.2,0.2-1.1,0.9c0,0,0,0.1-0.1,0.1c-0.8,0.4-0.8,0.4-0.6,1.4
		c-0.2,0-0.4,0.1-0.6,0.1C28.8,36.2,29,36.6,29,37c-1,0.2-1,0.2-0.8,1.3c-0.9,0.2-1.1,0.6-0.8,1.3c-0.1,0.4-0.2,0.7-0.1,0.9
		c0.1,0.3,0.1,0.6-0.1,0.9c-0.1,0.1-0.1,0.2-0.1,0.3c0.1,0.6-0.2,1-0.5,1.3c0.1,0.3,0.2,0.5,0.3,0.8c0.1,0,0.2,0,0.3-0.1
		c0.2-0.4,0.6-0.6,1.1-0.5c0.2,0,0.4-0.1,0.4-0.4c0-0.5,0.2-0.7,0.7-0.7c0.3,0,0.5-0.2,0.5-0.6c0-0.3,0.1-0.5,0.3-0.6
		c0.3-0.1,0.4-0.3,0.4-0.6c0-0.6,0-0.6,0.6-0.7c0.3-0.1,0.5-0.2,0.4-0.5c0-0.3,0-0.5-0.3-0.7c0.2-0.2,0.2-0.5,0.1-0.7
		c-0.1-0.2-0.1-0.4-0.1-0.5c0.1-0.7,0.3-1.5,0.2-2.2C31.5,34.4,31.5,33.9,31.6,33.4c0.3-0.4,0.3-0.6,0-1
		C31.3,32.7,31.5,33,31.6,33.4z M29.1,95.7c-0.7,0.1-1.4,0.2-2.2,0.4c0-0.1,0-0.3,0-0.4c-0.8-0.1-1.5-0.1-2.3-0.2
		c-0.2,0.4-0.5,0.7-0.3,1.2c0.2,0.6,0.8,0.4,1.2,0.5c-0.2,0.7-0.8,0.9-1.4,0.9c0.3,0.2,0.6,0.4,0.8,0.6c0.2,0.2,0.4,0.6,0.6,0.9
		c-0.1,0-0.2,0.1-0.2,0.1c-0.1,0-0.2,0-0.2,0c-0.5-0.2-0.7,0-0.7,0.5c0,0.7,0.1,0.8,0.8,0.9c0,0,0.1,0,0.1,0
		c0.7,0.5,1.5,0.2,2.2,0.4c0.1-0.2,0.2-0.4,0.3-0.5c0.7,1,1.6,0.5,2.5,0.6c0-0.6,0.1-1,0.1-1.6c-0.2,0-0.3,0-0.5,0
		c-0.6,0-1.3,0.2-1.9,0.1c-0.5-0.1-1-0.4-1.5-0.6l0,0c0.2,0,0.4,0,0.5,0c0.1,0,0.2-0.1,0.4-0.1c0.1-0.1,0.3-0.2,0.4-0.2
		c0.2,0,0.4,0.1,0.5,0.2c0.3,0.3,0.7,0.4,1,0.4c1,0.2,1.2,0.1,1.3-0.9c0-0.3,0-0.8,0.1-1c0.4-0.5,0.3-1.1,0.2-1.7
		c-0.6-0.1-1.2-0.1-1.7-0.2C29.2,95.9,29.2,95.8,29.1,95.7c0.8-0.3,1.7,0.1,2.6-0.1c0.2-0.5,0.4-0.9,0.1-1.5c-0.5,0-1-0.1-1.5-0.1
		c-0.3,0-0.7-0.4-1,0.1C29,93.8,28.6,94,28.3,94c-0.1,0-0.2-0.2-0.3-0.4c0.8,0,1.4,0,2,0c0.5,0,1.1,0.1,1.6,0.2
		c0.3,0,0.5-0.1,0.7-0.1c0-0.5,0-0.9,0-1.4c-0.4-0.1-0.8-0.1-1.1-0.1C30.6,92.1,30,92,29.4,92c-0.4,0-0.8-0.1-1.3,0
		c-0.6,0.1-0.8,0.3-0.7,0.9c0,0.3,0.1,0.5,0.2,0.9c-0.4,0-0.8,0.1-1.2,0.1c-0.4,0.1-0.6,0-0.6-0.4c-0.3,0.1-0.6,0.2-0.8,0.1
		c-0.3-0.1-0.4,0.1-0.6,0.3c-0.2,0.2-0.1,0.4,0,0.6c0.2,0.4,0.5,0.6,1,0.8c0-0.2,0.1-0.3,0.1-0.6c0.4,0.7,1,0.8,1.6,0.8
		c0.5,0,0.9,0,1.4,0.1C28.6,95.6,29,95.4,29.1,95.7z M16.5,104.9c-0.8,0.6-0.8,0.9-0.2,1.9c-0.7,0.5-0.7,1.1-0.4,1.8
		c-0.4,0.2-0.8,0.5-0.7,0.9c0,0.4,0.2,0.7,0.4,1.1c-0.1,0.1-0.3,0.2-0.4,0.3c-0.3,0.2-0.4,0.9-0.2,1.2c0.2,0.3,0.4,0.5,0.7,0.3
		c0.1,0.2,0.1,0.4-0.1,0.5c-0.1,0-0.3,0-0.4,0.1c-0.3,0.1-0.5,0.2-0.5,0.5c-0.1,0.3-0.1,0.6,0.2,0.9c0.3,0.2,0.6,0.4,0.9,0.6
		c0.3,0.2,0.5,0.3,0.8,0.5c-0.2,0.1-0.4,0.2-0.4,0.1c-0.3-0.6-0.9-0.5-1.3-0.7c-0.6,0.8-0.6,1.4,0.2,1.9c0.2,0.2,0.5,0.3,0.7,0.5
		c-0.4,0.3-0.7-0.1-1-0.1c-0.1,0.1-0.2,0.2-0.3,0.4c-0.2,0.4-0.2,0.5,0.1,0.9c0.2,0.3,0.4,0.5,0.6,0.8l0,0c-0.9,0.1-1.2,0.5-1,1.2
		c0.1,0.4,0.5,0.6,0.9,0.8c0.1-0.1,0.2-0.2,0.4-0.3c0.3,0.8,0.9,1,1.5,1.2c0.1-0.5,0.2-0.9,0.4-1.3c0.1-0.3,0.1-0.5,0.1-0.8
		c-0.1-0.4-0.1-0.8,0.1-1.2c0.1-0.1,0.1-0.3,0.2-0.5c-0.3-0.1-0.6-0.2-1-0.3c0.3,0,0.5,0,0.6-0.1c0.1-0.5,0.2-0.9,0.4-1.3
		c0.1-0.2,0.1-0.5,0-0.7c-0.2-0.4-0.2-0.8,0.1-1.2c0.1-0.2,0.2-0.4,0.2-0.6c-0.2-0.1-0.4-0.1-0.5-0.2c0,0,0-0.2-0.1-0.2
		c0.2,0,0.3-0.1,0.4-0.1c0.1-0.4,0.3-0.8,0.4-1.1c0.1-0.4,0-0.4-0.4-0.6c-0.1,0-0.1,0-0.1,0c0-0.4,0-0.7,0.1-1
		c0.1-0.3,0.2-0.7,0.3-1c-0.3-0.3-0.7,0.1-0.9-0.5c0.2,0,0.5-0.1,0.7-0.1c0.1-0.3,0.2-0.5,0.3-0.8c0.1-0.3,0.1-0.5-0.1-0.7
		c-0.2-0.3-0.5-0.5-0.8-0.5c-0.2,0-0.3-0.1-0.3-0.3c0.4,0.1,0.8,0.2,1.2,0.3c0.1-0.5,0.3-0.9,0.4-1.3c-0.2-0.2-0.5-0.4-0.7-0.5
		c0.2-0.1,0.4-0.2,0.4-0.3c0.1-0.3,0.2-0.7,0.3-1c0-0.1,0-0.2,0-0.3c-0.4-0.3-0.2-0.6-0.1-0.9c0-0.4,0.2-0.7,0.3-1.1
		c-0.3-0.4-0.4-0.7-0.2-1.2c0.2-0.3,0.2-0.8,0.1-1.2c-0.1-0.5-0.1-0.8,0.2-1.2c0.2-0.3,0.2-0.5,0.1-0.8c-0.2-0.4,0-0.7,0.2-1
		c0.1-0.1,0.2-0.3,0.2-0.4c-0.3-0.1-0.7-0.3-1-0.4c0.6-0.6,0.9-1.2,0.8-1.9c-0.1-0.6,0-1.1,0.4-1.5c0,0,0-0.1,0-0.2
		c-0.2,0-0.3-0.1-0.5-0.1c0.4-0.6,0.6-1.4,0.5-2.2c0-0.2,0-0.3,0-0.5c0.2-0.5,0.5-1,0.1-1.5c-0.1-0.1,0-0.3,0-0.4
		c0.1-0.3,0.2-0.7,0.3-1c-0.3-0.2-0.7-0.3-1,0c-0.5,0.5-0.1,1,0.1,1.4c-0.3,0.3-0.6,0.6-0.7,0.9c-0.1,0.3,0.2,0.7,0.3,1
		c-0.2,0.3-0.5,0.6-0.6,0.9c0,0.3,0.2,0.7,0.3,1.1c-0.2,0.2-0.4,0.4-0.6,0.6c0-0.2,0-0.3,0-0.6c-0.3,0.3-0.1,0.4,0,0.6
		c0,0.3-0.1,0.6,0.3,0.8c0.1-0.1,0.1-0.2,0.2-0.3c0.1,0.3,0.1,0.5,0.2,0.7c-0.4,0.1-1,0.1-1,0.6c-0.1,0.4,0.1,0.8,0.2,1.3
		c-0.2,0.2-0.6,0.3-0.6,0.7c0,0.4,0.2,0.7,0.3,1.1c-0.8,0.8-0.8,1.2,0.1,1.8c-1,0.2-1.3,0.6-0.5,2.1c-0.4,0.1-0.8,0.1-0.8,0.6
		c0,0.2,0,0.5,0.1,0.6c0.1,0.2,0.4,0.3,0.6,0.4c0.4,0.2,0.5,0.2,0.6,0.8c-0.2-0.1-0.5-0.2-0.7-0.3c-0.5-0.3-0.9-0.1-1,0.5
		C15.9,104.3,16.2,104.6,16.5,104.9L16.5,104.9z M39.8,121.9c0.1,0.2,0.2,0.4,0.2,0.5c0.1-0.2,0.1-0.3,0.2-0.5
		c0.1,0.3,0.1,0.5,0.2,0.7c0.4,0,0.8,0.1,1.2,0.1c0.1,0,0.4-0.2,0.4-0.3c0-0.5,0.2-1-0.1-1.6c-0.6,0.2-1.4-0.2-2,0.4
		c-0.3-0.2-0.7,0.2-0.9-0.2c-0.1-0.1-0.4-0.1-0.6-0.1c-0.6,0-1.2,0-1.8,0c-0.6,0-1.2,0-1.8,0c0,0.4,0,0.8,0,1.2
		c0,0.5,0.1,0.6,0.6,0.5c0.7-0.1,1.4,0,2.1,0.1c0.3,0.1,0.6,0,0.9,0c0.6-0.1,0.5-0.1,0.7-0.7c0-0.1,0.1-0.1,0.2-0.3
		c0.1,0.2,0.2,0.3,0.3,0.4C39.7,122.1,39.7,122,39.8,121.9z M42.8,114.8c-0.4,0.1-0.7,0.1-1,0.1c-0.4,0-0.8,0.2-1.1,0.1
		c-0.3-0.1-0.6-0.1-1-0.1c-0.4,0-0.9,0.1-1.3,0c-0.6-0.1-1.1-0.1-1.7-0.1c-0.4,0-0.6,0.2-0.7,0.4c-0.3,0.3-0.1,0.6,0,1
		c0.1,0.3,0.3,0.3,0.6,0.3c0.5,0,1,0.1,1.5,0c0.5-0.1,1.1,0.3,1.6-0.2c0.1,0.3,0.5,0,0.5,0.1c0.2,0.4,0.4-0.3,0.6,0
		c0.1,0.1,0.2,0,0.3,0c0.6,0,1.2,0.3,1.9-0.1C42.9,115.8,42.8,115.3,42.8,114.8z M20.3,126.4c0.1,0.2,0.2,0.4,0.2,0.6
		c0,0.4,0.3,0.6,0.6,0.6c0.5,0.1,1,0.2,1.6,0.2c0.1,0,0.2,0,0.3-0.1c0.3-0.1,0.4-0.1,0.6,0.1c0.1,0.1,0.2,0.1,0.3,0.2
		c0.2-0.2,0.3-0.4,0.5-0.6c0.8,0.5,1.8,0.8,2.8,0.8c0.1-0.5,0.4-1,0.2-1.6c-0.8,0-1.7-0.2-2.5,0.2c-0.1,0-0.3-0.1-0.3-0.1
		c-0.1-0.5-0.5-0.4-0.8-0.4c-0.4,0-0.9,0.3-1.3,0c0,0-0.2,0.1-0.3,0.1c-0.1,0-0.2,0-0.4-0.1c0-0.1,0.1-0.2,0.1-0.3
		C21.4,125.9,20.8,125.9,20.3,126.4z M43.9,112.1c0.3-0.2,0.5-0.3,0.6-0.4c0-0.7-0.1-0.8-0.5-0.8c-1.1,0-2.2-0.1-3.3-0.1
		c-0.7,0-1.5,0-2.2,0c-0.3,0-0.7,0-1,0.2c-0.2,0.1-0.4,0.3-0.4,0.5c0,0.2,0.2,0.6,0.3,0.7c0.3,0.2,0.6,0.2,0.9,0.2
		c0.4,0,0.8,0,1.3,0c0.5,0,1,0,1.5,0c0.2,0,0.4,0,0.7,0c0.2,0,0.4,0.1,0.5-0.2c0.1-0.4,0.3,0.1,0.5-0.1
		C43.1,111.8,43.6,111.9,43.9,112.1z M36.4,123.9c0.7,0.3,1.4,0.8,2.2,0.7c0-0.2,0.1-0.4,0.1-0.8c0.3,0.2,0.7,0.2,0.9,0.4
		c0.6,0.5,1.3,0.3,2,0.3c0-0.4,0-0.7,0-1.1c0-0.3-0.2-0.5-0.5-0.5c-0.5,0.1-1.1,0-1.6,0.3c-0.1,0.1-0.4,0.1-0.5,0
		c-0.3-0.5-0.7-0.3-1.1-0.3c-0.4,0.1-0.8,0.1-1.3,0.1c-0.1,0-0.2,0-0.2-0.1c-0.6-0.6-1.1,0.3-1.7,0c0,0.2,0,0.3-0.1,0.6
		c-0.1-0.2-0.2-0.4-0.3-0.6c0,0.4-0.1,0.7-0.1,0.9c0.2,0,0.4,0,0.5,0c0.1,0,0.3,0,0.4,0c0.4,0.7,0.5,0.7,1.2,0.5
		C36.3,124.4,36.3,124.2,36.4,123.9z M39.9,106.5c0.3,0,0.6,0.1,0.7-0.2c0,0,0.1,0,0.2,0c0.1,0,0.3,0.1,0.4,0c0.5-0.3,1-0.2,1.5,0.1
		c0.5,0.3,1.3,0.1,1.5-0.4c0.4,0.1,0.9-0.3,1.2,0c0.3-0.5,0.1-0.9-0.2-1.2c-0.8,0-0.8,0-1,0.3c-0.2,0-0.2-0.4-0.5-0.1
		c-0.2-0.2-0.5,0-0.7-0.1c-0.2,0-0.4-0.1-0.6-0.1c-0.4,0-0.8,0.1-1.2,0.1c-0.5,0-1-0.1-1.4-0.1c-0.9,0-1.1,0.5-0.8,1.3
		c0.1,0.2,0.3,0.3,0.5,0.5c0.1-0.2,0.1-0.4,0.2-0.6C39.8,106.2,39.8,106.3,39.9,106.5z M44,110.1c0.1-0.1,0.3-0.2,0.4-0.3
		c0.3-0.2,0.2-0.4,0.2-0.7c-0.1-0.2-0.2-0.3-0.5-0.2c-0.6,0-1.2,0-1.7,0c-0.3,0-0.6-0.1-0.9-0.1c-0.4,0-0.9,0-1.3,0.1
		c-0.8,0-1.5,0.2-2.3,0.5c0.2,0.5,0.6,0.3,0.9,0.4c0,0.2,0.1,0.4,0.1,0.7c0.8,0,1.5,0,2.3,0c0.3,0,0.7,0.2,1,0.1
		c0.3-0.1,0.6-0.1,0.9,0C43.2,109.8,43.4,109.7,44,110.1z M31.1,128c0.2,0.6,0.7,0.4,1,0.5c0.2,0.1,0.4-0.1,0.5-0.2
		c0.3-0.2,0.9-0.3,1.1,0c0.2,0.3,0.3,0.3,0.6,0.3c0.5,0.1,1,0.1,1.5,0.2c0-0.6,0-1.1,0-1.6c-0.5,0-1,0-1.5,0.2
		c-0.3,0.1-0.6,0.2-0.9,0.3c-0.3,0.1-0.5,0-0.6-0.3c0-0.1-0.1-0.2-0.1-0.3c-0.6,0.1-1.2,0.2-1.9,0.3c-0.2-0.5-0.8-0.5-1.3-0.4
		c-0.4,0.1-0.7,0.3-1.1,0.4c0.3,0.3,0.5,0.6,0.8,0.9c0.3,0.3,1,0.3,1.3,0.1C30.6,128.2,30.8,128.1,31.1,128z M18.3,51.2
		c0.2-0.5,0.7-0.2,1-0.5c0-0.4,0-0.8,0-1.3c-0.4,0-0.8,0.3-0.9-0.2c0,0,0-0.1,0-0.1c0.1,0,0.3-0.1,0.4-0.1c0.3,0,0.7-0.4,0.7-0.7
		c0-0.3-0.2-0.4-0.7-0.4c-0.3,0-0.7,0-1-0.1c-0.5-0.2-0.9,0.2-0.8,0.7c0.1,0.3,0.2,0.6,0.3,0.9C17,50,17.2,50.5,17.8,51
		c-0.4,0.7-0.4,1,0.2,1.5c0.3,0,0.7-0.1,1-0.1c0-0.4,0.1-0.7,0.1-1.2C18.9,51.2,18.7,51.2,18.3,51.2z M39.7,108.5
		c0-0.3-0.1-0.8,0.3-0.7c0.7,0.1,1.5-0.1,2.1,0.5c0.3,0.3,0.6,0.2,0.9,0c0.3-0.3,0.6-0.5,1.1-0.3c0.1,0,0.2,0,0.2,0
		c0.3-0.3,0.5-0.1,0.8,0.1c0.2-0.5,0.3-0.9-0.1-1.3c-0.7,0.3-1.4,0.3-2.1,0.2c-0.3,0-0.7-0.2-0.9,0.2c-0.7-0.2-1.3,0-1.9-0.1
		c-0.6-0.1-1.2-0.1-1.8-0.1c-0.1,0.4-0.2,0.7,0.2,0.9c0.1,0,0.1,0.2,0.1,0.2c-0.1,0.5,0.2,0.5,0.6,0.6c0.1-0.2,0.1-0.3,0.2-0.5
		C39.5,108.2,39.6,108.3,39.7,108.5z M46.5,49.3c0,0.4,0.1,0.7,0.1,1.1c0,0.4,0.2,0.6,0.5,0.7c0.1,0.1,0.4,0.1,0.6,0
		c0.6-0.1,1.1-0.3,1.7-0.4c0-0.3-0.1-0.5-0.1-0.8c-0.4,0.1-0.6,0.1-0.9,0.2c0-0.1-0.1-0.2-0.1-0.3c-0.2,0.1-1.4,0.1-1.5,0
		c0-0.1,0.1-0.3,0.1-0.4c0.3,0,0.5-0.1,0.8-0.1c0.6-0.1,1.3-0.6,1.9,0c0.4-0.3,0.4-0.6,0.3-0.9c-0.6-0.1-1.2-0.1-1.8-0.2
		c-0.6-0.1-1.3-0.1-2-0.1c0.1,0.4,0.1,0.8,0.2,1.2C46.4,49.3,46.4,49.3,46.5,49.3z M33,82.1C33,82.1,33,82,33,82.1
		c0.2,0,0.4,0,0.6,0c0.2,0,0.5,0,0.7,0c0.4,0,0.6-0.3,0.6-0.8c0-0.5-0.1-0.6-0.6-0.6c-0.5,0-1,0-1.4-0.1c-0.7-0.2-1.3,0.1-2-0.2
		c-0.1,0-0.1,0-0.2,0c-0.4,0.1-0.4,0.4-0.5,0.7c-0.1,0.3,0,0.5,0.2,0.6c0.2,0.1,0.5,0.2,0.7,0.2C31.7,82,32.3,82,33,82.1z M43,104.3
		c0.3,0,0.6,0,0.7-0.3c0.1-0.2,0.4-0.3,0.6-0.4c0.1,0.2,0.1,0.3,0.1,0.5c0-0.2,0.1-0.4,0.1-0.5c0.4-0.1,0.8-0.1,1.2-0.2
		c-0.1-0.2-0.1-0.2-0.2-0.3c-1-0.3-2-0.5-3.1-0.4c-0.6,0-1.3,0.4-1.9,0c-0.1-0.1-0.4,0-0.6,0c-0.3,0-0.5,0.2-0.5,0.6
		c0,0.2,0,0.5,0.1,0.7c0.1,0.3,0.4,0.4,0.6,0.3c0.2-0.2,0.6-0.1,0.8-0.3c0.4-0.3,0.7-0.1,1.1-0.1C42.4,103.8,42.8,103.9,43,104.3z
		 M40.1,101.1c0.5,0.3,0.8,0.5,1.1,0.7c0.5,0.4,1.3,0.5,1.9,0.1c0.1-0.1,0.2-0.1,0.3-0.1c0.3,0.2,0.6,0,0.9,0
		c0.5-0.1,1.1-0.2,1.6-0.3c0.1-0.3,0-0.8-0.2-0.7c-0.5,0.1-0.9-0.2-1.3-0.2c-0.5,0-0.9-0.1-1.4-0.1c-0.3,0-0.7,0-1,0
		c-0.3,0-0.7-0.2-1,0.2C40.6,100.5,40.5,101.1,40.1,101.1z M46,99.5c-0.1-0.3-0.2-0.6-0.3-0.8c-0.3,0-0.6,0-0.8,0
		c-0.6,0.1-1.2-0.2-1.8,0c-0.3,0.1-0.6,0.1-0.9-0.1c-0.5-0.2-1.1-0.3-1.7,0c-0.1,0.5-0.1,0.9,0.2,1.3c0.2,0,0.3,0,0.4,0.1
		c0.2,0.2,0.5,0.1,0.6-0.1c0.2-0.4,0.7-0.4,1-0.4c0.5-0.1,0.6,0,0.8,0.5c0,0,0.1,0,0.1,0c0.1-0.1,0.1-0.3,0.2-0.4c0.3,0.1,0.7,0,1,0
		C45.2,99.7,45.6,99.6,46,99.5z M34.4,82.4c-0.6,0-1.2-0.1-1.8,0.1c-0.1,0-0.1,0.1-0.2,0c-0.4-0.2-0.8-0.2-1.2-0.1
		c-0.5,0.1-0.6,0.1-0.7,0.5c-0.1,0.4,0,0.6,0.4,0.8c0.7,0.3,1.3,0.2,2,0.2c0.1,0,0.3-0.1,0.3,0c0.4,0.2,0.7,0.1,1.1,0
		c0-0.1,0.1-0.2,0.1-0.3C34.4,83.2,34.4,82.8,34.4,82.4z M33.4,87.9c0-0.4,0-0.8,0-1.1c0-0.4-0.1-0.5-0.5-0.5
		c-0.6,0-1.2-0.1-1.8-0.2c-0.3,0-0.7,0.1-1,0.3c-0.3,0.2-0.3,0.6-0.2,0.9c0.1,0.3,0.3,0.5,0.6,0.5c0.5,0,1.1,0.1,1.6,0.1
		C32.5,87.9,32.9,87.9,33.4,87.9z M45.8,93.7c0.2-0.4,0-0.7-0.1-1c-0.1-0.1-0.2-0.2-0.4-0.2c-0.4,0-0.7,0.1-1.1,0.1
		c-0.1,0-0.2,0.1-0.2,0c-0.4-0.4-0.9-0.2-1.4-0.2c-1.2,0.1-1.4,0.3-0.9,1.5c0,0,0.1,0.1,0.1,0.1c0.6-0.1,1.2-0.3,1.8,0
		c0.1,0,0.2,0,0.3,0c0.2,0,0.5-0.1,0.7-0.2C44.9,93.8,45.4,93.8,45.8,93.7z M41.8,95.6c0.4,0.5,0.7,0.4,1.2,0.3
		c0.3-0.1,0.5-0.2,0.9-0.1c0.3,0,0.6,0,0.8,0.2c0.2-0.4,0.7-0.1,1-0.3c0.2-0.1,0.4-0.2,0.3-0.5c-0.1-0.2-0.2-0.6-0.4-0.6
		c-0.5-0.1-1,0-1.6,0c-0.3,0-0.6,0.1-0.9,0c-0.7-0.2-1.3,0.1-2,0.1c0,0.4,0,0.7,0.1,1C41.3,95.7,41.6,96.1,41.8,95.6z M48.4,124.4
		c0.2,0,0.3-0.1,0.4,0c0.2,0.2,0.3,0.1,0.5-0.1c0.1-0.1,0.2-0.2,0.3-0.3c0,0,0.1,0,0.1,0c0,0.2,0,0.4,0,0.6c0.3,0.1,0.5,0.1,0.7-0.1
		c0.2-0.2,0.3-0.2,0.6-0.1c0.1,0.1,0.2,0.1,0.4,0.1c0.1-0.5,0.1-1-0.2-1.5c-0.4,0-0.9,0-1.2,0.1c-0.4,0.2-0.8,0-1.2,0
		c-0.5,0.1-1.1,0.1-1.7,0.1c-0.1,0.5,0,1,0.3,1.6c0.3-0.3,0.6-0.5,0.9-0.7C48.3,124.2,48.4,124.3,48.4,124.4z M50.1,116
		c0.6-0.4,1.2-0.5,1.8-0.5c0.1,0,0.2,0.1,0.3,0.1c0.5,0,0.9-0.1,1.4-0.1c0.3,0,0.6,0,0.9-0.1c0.1-0.5-0.2-0.8-0.4-1.1
		c-1.7,0.3-3.5,0.1-5.3,0.5c0.1,0.3,0.1,0.5,0.2,0.7C49.3,115.8,49.9,115.5,50.1,116z M26.1,87.3c0-0.5,0.2-1,0.1-1.4
		c-0.2-0.5-0.1-0.9-0.1-1.4c0.1-0.6,0-0.6-0.5-0.6c-0.1,0-0.2,0-0.3,0c-0.4-0.1-0.8,0.1-0.9,0.6c-0.1,0.5,0.1,0.7,0.5,0.8
		c0.2,0,0.4-0.1,0.6,0.2c-0.3,0.1-0.6,0.1-0.8,0.2c-0.4,0.1-0.5,0.4-0.5,0.7c0,0.3,0.1,0.6,0.4,0.7C25,87.3,25.5,87.5,26.1,87.3z
		 M43.6,112.7c-0.3,0.1-0.6,0.1-0.8,0.1c-0.3,0-0.5,0-0.7,0.3c-0.2-0.2-0.4,0-0.5,0c-0.3-0.4-0.2,0.3-0.5,0.2
		c-0.1-0.1-0.2-0.1-0.3-0.1c-0.1-0.1-0.2-0.2-0.3-0.4c-0.6,0-1.7,0.4-2,0.7c0,0,0,0.1,0,0.1c0.4,0.4,1,0.4,1.2,0.8
		c0,0.1,0.2,0,0.4,0c0.2,0,0.3,0,0.5,0c0.1-0.2,0.1-0.5,0.2-0.8c0.4,0.2,0.8,0.3,1.2,0.4c0.3,0.1,0.6,0.2,0.8,0.2
		c0.5,0.1,0.7-0.1,0.7-0.6C43.6,113.4,43.6,113.1,43.6,112.7z M41.1,128.7c0-0.1,0.1-0.3,0.1-0.4c0.1-0.4-0.1-0.6-0.3-0.9
		c-0.2-0.2-0.5-0.1-0.8,0c-0.3,0.1-0.8,0-1.1-0.1c-0.2-0.1-0.3-0.2-0.5-0.1c-0.4,0.1-0.9,0.2-1.4,0.3c-0.1,0-0.1,0.1-0.2,0.1
		c0,0.1,0.1,0.2,0.1,0.4c0.1-0.1,0.2-0.1,0.3-0.2c0.1,0.4,0.2,0.8,0.3,1.2c0.2,0,0.3,0,0.4,0c0.2,0,0.5,0.1,0.7,0
		c0.2-0.1,0.2-0.4,0.3-0.5c0.1-0.1,0.2-0.1,0.3-0.3C39.7,128.9,40.4,128.8,41.1,128.7z M26.3,113.9c-0.5,0-0.9,0-1.3,0.1
		c-0.5,0-0.6,0.2-0.7,0.6c-0.1,0.7,0.1,1,0.8,1c0.2,0,0.4,0,0.5,0c0.4,0,0.5,0,0.5-0.4c0-0.5,0-1,0.4-1.4c0,0,0.1-0.1,0-0.2
		c-0.1-0.6,0-1.2,0.3-1.8c0,0-0.1-0.1-0.1-0.1c-0.3,0.2-0.6,0.3-1,0.5c-0.4-0.3-0.8,0-1.2,0c0.1,0.8,0.1,0.7,0.8,0.6
		c0.2,0,0.4,0,0.6,0.3C26.1,113.4,26.2,113.6,26.3,113.9z M28.2,108.1c-0.3,0-0.7,0.1-0.9,0c-0.7-0.4-1.5-0.3-2.2-0.5
		c-0.5-0.1-0.7,0.1-0.8,0.6c0,0.3,0,0.5,0,0.8c0.5,0.1,1,0.1,1.5,0.2c0.5,0.1,0.9,0.1,1.2-0.4c0.1,0.3,0.3,0.5,0.6,0.4
		C28,109.1,28.2,108.7,28.2,108.1z M33.9,84.4c-0.2,0-0.4-0.1-0.6-0.1c-0.4,0-0.8,0-1.2,0c-1.1-0.1-1.4,0.2-1.2,1.3c0,0,0,0.1,0,0.1
		c0.9,0.4,1.9,0.4,3,0.2C33.9,85.4,33.9,84.9,33.9,84.4z M39.2,7.4c0-0.1,0-0.1,0-0.2c-0.7,0.1-1.3,0.2-2,0.3
		c-0.3,0.1-0.4,0.3-0.3,0.6c0,0.3,0.2,0.4,0.6,0.3c0.6-0.1,1.3-0.3,1.9-0.3c0.4-0.1,0.9,0,1.3,0c0.4,0,0.8,0,1.1-0.1
		c0.2-0.1,0.4-0.2,0.3-0.4c0-0.3-0.1-0.5-0.4-0.5c-0.3,0-0.5,0-0.8,0C40.3,7.1,39.8,7.3,39.2,7.4z M51.2,118.7c-0.6,0-1.1,0-1.5,0
		c-0.5,0-0.9,0.3-1.4,0.1c-0.2-0.1-0.4,0.1-0.4,0.4c0,0.3,0.1,0.6,0.2,0.8c0.1,0.1,0.4,0.1,0.6,0.1c0.2,0,0.3,0.1,0.5,0.1
		c0.1-0.1,0.1-0.2,0.2-0.3c0.4,0.3,1.1,0.4,1.2,0.1c0.2-0.4,0.4-0.4,0.9-0.4C51.3,119.2,51.3,118.9,51.2,118.7z M47.8,75.5
		c-0.7-0.4-1.5-0.3-2.3-0.2c-0.1,0.9-0.1,1,0.8,1c0.2,0,0.4,0.1,0.6,0c0.9-0.1,1.8-0.3,2.7-0.2c0,0,0,0,0.1,0c0.1-0.5,0.1-0.5-0.3-1
		c-0.3,0-0.7,0-0.9,0.2C48.3,75.5,47.9,75,47.8,75.5z M26.7,93.3c0.1-0.4,0.1-0.9,0.2-1.3c-0.5-0.4-1.1-0.4-1.7-0.5
		c-0.2,0-0.4,0.1-0.6,0.1c-0.3,0.1-0.4,0.4-0.4,0.7c0,0.2,0,0.5,0.3,0.6C25.2,93.1,25.9,93.4,26.7,93.3z M27.4,111.1
		c0-0.2,0.1-0.4,0.1-0.6c0-0.3,0-0.5-0.5-0.5c-0.3,0-0.6,0-0.8-0.1c-0.3-0.2-0.5-0.2-0.8-0.2c-0.9-0.1-1.1,0.2-1,1
		c0,0.4,0.4,0.6,0.9,0.7c0.3,0.1,0.5,0,0.7-0.5c0.1,0.1,0.2,0.1,0.3,0.2c0.1-0.3,0.3,0.2,0.4,0C27,110.5,27.2,110.9,27.4,111.1z
		 M56.8,92.8c-0.1-0.7-0.3-0.9-0.9-0.8c-0.7,0-1.3,0.1-2,0.2c-0.5,0.1-0.9,0-1.5,0c0.1,0.4,0.2,0.7,0.3,1c0.4,0,0.7,0,1,0
		c0.3,0,0.7,0,0.9-0.2c0.3-0.2,0.6,0.1,1-0.1C56,92.8,56.4,92.8,56.8,92.8z M37.1,9.7c0.5,0,0.9-0.1,1.4-0.1c0.3,0,0.7-0.1,1-0.1
		c0.1,0,0.2-0.1,0.3-0.1c0.7,0.2,1.2-0.3,1.8-0.4c0.2,0,0.3-0.2,0.1-0.5c-0.3,0-0.6,0.1-1,0.1c-0.3,0-0.6,0-0.9,0.1
		c-0.4,0.1-0.6-0.3-0.9-0.1c-0.1,0-0.2,0-0.3,0c-0.3,0.1-0.7,0.2-1,0.2C37,8.9,36.9,9,37.1,9.7z M45.6,90.5
		c-0.4,0.1-0.7,0.2-1.1,0.3c-0.2,0-0.4-0.1-0.5,0.1c-0.2-0.4-0.6-0.1-1-0.3c-0.2-0.1-0.5,0-0.7,0.1c-0.3,0.1-0.3,0.6-0.1,0.7
		c0.3,0.2,0.6,0.5,1,0.4c0.6-0.1,1.2-0.3,1.9-0.1c0.2,0,0.3,0,0.5,0.1C46,91.3,45.8,91,45.6,90.5z M54.2,87.3
		c-0.1-0.9-0.2-1-0.9-0.9c-0.5,0.1-1,0-1.5,0.1c-0.4,0-0.8,0.1-1.3,0.1c0.1,0.4,0.2,0.8,0.4,1.2c0.4-0.3,0.8,0.1,1.2-0.1
		c0.4-0.3,1-0.3,1.5-0.3C53.7,87.3,54,87.3,54.2,87.3z M26.4,87.9c-0.5-0.3-1.1-0.3-1.6-0.3c-0.4,0-0.7,0.4-0.8,0.8
		c0,0.4,0.1,0.7,0.6,0.8c0.5,0.2,1,0.2,1.6,0C26.3,88.8,26.3,88.4,26.4,87.9z M55.8,90.7c-0.1-0.6-0.2-0.6-0.7-0.6
		c-0.7,0-1.3,0.1-2,0.1c-0.4,0-0.8,0-1.2,0.3c0.1,0.3,0.1,0.5,0.2,0.7C53.4,91.2,54.6,91.2,55.8,90.7z M26.4,81.8
		c-0.5,0.2-0.5,0.2-1,0.1c-0.7-0.2-1.3,0.4-1.1,1c0.1,0.3,0.2,0.4,0.5,0.5c0.4,0,0.8,0.2,1.2,0.2c0.3,0,0.4-0.1,0.5-0.4
		c0-0.3,0.1-0.7,0.1-1C26.6,82.1,26.5,81.9,26.4,81.8z M59.7,100.4c-0.1-0.3-0.2-0.6-0.3-0.8c-1.4,0.2-2.8,0.4-4.2,0.6
		c0,0.4,0.1,0.7,0.6,0.8c0.3,0.1,0.3-0.2,0.5-0.2c0.4,0,0.9,0,1.2-0.2c0.3-0.1,0.6-0.1,1-0.1C58.8,100.5,59.2,100.4,59.7,100.4z
		 M51.1,116.7c-0.9,0.1-1.8,0-2.6,0.3c-0.1,0.4,0.1,0.7,0.5,0.8c0.2,0,0.5,0.1,0.7,0.2c0.3,0.3,0.5-0.1,0.7-0.1
		c0.1,0.1,0.2,0.2,0.3,0.2C51.1,117.7,51.8,117.4,51.1,116.7z M24.5,89.8c-0.3,0.6-0.3,1.1,0.2,1.3c0.6,0.3,1.2,0.2,1.8,0.2
		c0-0.3,0-0.6,0.1-0.8c0-0.6-0.3-0.8-0.8-0.8C25.3,89.7,24.9,89.8,24.5,89.8z M43.1,90c0.2,0,0.5,0.1,0.7,0c0.6-0.3,1.1-0.1,1.6-0.1
		c0.1,0,0.3,0,0.4,0c0-0.9-0.2-1.1-1-1.1c-0.4,0-0.8,0-1.1,0c-0.9,0-1.1,0.2-0.7,1.1C43,89.9,43,89.9,43.1,90z M53.2,85.3
		c0-0.5-0.2-0.8-0.7-0.8c-0.7,0-1.3,0-2,0c-0.1,0-0.1,0-0.2,0c-0.2,0.1-0.5,0.1-0.5,0.4c0,0.4,0.2,0.6,0.5,0.6c0.4,0,0.7,0.1,1.1,0
		C52.1,85.5,52.6,85.4,53.2,85.3z M55.3,88.9c-0.1-0.3-0.3-0.6-0.6-0.6c-1,0-1.9,0.1-2.9,0.2c0,0-0.1,0-0.1,0
		c-0.2,0.1-0.4,0.2-0.3,0.4c0,0.1,0.2,0.3,0.3,0.3c0.3,0.1,0.5,0.1,0.8,0.1C53.4,89.4,54.3,89.4,55.3,88.9z M43.9,88
		c0.7-0.1,1.3,0.2,2-0.1c0-0.3-0.1-0.6-0.1-0.8c0-0.1-0.2-0.3-0.3-0.3c-0.5,0-1.1,0-1.6,0c-0.1,0-0.4,0.2-0.4,0.3
		c0,0.5,0,0.9,0.3,1.4C43.8,88.2,43.9,88,43.9,88z M41.1,10.6c-0.2-0.6-0.4-0.7-0.8-0.7c-0.5,0-1,0-1.5,0.1c-0.3,0-0.6,0-0.9,0
		c-0.4,0.1-0.6,0.5-0.6,0.8c0.1,0.3,0.2,0.3,0.7,0.2c0.7-0.1,1.5-0.3,2.2-0.4C40.5,10.6,40.8,10.6,41.1,10.6z M53.7,119.4
		c0.8,0,1.5-0.2,2.3-0.5c-0.2-0.3-0.3-0.5-0.5-0.7c-0.5,0.3-1,0.1-1.5,0.2c-0.5,0.1-1.1,0.1-1.7,0.2c0,0.5,0.3,0.8,0.5,1.1
		c0.3,0,0.5,0,0.7,0C53.6,119.7,53.7,119.5,53.7,119.4z M19.8,125.5c-0.5-0.1-1-0.2-1.4-0.2c-0.2,0-0.4,0.1-0.5,0.3
		c-0.4,0.7-0.1,1.3,0.6,1.6c0.2,0.1,0.3,0.1,0.5,0.2c0.3,0.1,0.4-0.1,0.5-0.3C19.6,126.4,19.7,126,19.8,125.5z M38.6,12.5
		c0.1,0,0.1,0,0.2-0.1c0.6-0.1,1.2-0.2,1.8-0.3c0.2,0,0.4-0.1,0.4-0.4c0-0.3-0.2-0.5-0.5-0.5c-0.8,0-1.7,0.1-2.5,0.1
		c-0.1,0-0.3,0.2-0.3,0.3C37.7,12.1,38.1,12.5,38.6,12.5z M42.4,98c0-0.2,0.1-0.3,0.1-0.4c0.2-0.1,0.4,0.2,0.6-0.1
		c0.2-0.3,0.1-0.7-0.3-0.8c-0.5-0.1-1.1-0.2-1.6-0.2c-0.6,0-0.8,0.5-0.5,1c0.2,0.2,0.3,0.4,0.5,0.6c0.2-0.1,0.4-0.2,0.6-0.2
		c0.3,0.1,0.2-0.4,0.5-0.2C42.3,97.7,42.3,97.8,42.4,98z M46,84.6c-0.4,0-0.9,0-1.3,0c-0.8,0.1-1.1-0.1-0.8,1.1
		c0,0.1,0.1,0.2,0.1,0.4c0.5-0.1,1-0.2,1.6-0.2c0.7,0,0.9-0.2,0.6-0.9C46.1,84.8,46.1,84.7,46,84.6z M49.6,83.6c0.2,0,0.3-0.1,0.4,0
		c0.1,0.3,0.4,0.2,0.6,0.2c0.3-0.2,0.6-0.1,1-0.1c0.2,0,0.3,0,0.5,0c0.2-0.1,0.4-0.3,0.5-0.5c0.1-0.2-0.3-0.6-0.5-0.6
		c-0.2,0-0.3,0-0.5,0c-0.4,0-0.9,0.1-1.3,0c-0.7,0-0.8,0.1-0.7,0.8C49.5,83.5,49.6,83.5,49.6,83.6z M58.8,98.2
		c0-0.1,0.1-0.1,0.1-0.2c-0.1,0-0.2-0.1-0.3-0.1c-0.3,0-0.6,0-0.9,0.1c-0.4,0.1-0.9,0.1-1.3,0.1c-0.5-0.1-1,0-1.5,0.1
		c-0.2,0-0.4,0.2-0.3,0.4c0,0.2,0.1,0.4,0.4,0.4c0.2,0,0.4,0,0.6,0c0.3,0.1,0.6,0.1,0.9-0.2c0.2-0.2,0.5-0.3,0.7-0.3
		C57.8,98.5,58.3,98.3,58.8,98.2z M46.9,127.3c-0.2,0.1-0.3,0.2-0.4,0.2c-0.3-0.2-0.6-0.2-0.9,0c-0.3,0.1-0.6,0.2-0.9,0.2
		c0.2,0.4,0.4,0.8,0.6,1.2c0.3,0,0.6,0.1,1,0.1c0-0.3,0-0.5,0-0.8c0,0,0,0,0.1,0c0.1,0.2,0.1,0.3,0.2,0.6c0-0.2,0.1-0.3,0.1-0.5
		c0.1,0.2,0.2,0.3,0.3,0.5C47.3,128.3,47.3,128,46.9,127.3z M44.1,56.5c0.6,0,0.6-0.2,0.5-1.1c-1.1,0-2.3-0.1-3.4,0.1
		c0.3,0.8,0.6,1.1,1.6,1c0-0.5,0.5-0.5,0.7-0.9C43.7,55.9,43.9,56.2,44.1,56.5z M47.8,77.9c0.2,0.1,0.4,0.2,0.6,0.2
		c0.2,0,0.3-0.1,0.5-0.2c0.2,0.1,0.3,0.2,0.5,0.3c0.5,0.2,0.8,0,0.8-0.6c0-0.2-0.1-0.5-0.1-0.7c-0.9,0-1.7-0.1-2.5,0.2
		C47.7,77.4,47.8,77.7,47.8,77.9z M46.8,83.7c0-0.2,0-0.5-0.1-0.7c0-0.1-0.2-0.3-0.4-0.3c-0.6,0-1.2,0-1.9,0.1
		c-0.2,0-0.3,0.2-0.4,0.4c0,0.5,0.2,0.7,0.7,0.7C45.5,83.8,46.1,83.8,46.8,83.7z M52.5,117.8c0.1-0.1,0.2-0.2,0.3-0.2
		c0.6-0.1,1.2-0.4,1.9-0.3c0.2,0,0.5,0,0.6-0.3c0-0.3-0.3-0.6-0.6-0.6c-0.2,0-0.3,0-0.5,0.1c-0.5,0.1-0.9,0.2-1.4,0.1
		c-0.2-0.1-0.4,0-0.7,0.1c-0.3,0.1-0.4,0.4-0.2,0.6C52.1,117.4,52.3,117.6,52.5,117.8z M51.6,81.5c-0.1-0.7-0.2-0.8-0.8-0.8
		c-0.2,0-0.4-0.1-0.6,0c-0.5,0.1-1.1-0.1-1.6,0.4c0.1,0.3,0.2,0.5,0.3,0.8C49.8,81.8,50.7,81.7,51.6,81.5z M43.1,64.9
		c0,0.1,0,0.1,0.1,0.2c0.1,0.1,0.1,0.1,0.2,0.1c0.9,0.3,1.7,0.2,2.6,0.1c0.3,0,0.4-0.3,0.2-0.5c-0.1-0.2-0.3-0.4-0.4-0.4
		c-0.4,0.1-0.8-0.2-1.2-0.1c-0.4,0-0.7,0-0.7,0.5c-0.1-0.1-0.2-0.2-0.4-0.4C43.6,64.8,43.3,64.7,43.1,64.9z M57.5,123
		c-0.1-0.4-0.2-0.6-0.5-0.6c-0.5,0-0.9,0.1-1.4,0.2c-0.2,0-0.3,0.1-0.5,0.1c-0.5-0.2-0.8,0.1-1.1,0.3c0.2,0.5,0.2,0.5,0.6,0.6
		C55.6,123.7,56.5,123.2,57.5,123z M61.2,115.4c0.1,0.7,0.5,0.9,1.1,0.6c0.6-0.3,1.3-0.5,2-0.7c0,0,0.1,0,0.1,0
		c0.4,0.1,0.7-0.1,1-0.4c-0.2-0.3-0.5-0.3-0.8-0.2c-0.2,0.1-0.3,0.2-0.5,0.2c-0.4,0.1-0.7,0.1-1.1,0.2c-0.4,0.1-0.8,0.3-1.2,0.2
		C61.7,115.3,61.5,115.3,61.2,115.4z M49.6,121.3c0.2,0.3,0.4,0.6,0.6,0.8c0,0.1,0.1,0.1,0.2,0.1c0.3,0.2,0.9,0.1,1.1-0.1
		c0.2-0.3,0.1-0.7,0-1c-0.1-0.3-0.3-0.6-0.6-0.5C50.3,120.7,49.8,120.8,49.6,121.3z M38.1,114.4c0-0.6,0.3-1.2-0.3-1.8
		c-0.3,0.1-0.6,0.1-0.8,0.2c-0.4,0.2-0.5,0.4-0.4,0.9c0.1,0.5,0.3,0.6,0.7,0.6C37.6,114.3,37.8,114.4,38.1,114.4z M38.4,16.9
		c0.6-0.2,1.1-0.4,1.5-0.6c0.3-0.2,0.3-0.7,0-0.7c-0.6-0.1-1.3-0.2-1.9,0.2c-0.2,0.2-0.3,0.4-0.2,0.6C38,16.6,38.2,16.7,38.4,16.9z
		 M61.7,105.5c-0.2-0.1-0.3-0.2-0.4-0.2c-0.5,0.1-0.9,0.2-1.3,0.4c-0.2,0.1-0.5,0.2-0.7,0.1c-0.6-0.2-1.1,0.1-1.7,0.1
		c-0.3,0-0.3,0.3-0.1,0.5c0.1,0.1,0.2,0.1,0.4,0.1c0.5,0,1,0,1.4-0.2c0.3-0.2,0.7-0.5,1.1-0.2c0.1,0.1,0.3,0,0.4-0.1
		C61,106,61.3,105.8,61.7,105.5z M41.4,128c0.5,0.2,0.9,0.3,1.4,0.5c0.2,0.1,0.5,0,0.6,0.2c0.2,0.2,0.4,0.3,0.6,0.1
		c0.1-0.2,0.2-0.4,0.2-0.7c0-0.3-0.1-0.5-0.1-0.8c-0.4,0.1-0.8,0.3-1.2,0.4C42.4,127.7,41.9,127.6,41.4,128z M49.4,110.7
		c0,0.3,0,0.6,0.1,0.8c0.5,0,1,0.1,1.4,0.1c0,0.1,0,0.2,0.1,0.2c0,0.1,0,0.1,0.1,0.2c0.3-0.8,0.9-1.2,1.7-1.1c0-0.4-0.3-0.4-0.5-0.4
		C51.3,110.6,50.4,110.6,49.4,110.7z M48.2,79.8c0.9-0.4,1.8-0.1,2.7,0.2c-0.1-0.4-0.1-0.8-0.2-1.1c-0.5-0.3-0.9,0-1.3,0
		c-0.4,0-0.8,0.1-1.3,0.1C48.1,79.2,48.2,79.5,48.2,79.8z M44.9,82.1c0.2-0.1,0.4-0.2,0.5-0.2c0.3,0,0.6,0,0.9,0
		c0.4,0,0.6-0.3,0.5-0.7c-0.1-0.2-0.2-0.3-0.2-0.5c-0.7,0-1.3,0.1-1.9,0.1C44.7,81.3,44.5,81.8,44.9,82.1z M44.9,98
		c0.2-0.1,0.3-0.2,0.5-0.2c0.3,0,0.4-0.3,0.4-0.3c0.2-0.6-0.4-1.1-0.9-1c-0.3,0.1-0.6,0-0.9,0.1c-0.2,0.1-0.4,0.2-0.5,0.3
		c-0.1,0.2,0.1,0.4,0.3,0.5c0.3,0.2,0.6,0,0.9,0C44.8,97.6,44.8,97.8,44.9,98z M46.8,73.8c0,0.1,0,0.2,0,0.4c0.1,0.2,0.3,0,0.4,0.1
		c0.6,0.3,1.3,0.2,2,0.3c0.2-0.9-0.1-1.2-0.9-1.1c-0.2,0-0.3,0.1-0.5,0.1C47.4,73.6,47.1,73.7,46.8,73.8z M25.8,117.5
		c0-0.5,0-0.9,0-1.4c-0.5,0-0.9-0.3-1.3,0.2c-0.2,0.2-0.2,0.9,0,1.1C24.9,117.6,25.3,117.8,25.8,117.5z M51.5,113.8
		c0.1-0.5,0.2-0.9-0.2-1.3c-0.7,0.1-1.4,0.3-2.2,0.4c0.1,0.2,0.1,0.5,0.2,0.7c0.5,0.3,0.5-0.1,0.6-0.3
		C50.4,113.5,51,113.6,51.5,113.8z M48.5,127.7c0.3,0.2,0.5,0.4,0.8,0.6c0-0.1,0.1-0.2,0.1-0.3c0.2,0.2,0.3,0.4,0.5,0.5
		c0,0,0.1-0.1,0.1-0.1c0.2,0.1,0.3,0.2,0.5,0.3c0-0.2,0.1-0.3,0.1-0.5c0-0.2-0.1-0.4-0.1-0.7c0-0.3-0.2-0.4-0.5-0.4
		c-0.2,0-0.5,0-0.7,0.1C49,127.3,48.7,127.3,48.5,127.7z M27.6,60c-0.5-0.3-1,0-1.4-0.1c-0.5-0.1-1-0.2-1.5-0.2
		c0.1,0.6,0.4,0.9,0.8,0.8c0.6-0.1,1.1,0.1,1.7,0.1C27.5,60.7,27.6,60.6,27.6,60z M38.6,13.8c0.4-0.1,0.8-0.1,1.2-0.1
		c0.7-0.1,0.8-0.1,0.6-0.9c-0.5,0-1,0-1.5,0.1C38.2,12.9,38.1,13.2,38.6,13.8C38.5,13.7,38.6,13.8,38.6,13.8z M47.5,52.7
		c0.5-0.2,1.1-0.4,1.6-0.6c0.1-0.4-0.1-0.5-0.4-0.6c-0.4,0-0.7-0.1-1.1-0.1c-0.5-0.1-0.7,0.1-0.6,0.6C47,52.5,47.2,52.6,47.5,52.7z
		 M46.8,55.3c-0.5,0-1.1,0-1.6,0c0,0.5-0.1,0.9,0.4,1.1c0.8,0.4,1.1,0.2,1.2-0.7C46.8,55.6,46.8,55.5,46.8,55.3z M46.3,76.9
		c-0.3,0.1-0.6,0.1-0.8,0.2c-0.2,0.1-0.3,0.2-0.3,0.4c0,0.3,0.1,0.6,0.5,0.7c0.2,0,0.5,0.2,0.7,0.2C46.8,77.9,46.8,77.7,46.3,76.9z
		 M63.8,111.6c-0.2-0.7-0.3-0.7-0.8-0.6c-0.6,0.1-1.2,0.4-1.9,0.4c-0.1,0-0.3,0.1-0.4,0.2c0,0.1,0,0.1,0,0.2
		c0.2,0.1,0.4,0.2,0.6,0.2c0.3,0,0.5-0.1,0.8-0.2C62.6,111.7,63.1,111.5,63.8,111.6z M46.9,66.8c0.1,0,0.2-0.1,0.2-0.1
		c0.7,0,1.3,0.1,2,0.1c0.1,0,0.3-0.1,0.3-0.2c0-0.1,0-0.3-0.1-0.4C49.2,66.1,49,66,48.8,66c-0.6,0.1-1.1,0.2-1.6,0.3
		C46.9,66.3,46.8,66.5,46.9,66.8z M39.9,17.1c-0.6,0-1,0-1.5,0c-0.3,0-0.5,0.4-0.4,0.7c0.1,0.2,0.2,0.5,0.5,0.4
		c0.5-0.3,1-0.2,1.5-0.3C39.9,17.6,39.9,17.4,39.9,17.1z M40.2,14.1c-0.6,0-1.2,0.1-1.8,0.1c-0.5,0.1-0.6,0.4-0.3,0.9
		c0.6-0.1,1.3-0.3,2-0.4c0,0,0.1-0.1,0.1-0.2C40.2,14.5,40.2,14.3,40.2,14.1z M59.2,74.8c0,0.4,0.1,0.5,0.5,0.5
		c0.9-0.1,1.8-0.2,2.7-0.2c-0.2-0.5-0.2-0.5-0.5-0.5C61,74.7,60.1,74.8,59.2,74.8z M49.8,109.6c0.4,0,0.7-0.1,0.9,0.5
		c0.1-0.8,0.6-0.7,1.2-0.8c-0.1-0.3-0.1-0.5-0.1-0.6c-0.2,0-0.4,0.1-0.5,0c-0.5-0.2-1-0.1-1.5,0.2C49.8,109.1,49.8,109.3,49.8,109.6
		z M62.2,43.3c0.1,0.2,0.1,0.4,0.2,0.4c0.3,0.2,0.4-0.2,0.6-0.3c0.9,0.3,2.5,0.3,2.9,0.1C65.4,43.2,63.6,43,62.2,43.3z M49.5,65.3
		c-0.2-0.5-0.4-0.8-0.6-1.2c-0.4,0.2-0.8,0.3-1.2,0.5c0.1,0.3,0,0.7,0.4,0.7C48.6,65.3,49,65.3,49.5,65.3z M59.8,103.8
		c0-0.1,0-0.1,0-0.2c-1,0-2,0.2-3,0.3c0,0,0,0-0.1,0c0,0.1-0.1,0.1-0.1,0.2c0,0.1,0.1,0.2,0.1,0.2c0.3,0,0.6,0.1,0.9,0.1
		c0.5-0.1,1-0.3,1.5-0.4C59.4,104,59.6,103.9,59.8,103.8z M25.5,118c-0.5-0.1-0.9,0.1-1,0.5c-0.1,0.3,0,0.7,0.1,1
		c0.1,0.3,0.5,0.1,0.8,0.1C25.4,119,25.5,118.5,25.5,118z M43.1,22.7c0.2,0.5,0.2,0.6,0.7,0.6c0.8,0,1.6-0.1,2.3-0.2
		c-0.1-0.2-0.2-0.3-0.3-0.3C44.9,22.8,44,22.5,43.1,22.7z M53.8,128.3c0.1-0.2,0.2-0.6,0.3-0.7c0.2-0.1,0.5-0.1,0.8-0.1
		c0-0.4,0-0.4-0.2-0.7c-0.2,0.2-0.5,0.3-0.7,0.5c-0.1-0.1-0.3-0.2-0.4-0.3c-0.1,0.1-0.1,0.2-0.1,0.2c-0.1-0.1-0.3-0.1-0.5-0.2
		c0.1,0.3,0.1,0.5,0.1,0.7c0,0.2,0.4,0.2,0.4,0.3C53.4,128.3,53.8,128.1,53.8,128.3z M44.9,7.8c0.8,0.1,1.5,0.3,2.4-0.2
		c-0.4-0.2-0.8-0.4-1.2-0.3c-0.2,0-0.4,0-0.5-0.1C45.1,7,44.9,7.2,44.9,7.8z M57.3,69.5C57.3,69.5,57.3,69.5,57.3,69.5
		c-0.3,0-0.5,0-0.8,0c-0.1,0-0.2,0.2-0.3,0.3c0.1,0.1,0.2,0.3,0.3,0.3c0.4,0.1,0.9,0.1,1.3,0.1c0.2,0,0.4,0,0.4-0.3
		c0-0.3-0.2-0.4-0.4-0.4C57.7,69.5,57.5,69.5,57.3,69.5z M35,60.7c0.1-0.4-0.2-0.5-0.4-0.5c-0.6-0.1-1.1-0.1-1.7-0.1
		c-0.2,0-0.5-0.1-0.5,0.2c0,0.3,0.2,0.4,0.5,0.4c0.1,0,0.2,0,0.3,0c0.5-0.1,1.1,0,1.6,0C34.8,60.7,34.9,60.7,35,60.7z M25.2,122.3
		c-0.7-0.1-1,0.1-1,0.8c0,0.6,0.1,0.8,0.8,0.8C25,123.3,25.1,122.8,25.2,122.3z M52,113.3c0.4-0.1,0.6-0.2,0.9,0
		c0.2,0.1,0.7-0.1,0.8-0.4c0.1-0.3-0.1-0.7-0.4-0.6c-0.4,0.1-0.9,0.2-1.4,0.4C51.9,112.9,51.9,113.1,52,113.3z M17.6,124.8
		c-0.2,0-0.5-0.1-0.7-0.1c-0.3,0-0.4,0.4-0.4,0.6c-0.1,0.6,0,0.7,0.7,1C17.3,125.8,17.5,125.3,17.6,124.8z M59.1,52.3
		c0.2,0.2,0.4-0.4,0.5,0c0,0,0.3-0.1,0.5-0.1c0.2-0.1,0.4-0.1,0.6-0.2c0.2-0.1,0.4-0.2,0.6-0.2c-0.8-0.2-1.5-0.3-2.3-0.1
		C59,51.9,59,52.1,59.1,52.3z M62.9,119.9c0.6-0.1,1.1-0.2,1.7-0.3c0.2,0,0.3-0.1,0.3-0.4c0-0.2-0.3-0.4-0.5-0.3
		c-0.5,0.1-1,0.3-1.5,0.4c0,0-0.1,0.1-0.1,0.1C62.8,119.6,62.9,119.8,62.9,119.9z M57.6,102.4c0.9,0.3,1.6-0.4,2.4-0.6
		c-0.1-0.1-0.1-0.2-0.1-0.2c-0.7-0.1-1.3,0-2,0.2C57.8,102,57.6,102.1,57.6,102.4z M45.3,8.5c0,0.4,0,0.7,0.4,0.8
		c0.5,0.1,1.1,0,1.6-0.1c0.1-0.3,0-0.4-0.3-0.5c-0.4,0-0.7-0.1-1.1-0.2C45.7,8.5,45.5,8.5,45.3,8.5z M56.7,121.1
		c-0.1-0.7-0.3-0.9-0.7-0.8c-0.5,0.1-0.9,0.4-1.3,0.5c0,0,0,0.1,0,0.1C55.3,121.1,56,121.1,56.7,121.1z M49.3,68.1
		c0,0.1,0.1,0.3,0.1,0.3c0.3,0,0.6-0.1,0.9,0c0.3,0.1,0.6,0.1,0.9,0.1c-0.1-0.9-0.2-1-0.9-0.8c-0.2,0.1-0.4,0.2-0.5,0.2
		C49.6,68.1,49.4,68.1,49.3,68.1z M46.7,6.5c-0.7-0.6-2-0.6-2.3,0C45.2,6.7,46,6.8,46.7,6.5z M64.4,112.9c-0.4-0.2-0.7,0-0.9,0.1
		c-0.3,0.1-0.6,0.2-0.9,0.2c-0.4,0-0.4,0-0.4,0.5C63,113.9,63.7,113.6,64.4,112.9z M56,72c0.4,0.1,0.7,0.3,1,0.3
		c0.2,0.1,0.5,0,0.5-0.4c0-0.3-0.1-0.6-0.4-0.6C56.7,71.2,56.3,71.5,56,72z M66.2,116.7c0-0.1,0-0.1,0-0.2c-0.1,0-0.3,0-0.4,0
		c-0.3,0.1-0.6,0.1-0.8,0.2c-0.1,0.1-0.3,0.2-0.3,0.3c0,0.1,0.1,0.3,0.2,0.4c0.2,0.1,0.4,0.2,0.5,0.1
		C65.6,117.3,65.9,116.9,66.2,116.7z M56.5,126.7c-0.4,0-0.7,0-1,0.1c-0.3,0.1-0.4,0.3-0.3,0.6c0.5-0.1,0.8,0,1,0.6
		c0.1-0.3,0.1-0.5,0.2-0.8c0.1,0.2,0.2,0.3,0.3,0.5C56.7,127.3,56.8,126.9,56.5,126.7z M55.5,72.3c0.1-0.7-0.2-1-0.7-0.9
		c-0.4,0.1-0.7,0.1-1.1,0.2c-0.1,0-0.2,0.1-0.3,0.2C54.1,72.2,54.9,71.9,55.5,72.3z M62.6,76.8c-0.1-0.3-0.3-0.4-0.6-0.4
		c-0.4,0-0.7,0.1-1.1,0.1c-0.3,0-0.5,0-0.8,0.1c0.3,0.5,0.8,0.5,1.2,0.5c0.1,0,0.2-0.2,0.4-0.3C61.9,76.8,62.2,77.1,62.6,76.8z
		 M62.8,78.4c-0.7-0.3-1.8-0.3-2.4,0.1C61.2,79,62,78.7,62.8,78.4z M59,126.5c-0.3,0-0.6-0.1-0.9,0c-0.3,0.1-0.7-0.1-0.9,0.5
		c0.3,0.1,0.6,0.1,0.9,0.2c0.3,0.1,0.6-0.1,0.7-0.4c0.1,0.3,0.2,0.5,0.3,0.7c0.1-0.2,0.1-0.3,0-0.5C59.1,126.9,59,126.8,59,126.5z
		 M53.5,67.8c-0.3,0.1-0.6,0.1-0.9,0.2c-0.3,0.1-0.5,0.1-0.9,0.2c0.4,0.1,0.7,0.2,1,0.3c0.3,0.2,0.6,0.2,1,0.1
		C53.7,68.4,53.6,68.1,53.5,67.8z M45.5,10c0.2,0.3,0.2,0.5,0.3,0.5c0.6,0,1.3,0.2,2-0.1C47,9.9,46.3,10.1,45.5,10z M64.7,92.8
		c0.4,0.4,0.4,0.4,0.7,0.3c0.5-0.2,1-0.3,1.4-0.5c0.1,0,0.2-0.2,0.3-0.3c-0.1-0.1-0.2-0.1-0.3-0.1C66.1,92.4,65.4,92.6,64.7,92.8z
		 M20.8,60c0.4,0.4,0.8,0.6,1.3,0.5c0.1,0,0.3-0.2,0.3-0.3c0-0.1-0.1-0.3-0.2-0.4C21.7,59.8,21.3,59.6,20.8,60z M60.3,70.1
		c0.3-0.5,0.5-0.4,1.5-0.2c0-0.2-0.1-0.4-0.3-0.4c-0.8,0-1.6,0-2.5,0c0,0-0.1,0.1-0.2,0.1c0.1,0.2,0.3,0.5,0.6,0.3
		C59.8,69.5,60.1,69.7,60.3,70.1z M53.9,70.4c0.1-0.5,0-0.8-0.3-0.9c-0.3-0.1-0.6,0-1,0.4C53.1,70.2,53.4,70.7,53.9,70.4z
		 M62.1,53.5c-0.5,0-0.9,0.1-1.3,0.1c-0.1,0-0.3,0.2-0.3,0.3c-0.1,0.3,0.2,0.4,0.3,0.3c0.4-0.2,0.8,0.1,1.2-0.1
		C62.1,53.9,62.1,53.7,62.1,53.5z M46.8,79.6c-0.1-0.7-0.2-0.8-1.1-0.5c0,0.2,0,0.5,0.1,0.8c0.2,0,0.4,0.1,0.6,0
		C46.5,79.8,46.6,79.7,46.8,79.6z M47.9,120.9c-0.7,0.5,0,1.1-0.2,1.6c0.2,0,0.3,0,0.5,0C48.1,122,48.4,121.4,47.9,120.9z
		 M48.2,56.5c0.1-0.3,0.1-0.5,0.1-0.5c0.5-0.5,1.2,0,1.6-0.6c-0.6,0-1.2,0-1.9,0C48.1,55.7,48.2,56,48.2,56.5z M58.1,71.7
		c0.5,0.1,0.9,0.2,1.3,0.2c0.2,0,0.4,0.1,0.4-0.2c0-0.2,0-0.5-0.3-0.5C59,71.3,58.5,71.3,58.1,71.7z M47.7,54.3
		c0.3,0,0.7,0.1,0.8-0.3c0-0.1-0.1-0.4-0.2-0.5c-0.2-0.2-0.5-0.2-0.7,0C47.4,53.7,47.6,54,47.7,54.3z M24.1,60.6
		c0-0.8-0.5-1-1.4-0.7C23.1,60.4,23.5,60.5,24.1,60.6z M55.8,70.3c0.1-0.3,0.1-0.7-0.2-0.8c-0.2-0.1-0.5,0-0.7,0.1
		c-0.2,0.1-0.3,0.3-0.1,0.5C55.1,70.2,55.5,70.3,55.8,70.3z M50.3,107.3c0.5,0.1,0.8,0,1.1-0.3c-0.1-0.1-0.1-0.3-0.2-0.4
		c-0.4,0.1-0.7,0.1-1,0.2C50.2,106.9,50.3,107.1,50.3,107.3z M52.1,66.6c-0.2-0.7-0.3-0.7-0.7-0.7c-0.4,0-0.4,0.1-0.5,0.7
		C51.2,66.6,51.6,66.6,52.1,66.6z M31.1,60.7c0-0.5-0.1-0.6-0.4-0.7c-0.3,0-0.6,0-1.1,0C30,60.6,30.5,60.8,31.1,60.7z M60,73.6
		c-0.2-0.6-0.3-0.7-0.8-0.6c-0.2,0-0.4,0.1-0.4,0.3c0,0.1,0.2,0.3,0.4,0.3C59.5,73.7,59.7,73.6,60,73.6z M45,22.2
		c-0.6-0.4-1.3-0.3-2-0.2c0.1,0.1,0.1,0.3,0.1,0.3C43.8,22.4,44.4,22.4,45,22.2z M66.8,51.7c-0.8-0.3-1.6-0.3-2.3,0
		c0.1,0.1,0.2,0.2,0.3,0.2C65.5,51.9,66.1,51.8,66.8,51.7z M65.2,125.9c0.2-0.3,0.3-0.6,0-0.9c-0.4,0.4-1.1,0.1-1.4,0.7
		C64.2,126.1,64.7,125.5,65.2,125.9z M63.9,117.4c-0.2-0.4-0.5-0.3-0.8-0.2c-0.6,0.1-0.6,0.3-0.2,0.8
		C63.2,117.8,63.5,117.6,63.9,117.4z M57.4,102.4c-0.5-0.3-1-0.4-1.1-0.2c-0.1,0.2-0.5,0.3-0.2,0.6C56.5,102.7,57,102.8,57.4,102.4z
		 M59.8,53.6c-0.4,0-0.9-0.3-1.3,0.1c0.3,0.4,0.5,0.5,1.3,0.3C59.8,53.9,59.8,53.7,59.8,53.6z M60.9,80.2c0.2,0.4,0.2,0.4,0.4,0.3
		c0.3-0.1,0.7-0.2,1-0.3c0.1,0,0.2-0.1,0.4-0.2C62.1,79.9,61.5,80,60.9,80.2z M65.7,90.8c-0.8-0.1-1.1,0-1.6,0.3
		C64.6,91.5,65.3,91.3,65.7,90.8z M53.1,64.9c-0.4-0.6-0.7-0.6-1.5,0.1C52.1,65.2,52.6,65.1,53.1,64.9z M30.3,59.1
		c-0.5-0.2-1-0.2-1.4,0C29.5,59.6,29.9,59.6,30.3,59.1z M62.8,82c0-0.1,0-0.2-0.1-0.2c-0.6,0-1.1,0.2-1.7,0.3
		c0.1,0.1,0.1,0.2,0.1,0.3c0.1,0,0.2,0.1,0.3,0.1C61.9,82.2,62.4,82.1,62.8,82z M62.9,87.5c0.1,0.3,0.2,0.4,0.5,0.3
		c0.4-0.2,0.9-0.1,1.1-0.7C63.9,87.3,63.4,87.4,62.9,87.5z M60.6,73.2c0.5,0.2,1.5,0.1,2-0.1c0-0.2-0.2-0.3-0.4-0.3
		c-0.4,0-0.8,0.1-1.2,0.2C60.9,73,60.8,73.1,60.6,73.2z M18.8,53c-0.4,0.1-0.5,0.3-0.5,0.6c0,0.3,0.1,0.6,0.5,0.7
		C18.8,53.8,18.8,53.4,18.8,53z M55.1,67.7c-0.3,0.2-0.5,0.4-0.8,0.7c0.5,0,1,0.1,1.4-0.1C55.7,67.9,55.3,67.9,55.1,67.7z
		 M61.7,83.8c0.1,0.4,0.1,0.4,0.2,0.4c0.4,0,0.8,0,1.1-0.5C62.5,83.7,62.1,83.7,61.7,83.8z M50.8,42c-0.1-0.2-0.2-0.4-0.3-0.6
		c-0.4,0.3-0.6,0.6-0.4,0.8C50.3,42.4,50.5,42.1,50.8,42z M68.4,124.5c0.4,0,0.6-0.1,0.9-0.1c0.1,0,0.2,0,0.3-0.1
		c0.1-0.1,0.1-0.2,0.1-0.3c0-0.1-0.1-0.2-0.2-0.2C69.4,123.8,68.6,124.2,68.4,124.5z M26.4,59.1c-0.6-0.3-1.1-0.1-1.6-0.1
		C25.3,59.3,25.8,59.6,26.4,59.1z M56.5,67.6c0.1,0.3,0.1,0.5,0.2,0.7c0.1,0.1,0.3,0.1,0.4,0.1c0.1,0,0.2-0.1,0.2-0.2
		c0-0.1-0.1-0.3-0.2-0.4C57,67.7,56.8,67.7,56.5,67.6z M68.6,97.4c-0.6,0.2-1,0.3-1.4,0.7C67.7,98.3,68.3,98,68.6,97.4z M51,70.3
		c0.3,0.1,0.6,0.2,0.9,0.2c0.2-0.4,0-0.7-0.3-0.9C51.4,69.8,51.2,70,51,70.3z M66.9,118.9c-0.4-0.6-0.5-0.6-1.1,0
		C66.2,119.3,66.5,119,66.9,118.9z M58.8,68.2c-0.3-0.6-0.6-0.6-1.2-0.1C58,68.3,58.4,68.2,58.8,68.2z M61.6,126.7
		c0.3-0.2,0.7-0.2,0.6-0.6c-0.1-0.2-0.3-0.3-0.5-0.2C61.3,126.1,61.5,126.4,61.6,126.7z M61.3,48.4c-0.7-0.3-0.9-0.2-1.4,0.3
		C60.4,48.8,60.8,48.6,61.3,48.4z M65.1,50c-0.7-0.5-1.1-0.5-1.4,0C64.2,50,64.6,50,65.1,50z M22.8,48.4c0-0.1,0-0.1,0-0.2
		c-0.5,0-1,0-1.4,0c0,0,0,0.1-0.1,0.2C21.8,48.5,22.3,48.5,22.8,48.4z M62.4,85.7c0,0.1,0,0.2,0.1,0.2c0.2,0.1,1-0.1,1.4-0.4
		C63.3,85.4,62.9,85.4,62.4,85.7z M46.1,12.9c0,0.1,0,0.3,0,0.3c0.3,0.1,0.6,0.1,1,0.2c0-0.2-0.1-0.4-0.1-0.5
		C46.7,12.9,46.4,12.9,46.1,12.9z M14.7,104.8c0.2-0.5,0.7-0.7,0.4-1.2C14.6,103.9,14.5,104,14.7,104.8z M23.2,61.2
		c0.4,0.3,0.7,0.4,1.1,0.2C24,61,23.8,60.9,23.2,61.2z M21.9,109.7c0,0,0,0.1,0,0.1c0.9,0.3,1.1,0.3,1.4,0c-0.3,0-0.5,0-0.7-0.1
		C22.4,109.7,22.2,109.7,21.9,109.7z M24.8,121.7c0.1-0.6,0.1-1,0.2-1.6C24.6,120.6,24.5,121,24.8,121.7z M65.6,48.5
		c0-0.1,0-0.2,0-0.2c-0.4,0-0.8,0-1.3,0.1c0.1,0.2,0.1,0.4,0.1,0.4c0.2-0.1,0.4-0.1,0.6-0.2C65.2,48.5,65.4,48.5,65.6,48.5z
		 M64.2,121.9c0-0.3,0.1-0.5,0-0.6c-0.3-0.3-0.5,0-0.9,0.1C63.7,121.6,63.9,121.7,64.2,121.9z M47.2,17.7c0.2-0.1,0.3-0.3,0.1-0.4
		c-0.3-0.4-0.6,0-0.9,0.1C46.7,17.5,46.9,17.6,47.2,17.7z M61.8,48.9c0.2-0.1,0.6-0.1,0.5-0.4c0-0.2-0.3-0.3-0.5-0.2
		C61.5,48.4,61.8,48.6,61.8,48.9z M66.8,87.9c-0.6,0.4-0.6,0.4-0.5,0.8c0.2-0.1,0.4-0.2,0.6-0.3C66.9,88.2,66.8,88.1,66.8,87.9z
		 M66.6,53.4c-0.5-0.2-1-0.1-1.5,0C65.6,53.7,66.1,53.6,66.6,53.4z M61.4,113.8c-0.6-0.3-0.6-0.3-1,0c0.1,0.1,0.1,0.3,0.2,0.4
		C60.9,114.1,61.1,114,61.4,113.8z M24.1,48.6c0-0.1,0-0.3-0.1-0.3c-0.1-0.1-0.3-0.2-0.5-0.2c-0.3,0-0.4,0.1-0.3,0.3
		C23.5,48.5,23.7,48.5,24.1,48.6z M67.1,124.7c0,0.1,0,0.1,0,0.2c0.2,0.1,0.5,0.1,0.7,0.2c0-0.2,0.1-0.4,0.1-0.7
		C67.6,124.5,67.3,124.6,67.1,124.7z M64.8,89.2c0-0.1,0-0.1,0-0.2c-0.4,0.1-0.9,0.2-1.3,0.3C64,89.6,64.4,89.3,64.8,89.2z
		 M67.7,91.3c-0.5,0.4-0.5,0.4-0.3,0.7c0.2-0.1,0.4-0.2,0.6-0.3C67.9,91.6,67.8,91.5,67.7,91.3z M23.1,61.9c0.3,0.5,0.3,0.5,0.8,0.3
		C23.8,61.8,23.5,61.8,23.1,61.9z M50.6,105.5c0.3-0.6,0.3-0.6-0.2-0.8C50.5,105,50.5,105.2,50.6,105.5z M12.8,47.3c0,0,0,0.1,0,0.1
		c0.6,0,1.2,0.1,1.7,0.1c0-0.1,0-0.1,0-0.2C14,47.4,13.4,47.3,12.8,47.3z M62.9,52c0.2,0,0.4,0,0.6,0c0-0.4-0.3-0.4-0.5-0.4
		C62.8,51.6,62.8,51.7,62.9,52z M45.4,63.6c-0.8-0.2-0.8-0.2-1,0.3C44.8,63.5,45.2,64.2,45.4,63.6z M26.6,61.5
		c-0.4-0.4-0.5-0.5-1.1-0.1C25.9,61.4,26.2,61.4,26.6,61.5z M62.1,118.1c0.3-0.2,0.4-0.4,0.2-0.8c-0.2,0.1-0.3,0.1-0.5,0.2
		C61.9,117.7,62,117.9,62.1,118.1z M30.2,62.8c0.3,0.2,0.5,0.4,0.7,0.6c0-0.1,0.1-0.3,0.1-0.5C30.7,62.8,30.5,62.8,30.2,62.8z
		 M72.6,122.7c-0.3,0.1-0.6,0.2-0.8,0.4c0.3,0.1,0.5,0.1,0.8,0.2C72.6,123.1,72.6,122.9,72.6,122.7z M57.1,41.4
		c0.1,0.6,0.5,0.4,0.8,0.5C57.9,41.2,57.5,41.5,57.1,41.4z M18.6,58.8c-0.1,0.3,0,0.5,0.3,0.5c0.2,0.1,0.3,0,0.4-0.3
		C19.1,59,18.9,58.9,18.6,58.8z M63.4,53.4c0.4,0.4,0.5,0.4,1,0C64,53.3,63.7,53.3,63.4,53.4z M23.7,63c-0.3-0.3-0.6-0.4-0.9-0.2
		C23,63.2,23.2,63.2,23.7,63z M47.2,16c-0.3-0.3-0.6-0.3-1-0.1C46.6,16.2,46.9,16,47.2,16z M37.3,21.5c0,0.1,0,0.1,0,0.2
		c0.3,0,0.6-0.1,0.9-0.2C37.7,21.3,37.7,21.3,37.3,21.5z M23,86.3c-0.3-0.1-0.6-0.4-1-0.2C22.4,86.4,22.7,86.5,23,86.3z M43.2,63.5
		c-0.6-0.1-0.6-0.1-0.8,0.2C42.7,63.8,43,64,43.2,63.5z M31.2,59.3c0.3,0.1,0.5,0.1,0.6,0.2c0.2-0.2,0.2-0.4,0-0.6
		C31.7,59.1,31.5,59.2,31.2,59.3z M43.3,21.4c0.4,0.2,0.6,0.2,0.9-0.1C43.9,21.3,43.6,21.1,43.3,21.4z M46.9,14.7c0-0.1,0-0.1,0-0.2
		c-0.2,0-0.5-0.1-0.7-0.1C46.4,14.9,46.6,14.9,46.9,14.7z M28.2,59.5c0.1-0.1,0.2-0.2,0.3-0.3c-0.1-0.1-0.2-0.2-0.3-0.3
		c0,0-0.3,0.1-0.2,0.1C28,59.3,28.1,59.4,28.2,59.5z M62.3,53.5c0.1,0.3,0.3,0.4,0.5,0.3c0.1,0,0.1-0.2,0.1-0.3
		C62.7,53.3,62.5,53.4,62.3,53.5z M47.3,77.8c-0.1-0.3-0.1-0.6-0.4-0.7C46.8,77.4,46.8,77.7,47.3,77.8z M65.9,86.8
		c0.1,0,0.1,0,0.2,0c0.1-0.2,0.2-0.4,0.4-0.6c-0.4-0.1-0.5,0.1-0.6,0.3C65.8,86.5,65.8,86.7,65.9,86.8z M42.6,131.4
		c0.9,0.3,0.9,0.2,1.3,0C43.5,131.4,43.1,131.4,42.6,131.4z M54.7,56.2c0.4-0.5,0.4-0.5,0.1-0.9C54.7,55.7,54.7,56,54.7,56.2z
		 M52.3,127.7c0.2,0,0.3,0.1,0.5,0.1c0-0.2,0.1-0.5-0.2-0.5C52.2,127.3,52.3,127.6,52.3,127.7z M37.4,60.9c0.2-0.1,0.5-0.1,0.4-0.4
		c0-0.1-0.1-0.1-0.2-0.1C37.3,60.4,37.4,60.6,37.4,60.9z M29.5,64.2c0.3-0.6,0.3-0.6-0.2-0.8C29.3,63.7,29.4,63.8,29.5,64.2z
		 M41.2,60.3c-0.1,0.1-0.2,0.2-0.2,0.3c0,0.1,0.1,0.2,0.2,0.3c0.1-0.1,0.2-0.2,0.2-0.3C41.4,60.5,41.3,60.4,41.2,60.3z M54.3,66.2
		c0,0.1,0,0.1,0,0.2c0.3,0.3,0.3,0.3,0.6-0.1C54.7,66.2,54.5,66.2,54.3,66.2z M19.8,58.1c0,0.1,0,0.1,0,0.2c0.2,0.1,0.4,0.2,0.7,0
		C20.2,58.2,20,58.2,19.8,58.1z M34.4,59.6c-0.3-0.6-0.3-0.6-0.7-0.2C33.9,59.5,34.1,59.5,34.4,59.6z M61.2,126.8c0,0,0.1,0,0.1,0
		c0-0.1,0-0.3-0.1-0.4c0-0.1-0.2-0.1-0.2-0.1c0,0.1-0.1,0.2-0.1,0.3C61,126.6,61.1,126.7,61.2,126.8z M47.5,65.1
		c-0.4-0.4-0.5-0.4-0.8,0C47,65.1,47.2,65.1,47.5,65.1z M10.8,119.4c-0.4,0.3-0.4,0.3-0.3,0.7C10.7,119.8,10.7,119.8,10.8,119.4z
		 M20.7,51.8c0-0.1,0-0.1,0-0.2c-0.3,0-0.5,0-0.8-0.1c0,0.1,0,0.1,0,0.2C20.2,51.8,20.5,51.8,20.7,51.8z M37.9,63.6
		c0-0.1,0-0.1,0-0.2c-0.2-0.1-0.5-0.1-0.6,0.4C37.5,63.7,37.7,63.6,37.9,63.6z M11.2,120.3c-0.5,0.3-0.5,0.3-0.4,1
		C11,121,11.1,120.7,11.2,120.3z M28.5,60.7c0.1-0.6,0.1-0.6-0.4-0.5C28.3,60.4,28.4,60.5,28.5,60.7z M53.9,64.5
		c0,0.2-0.1,0.3-0.1,0.5c0.2,0,0.4,0,0.7,0C54.3,64.8,54.1,64.7,53.9,64.5z M22.8,58.3c0-0.1,0-0.1,0-0.2c-0.2,0-0.5,0-0.8,0.1
		C22.3,58.4,22.5,58.5,22.8,58.3z M64.9,42.8c-0.1-0.3-0.2-0.4-0.5-0.3C64.5,42.7,64.5,42.7,64.9,42.8z M19.3,47.5
		C19.3,47.5,19.3,47.4,19.3,47.5c-0.3-0.1-0.6-0.1-0.8-0.1c0,0,0,0.1,0,0.1C18.8,47.5,19.1,47.5,19.3,47.5z M15.6,101.9
		c-0.4,0.1-0.4,0.1-0.5,0.5C15.3,102.2,15.5,102.1,15.6,101.9z M24.1,109.9c-0.1-0.1-0.2-0.2-0.3-0.1c-0.1,0-0.2,0.1-0.2,0.2
		c0.1,0.1,0.1,0.2,0.2,0.2C23.9,110.1,24,110,24.1,109.9z M44.1,59.6c0-0.1-0.1-0.1-0.1-0.2c-0.1,0.1-0.2,0.1-0.3,0.2
		c0,0,0.1,0.2,0.1,0.1C43.9,59.7,44,59.7,44.1,59.6z M46.6,73.7c-0.3,0.1-0.4,0.1-0.7,0.2c0.2,0.1,0.3,0.2,0.5,0.2
		C46.5,74,46.5,73.9,46.6,73.7z M36.4,83.3c-0.6-0.2-0.6-0.2-0.8,0C35.8,83.3,36,83.3,36.4,83.3z M50.8,70.3c-0.4-0.3-0.4-0.3-0.8,0
		C50.2,70.4,50.4,70.3,50.8,70.3z M13.2,50.1c0.2,0,0.3,0,0.4,0c0,0,0.1-0.1,0.1-0.2c0,0-0.1-0.1-0.1-0.1
		C13.4,49.8,13.2,49.8,13.2,50.1z M13.9,51.8c-0.1-0.3-0.3-0.3-0.5-0.2C13.4,52,13.7,51.7,13.9,51.8z M63.2,74.9c0,0,0.1,0,0.1-0.1
		c0-0.2,0-0.4-0.4-0.5C63.1,74.6,63.2,74.8,63.2,74.9z M56.5,55.5c0,0-0.1,0-0.1,0c0,0.2,0,0.4,0,0.6c0.1-0.1,0.1-0.2,0.2-0.4
		C56.5,55.6,56.5,55.6,56.5,55.5z M52.8,55.5c-0.3,0.2-0.2,0.4-0.1,0.6C52.7,55.9,52.7,55.7,52.8,55.5z M18.4,58.1
		c0,0.1,0,0.1,0,0.2c0.2,0,0.3,0.1,0.5,0.1c0-0.1,0-0.1,0-0.2C18.7,58.2,18.5,58.2,18.4,58.1z M24.4,63c-0.1-0.2-0.3-0.2-0.5-0.1
		C24.1,63.1,24.2,63.1,24.4,63z M34.7,59.1c-0.2,0.3-0.2,0.5,0.2,0.7C34.8,59.4,34.8,59.3,34.7,59.1z M65.2,49.8
		c0.2,0.4,0.2,0.4,0.7,0.1C65.7,49.9,65.5,49.8,65.2,49.8z M23.6,47.3c0,0.1,0,0.1,0,0.2c0.2,0,0.4,0,0.6,0c0,0,0-0.1,0-0.1
		C24,47.4,23.8,47.4,23.6,47.3z M39.9,60.6c0.2,0.1,0.4,0.1,0.6,0.2C40.5,60.3,40.3,60.3,39.9,60.6z M38.8,52.1c0-0.1,0-0.2,0-0.2
		c-0.1,0-0.2,0-0.4,0c0,0,0,0.2,0,0.2C38.5,52.1,38.7,52.1,38.8,52.1z M51.6,55.6c-0.1-0.1-0.2-0.1-0.3-0.2c0,0-0.1,0.1-0.1,0.1
		c0.1,0.1,0.1,0.2,0.2,0.2C51.4,55.7,51.5,55.6,51.6,55.6z M58.2,55.4c-0.1,0-0.1,0-0.2,0c0,0.1-0.1,0.2-0.1,0.2
		c0,0.1,0.1,0.2,0.1,0.2c0,0,0.1,0,0.1,0C58.2,55.7,58.2,55.5,58.2,55.4z M21.4,58.4c0-0.1,0-0.1,0-0.2c-0.2,0-0.3,0-0.5,0
		c0,0,0,0.1,0,0.1C21,58.3,21.2,58.4,21.4,58.4z M22.4,61.9c0.1,0.2,0.2,0.3,0.4,0.3C22.8,61.9,22.7,61.8,22.4,61.9z M38,48.6
		c0-0.1,0-0.2,0.1-0.2c-0.1,0-0.2,0-0.4,0c0,0,0,0.1,0,0.1C37.7,48.6,37.9,48.6,38,48.6z M47.9,7.4c-0.2,0.4-0.2,0.5,0.2,0.7
		C48,7.8,48,7.7,47.9,7.4z M69.4,42.7c0-0.1,0-0.1,0-0.2c-0.2,0-0.3,0-0.5,0.1c0,0,0,0.1,0,0.1C69,42.7,69.2,42.7,69.4,42.7z
		 M28.6,47.6c0,0,0-0.1,0-0.1c-0.2,0-0.4,0-0.6-0.1c0,0.1,0,0.1,0,0.2C28.2,47.5,28.4,47.6,28.6,47.6z M40.8,52
		c-0.1-0.1-0.2-0.2-0.2-0.2c-0.1,0-0.1,0.1-0.2,0.1c0.1,0.1,0.1,0.2,0.2,0.2C40.6,52.1,40.7,52,40.8,52z M34.1,47.6
		c0-0.1,0-0.1,0-0.2c-0.1,0-0.3,0-0.4,0.1c0,0,0,0.1,0,0.1C33.8,47.6,33.9,47.6,34.1,47.6z M36.5,81.3c0.1,0.1,0.2,0.1,0.2,0.1
		c0.1,0,0.1-0.1,0.2-0.2c-0.1,0-0.1-0.1-0.2-0.1C36.6,81.2,36.5,81.3,36.5,81.3z M20.4,60.2c0.1-0.3,0.1-0.4-0.3-0.4
		C20.2,60,20.3,60.1,20.4,60.2z M19.9,59.3c0-0.1,0.1-0.1,0.1-0.2c-0.1-0.1-0.2-0.1-0.3-0.2c0,0-0.1,0.1-0.1,0.1
		C19.7,59.1,19.8,59.2,19.9,59.3z M20.3,47.3c-0.2,0-0.3,0-0.5,0C20,47.7,20.2,47.6,20.3,47.3z M70,104.9c-0.1,0.1-0.2,0.1-0.2,0.2
		c0,0.1,0.1,0.1,0.1,0.2c0,0,0.1-0.1,0.1-0.1C70.1,105,70,105,70,104.9z M45.3,60.9c0.1,0,0.1,0,0.2,0c0-0.1,0-0.2,0-0.3
		c-0.1,0-0.2,0-0.2,0C45.2,60.7,45.2,60.8,45.3,60.9z M39.5,51.7c0,0.1-0.1,0.2-0.1,0.3c0,0,0.1,0.1,0.1,0.1c0.1,0,0.2-0.1,0.1-0.2
		C39.7,51.9,39.6,51.8,39.5,51.7z M26.6,62.8c0,0,0,0.1-0.1,0.1c0.1,0.1,0.3,0.1,0.4,0.2c0,0,0-0.1,0.1-0.1
		C26.9,62.9,26.8,62.8,26.6,62.8z M47.2,55.4c0.3,0.3,0.4,0.2,0.5,0C47.6,55.4,47.4,55.4,47.2,55.4z M32.1,37.8
		c-0.1-0.1-0.2-0.1-0.2-0.1c0,0-0.1,0.1-0.1,0.1c0.1,0,0.1,0.1,0.2,0.1C31.9,37.9,32,37.8,32.1,37.8z M21.7,47.3c0,0,0,0.1,0,0.1
		c0.1,0,0.2,0,0.3,0c0,0,0-0.1,0-0.1C21.9,47.4,21.8,47.4,21.7,47.3z M25.4,35.9c-0.1,0.1-0.2,0.1-0.1,0.2c0,0.1,0.1,0.1,0.1,0.2
		c0,0,0.1-0.1,0.1-0.1C25.5,36.1,25.5,36,25.4,35.9z M62.4,126.7c0,0-0.1,0-0.1,0c0,0.1,0,0.3,0,0.4c0,0,0.1,0,0.1,0
		C62.4,127,62.4,126.8,62.4,126.7z M36.4,34.3c0.1-0.1,0.2-0.1,0.2-0.2c0-0.1-0.1-0.1-0.1-0.2c0,0-0.1,0.1-0.1,0.1
		C36.3,34.1,36.4,34.2,36.4,34.3z M60.7,103.8c0.1-0.1,0.2-0.1,0.2-0.2c0-0.1-0.1-0.1-0.1-0.2c0,0-0.1,0.1-0.1,0.1
		C60.6,103.6,60.6,103.7,60.7,103.8z M33.6,32.9c0,0.1-0.1,0.1-0.1,0.2c0,0,0.1,0.1,0.1,0.1c0-0.1,0.1-0.1,0.1-0.2
		C33.7,33,33.7,32.9,33.6,32.9z M32.9,32.9c0,0.1-0.1,0.1-0.1,0.2c0,0,0.1,0.1,0.1,0.1c0-0.1,0.1-0.1,0.1-0.2
		C33.1,33,33,32.9,32.9,32.9z M34,97.1c-0.1-0.3-0.1-0.3-0.4-0.2C33.8,97,33.9,97.1,34,97.1z M37.2,33.8c-0.1,0.1-0.1,0.2-0.1,0.2
		c0,0.1,0.1,0.1,0.2,0.1c0,0,0.1-0.1,0.1-0.1C37.4,33.9,37.3,33.9,37.2,33.8z M32.7,98.8c-0.1,0-0.1,0-0.2,0c0,0.1,0.1,0.2,0.1,0.3
		c0,0,0.1,0,0.1,0C32.7,99,32.7,98.9,32.7,98.8z M47.1,18.8c0-0.1,0-0.1,0-0.2c-0.1,0-0.3,0-0.4,0c0,0,0,0.1,0,0.1
		C46.8,18.8,46.9,18.8,47.1,18.8z M28.8,62.9c-0.1-0.1-0.1-0.1-0.2-0.1c-0.1,0-0.1,0.1-0.2,0.1c0,0,0.1,0.1,0.2,0.1
		C28.7,63,28.7,63,28.8,62.9z M40.1,99.4c-0.1-0.1-0.1-0.1-0.2-0.2c0,0-0.1,0.1-0.1,0.1c0.1,0.1,0.1,0.1,0.2,0.2
		C39.9,99.5,40,99.5,40.1,99.4z M44.2,81.4c-0.1,0-0.1-0.1-0.2-0.1c0,0-0.1,0.1-0.1,0.1c0.1,0,0.1,0.1,0.2,0.1
		C44.1,81.6,44.2,81.5,44.2,81.4z M43.2,81.3c-0.1,0.1-0.1,0.2-0.1,0.3c0,0,0.1,0.1,0.1,0.1c0,0,0.1-0.1,0.1-0.1
		C43.3,81.5,43.2,81.4,43.2,81.3z M50.8,65c0,0,0-0.1,0-0.1c-0.1,0-0.2,0.1-0.4,0.1c0,0,0,0.1,0,0.1C50.6,65,50.7,65,50.8,65z
		 M38.3,34c-0.1-0.1-0.1-0.1-0.2-0.1c0,0-0.1,0.1-0.1,0.1c0,0,0.1,0.1,0.1,0.1C38.2,34.1,38.2,34,38.3,34z M37.3,103
		c-0.1-0.1-0.1-0.1-0.1-0.2c0,0-0.1,0-0.1,0c0,0.1,0,0.1,0.1,0.2C37.2,103.1,37.3,103,37.3,103z M54.3,55.8c0.1-0.1,0.1-0.1,0.2-0.1
		c-0.1,0-0.1-0.1-0.2-0.1c0,0-0.1,0-0.1,0.1C54.2,55.7,54.3,55.7,54.3,55.8z M21.8,61.3c0,0,0-0.1,0.1-0.1c-0.1-0.1-0.2-0.1-0.3-0.2
		c0,0,0,0.1-0.1,0.1C21.6,61.2,21.7,61.2,21.8,61.3z M34.5,33.2c0.1-0.1,0.1-0.1,0.1-0.2c0,0-0.1-0.1-0.1-0.1c0,0-0.1,0.1-0.1,0.1
		C34.4,33,34.4,33.1,34.5,33.2z M36,26.5c0.1,0,0.1-0.1,0.2-0.1c0,0-0.1-0.1-0.1-0.1c0,0-0.1,0-0.2,0.1C35.9,26.3,35.9,26.4,36,26.5
		z M36.3,38.9c-0.1,0.1-0.1,0.1-0.1,0.2c0,0,0.1,0.1,0.1,0.1c0.1,0,0.1,0,0.2-0.1C36.4,39,36.3,39,36.3,38.9z M33.2,39.2
		c0.1-0.1,0.1-0.1,0.1-0.2c0,0-0.1-0.1-0.1-0.1c0,0-0.1,0.1-0.1,0.1C33.1,39,33.2,39.1,33.2,39.2z M34.5,97.1
		c0.1,0.1,0.2,0.1,0.2,0.1c0.1,0,0.1-0.1,0.2-0.1c0,0-0.1-0.1-0.1-0.1C34.7,97,34.6,97,34.5,97.1z M35.6,97
		c-0.1,0.1-0.1,0.2-0.1,0.2c0,0.1,0.1,0.1,0.2,0.1c0,0,0.1-0.1,0.1-0.1C35.7,97.1,35.7,97,35.6,97z M37,77.5
		c-0.1-0.1-0.1-0.1-0.2-0.2c0,0-0.1,0.1-0.1,0.1c0,0.1,0.1,0.1,0.1,0.2C36.9,77.7,36.9,77.6,37,77.5z M38,32.8
		c-0.1-0.1-0.1-0.1-0.2-0.1c0,0-0.1,0.1-0.1,0.1c0,0,0.1,0.1,0.1,0.1C37.9,32.9,37.9,32.8,38,32.8z M15.8,47.4
		C15.8,47.4,15.8,47.4,15.8,47.4c0.2,0.1,0.4,0.1,0.6,0.1c0,0,0,0,0-0.1C16.2,47.4,16,47.4,15.8,47.4z M29.8,104.6
		c-0.1,0.1-0.1,0.2-0.1,0.3c0,0,0.1,0.1,0.1,0.1c0-0.1,0.1-0.1,0.1-0.2C30,104.8,29.9,104.7,29.8,104.6z M60.3,111.6
		c-0.1,0-0.1,0-0.2,0c0,0.1,0,0.2,0,0.3c0,0,0.1,0,0.1,0C60.3,111.8,60.3,111.7,60.3,111.6z M38.1,50.5c0-0.1,0.1-0.1,0.1-0.2
		c0,0-0.1-0.1-0.1-0.1c-0.1,0-0.1,0.1-0.1,0.2C38,50.4,38,50.4,38.1,50.5z M16.9,52c0-0.1,0.1-0.2,0.1-0.3c0,0-0.1-0.1-0.1-0.1
		c-0.1,0.1-0.1,0.1-0.1,0.2C16.7,51.8,16.8,51.9,16.9,52z M26,47.4C26,47.5,26,47.5,26,47.4c0.2,0.1,0.4,0.1,0.6,0.1
		c0,0,0-0.1,0-0.1C26.4,47.4,26.2,47.4,26,47.4z M70.3,106.7c-0.1,0.1-0.1,0.1-0.1,0.1c0,0.1,0.1,0.1,0.1,0.1c0.1,0,0.1-0.1,0.2-0.1
		C70.4,106.8,70.4,106.8,70.3,106.7z M18.9,101c0,0,0.1,0,0.1,0c0-0.1,0.1-0.2,0.1-0.3c0,0-0.1,0-0.1,0
		C18.9,100.8,18.9,100.9,18.9,101z M20.7,50.1c0-0.1-0.1-0.2-0.1-0.2c0,0-0.1,0-0.2,0.1c0,0.1,0.1,0.1,0.1,0.2
		C20.6,50.1,20.6,50.1,20.7,50.1z M60.1,54c0,0,0.1,0,0.1,0c0-0.2,0-0.3,0-0.5c0,0-0.1,0-0.1,0C60.1,53.7,60.1,53.8,60.1,54z
		 M35.5,60.2c-0.1,0.1-0.1,0.2-0.2,0.2c0,0,0.1,0.1,0.1,0.1c0.1,0,0.1-0.1,0.1-0.1C35.5,60.4,35.5,60.3,35.5,60.2z M35.5,87.1
		c0,0-0.1,0-0.1,0c0,0.1,0,0.2,0,0.3c0,0,0.1,0,0.2,0C35.5,87.4,35.5,87.2,35.5,87.1z M57.7,55.8C57.7,55.8,57.7,55.8,57.7,55.8
		c0.1-0.2,0.1-0.3,0-0.4c0,0-0.1,0-0.1,0C57.6,55.6,57.6,55.7,57.7,55.8z M31.6,121.6c0-0.1,0.1-0.1,0.1-0.2c0,0-0.1-0.1-0.1-0.1
		c-0.1,0-0.1,0.1-0.1,0.1C31.5,121.5,31.5,121.5,31.6,121.6z M70.7,102.2c0,0-0.1,0.1-0.1,0.1c0.1,0.1,0.2,0.2,0.3,0.2
		c0,0,0.1-0.1,0.1-0.1C70.9,102.4,70.8,102.3,70.7,102.2z M42.4,81.6c0,0-0.1-0.1-0.1-0.1c0,0-0.1,0.1-0.1,0.1
		C42.2,81.6,42.3,81.7,42.4,81.6C42.3,81.7,42.4,81.6,42.4,81.6z M20.6,48.1c0,0.1-0.1,0.1-0.1,0.2c0,0,0.1,0.1,0.1,0.1
		c0,0,0.1-0.1,0.1-0.1C20.8,48.2,20.7,48.2,20.6,48.1z M47.9,47.8C47.9,47.8,47.9,47.8,47.9,47.8c-0.1-0.1-0.2-0.1-0.4-0.1
		c0,0,0,0,0,0.1C47.6,47.8,47.7,47.8,47.9,47.8z M38.9,47.6C38.9,47.6,38.9,47.7,38.9,47.6c0.1,0.1,0.3,0.1,0.4,0.1c0,0,0-0.1,0-0.1
		C39.1,47.6,39,47.6,38.9,47.6z M19.9,126.1c0,0.1,0,0.1,0.1,0.1c0,0,0.1-0.1,0.1-0.1c0,0,0-0.1,0-0.1C20,126.1,20,126.1,19.9,126.1
		z M20.8,47.5c0.1,0,0.1,0.1,0.2,0.1c0,0,0.1-0.1,0.1-0.1c-0.1,0-0.1,0-0.2,0C20.9,47.4,20.9,47.4,20.8,47.5z M38.8,91
		c-0.1,0.1-0.1,0.1-0.2,0.2c0,0,0.1,0.1,0.1,0.1c0,0,0.1-0.1,0.1-0.1C38.9,91.2,38.8,91.1,38.8,91z M40.4,91.2c0,0,0,0.1,0,0.1
		c0,0,0.1,0,0.1,0c0,0,0.1-0.1,0.1-0.2C40.6,91.1,40.5,91.1,40.4,91.2z M26.2,36.3c0,0-0.1-0.1-0.1-0.1c0,0-0.1,0.1-0.1,0.1
		c0,0,0.1,0.1,0.1,0.1C26.1,36.4,26.2,36.3,26.2,36.3z M35,34.1c-0.1-0.1-0.1-0.1-0.2-0.1c0,0-0.1,0.1-0.1,0.1c0,0,0.1,0.1,0.1,0.1
		C34.9,34.2,34.9,34.2,35,34.1z M35.6,34.2c0.1-0.1,0.1-0.1,0.1-0.1c0-0.1,0-0.1-0.1-0.2c-0.1,0-0.1,0.1-0.2,0.1
		C35.5,34.1,35.6,34.2,35.6,34.2z M23,33.1c0,0,0,0.1,0,0.1c0,0,0.1,0.1,0.1,0c0,0,0.1-0.1,0.1-0.1C23.2,33.2,23.1,33.2,23,33.1z
		 M31.9,97c-0.1-0.1-0.1-0.1-0.2-0.1c0,0-0.1,0-0.1,0.1c0,0.1,0,0.1,0.1,0.1C31.7,97.1,31.8,97.1,31.9,97z M48.5,97.5
		C48.5,97.4,48.5,97.4,48.5,97.5c0-0.2-0.1-0.2-0.1-0.3c0,0-0.1,0-0.1,0.1C48.3,97.3,48.4,97.4,48.5,97.5z M39.5,32.8
		c0-0.1,0.1-0.1,0.1-0.2c0,0-0.1-0.1-0.1-0.1c-0.1,0-0.1,0-0.1,0.1C39.4,32.7,39.4,32.7,39.5,32.8z M69.5,99
		C69.4,99,69.4,98.9,69.5,99c-0.1,0-0.2,0-0.3,0.1c0,0,0,0.1,0.1,0.1C69.3,99.1,69.4,99.1,69.5,99z M68,100.1
		c-0.1-0.1-0.1-0.1-0.2-0.1c0,0-0.1,0.1-0.1,0.1c0,0,0.1,0.1,0.1,0.1C67.8,100.2,67.9,100.1,68,100.1z M47.6,6.3c0,0,0-0.1,0.1-0.1
		c-0.1,0-0.2-0.1-0.3-0.1c0,0,0,0.1,0,0.1C47.5,6.2,47.6,6.3,47.6,6.3z M30.7,28.4c0,0-0.1-0.1-0.1-0.1c0,0-0.1,0.1-0.1,0.1
		c0,0,0.1,0.1,0.1,0.1C30.6,28.5,30.6,28.5,30.7,28.4z M42.8,64.6C42.8,64.6,42.7,64.6,42.8,64.6c-0.1,0.1,0,0.3,0,0.4
		c0,0,0.1,0,0.1,0C42.9,64.8,42.8,64.7,42.8,64.6z M24.5,63.8c0.1,0,0.1,0,0.1-0.1c0-0.1,0-0.1-0.1-0.2c0,0-0.1,0-0.1,0.1
		C24.4,63.7,24.4,63.8,24.5,63.8z M34.2,109c0,0.1-0.1,0.1-0.1,0.2c0,0,0.1,0,0.1,0.1c0,0,0.1-0.1,0.1-0.1
		C34.3,109,34.2,109,34.2,109z M36.3,109.3c0-0.1-0.1-0.1-0.1-0.1c-0.1,0-0.1,0-0.2,0.1c0,0,0,0.1,0,0.1
		C36.2,109.4,36.2,109.3,36.3,109.3z M25.5,62.9c-0.1,0-0.1-0.1-0.1-0.1c0,0-0.1,0.1-0.1,0.1C25.3,63,25.4,63,25.5,62.9
		C25.4,63,25.5,63,25.5,62.9z M59.6,55.6c0.1,0,0.1-0.1,0.1-0.1c0-0.1,0-0.1-0.1-0.2c0,0-0.1,0-0.1,0.1
		C59.6,55.5,59.6,55.6,59.6,55.6z M55.8,55.8c0,0,0.1,0,0.1,0c0-0.1,0-0.2-0.1-0.3c0,0-0.1,0-0.1,0C55.7,55.6,55.7,55.7,55.8,55.8z
		 M37,83.3c0-0.1,0.1-0.1,0.1-0.2c0,0-0.1-0.1-0.1-0.1c-0.1,0-0.1,0.1-0.1,0.1C36.9,83.2,37,83.2,37,83.3z M41.8,53.5
		c0,0.1-0.1,0.1-0.1,0.2c0,0,0,0.1,0.1,0.1c0,0,0.1-0.1,0.1-0.1C41.9,53.6,41.9,53.6,41.8,53.5z M37.9,53.7c0,0-0.1,0-0.1,0
		c0,0.1,0,0.2-0.1,0.3c0,0,0.1,0,0.1,0C37.8,53.8,37.9,53.7,37.9,53.7z M67.3,53.5c-0.1-0.1-0.1-0.1-0.2-0.1c0,0-0.1,0.1-0.1,0.1
		c0,0,0.1,0.1,0.1,0.1C67.1,53.5,67.2,53.5,67.3,53.5z M23.1,53.4C23,53.4,23,53.5,23,53.5c0,0,0.1,0.1,0.1,0.1c0,0,0.1-0.1,0.1-0.1
		C23.2,53.5,23.1,53.4,23.1,53.4z M62.1,51.8c-0.1,0-0.2-0.1-0.2-0.1c0,0-0.1,0.1-0.1,0.1c0,0,0.1,0,0.1,0
		C62,51.9,62,51.9,62.1,51.8z M31.4,113.3c0.1-0.1,0.1-0.1,0.1-0.2c0,0,0-0.1-0.1-0.1c-0.1,0-0.1,0-0.1,0.1
		C31.3,113.1,31.4,113.2,31.4,113.3z M22.5,50c-0.1,0-0.1-0.1-0.2-0.1c0,0-0.1,0.1-0.1,0.1c0,0,0,0.1,0.1,0.1
		C22.4,50.1,22.4,50,22.5,50z M21.8,50.2C21.8,50.2,21.8,50.2,21.8,50.2c0.1-0.1,0.1-0.2,0.1-0.3c0,0-0.1,0-0.1,0
		C21.8,50,21.8,50.1,21.8,50.2z M45.5,79.2C45.4,79.2,45.4,79.2,45.5,79.2c-0.1,0.1-0.1,0.3-0.1,0.4c0,0,0,0,0.1,0
		C45.5,79.5,45.5,79.4,45.5,79.2z M14.4,50.2c0-0.1,0.1-0.1,0.1-0.2c0,0-0.1,0-0.1-0.1c0,0.1-0.1,0.1-0.1,0.2
		C14.3,50.1,14.4,50.1,14.4,50.2z M37.5,81.3c0-0.1-0.1-0.1-0.1-0.2c0,0-0.1,0.1-0.1,0.1c0,0.1,0,0.1,0.1,0.2
		C37.4,81.3,37.4,81.3,37.5,81.3z M52.4,43.9c-0.1,0-0.1-0.1-0.2-0.1c0,0-0.1,0.1-0.1,0.1c0,0.1,0.1,0.1,0.1,0.1
		C52.3,44,52.3,44,52.4,43.9z M22,87.9c0-0.1-0.1-0.1-0.1-0.1c0,0-0.1,0.1-0.1,0.1c0,0,0,0.1,0.1,0.1C22,88,22,87.9,22,87.9z
		 M58,88.4c0,0-0.1-0.1-0.1-0.1c0,0-0.1,0.1,0,0.1c0,0,0.1,0.1,0.1,0.1C58,88.5,58,88.5,58,88.4z M34.8,38.8c0,0.1-0.1,0.1-0.1,0.2
		c0,0,0.1,0.1,0.1,0.1c0.1,0,0.1-0.1,0.1-0.1C34.9,38.9,34.8,38.9,34.8,38.8z M33.4,101.2c0,0,0.1,0,0.1,0c0,0,0-0.1-0.1-0.1
		C33.4,101.1,33.3,101.1,33.4,101.2C33.3,101.1,33.3,101.2,33.4,101.2z M32.6,101.1C32.6,101.1,32.6,101.1,32.6,101.1
		c0.1-0.1,0.1-0.1,0-0.1C32.6,101,32.5,101,32.6,101.1C32.5,101,32.5,101.1,32.6,101.1z M32.4,108.7c0,0.1-0.1,0.1-0.1,0.2
		c0,0,0,0.1,0.1,0.1c0,0,0.1-0.1,0.1-0.1C32.6,108.8,32.5,108.8,32.4,108.7z M24.3,62c-0.1,0-0.1,0-0.2-0.1c0,0,0,0.1,0,0.1
		c0,0,0.1,0.1,0.1,0.1C24.3,62.1,24.3,62.1,24.3,62z M29.8,61.3c0.1,0.1,0.1,0.2,0.1,0.2c0.1,0,0.1,0,0.2-0.1
		C30,61.4,29.9,61.3,29.8,61.3z M25,61.2c-0.1,0-0.1-0.1-0.2-0.1c0,0-0.1,0-0.1,0.1C24.9,61.3,24.9,61.3,25,61.2
		C25,61.3,25,61.3,25,61.2z M38.2,105.3C38.2,105.3,38.2,105.3,38.2,105.3c0,0.1,0,0.1,0,0.1c0,0,0-0.1,0.1-0.1
		C38.3,105.3,38.2,105.3,38.2,105.3z M41.5,51.8C41.5,51.9,41.4,51.9,41.5,51.8c0,0.1,0,0.2,0,0.2C41.5,52,41.6,51.9,41.5,51.8
		C41.5,51.9,41.5,51.8,41.5,51.8z M40.6,74.1c0-0.1,0-0.1,0-0.1c0,0-0.1,0-0.2,0c0,0,0,0.1,0,0.1C40.5,74.1,40.5,74.1,40.6,74.1z
		 M37.7,51.9C37.6,51.9,37.6,51.9,37.7,51.9c-0.1-0.1-0.1-0.1-0.1-0.1c0,0,0,0.1,0,0.1C37.6,52,37.6,52,37.7,51.9z M47.9,111.1
		C47.8,111.1,47.8,111.2,47.9,111.1c-0.1,0.1,0,0.2,0,0.2C47.9,111.3,47.9,111.2,47.9,111.1C48,111.2,47.9,111.1,47.9,111.1z
		 M31.7,100.9C31.8,100.9,31.8,100.9,31.7,100.9c0-0.1,0-0.2-0.1-0.3c0,0-0.1,0-0.1,0.1C31.6,100.8,31.7,100.8,31.7,100.9z M22,51.7
		C22,51.7,22,51.6,22,51.7c-0.1-0.1-0.1-0.1-0.1,0C21.9,51.7,21.9,51.7,22,51.7C22,51.8,22,51.7,22,51.7z M21.5,51.7
		c0,0-0.1-0.1-0.1-0.1c0,0-0.1,0.1-0.1,0.1c0,0,0.1,0.1,0.1,0.1C21.4,51.7,21.4,51.7,21.5,51.7z M19.4,51.7c0,0.1,0,0.1,0.1,0.1
		c0,0,0.1-0.1,0.1-0.1c0,0,0-0.1,0-0.1C19.5,51.7,19.5,51.7,19.4,51.7z M38.3,99.1C38.3,99.1,38.3,99.1,38.3,99.1
		c-0.1-0.1-0.1,0-0.2,0C38.2,99.2,38.2,99.2,38.3,99.1C38.3,99.2,38.3,99.2,38.3,99.1z M14.7,51.6C14.7,51.6,14.7,51.6,14.7,51.6
		c-0.1-0.1-0.1,0-0.2,0c0,0,0.1,0,0.1,0.1C14.7,51.7,14.7,51.7,14.7,51.6z M39.1,50.3c0-0.1,0-0.1-0.1-0.1c0,0-0.1,0-0.1,0
		c0,0,0,0.1,0,0.1C39,50.3,39,50.3,39.1,50.3z M36.6,105.1C36.6,105.1,36.6,105,36.6,105.1c-0.1-0.1-0.1-0.1-0.1-0.1
		c0,0,0,0.1,0,0.1C36.5,105.1,36.5,105.1,36.6,105.1z M35.9,99.2C35.9,99.1,35.9,99.1,35.9,99.2c-0.1-0.1-0.1-0.1-0.1-0.1
		c0,0,0,0.1,0,0.1C35.8,99.2,35.9,99.2,35.9,99.2z M16.5,49.9c0.1,0.1,0.1,0.2,0.1,0.2c0.1,0,0.1,0,0.2,0C16.8,50,16.7,50,16.5,49.9
		z M36.4,32.8c0,0.1,0,0.1-0.1,0.2c0,0,0.1,0.1,0.1,0c0,0,0.1-0.1,0.1-0.1C36.5,32.8,36.5,32.8,36.4,32.8z M32.4,33
		c-0.1-0.1-0.1-0.1-0.1-0.2c0,0-0.1,0.1-0.1,0.1c0,0,0,0.1,0.1,0.1C32.3,33.1,32.3,33.1,32.4,33z M66.7,49.8c0,0-0.1,0.1-0.1,0.1
		c0,0,0.1,0.1,0.1,0.1c0,0,0.1-0.1,0.1-0.1C66.7,49.9,66.7,49.8,66.7,49.8z M22.2,95.5C22.2,95.5,22.1,95.6,22.2,95.5
		c-0.1,0.1-0.1,0.2,0,0.2c0,0,0.1-0.1,0.1-0.1C22.3,95.6,22.3,95.5,22.2,95.5z M29.9,26.4c0-0.1,0-0.1-0.1-0.1c0,0-0.1,0.1-0.1,0.1
		c0,0,0,0.1,0,0.1C29.8,26.4,29.9,26.4,29.9,26.4z M19.6,95.1c0-0.1,0-0.1-0.1-0.1c0,0-0.1,0.1-0.1,0.1c0,0,0,0.1,0,0.1
		C19.5,95.1,19.6,95.1,19.6,95.1z M37,48.5C36.9,48.5,36.9,48.5,37,48.5c-0.1-0.1-0.1,0-0.2,0C36.8,48.6,36.9,48.6,37,48.5
		C36.9,48.6,36.9,48.6,37,48.5z M41.4,48.3c0,0.1-0.1,0.1-0.1,0.2c0,0,0.1,0.1,0.1,0.1c0,0,0.1-0.1,0.1-0.1
		C41.5,48.4,41.5,48.4,41.4,48.3z M35.7,81.2c0.2,0.1,0.2,0.1,0.2,0.2c0,0,0.1-0.1,0.1-0.1c0-0.1-0.1-0.1-0.1-0.1
		C35.8,81.1,35.8,81.2,35.7,81.2z M39.1,33.9C39.1,33.9,39.1,33.8,39.1,33.9c-0.1-0.1-0.1,0-0.2,0C39,33.9,39,34,39.1,33.9
		C39.1,34,39.1,33.9,39.1,33.9z M47.2,93.1C47.2,93.1,47.1,93,47.2,93.1c-0.1-0.1-0.2,0-0.2,0C47,93.1,47.1,93.2,47.2,93.1
		C47.1,93.2,47.2,93.1,47.2,93.1z M36.8,26.3C36.8,26.3,36.8,26.3,36.8,26.3c-0.1-0.1-0.1,0-0.2,0C36.7,26.4,36.7,26.4,36.8,26.3
		C36.8,26.4,36.8,26.4,36.8,26.3z M33.5,93c0,0-0.1-0.1-0.1-0.1c0,0-0.1,0.1-0.1,0.1c0,0,0.1,0.1,0.1,0.1
		C33.5,93.1,33.5,93.1,33.5,93z M24.4,36.2c0,0-0.1-0.1-0.1-0.1c0,0-0.1,0-0.1,0.1c0,0,0.1,0.1,0.1,0.1
		C24.3,36.3,24.4,36.2,24.4,36.2z M37.8,27.3C37.8,27.3,37.8,27.3,37.8,27.3c0.1,0.1,0.2,0.1,0.3,0.1c0,0,0-0.1,0-0.1
		C38,27.3,37.9,27.3,37.8,27.3z M27.5,119C27.5,119,27.5,118.9,27.5,119c-0.1-0.1-0.1,0-0.2,0C27.4,119,27.4,119.1,27.5,119
		C27.4,119.1,27.5,119,27.5,119z M24.6,48.2C24.5,48.3,24.5,48.3,24.6,48.2c-0.1,0.1,0,0.2,0,0.2C24.6,48.4,24.7,48.4,24.6,48.2
		C24.7,48.3,24.6,48.3,24.6,48.2z M41.6,63.7C41.6,63.7,41.6,63.6,41.6,63.7c0-0.1,0-0.1-0.1-0.2C41.5,63.6,41.5,63.6,41.6,63.7
		C41.5,63.7,41.5,63.7,41.6,63.7z M52.2,47.9C52.2,47.9,52.2,47.9,52.2,47.9c-0.1-0.1-0.2-0.1-0.3,0c0,0,0,0,0,0
		C52.1,47.9,52.2,47.9,52.2,47.9z M56.1,55.8c0,0,0.1,0,0.1,0c0-0.1,0-0.2,0-0.3c0,0-0.1,0-0.1,0C56.1,55.6,56.1,55.7,56.1,55.8z
		 M55.5,55.5c0,0,0-0.1-0.1-0.1c0,0-0.1,0.1-0.1,0.1C55.3,55.6,55.4,55.6,55.5,55.5C55.4,55.6,55.4,55.6,55.5,55.5z M37.6,47.6
		C37.6,47.6,37.6,47.6,37.6,47.6c0.1,0,0.2,0,0.3,0c0,0,0,0,0,0C37.8,47.6,37.7,47.6,37.6,47.6z M23.2,108
		C23.2,107.9,23.2,107.9,23.2,108c-0.1-0.1-0.2,0-0.2,0C23.1,108,23.1,108,23.2,108C23.2,108,23.2,108,23.2,108z M36.2,47.6
		C36.2,47.6,36.2,47.7,36.2,47.6c0.1,0.1,0.2,0.1,0.3,0.1c0,0,0-0.1,0-0.1C36.4,47.6,36.3,47.6,36.2,47.6z M25,36.2
		C24.9,36.1,24.9,36.1,25,36.2c-0.1-0.1-0.1,0-0.2,0C24.8,36.2,24.9,36.2,25,36.2C24.9,36.2,24.9,36.2,25,36.2z M23.1,92
		c0,0,0.1,0.1,0.1,0.1c0,0,0.1,0,0.1-0.1c0,0,0-0.1,0-0.1C23.2,92,23.2,92,23.1,92z M31.5,47.5C31.5,47.5,31.5,47.5,31.5,47.5
		c0.1,0.1,0.2,0.1,0.4,0.1c0,0,0,0,0-0.1C31.7,47.5,31.6,47.5,31.5,47.5z M30.8,47.5C30.8,47.5,30.8,47.5,30.8,47.5
		c-0.1-0.1-0.3-0.1-0.4-0.1c0,0,0,0,0,0.1C30.5,47.5,30.7,47.5,30.8,47.5z M36.1,36.5C36.1,36.5,36.1,36.5,36.1,36.5
		c0.1-0.1,0-0.1,0-0.1C36.1,36.4,36,36.4,36.1,36.5C36,36.5,36,36.5,36.1,36.5z M24.9,47.5C24.9,47.5,24.9,47.5,24.9,47.5
		c0.1,0.1,0.2,0.1,0.4,0.1c0,0,0,0,0-0.1C25.1,47.5,25,47.5,24.9,47.5z M27.5,47.5C27.4,47.4,27.4,47.4,27.5,47.5
		c-0.1-0.1-0.2-0.1-0.2,0C27.3,47.5,27.3,47.5,27.5,47.5C27.4,47.5,27.4,47.5,27.5,47.5z M38.1,91.2c-0.1,0-0.1,0-0.2-0.1
		c0,0,0,0.1,0,0.1c0,0,0.1,0.1,0.2,0.1C38,91.2,38,91.2,38.1,91.2z M39.5,101.4c0-0.1,0.1-0.1,0.1-0.2c0,0-0.1-0.1-0.1-0.1
		c0,0-0.1,0.1-0.1,0.1C39.3,101.2,39.4,101.3,39.5,101.4z M45.8,38.4C45.8,38.5,45.8,38.5,45.8,38.4c-0.1,0.1,0,0.1,0,0.1
		C45.8,38.6,45.9,38.5,45.8,38.4C45.9,38.5,45.8,38.5,45.8,38.4z M30.1,131C30.1,131,30.1,131,30.1,131c-0.1-0.1-0.2-0.1-0.3-0.1
		c0,0,0,0.1,0,0.1C29.9,131,30,131,30.1,131z M41.6,131.3c-0.1,0-0.1-0.1-0.1-0.1c0,0-0.1,0-0.1,0.1c0,0,0.1,0.1,0.1,0.1
		C41.5,131.4,41.5,131.3,41.6,131.3z M70.8,123.5C70.8,123.5,70.8,123.5,70.8,123.5c0.1,0.1,0.2,0.1,0.2,0.1c0-0.1,0-0.1,0-0.2
		C71,123.5,70.9,123.5,70.8,123.5z"/>
	<path class="st0" d="M30.9,53c0.2-0.1,0.4-0.1,0.6-0.1c0.8,0,1.6-0.1,2.4-0.1c0,0.1,0,0.2,0.1,0.4c-0.8,0.2-1.6,0.2-2.4,0.1
		c-0.1,0-0.1-0.1-0.2-0.1c-0.6,0.3-1.2,0.1-1.8,0c-1-0.1-2.1,0.2-3.1-0.2c-0.2-0.1-0.5,0-0.7,0c-0.6,0-0.6-0.1-0.6-0.6
		c0-0.1,0-0.2,0-0.3c0.5,0,1.1,0,1.6,0.2c0.3,0.1,0.2-0.2,0.4-0.2c0.1,0.2,0.2,0.4,0.3,0.6c0.1,0.1,0.3,0.2,0.4,0.3
		c0.1,0,0.2-0.2,0.2-0.3c0-0.1,0-0.2,0.1-0.3c0.5,0,1.1-0.3,1.6,0.2c0,0,0.1,0,0.1,0C30.4,52.1,30.6,52.5,30.9,53z"/>
	<path class="st0" d="M31.1,54.9c-0.1,0.1-0.3,0.3-0.4,0.3c-0.6-0.1-1.2-0.1-1.8-0.2c-0.6-0.1-1.2-0.1-1.8-0.1
		c-0.6,0-1.3-0.1-1.9-0.2c0.3-0.2,0.6-0.1,0.9-0.2c0.4-0.1,0.8-0.1,1.2-0.2c0.5-0.1,1-0.2,1.4,0.3c0.3-0.5,0.7-0.3,1.1-0.4
		C30.6,53.9,30.8,54.3,31.1,54.9C31.1,54.8,31.1,54.9,31.1,54.9C31.2,54.9,31.1,54.9,31.1,54.9z"/>
	<path class="st0" d="M31.1,67.5c-0.5,0.3-1,0.6-1.6,0.2c-0.3-0.2-1,0.1-1.2,0.3c-0.2,0.2-0.2,0.5,0.1,0.7c0.1,0.1,0.2,0.2,0.4,0.3
		c0,0,0.1,0.1,0.1,0.2c-0.4,0.1-0.8,0.2-1.3,0.3c-0.2-0.2-0.4-0.5-0.6-0.8c0.4-0.2,1.1,0,1-0.8c-0.2-0.1-0.4-0.1-0.8-0.2
		c0.5-0.3,0.8-0.5,1.1-0.7c0.5,0.1,0.9,0.2,1.3,0.1C30.2,67,30.6,67.4,31.1,67.5z"/>
	<path class="st0" d="M32.6,74.8c-0.6,0.1-1.2,0.4-1.9,0.1c-0.6-0.2-1.2-0.1-1.8,0.4c-0.1-0.3-0.2-0.5-0.3-0.7
		c0.5-0.4,1-0.3,1.5-0.1c0.2,0.1,0.4,0.2,0.7,0c0-0.1,0.2-0.1,0.2-0.1c0.5,0.1,1.1,0.2,1.6,0.3C32.6,74.7,32.6,74.8,32.6,74.8z"/>
	<path class="st0" d="M30,48.7c0,0.3,0,0.5,0,0.8c-0.9,0.1-1.6,0.2-2.4-0.2c0.3-0.5,0.8-0.7,1.4-0.6C29.3,48.7,29.6,48.7,30,48.7z"
		/>
	<path class="st0" d="M31,50.9c-0.6,0.6-2.1,0.7-3.2,0.2c-0.2-0.5,0.3-0.5,0.5-0.5c0.3,0,0.7,0,1,0.1c0.3,0.2,0.6,0.2,1,0.1
		C30.5,50.9,30.7,50.9,31,50.9z"/>
	<path class="st0" d="M26.8,69.1c-0.9,0.4-1.6,0.1-2.3-0.1c-0.2-0.1-0.3-0.2-0.3-0.5c0.3-0.3,0.5,0.2,0.8,0.2
		c0.3-0.1,0.3-0.6,0.7-0.4c0.2,0.1,0.4,0.3,0.7,0.4C26.5,68.9,26.6,69,26.8,69.1z"/>
	<path class="st0" d="M32.6,49.5c-0.5,0-1,0.1-1.5,0.1c-0.2,0-0.4-0.2-0.4-0.4c0-0.1,0.2-0.3,0.3-0.4c0.1-0.1,0.3,0,0.4,0
		c0.3,0,0.6-0.1,1-0.1C32.5,48.9,32.6,49.2,32.6,49.5C32.6,49.5,32.6,49.5,32.6,49.5z"/>
	<path class="st0" d="M33.9,50.3c0.1,0.2-0.1,0.5,0.2,0.6c0,0,0,0.4-0.1,0.4c-0.2,0.2-1.1,0.1-1.2-0.2c0-0.1,0-0.2,0-0.3
		C33.3,50.9,33.7,50.8,33.9,50.3z"/>
	<path class="st0" d="M25.6,67.7c0.1-0.3,0.3-0.5,0.4-0.8c0.5,0.1,0.9,0.3,1.5,0.5C26.8,67.6,26.3,67.9,25.6,67.7z"/>
	<path class="st0" d="M28.4,74.5c-0.5,0.1-0.9,0.3-1.4,0.4c-0.3-0.4-0.3-0.5,0.1-0.7C27.5,74.1,27.8,74.1,28.4,74.5z"/>
	<path class="st0" d="M24.8,64.5c0,0.6,0,0.6,0.5,0.9c0.2,0.1,0.3,0.2,0.6,0.3c-0.2,0.3-0.4,0.3-0.7,0.2c-0.3-0.1-0.5-0.3-0.7-0.4
		c0,0,0-0.2,0-0.3C24.6,64.9,24.7,64.7,24.8,64.5C24.8,64.5,24.8,64.5,24.8,64.5z"/>
	<path class="st0" d="M25,71.2c-0.3-0.5-0.5-0.9-0.2-1.4c0,0.8,0.7,0.7,1.2,1C25.7,71.2,25.3,70.9,25,71.2z"/>
	<path class="st0" d="M28,76.3c-0.5,0.3-1,0.3-1.6,0.3c0.1-0.2,0.1-0.5,0.2-0.6c0.1-0.1,0.3,0,0.5,0C27.4,76.1,27.7,76.2,28,76.3
		C28,76.3,28,76.3,28,76.3z"/>
	<path class="st0" d="M24.5,67.9c0.1-0.5,0.1-0.8,0.2-1.1c0.3,0,0.6,0.1,0.7,0.5C25.1,67.4,24.9,67.6,24.5,67.9z"/>
	<path class="st0" d="M26.9,71.1c0.1-0.2,0.2-0.4,0.4-0.7c0.2,0.2,0.5,0.4,0.7,0.5c0,0,0,0.1,0,0.1C27.6,71.1,27.2,71.1,26.9,71.1z"
		/>
	<path class="st0" d="M19.2,84.7c0.1-0.4,0.3-0.8,0.4-1.2c0.1,0.3,0.3,0.6,0.4,1C19.8,84.5,19.5,84.6,19.2,84.7
		C19.2,84.6,19.2,84.7,19.2,84.7z"/>
	<path class="st0" d="M11.6,114c0.1-0.8,0.9-0.7,1.1-1.2C12.5,113.3,12.4,113.5,11.6,114z"/>
	<path class="st0" d="M38.2,20.5c-0.4,0.4-0.7,0.2-1.1,0.2C37.5,20.4,37.5,20.4,38.2,20.5z"/>
	<path class="st0" d="M37.2,18.5c-0.2,0.4-0.3,0.8-0.5,1.2C36.5,19.1,36.7,18.8,37.2,18.5C37.2,18.5,37.2,18.5,37.2,18.5z"/>
	<path class="st0" d="M12.2,112.1c-0.1-0.6,0.5-0.3,0.6-0.6c0,0.2-0.1,0.4-0.1,0.6C12.5,112.1,12.3,112.1,12.2,112.1z"/>
	<path class="st0" d="M23.6,68.7c-0.5,0.1-0.6-0.1-0.4-0.6C23.3,68.3,23.4,68.5,23.6,68.7z"/>
	<path class="st0" d="M12.1,54.1c-0.5,0.1-0.5-0.2-0.5-0.5C12,53.6,12,53.8,12.1,54.1z"/>
	<path class="st0" d="M20.1,81c0.1-0.2,0.1-0.4,0.2-0.7c0.1,0.1,0.2,0.2,0.4,0.3c-0.2,0.2-0.4,0.3-0.5,0.4
		C20.2,81.1,20.2,81.1,20.1,81z"/>
	<path class="st0" d="M28.4,71.1c0.3-0.2,0.6-0.2,1,0.1C29,71.3,28.7,71.4,28.4,71.1z"/>
	<path class="st0" d="M13.9,54.3C13.9,54.3,13.9,54.3,13.9,54.3c-0.4,0.1-0.6,0-0.7-0.6C13.5,53.9,13.7,54.1,13.9,54.3z"/>
	<path class="st0" d="M11.9,50.8c-0.3,0-0.6,0.1-0.8-0.4c0.2,0.1,0.4,0.2,0.5,0.2c0.1,0,0.2,0.1,0.4,0.1
		C11.9,50.7,11.9,50.8,11.9,50.8z"/>
	<path class="st0" d="M20.5,82.5c-0.2,0.1-0.4,0.2-0.6,0.3c0.1-0.3,0.2-0.5,0.3-0.7C20.3,82.3,20.3,82.4,20.5,82.5z"/>
	<path class="st0" d="M12.9,52.3c-0.1,0.1-0.2,0.2-0.2,0.2c-0.1,0-0.2-0.1-0.2-0.1c0-0.1,0.1-0.2,0.1-0.2
		C12.7,52.2,12.8,52.2,12.9,52.3z"/>
	<path class="st0" d="M23.4,65.5c-0.1-0.1-0.2-0.3-0.3-0.5C23.4,65,23.4,65.2,23.4,65.5z"/>
	<path class="st0" d="M34,66.7c0,0.1,0,0.3,0,0.4c0,0-0.1,0-0.1,0c0-0.1-0.1-0.2-0.1-0.4C33.8,66.7,33.9,66.7,34,66.7z"/>
	<path class="st0" d="M23.4,67.1c0.1,0,0.2-0.1,0.4-0.1c0,0,0.1,0.1,0.1,0.1c-0.1,0.1-0.2,0.1-0.3,0.2
		C23.5,67.3,23.5,67.2,23.4,67.1z"/>
	<path class="st0" d="M50.7,21.9c-0.1-0.1-0.2-0.2-0.3-0.3c0,0,0.1-0.1,0.1-0.1c0.1,0.1,0.2,0.2,0.3,0.3
		C50.8,21.8,50.8,21.9,50.7,21.9z"/>
	<path class="st0" d="M26.2,49.1c0.2,0,0.3,0,0.5,0c0,0.1,0,0.2,0,0.2C26.4,49.3,26.4,49.3,26.2,49.1z"/>
	<path class="st0" d="M35.9,20.5c0.1-0.1,0.2-0.3,0.3-0.4C36.3,20.5,36.1,20.5,35.9,20.5C35.9,20.5,35.9,20.5,35.9,20.5z"/>
	<path class="st0" d="M11,53.8c0.1,0.1,0.2,0.2,0.3,0.3c0,0,0,0,0,0.1c-0.1,0-0.1,0-0.2-0.1C11,54,10.9,53.9,11,53.8
		C10.9,53.8,10.9,53.8,11,53.8z"/>
	<path class="st0" d="M25.5,49.3c0,0-0.1-0.1-0.1-0.1c0,0,0.1-0.1,0.1-0.1c0,0,0.1,0,0.1,0C25.6,49.3,25.6,49.3,25.5,49.3z"/>
	<path class="st0" d="M73.3,45.3c0.1,0.1,0.2,0.1,0.2,0.2c0,0,0,0-0.1,0.1C73.4,45.5,73.3,45.5,73.3,45.3
		C73.2,45.4,73.2,45.3,73.3,45.3z"/>
	<path class="st0" d="M60.7,42.2c0.2,0.1,0.3,0.1,0.5,0.2C60.7,42.5,60.7,42.5,60.7,42.2C60.7,42.1,60.7,42.2,60.7,42.2z"/>
	<path class="st0" d="M52.9,31.7c-0.6,0.6-1.3,0.3-2,0.3c0.3-0.5,0.6-0.3,0.9-0.3c0.3,0,0.7-0.1,1-0.1
		C52.9,31.6,52.9,31.6,52.9,31.7z"/>
	<path class="st0" d="M53.8,32.7c-0.1,0.6-0.5,0.4-0.9,0.5c-0.5,0.2-0.7-0.3-1.1-0.5C52.5,32.7,53.1,32.7,53.8,32.7z"/>
	<path class="st0" d="M49.1,26.5c0,0.1,0,0.2,0,0.4c-0.7-0.1-1.4-0.2-2.1-0.3c0.1-0.4,0.4-0.2,0.6-0.2c0.3,0,0.5,0,0.8,0
		C48.7,26.4,48.9,26.4,49.1,26.5C49.1,26.5,49.1,26.5,49.1,26.5z"/>
	<path class="st0" d="M52.7,33.7c0.5,0,0.9,0.1,1.4,0.1c-0.2,0.2-0.3,0.3-0.4,0.5C52.7,34.1,52.7,34.1,52.7,33.7z"/>
	<path class="st0" d="M56.6,36.9c0.5,0.1,0.9,0.1,1.3,0.1c-0.4,0.3-0.8,0.4-1.2,0.3C56.5,37.4,56.5,37.3,56.6,36.9z"/>
	<path class="st0" d="M57.9,39.9c-0.3,0-0.7-0.1-1-0.1C57.5,39.3,57.8,39.3,57.9,39.9C57.9,39.9,57.9,39.9,57.9,39.9z"/>
	<path class="st0" d="M44,26.5c0.3-0.4,0.7-0.1,1.1-0.1C44.7,26.6,44.4,26.7,44,26.5z"/>
	<path class="st0" d="M56.4,35.1c-0.3,0-0.6,0-0.8,0c0-0.1,0-0.1,0-0.2c0.3-0.1,0.6-0.2,0.9,0C56.4,34.9,56.4,35,56.4,35.1z"/>
	<path class="st0" d="M54.9,36.7c-0.4-0.1-0.6-0.2-0.9-0.3C54.7,36.2,54.7,36.2,54.9,36.7z"/>
	<path class="st0" d="M43.5,28.6c-0.2,0.2-0.4,0.3-0.7,0.1c0.2-0.1,0.4-0.2,0.6-0.4C43.4,28.4,43.4,28.5,43.5,28.6
		C43.5,28.6,43.5,28.6,43.5,28.6z"/>
	<path class="st0" d="M50.1,28.5c0.1,0,0.3-0.1,0.4-0.1c0.1,0,0.1,0,0.2,0.1c0,0,0,0.1,0,0.1c-0.2,0-0.4,0-0.6,0.1
		C50.1,28.7,50.1,28.6,50.1,28.5z"/>
	<path class="st0" d="M54.7,37.2c0.3,0,0.5,0.1,0.7,0.1C55.1,37.6,55.1,37.6,54.7,37.2z"/>
	<path class="st0" d="M54.9,35c0.2-0.2,0.3-0.2,0.4-0.1c0,0,0,0.1,0,0.2C55.1,35.2,55,35.1,54.9,35z"/>
	<path class="st0" d="M42.4,33.2c0.2,0,0.4-0.1,0.6-0.1c-0.1,0.4-0.3,0.3-0.6,0.3C42.5,33.3,42.4,33.2,42.4,33.2z"/>
	<path class="st0" d="M57,35c-0.1,0-0.3,0-0.4,0c0,0,0-0.1,0-0.1c0.1,0,0.2-0.1,0.4-0.1C57,34.8,57,34.9,57,35z"/>
	<path class="st0" d="M38.3,38.1c0.1,0,0.3,0,0.4,0c0,0,0,0.1,0,0.1c-0.2,0-0.3,0-0.5,0C38.3,38.2,38.3,38.1,38.3,38.1z"/>
	<path class="st0" d="M59.2,43c0.1,0,0.3,0,0.4,0c0,0.1,0,0.2,0,0.2c-0.1,0-0.3,0-0.4,0C59.2,43.1,59.2,43,59.2,43z"/>
	<path class="st0" d="M43,38.1c-0.2,0-0.3,0-0.5,0c0,0,0-0.1,0-0.1c0.2,0,0.3,0,0.5-0.1C43,38,43,38.1,43,38.1z"/>
	<path class="st0" d="M55.8,36.1c0.2,0,0.4,0,0.5,0C56.2,36.2,56.2,36.2,55.8,36.1z"/>
	<path class="st0" d="M57,36.5c-0.1-0.1-0.2-0.3-0.3-0.4c0,0,0.1,0,0.1-0.1c0.1,0.1,0.2,0.3,0.3,0.4C57.1,36.5,57,36.5,57,36.5z"/>
	<path class="st0" d="M36.3,40.8c0.1,0,0.3,0,0.4,0c0,0,0,0.1,0,0.1c-0.1,0-0.3,0-0.4,0.1C36.3,40.9,36.3,40.9,36.3,40.8z"/>
	<path class="st0" d="M41.9,32.2c-0.1,0-0.3,0-0.4-0.1c0,0,0-0.1,0-0.1c0.1,0,0.2,0,0.2,0c0.1,0,0.1,0,0.2,0.1
		C41.9,32.1,41.9,32.1,41.9,32.2z"/>
	<path class="st0" d="M43.9,31.9C43.9,31.9,44,32,44,32c0,0-0.1,0.1-0.1,0.1c0,0-0.1-0.1-0.1-0.1C43.8,32,43.8,31.9,43.9,31.9z"/>
	<path class="st0" d="M49.7,27.5c0,0.1-0.1,0.1-0.1,0.1c-0.1,0-0.1,0-0.2-0.1c0,0,0-0.1,0.1-0.1C49.6,27.5,49.6,27.5,49.7,27.5z"/>
	<path class="st0" d="M43.6,35.5c0.1,0,0.2-0.1,0.2-0.1c0,0,0,0.1,0.1,0.1c-0.1,0-0.2,0.1-0.3,0.1C43.7,35.6,43.6,35.6,43.6,35.5z"
		/>
	<path class="st0" d="M50.1,29.3c0.1,0.1,0.1,0.1,0.1,0.2c0,0.1-0.1,0.1-0.1,0.2c0-0.1-0.1-0.1-0.1-0.2C50,29.4,50.1,29.4,50.1,29.3
		z"/>
	<path class="st0" d="M38,42.9c-0.1,0-0.1,0.1-0.2,0.1c0,0-0.1,0-0.1,0c0,0,0.1-0.1,0.1-0.1C37.8,42.7,37.9,42.8,38,42.9z"/>
	<path class="st0" d="M49.9,31.8C49.9,31.8,50,31.8,49.9,31.8c0,0.1,0,0.1-0.1,0.2C49.8,31.9,49.8,31.9,49.9,31.8
		C49.8,31.8,49.9,31.8,49.9,31.8z"/>
	<path class="st0" d="M46.3,24.7c-0.1-0.1-0.3-0.2-0.1-0.5C46.3,24.5,46.3,24.6,46.3,24.7C46.3,24.7,46.3,24.7,46.3,24.7z"/>
	<path class="st0" d="M46,25.4c-0.1,0-0.1,0-0.1,0c0,0,0-0.1-0.1-0.2c0,0,0.1,0,0.1,0C45.9,25.3,46,25.3,46,25.4z"/>
	<path class="st0" d="M54.6,34.9c0,0,0,0.1,0,0.1c0,0-0.1-0.1-0.1-0.1C54.5,34.9,54.5,34.9,54.6,34.9C54.5,34.9,54.6,34.9,54.6,34.9
		z"/>
	<path class="st0" d="M42,28.6C41.9,28.6,41.9,28.7,42,28.6c-0.1,0.1-0.2,0-0.2,0c0,0,0.1-0.1,0.1-0.1C41.9,28.5,41.9,28.6,42,28.6z
		"/>
	<path class="st0" d="M16.5,104.9c0.2,0,0.3-0.1,0.5-0.1c0.1,0.2,0.3,0.3,0.4,0.5c-0.2,0.2-0.4,0.3-0.6,0
		C16.8,105.2,16.7,105.1,16.5,104.9C16.5,104.9,16.5,104.9,16.5,104.9z"/>
	<path class="st0" d="M15.7,120.2c0.4-0.5,0.4-0.5,1-0.2C16.3,120.1,16,120.1,15.7,120.2z"/>
	<path class="st0" d="M17.6,101.5c0.1-0.1,0.3-0.2,0.4-0.3c0,0.1,0,0.2,0,0.3c-0.1,0.1-0.2,0.1-0.4,0.2
		C17.6,101.7,17.6,101.6,17.6,101.5z"/>
	<path class="st0" d="M16.4,113.3c-0.2,0-0.3,0-0.6,0.1C16,113,16.2,113.1,16.4,113.3z"/>
	<path class="st0" d="M16.7,111.4c-0.3,0.1-0.4,0-0.4-0.3c0.1,0,0.2,0,0.2,0.1C16.7,111.2,16.7,111.3,16.7,111.4z"/>
	<path class="st0" d="M18.3,97.8c-0.1-0.1-0.2-0.1-0.3-0.2c0,0,0-0.1,0.1-0.1C18.2,97.5,18.3,97.6,18.3,97.8
		C18.3,97.7,18.3,97.7,18.3,97.8z"/>
	<path class="st0" d="M15.2,119.3c0.1,0.1,0.3,0.1,0.5,0.2C15.3,119.7,15.2,119.4,15.2,119.3C15.2,119.3,15.2,119.3,15.2,119.3z"/>
	<path class="st0" d="M17.3,115.9C17.3,115.9,17.2,116,17.3,115.9c-0.1,0.1-0.2,0-0.2,0c0,0,0.1-0.1,0.1-0.1
		C17.2,115.8,17.3,115.9,17.3,115.9z"/>
	<path class="st0" d="M28.8,97.3c0.3,0.6,0.8,0.3,1.4,0.5C30,97.9,29.9,98,29.8,98c-0.4,0-0.8,0.1-1.1,0.1c-0.3,0-0.7,0.2-0.9-0.2
		c0-0.1-0.3,0-0.4,0c-0.2,0-0.4,0-0.5-0.1c-0.3-0.1-0.4-0.4-0.2-0.7c0.2-0.3,0.4-0.2,0.6,0c0.2,0.2,0.4,0.3,0.7,0.5
		C28.3,97.6,28.4,97.6,28.8,97.3z"/>
	<path class="st0" d="M26,97.3c0.1,0,0.2,0.1,0.3,0.1c0,0,0,0.1,0,0.1c-0.1,0-0.2,0-0.3-0.1C26,97.4,26,97.4,26,97.3z"/>
	<path class="st0" d="M26.6,99.5c-0.1,0-0.3,0-0.4,0.1c0-0.1,0-0.1,0-0.2C26.3,99.4,26.4,99.5,26.6,99.5
		C26.5,99.5,26.6,99.5,26.6,99.5z"/>
	<path class="st0" d="M28.3,39.5c0.1,0.1,0.1,0.1,0.1,0.2c-0.1,0-0.1,0.1-0.2,0.1c0,0-0.1-0.1-0.1-0.1
		C28.2,39.6,28.3,39.6,28.3,39.5z"/>
	<path class="st0" d="M33.7,25.8c-0.1-0.1-0.1-0.1-0.1-0.2c0,0,0.1,0,0.1,0c0,0,0.1,0,0.1,0C33.8,25.7,33.8,25.7,33.7,25.8z"/>
	<path class="st0" d="M28.3,105.6c-0.6,0.3-1.1,0.2-1.7,0c-0.3-0.1-0.6-0.1-0.9-0.1c-0.1,0-0.2-0.1-0.4-0.2c0.3-0.2,0.6-0.2,1-0.1
		C27,105.4,27.6,105.5,28.3,105.6z"/>
	<path class="st0" d="M50.1,43.5c0.1-0.1,0.1-0.2,0.2-0.2C50.3,43.5,50.3,43.5,50.1,43.5C50.1,43.5,50.1,43.5,50.1,43.5z"/>
	<path class="st0" d="M61.4,41.3c-0.1,0-0.3,0-0.4,0c0,0,0-0.1,0-0.1c0.1,0,0.3,0,0.4,0C61.4,41.2,61.4,41.3,61.4,41.3z"/>
</g>
</svg>
