<?xml version="1.0" encoding="utf-8"?>
<!-- Generator: Adobe Illustrator 27.1.1, SVG Export Plug-In . SVG Version: 6.00 Build 0)  -->
<svg version="1.1" id="Layer_1" xmlns="http://www.w3.org/2000/svg" xmlns:xlink="http://www.w3.org/1999/xlink" x="0px" y="0px"
	 viewBox="0 0 103 103" style="enable-background:new 0 0 103 103;" xml:space="preserve">
<g>
	<g>
		<g>
			<g>
				<path d="M70.6,80.2c-25.2-8.9-36.2-18.3-36.5-27.6c-0.4-12.9,19.7-21.4,42.8-31.3c8.2-3.5,16-6.9,22.3-10.2l2.9-1.6l0.5,3.3
					c1.5,10.6-1.7,20.6-9,28.1c-7.9,8.1-21.6,11.9-28,10.9l-3.4-4c10.4,1.2,21.2-3,28-10c5.5-5.7,8.3-13,8-20.9
					c-5.8,2.9-12.5,5.8-19.6,8.8c-19.7,8.5-40.3,17.1-40,26.9c0.2,4.7,6.4,14,30.5,22.5L70.6,80.2z"/>
			</g>
			<g>
				<path d="M52.6,28.7L51.1,24c5.6-3.6,10.4-6.8,14.5-9.6c5.2-3.6,10.6-7.3,19-12.6L87.5,0l0.6,3.4c0.4,3.2,0.7,7.6,0.4,10.4
					l-5,2.3c0.5-2.1,0.7-4.9,0.4-8.4c-6.6,4.2-11.3,7.4-15.8,10.5C64.2,21,58.2,25,52.6,28.7z"/>
			</g>
			<g>
				<path d="M31.2,27.3c0.1,3.5-5.5,3.5-5.4,0C25.7,23.8,31.3,23.8,31.2,27.3z"/>
			</g>
			<path d="M78.8,84.8c0-1.7-0.5-5.3-1.5-8.7c-2.1-7.5-6.5-15-13.8-23.4C53.2,40.9,50.5,31.7,48.6,24.9c-1.4-4.8-2.5-8.7-5.9-11
				l-0.1,0c-7.6-5-16.4-2.4-21.6,2.3c-5.6,5-7.4,12.1-5.1,18.6L0,51.6l20.9-16.8c-3.2-6.2-0.5-11.9,3.1-15.2
				c3.9-3.5,10.4-5.5,16-1.9c2,1.4,2.8,4.2,4.1,8.5c2,6.7,5,16.9,15.9,29.6c6.9,7.9,10.9,14.7,12.8,21.6c0.9,3.2,1.3,6.3,1.3,7.5
				c0.1,5.5,0.1,7.3,0.1,9.7l-5.1,2.3c0-0.2,0.1-0.4,0.1-0.6c0.4-2.1,1-4.8,1.7-8l-4.5-1.1c-0.8,3.3-1.3,6-1.7,8.2
				c-0.3,1.7-0.6,3.1-0.9,4.1c-0.2,0.8,0,1.7,0.5,2.4c0.5,0.7,1.3,1.1,2.2,1.1l0.5,0l11.9-5.4v-1.5C78.9,92.7,78.9,91.4,78.8,84.8z"
				/>
		</g>
	</g>
</g>
</svg>
