<?xml version="1.0" encoding="utf-8"?>
<!-- Generator: Adobe Illustrator 27.1.1, SVG Export Plug-In . SVG Version: 6.00 Build 0)  -->
<svg version="1.1" id="Layer_1" xmlns="http://www.w3.org/2000/svg" xmlns:xlink="http://www.w3.org/1999/xlink" x="0px" y="0px"
	 viewBox="0 0 91 91" style="enable-background:new 0 0 91 91;" xml:space="preserve">
<style type="text/css">
	.st0{fill:#C8E904;}
</style>
<g>
	<g>
		<g>
			<g>
				<path class="st0" d="M62.4,70.9c-22.3-7.9-32-16.2-32.2-24.4C29.7,35.1,47.5,27.7,68,18.9c7.3-3.1,14.1-6.1,19.7-9l2.6-1.4
					l0.4,2.9c1.3,9.4-1.5,18.2-7.9,24.8c-6.9,7.1-19.1,10.5-24.7,9.6l-3-3.6c9.2,1,18.7-2.6,24.8-8.9c4.9-5,7.3-11.5,7.1-18.4
					c-5.2,2.6-11.1,5.1-17.3,7.8c-17.4,7.5-35.6,15.1-35.4,23.7c0.1,4.2,5.7,12.4,26.9,19.9L62.4,70.9z"/>
			</g>
			<g>
				<path class="st0" d="M46.4,25.3l-1.3-4.1c4.9-3.2,9.2-6,12.8-8.5c4.6-3.2,9.4-6.4,16.8-11.1L77.3,0l0.6,3
					c0.4,2.9,0.6,6.7,0.4,9.2l-4.4,2.1c0.5-1.8,0.6-4.4,0.4-7.4c-5.9,3.7-10,6.6-14,9.3C56.7,18.6,51.4,22.1,46.4,25.3z"/>
			</g>
			<g>
				<path class="st0" d="M27.6,24.1c0,3.1-4.8,3.1-4.8,0C22.7,21,27.6,21,27.6,24.1z"/>
			</g>
			<path class="st0" d="M69.6,75c0-1.5-0.5-4.7-1.3-7.7c-1.9-6.7-5.7-13.2-12.2-20.6C47,36.1,44.6,28,42.9,22
				c-1.3-4.3-2.2-7.6-5.2-9.7l0,0c-6.8-4.4-14.5-2.1-19.1,2C13.6,18.7,11.9,25,14,30.8L0,45.6l18.5-14.9c-2.8-5.5-0.4-10.5,2.8-13.4
				c3.5-3.1,9.2-4.9,14.1-1.7c1.8,1.3,2.5,3.7,3.6,7.5c1.7,6,4.4,14.9,14,26.1c6.1,7,9.7,13,11.4,19.1c0.8,2.8,1.2,5.6,1.2,6.7
				c0.1,4.8,0.1,6.4,0.1,8.6L61,85.6c0-0.2,0.1-0.3,0.1-0.5c0.4-1.9,0.8-4.2,1.5-7.1l-4-0.9c-0.7,2.9-1.2,5.3-1.5,7.2
				c-0.3,1.5-0.5,2.7-0.8,3.6c-0.2,0.7,0,1.5,0.4,2.1c0.5,0.6,1.2,1,1.9,1l0.5,0l10.5-4.8v-1.3C69.7,81.9,69.7,80.7,69.6,75z"/>
		</g>
	</g>
</g>
</svg>
