<?xml version="1.0" encoding="utf-8"?>
<!-- Generator: Adobe Illustrator 27.1.1, SVG Export Plug-In . SVG Version: 6.00 Build 0)  -->
<svg version="1.1" id="Layer_1" xmlns="http://www.w3.org/2000/svg" xmlns:xlink="http://www.w3.org/1999/xlink" x="0px" y="0px"
	 viewBox="0 0 89 144" style="enable-background:new 0 0 89 144;" xml:space="preserve">
<style type="text/css">
	.st0{fill:#9B009E;}
</style>
<g>
	<path class="st0" d="M57.9,78.9c0.6,0,1.2,0,1.7-0.3c0.3-0.2,0.6-0.3,0.9-0.4c0.9-0.4,1.9-0.7,2.7-1.1c1.9-1,3.6-2,5.4-3
		c2-1.1,3.8-2.5,5.5-4c0.5-0.4,0.9-0.7,1.4-1.1c0.4-0.2,0.8-0.3,1.2-0.4c1.4-0.2,2.7-0.1,4,0.1c0.9,0.1,1.9,0.3,2.8,0.5
		s1,0.8,0.3,1.4c-0.1,0.1-0.2,0.1-0.3,0.2c-1,0.7-2,1.5-3,2.2c-0.9,0.6-1.6,1.3-2.4,2.1c-0.7,0.5-1.4,1-2,1.6
		c-1.3,1.1-2.5,2.3-3.7,3.5c-1.9,1.9-3.7,3.9-5.6,5.9c-0.9,0.8-1.6,1.8-2.4,2.7c-1.3,1.3-2.4,2.7-3.4,4.3c-0.4,0.6-0.8,1.2-1.2,1.9
		c-0.1-0.3-0.1-0.5-0.2-0.8c-0.1,0.1-0.1,0.2-0.1,0.3c-0.5,1.4-0.9,2.9-1.6,4.2c-0.4,0.8-0.8,1.5-1.2,2.3c-0.5,0.9-0.9,1.8-1.5,2.7
		c-0.5,0.9-1.1,1.7-1.7,2.5c-0.7,0.9-1.3,1.9-2,2.8c-0.6,0.8-1.1,1.6-1.6,2.5c0.3,0.1,0.6,0.2,0.8,0.3c0.7,0.2,1.5,0.4,2.1,1
		c0.1,0.1,0.2,0.2,0.3,0.3c0.2,0.2,0.4,0.3,0.5,0.5c0.4,0.7,0.4,1.5,0.6,2.2c0.1,0.3-0.2,0.3-0.3,0.5c0.1,1.2,0.2,2.4,0.4,3.6
		c0.1,0.7,0.1,1.4,0,2.1c-0.2,0.9-0.4,1.8-1,2.5c-0.3,0.3-0.6,0.7-0.9,1.1c0.5-0.1,0.8-0.1,1.1-0.1c-0.5,0.2-0.8,0.4-1.1,0.5
		c-0.4,0.2-0.7,0.5-1.2,0.4c-0.2-0.1-0.3,0-0.5,0.1c-0.1,0-0.3,0.1-0.4,0.1c-1.5,0.1-2.9,0.2-4.4,0.4c-1.7,0.2-3.5,0.5-5.2,0.5
		c-0.9,0-1.9,0.1-2.9,0.2c-1.1,0-2.1,0.2-3.2,0.2c-0.9,0-1.9,0-2.9,0c-1.9,0-3.7,0-5.5,0c-1.4,0-2.7-0.1-4.1-0.1c-1,0-1.9,0-2.9-0.1
		c-0.8-0.1-1.5-0.1-2.3-0.2c-1.1-0.1-2.3-0.1-3.4-0.2c-1.2-0.1-2.5-0.3-3.7-0.4c-0.6-0.1-1.1-0.5-1.7-0.4H8
		c-0.6-0.2-1.2-0.4-1.8-0.6c-0.2-0.1-0.4-0.1-0.7-0.2c0.1-0.2,0.1-0.4,0.2-0.6c-0.4-0.3-0.8-0.6-1.1-0.9c-0.7-0.8-1.1-1.6-1.4-2.6
		c-0.1-0.4,0-0.8-0.1-1.2c-0.2-1-0.3-2.1-0.3-3.2c0.1-1.6,0.3-3.1,0.8-4.6c0.1-0.3,0.4-0.6,0.6-0.9c0.2-0.3,0.6-0.5,0.8-0.7
		c0.8-0.8,1.6-1.2,2.7-1.2c0.3,0,0.6,0,0.8-0.4c-0.6-0.6-1.2-1.3-1.8-1.9c-0.5-0.6-1.1-1.1-1.6-1.6c-0.2-0.1-0.3-0.4-0.4-0.6
		c-0.4-1.2-0.7-2.3-1-3.5c-0.2-0.8-0.3-1.6-0.5-2.4c-0.6-2.3-0.9-4.6-0.8-7c0.1-1.9,0.3-3.7,0.4-5.6c0.1-0.7,0.1-1.3,0.3-2
		c0.6-2.7,1.5-5.3,2.5-7.8c0.7-1.8,1.6-3.6,2.3-5.5c0.4-1.1,0.6-2.2,0.9-3.3c0.4-1.6,0.6-3.3,0.7-5c0.1-1.4,0.4-2.8,0.1-4.2
		c0-0.2,0-0.3,0-0.5c0.1-0.9,0.2-1.9,0.2-2.9c0.1-3,0.8-6,1.4-8.9c0.7-3.4,2.2-6.4,4.1-9.3c0.7-1.1,1.5-2.2,2.6-3
		c1.2-0.9,2.3-1.8,3.5-2.6c1.2-0.9,2.5-1.6,3.9-2.1c2.7-1,5.6-1.4,8.5-1.4c2.5-0.1,4.9,0.5,7.3,1.3c2.3,0.8,4.5,1.5,6.8,2.2
		c0.7,0.3,1.4,0.3,2.1,0.1c0.6-0.2,1-0.6,1.1-1.2c0-0.5,0.1-1,0.2-1.5c0.2-1.5,0.4-3.1,0.7-4.6c0.2-1.3,0.4-2.5,0.1-3.8
		c-0.1-0.4-0.2-0.9-0.2-1.3c-0.1-0.8-0.1-1.6-0.1-2.4c0-0.7,0.3-0.9,0.9-0.9c0.5,0,0.9,0.1,1.4,0.2c1.4,0.4,2.7,0.7,4,1.1
		c2.4,0.7,4.7,1.5,7,2.6c1.7,0.8,3.4,1.6,5,2.5c0.4,0.2,0.8,0.5,1.1,0.8c0.4,0.3,0.4,0.5,0.1,0.9c-0.8,1-1.6,2-2.6,2.8
		c-1.1,0.9-2.1,1.8-2.9,2.9c-0.3,0.7-0.7,1.4-1.1,2c-1,1.7-2.1,3.3-3.1,5c-1.2,2-2.2,4.2-3.2,6.3c-1.9,4.1-3.6,8.3-5.1,12.6
		c-0.2,0.5-0.2,1-0.6,1.4c-0.1,0.1-0.1,0.1-0.1,0.2c0.1,0.5-0.2,0.9-0.3,1.4c-0.2,0.9-0.4,1.7-0.5,2.5c-0.2,0.8-0.2,1.5-0.3,2.3
		c-0.1,0.6-0.1,1.2-0.1,1.8c0.1,1.1,0,2.3,0,3.5c0,0.2,0.1,0.3,0.1,0.4c0.1,0.6,0.3,1.2,0.4,1.8c0,0.1,0,0.2,0,0.2
		c-0.2,0.2,0,0.5,0.1,0.7c0.3,0.4,0.5,0.8,0.8,1.1c0.5,0.6,1,1.1,1.5,1.7c0.3,0.4,0.7,0.8,1,1.2c0.7,0.9,1.3,1.9,1.9,2.8
		C57.6,78.9,57.8,78.9,57.9,78.9z M27.6,69.1c0.1,0.1,0.1,0.2,0.2,0.3c0,0,0.1,0.1,0.2,0.1c-0.2,0.2-0.4,0.4-0.6,0.7
		c0.3,0.2,0.6,0.5,0.9,0.7c0-0.1,0.1-0.2,0.2-0.3c0.6,0.5,1.4,0.2,2,0.6c0.4-0.3,0.8-0.5,1.2-0.8c0-0.4-0.3-0.7-0.4-1.1
		c-0.1,0-0.2,0.1-0.3,0.1c-0.6-0.1-1.2-0.2-1.8-0.3c-0.4,0-0.7,0-1.2,0l0,0C27.9,69.2,27.8,69.2,27.6,69.1z M15.9,124.7L15.9,124.7
		c0-0.1,0-0.3-0.1-0.4c0.1-0.4,0.1-0.7-0.1-0.7c-0.1-0.6-0.1-1.2-0.1-1.8c0-0.5,0-1,0-1.5c0,1.2,0.2,2.3,0.5,3.4c0,0.2,0,0.3,0,0.5
		h0.1c0-0.2,0-0.3,0-0.5c0,0.3,0.1,0.5,0.1,0.8s0.1,0.4,0.5,0.5c0.1-0.6-0.2-1.1-0.1-1.6c0.3-0.1,0.5-0.4,0.4-0.7c0-0.2,0-0.3,0-0.4
		c0.3-0.9-0.1-1.7-0.1-2.6c0-0.7,0.1-1.4,0.3-2.1l0.1,0.1h0.1c0-0.2,0.1-0.5,0.1-0.7c-0.1,0-0.1,0-0.2,0c0.2-0.9,0.4-1.7,0.6-2.4
		c-0.2-0.3-0.3-0.5-0.4-0.7c-0.3-0.3-0.6-0.4-1-0.1c-0.4,0.2-0.7,0.5-0.7,1c0,0.7-0.1,1.4-0.2,2.1c-0.1,0.8-0.2,1.7-0.3,2.5
		c-0.1,0.6-0.2,1.2-0.3,1.8c0,0.1,0,0.2,0,0.3c0.3,0.4,0.1,0.8,0.1,1.2c-0.1,0.2,0,0.5,0,0.8c0.3-0.1,0.4-0.1,0.5-0.2
		c-0.2,0.4-0.1,0.7,0.1,1C15.8,124.4,15.8,124.5,15.9,124.7z M51.3,117.2L51.3,117.2c0,0.2,0,0.4,0.1,0.7c0,0.3,0.1,0.7,0.2,1.1
		c0.2-0.4,0.1-0.5-0.2-1.1C51.4,117.6,51.3,117.4,51.3,117.2z M32.2,70.2c0.1-0.2,0-0.3-0.1-0.3c0.1-0.1,0.3-0.1,0.4-0.2
		c-0.1-0.1-0.2-0.3-0.5-0.5c0,0.3-0.1,0.5,0.1,0.7C32.2,70,32.2,70.1,32.2,70.2z M38.5,116.6c-0.2,0.2-0.1,0.3,0,0.5
		c0.1,0.2,0.2,0.5,0.1,0.8c-0.3-0.1-0.3-0.3-0.3-0.5c-0.1-0.6-0.3-1.1-0.7-1.6c0-0.1,0-0.3,0-0.4h-0.1c0,0.1,0,0.2,0,0.3
		c-0.2,0.1-0.3,0.3-0.5,0.4c0-0.1,0-0.3,0-0.5c-0.1-0.4-0.3-0.7-0.8-0.7c0.1,0.6,0.3,1.1,0.7,1.6c0.1-0.2,0.1-0.3,0.1-0.4
		c0.1,0.4,0.2,0.7,0.3,1c-0.1-0.1-0.2-0.2-0.3-0.3c0,0.3,0,0.5,0.2,0.6c-0.1,0.6-0.1,1.2,0.2,1.7c0.5,0,1,0.1,1.5,0.1
		c-0.1-0.2-0.2-0.5-0.3-0.8c0.4,0,0.4,0.3,0.6,0.5c0.1,0.2,0.2,0.4,0.2,0.5c-0.1,0.3-0.1,0.6-0.1,0.8c0.1,0.3,0.1,0.7,0.2,1
		c0.1,0.5,0.2,1,0.3,1.5c0-0.1,0.1-0.2,0.1-0.4c0.2,0.4,0.2,0.6,0.1,1c-0.2,0.5-0.3,1.1,0.3,1.5c0.1-0.3,0.2-0.6,0.3-0.9h-0.1
		c0,0.1-0.1,0.2-0.1,0.3c0-0.5-0.1-1,0.1-1.5c0.3-0.6,0.4-1.3,0.1-2c0-0.1,0-0.3,0-0.5c-0.1-0.4-0.1-0.7-0.2-1.2
		c-0.1,0.2-0.2,0.3-0.2,0.3c0-0.4,0.1-0.9,0-1.4c-0.1-0.6-0.3-1.3-0.4-1.9c0-0.1-0.1-0.2-0.1-0.2c-0.2-0.1-0.4-0.3-0.6-0.4
		c-0.2,0.1-0.3,0.1-0.5,0.2c-0.1,0-0.3-0.1-0.5-0.2c0,0.4,0.1,0.7,0.3,0.9C38.3,116.5,38.4,116.7,38.5,116.6z M24.5,121.3
		L24.5,121.3c-0.1,0.2,0,0.4,0,0.6c0.1,0.5,0.2,1,0.3,1.4h0.1c-0.1-0.4-0.1-0.8-0.2-1.2c0-0.1-0.1-0.1-0.2-0.2
		C24.5,121.7,24.5,121.6,24.5,121.3z M17.9,121.5c0.2-0.3,0.2-0.4,0-0.5c0.1-0.1,0.1-0.1,0-0.1c0-0.6,0-1.3,0-1.9
		c0-0.5-0.2-0.8-0.7-1c0.1,1.1,0.1,2.2,0.2,3.3c0.2-0.1,0.3-0.2,0.5-0.3C17.9,121.1,17.9,121.2,17.9,121.5z M46.3,115
		c-0.2-0.2-0.4-0.5-0.8-0.5c0.3,1,0.7,1.8,1.1,2.6c0.3,0.7,0.5,1.4,0.4,2.1c-0.1-0.1-0.2-0.1-0.3-0.3c0,0.3,0,0.5,0,0.7
		c0.1,0,0.1,0,0.1,0c0-0.1,0.1-0.3,0.1-0.4c0.1,0.4,0.3,0.8,0.3,1.2c0.1,0.5,0.1,1,0.3,1.5c0.3-0.2,0.2-0.5,0.3-0.8c0,0,0.1,0,0.3,0
		c0.1-0.2,0.1-0.4,0.1-0.7h0.1c0.1,0.4,0.1,0.8,0.2,1.2c0.3-0.4,0.2-1.3-0.1-2.1c-0.1,0.1-0.1,0.2-0.2,0.2c-0.4-1.1-0.9-2.3-1.3-3.4
		c-0.1-0.3-0.1-0.6-0.1-0.9l0,0c0.6,1.1,0.9,2.1,1.1,3.1c0.1,0.3,0.1,0.5,0.2,0.8c0.5-0.3,0.1-0.6,0.1-0.9c0.1-0.3,0-0.7-0.1-1
		c-0.1-0.4-0.2-0.7-0.3-1c0.1,0.2,0.2,0.3,0.4,0.5c0.1-0.5-0.1-1-0.3-1.2c-0.3-0.4-0.6-0.9-1.2-0.9c0.1,0.1,0.2,0.3,0.4,0.6
		c-0.1,0-0.2,0-0.3,0C46.6,115.4,46.4,115.3,46.3,115z M38,121.6C37.9,121.6,37.9,121.6,38,121.6c-0.2,0.3-0.2,0.5-0.2,0.8
		c0,0.2,0.1,0.3,0.3,0.3c0.2,0.3-0.2,0.5-0.2,1c0.2,0,0.4,0,0.5,0c0.2,0.2-0.3,0.6,0.3,0.8c0-1.2,0-2.2,0-3.3c0.1,0,0.1,0,0.2,0
		c-0.2,0.5,0.1,0.9,0.3,1.3c0,0.3-0.1,0.6-0.1,0.9H39c0-0.2-0.1-0.3-0.1-0.4c-0.1,0.8,0.1,1.5,0.2,2.2c0.2,0.1,0.4,0,0.3-0.2
		c-0.2-0.5-0.1-0.9-0.1-1.4c0-0.3,0-0.5,0-0.8c0.1,0.1,0.2,0.1,0.3,0.1c0-0.1,0-0.2,0-0.4c-0.1,0-0.3,0-0.4,0c0-0.6,0.1-1.1,0.1-1.7
		c0-0.4-0.2-0.8-0.5-1.1c-0.4,0-0.7,0.1-1.1,0.1c-0.2,0.3,0,0.6,0.2,0.9c0-0.2,0-0.3,0-0.4l0,0c0.2,0.5,0.4,1.9,0.2,2.4
		C38.1,122.3,38,121.9,38,121.6z M33.2,122c-0.2-1.2-0.3-2.5-0.5-3.7c-0.1-0.3-0.1-0.5-0.2-0.9c-0.1,0.3-0.2,0.4-0.3,0.6
		c-0.1-0.3-0.2-0.6-0.3-0.9c-0.4,0.3-0.5,0.6-0.5,1.1c0.1,1.2,0.2,2.4,0.3,3.6c0,0.1,0.1,0.3,0.2,0.5c0.3-0.4-0.3-0.8,0.1-1.2
		c0,0.1,0.1,0.1,0.1,0.2c0,0.3,0,0.6,0.3,0.8c0.1,0,0.1,0.2,0.1,0.3c0,0.4,0.1,0.7,0.2,1.1c0-0.2,0.1-0.4,0.1-0.6l0,0
		C33.1,122.7,33.1,122.3,33.2,122z M23.4,115c-0.3-0.1-0.5-0.1-0.8-0.2c-0.1,0.1-0.3,0.2-0.5,0.4c0.1,0.1,0.2,0.2,0.3,0.2
		c0,1.2,0,2.3,0,3.5c0,0.2,0,0.3-0.1,0.5c-0.2,0.5-0.3,1-0.5,1.6c0.2,0.1,0.3,0,0.4,0.1c0,0.1,0.1,0.2,0.1,0.3
		c0,0.6,0.1,1.1,0.5,1.6c0-0.9-0.1-1.7-0.2-2.6h0.1c0.1,0.4-0.1,0.8,0.3,1.2c0.4-0.3,0.3-0.7,0.3-1.1c0-0.7-0.2-1.4-0.1-2.1
		c0-0.2-0.1-0.5-0.1-0.7l0,0c0.1,0.1,0.2,0.1,0.2-0.1c0.2-0.7,0.4-1.4,0.2-2.1c-0.1,0-0.3,0-0.4,0l0,0
		C23.1,115.3,23.2,115.2,23.4,115z M6.1,122c-0.2-0.6-0.2-1.3-0.3-1.9c-0.1-0.8-0.3-1.5-0.4-2.3c-0.1-0.2-0.1-0.4-0.2-0.6
		c-0.1,0.1-0.1,0.3-0.1,0.4H5c0-0.1-0.1-0.3-0.1-0.4c0-0.6,0.1-1.2,0-1.7c-0.1-0.4,0.3-0.4,0.3-0.7c0-0.4,0.1-0.7,0.2-1
		c0-0.2,0.2-0.5,0.3-0.8c0.2-0.3,0.4-0.5,0.5-0.8c0.1-0.1,0.1-0.3,0.1-0.5c0.2-0.2,0.4-0.3,0.6-0.5v-0.1c-0.1,0.1-0.2,0.1-0.3,0.1
		c-0.1,0.1-0.2,0.2-0.3,0.2c-0.7-0.1-1,0.4-1.4,0.7c-0.5,0.4-0.5,1-0.7,1.5c-0.8,1.8-0.5,3.6-0.2,5.5c0.1,0.6,0.2,1.2,0.3,1.8
		c0.2,1,0.8,1.8,1.4,2.6c0-0.1,0-0.3,0-0.3c-0.3-0.3,0-0.5,0-0.8l0,0C5.9,122.3,6,122.2,6.1,122z M16.6,61.6
		c0.2,0.2,0.3,0.5,0.5,0.7c0.6,0.8,1.5,1.1,2.5,1c0.7-0.1,1.4-0.2,2.1-0.5c1-0.3,2-0.5,3.1-0.5c0.4-0.1,0.9-0.2,1.3-0.2
		c0.7-0.1,1.5-0.1,2.2-0.2c0.5-0.1,1-0.1,1.5-0.1c0.4-0.1,0.8-0.1,1.1-0.5c0.2-0.3,0.7-0.4,1.1-0.6c1.4-0.6,2.8-1.3,3.9-2.4
		c1.4-1.4,2.9-2.8,4.3-4.2c1.8-1.8,3.4-3.7,4.8-5.9c0.9-1.5,1.8-3.1,2.6-4.7c0.6-1.1,0.4-2.2-0.1-3.3c-0.5-1-1.3-1.8-2.2-2.4
		c-0.4-0.3-0.7-0.5-1.1-0.8c-1.9-1.4-4-2-6.3-2.3c-0.5-0.1-1-0.1-1.5-0.2c-2.6-0.4-5.2,0-7.7,0.7c-2.1,0.6-3.8,1.8-5.3,3.3
		c-0.8,0.7-1.6,1.5-2.3,2.4c-0.6,0.7-1.1,1.4-1.5,2.2c-0.8,1.6-1.6,3.1-2.3,4.7c-0.9,2-1.2,4.1-1.5,6.2c-0.1,1-0.2,2-0.3,2.7
		C15.5,58.5,15.9,60.1,16.6,61.6z M40.9,118.7c0.1,0.2,0,0.5,0,0.7c-0.1,0.2-0.1,0.3-0.1,0.5c0.1,1.2,0.1,2.3,0.1,3.4
		c0,0.1,0,0.3,0,0.5c0,0.3,0,0.5-0.2,0.8c-0.1,0.3-0.1,0.7-0.1,1c0.1-0.2,0.2-0.5,0.3-0.8c0,0.2,0,0.4,0,0.5c0.1,0,0.2,0.1,0.4,0.1
		c-0.1-0.3-0.1-0.4-0.1-0.6c0.3-0.1,0.4-0.6,0.8-0.4c0,0.2-0.1,0.4-0.1,0.6c0,0,0,0.2,0.1,0.2s0.3,0,0.3-0.1
		c0.1-0.2,0.2-0.4,0.2-0.6c0.1-0.4-0.1-0.9-0.1-1.4c-0.1-1-0.1-2-0.1-3c0-0.3,0-0.6-0.1-0.8c-0.1-0.5-0.3-1-0.4-1.5
		c0-0.1-0.1-0.3-0.2-0.5c-0.2,0.5,0.3,0.9,0,1.4c-0.3-0.9-0.4-1.8-1.3-2.5C40.5,117.1,40.7,117.9,40.9,118.7z M9.6,117.9
		c-0.1-0.3-0.1-0.5-0.1-0.8c0.1-0.8-0.1-1.7-0.3-2.5C9,114,9.1,113.5,9.3,113c0.2-0.2,0.2-0.6,0.3-0.9C9.4,112,9.3,112,9.3,112
		c-0.4,0.3-0.8,0.6-1.1,0.9c-0.3,0.4-0.2,0.9-0.1,1.3c0.1,0.1,0,0.4-0.1,0.5c-0.2,0.2-0.2,0.4-0.2,0.6c0,0.5,0,1.1,0.1,1.6
		c0,0.1,0.1,0.2,0.2,0.3c0.3-0.3,0-0.6,0.2-0.9c0.1,0.3,0.1,0.5,0.2,0.8c0-0.1,0.1-0.2,0.2-0.3c0,0.5,0.1,1,0.1,1.5
		c0.1,0,0.1,0,0.1,0c0-0.1,0.1-0.3,0.1-0.5c0,0.1,0,0.1,0,0.2c-0.1,0.3-0.1,0.7-0.1,1c0,0.1,0,0.3,0,0.4c0.1,0.7,0.3,1.3,0.3,1.9
		c0,0.4-0.1,0.9,0,1.3c0.1,0.2,0.1,0.4,0.2,0.6c0.4,0,0.4-0.2,0.3-0.5c-0.3-1-0.5-2.1-0.5-3.1c0-0.3,0.1-0.6,0.1-0.9l0.1-0.2
		c0.3,0,0.2-0.3,0.2-0.4C9.5,118,9.4,118,9.6,117.9z M23.7,119.4c0-0.4,0.1-0.8,0.1-1.2h-0.1c0,0.6-0.1,1.3-0.2,1.9
		c0.4,0.6-0.1,1.2,0,1.8c0.1,0.6,0,1.3-0.1,2c0.2,0,0.5,0.2,0.4,0.5c-0.1,0.1-0.2,0.2-0.4,0.4c0,0.2,0.2,0.5,0.3,0.9
		c0.2-0.4,0.1-0.9,0.1-1.3c0-0.5,0-0.9,0.3-1.4c0,0.4,0,0.7,0,1c0,0,0,0.1,0.1,0.1c0.2-0.1,0.3-0.3,0.3-0.5c0-0.4,0.1-0.9-0.3-1.2
		c-0.1,0-0.1-0.1-0.1-0.2c0.1-0.6,0.1-1.2,0.1-1.8c0-0.2,0-0.3,0-0.4c-0.1-1-0.2-1.9-0.3-2.8h-0.1C23.7,117.9,23.9,118.6,23.7,119.4
		z M8.8,121c-0.3-0.6-0.3-1.3-0.4-1.9c0-0.5-0.1-1.1-0.2-1.7c-0.3,0.2-0.4,0.3-0.4,0.6c0,1.1,0.3,2.1,0.6,3.2c0.1,0.3,0.2,0.7,0.3,1
		C8.9,121.8,8.9,121.4,8.8,121z M52.5,120c-0.2,0.7-0.2,0.7,0.5,0.9c-0.1,0.1-0.1,0.2-0.1,0.3c-0.1,0-0.1,0.1-0.1,0.2h0.1
		c0.2-0.2,0.2-0.4,0.2-0.7c-0.2-0.5-0.2-1.1-0.3-1.7c0-0.2-0.1-0.4-0.2-0.5c0-0.1-0.2-0.1-0.3-0.2c-0.1,0.1-0.2,0.2-0.3,0.4
		c0.5,0,0.6,0.3,0.7,0.7C52.6,119.6,52.4,119.7,52.5,120z M52.5,122.7c0.2-0.3-0.1-0.5-0.2-0.8c0-0.3-0.2-0.6-0.3-0.9
		c-0.2,0.3-0.1,0.5-0.1,0.7c0,0.3,0,0.5,0,0.7C52.2,122.6,52.4,122.7,52.5,122.7z M52.4,117.9c-0.2-0.3-0.3-0.6-0.5-0.9
		C51.6,117.7,51.7,117.8,52.4,117.9z M48.3,123c0.3-0.6,0.3-0.6-0.1-1C48.3,122.4,48.3,122.7,48.3,123z M15.2,46
		c-0.4,0.1-0.4,0.1-0.4,1C14.9,46.6,15,46.3,15.2,46z M32.6,82.9c0.1,0.2,0.2,0.4,0.3,0.6c0.1-0.2,0.2-0.3,0.3-0.6
		C32.9,82.9,32.8,82.9,32.6,82.9z M48.8,118.4c0.2-0.5,0.2-0.5-0.2-0.6C48.6,118,48.7,118.2,48.8,118.4z M20.4,36.7
		c0.3-0.1,0.4-0.2,0.4-0.5c0,0.1,0,0,0,0C20.6,36.4,20.5,36.5,20.4,36.7z M17.1,125.2c0.1,0,0.2-0.1,0.2-0.2l-0.1-0.1
		c-0.1,0-0.2,0.1-0.3,0.2C17,125.2,17.1,125.2,17.1,125.2z M51.9,120.2L51.9,120.2c-0.1,0.2,0,0.3,0,0.5H52
		C51.9,120.5,51.9,120.4,51.9,120.2z M48.4,117.1L48.4,117.1c-0.1,0.1-0.1,0.3-0.1,0.4c0.1,0,0.1,0,0.2,0
		C48.5,117.3,48.5,117.2,48.4,117.1z M31,117.1L31,117.1c0-0.2,0-0.4-0.1-0.5l0,0C30.9,116.8,30.9,117,31,117.1z M6.4,124.2
		L6.4,124.2c0-0.1-0.1-0.2-0.2-0.3c0.1,0,0.1,0,0,0C6.3,124,6.3,124.1,6.4,124.2z M49,119L49,119c0,0.2-0.1,0.3,0,0.5
		c-0.1,0,0,0,0,0C49,119.4,49,119.2,49,119z M27.4,119.5L27.4,119.5c0,0.2,0,0.4,0,0.6l0,0C27.4,119.9,27.4,119.7,27.4,119.5z
		 M31.2,116.6L31.2,116.6c0.1-0.1,0.1-0.3,0-0.4l0,0C31.2,116.4,31.2,116.5,31.2,116.6z M53.1,42.2C53.2,42.2,53.2,42.2,53.1,42.2
		c0.1-0.1,0.1-0.2,0.2-0.3c0-0.1,0-0.1-0.1-0.1C53.2,41.9,53.1,42,53.1,42.2z M49,120.1L49,120.1c0,0.1,0,0.2,0,0.3l0,0
		C49,120.3,49,120.2,49,120.1z M10.2,123.9L10.2,123.9c-0.1,0.1,0,0.2,0.1,0.2l0,0C10.3,124,10.2,123.9,10.2,123.9z M41.8,124.7
		L41.8,124.7c-0.1,0.1-0.2,0.2-0.2,0.3h0.1C41.7,124.9,41.7,124.8,41.8,124.7z M15.5,45.1L15.5,45.1c-0.1,0-0.2,0.1-0.2,0.2h0.1
		C15.4,45.2,15.4,45.1,15.5,45.1z M29.9,29.3c0-0.1,0-0.1,0-0.1c-0.1,0-0.2,0-0.3,0v0.1C29.7,29.3,29.8,29.3,29.9,29.3z M9.5,124.3
		c0.1,0,0.1,0.1,0.2,0.1c-0.1,0.1,0,0,0,0C9.6,124.4,9.6,124.3,9.5,124.3z"/>
	<path class="st0" d="M11.5,127.5c0.1,0,0.3,0,0.5-0.1c0,0.1,0,0.1,0,0.1C11.8,127.5,11.7,127.5,11.5,127.5L11.5,127.5z"/>
	<path class="st0" d="M54.7,125.7c-0.1-0.1-0.2-0.1-0.3-0.2v-0.1c0.2,0,0.3,0.1,0.4,0.1C54.8,125.5,54.7,125.6,54.7,125.7z"/>
	<path class="st0" d="M46.7,115.5L46.7,115.5L46.7,115.5c-0.3,0.1-0.3,0.1-0.5-0.3C46.4,115.3,46.6,115.4,46.7,115.5z"/>
	<path class="st0" d="M28,69.1c0.4,0.3,0.4,0.3,0.1,0.5C28.1,69.5,28,69.3,28,69.1L28,69.1z"/>
	<path class="st0" d="M23.1,115.5c-0.1,0-0.2,0.1-0.2,0.2l-0.1-0.1c0.1-0.1,0.1-0.2,0.2-0.3C23,115.4,23.1,115.4,23.1,115.5
		L23.1,115.5z"/>
	<path class="st0" d="M16,121.4c0,0,0.1-0.1,0.1-0.2l0,0c0.2,0.2,0.2,0.4,0.2,0.7c0,0.5,0,1,0,1.5h-0.1
		C16.1,122.7,16.3,122.1,16,121.4z"/>
	<path class="st0" d="M16,121.2c0-0.4,0-0.8,0.2-1.3C16.3,120.4,16.3,120.8,16,121.2L16,121.2z"/>
	<path class="st0" d="M16.9,122.5c-0.1-0.1-0.1-0.3-0.1-0.5c0.1,0,0.1,0,0.1,0C16.9,122.2,16.9,122.3,16.9,122.5
		C16.8,122.5,16.8,122.5,16.9,122.5z"/>
	<path class="st0" d="M16.3,118.1c0-0.1,0-0.2,0-0.3c0.1,0,0.1,0,0.1,0C16.4,117.9,16.4,118,16.3,118.1
		C16.4,118.1,16.3,118.1,16.3,118.1z"/>
	<path class="st0" d="M16.4,119.4c-0.1-0.1-0.1-0.2,0-0.3l0,0C16.4,119.2,16.4,119.3,16.4,119.4C16.3,119.4,16.3,119.4,16.4,119.4z"
		/>
	<path class="st0" d="M5.7,122.4c-0.5-1-0.8-2.2-1-3.5c-0.1-0.4-0.1-0.9-0.2-1.4c-0.2-0.6-0.2-0.6,0.1-1.1c0,0.1,0,0.1,0,0.2
		c0,1.8,0.5,3.5,1,5.1C5.7,122,5.7,122.2,5.7,122.4L5.7,122.4z"/>
	<path class="st0" d="M4.9,113.3c-0.1,0.3-0.2,0.6-0.3,0.9c-0.1-0.3,0-0.6,0.2-0.9C4.8,113.4,4.9,113.4,4.9,113.3z"/>
	<path class="st0" d="M4.3,115c-0.1,0-0.2,0-0.3,0v-0.1C4.1,114.9,4.2,114.9,4.3,115L4.3,115z"/>
	<path class="st0" d="M41.9,123.5c-0.1,0-0.1,0-0.2,0c0-1,0-2.1,0-3.2C41.9,121.4,41.8,122.5,41.9,123.5z"/>
	<path class="st0" d="M41,120.6c0,0.3,0,0.6,0,0.9l0,0C41,121.2,41,120.9,41,120.6L41,120.6z"/>
	<path class="st0" d="M41.3,123.4c0-0.1,0-0.2,0-0.3l0,0C41.3,123.2,41.3,123.3,41.3,123.4L41.3,123.4z"/>
	<path class="st0" d="M8.2,115c0,0.1-0.1,0.1-0.1,0.2c-0.1,0-0.1,0-0.1,0c0-0.1,0-0.1,0-0.2C8,115,8.1,115,8.2,115z"/>
	<path class="st0" d="M38.7,116.5c0.1,0.1,0.2,0.2,0.3,0.3c0.1,0.6,0.3,1.3,0.4,1.9c0,0.1-0.1,0.3-0.1,0.4c-0.2-0.7-0.3-1.3-0.5-2
		c0-0.1-0.1-0.1-0.2-0.2C38.6,116.8,38.7,116.6,38.7,116.5L38.7,116.5z"/>
	<path class="st0" d="M39.6,120.1c0.1,0.3,0.1,0.7,0.2,1.1h-0.1C39.6,120.8,39.6,120.5,39.6,120.1L39.6,120.1z"/>
	<path class="st0" d="M38.4,116.2c0-0.1,0.1-0.3,0.1-0.4c0.1,0.1,0.1,0.2,0.2,0.3c0.2,0.1,0.2,0.3,0,0.4l0,0
		C38.6,116.4,38.5,116.4,38.4,116.2z"/>
	<path class="st0" d="M39.8,117.8c-0.1-0.2-0.1-0.5-0.2-0.7h0.1C39.8,117.3,39.8,117.6,39.8,117.8C39.8,117.8,39.8,117.8,39.8,117.8
		z"/>
	<path class="st0" d="M40,120.6c0.1,0.1,0.1,0.1,0.1,0.3c-0.1,0-0.1,0-0.1,0C40,120.8,40,120.7,40,120.6
		C40,120.6,40.1,120.6,40,120.6z"/>
	<path class="st0" d="M22.7,118.3c0.1,0.3,0.1,0.7,0.1,1c-0.1,0-0.1,0-0.1,0C22.7,119,22.7,118.6,22.7,118.3L22.7,118.3z"/>
	<path class="st0" d="M23,117.8c0-0.3-0.1-0.6-0.1-0.8H23C23,117.2,23,117.5,23,117.8L23,117.8z"/>
	<path class="st0" d="M32.8,122.9c0-0.2,0-0.4-0.1-0.6h0.1C32.8,122.5,32.8,122.7,32.8,122.9L32.8,122.9z"/>
	<path class="st0" d="M32.3,118.7c0,0,0-0.1,0-0.3l0,0C32.3,118.5,32.3,118.6,32.3,118.7L32.3,118.7z"/>
	<path class="st0" d="M47.8,120.4c-0.1-0.2-0.1-0.3-0.1-0.6C47.9,120.1,47.9,120.1,47.8,120.4z"/>
	<path class="st0" d="M30.9,70.2c-0.1-0.1-0.2-0.2-0.3-0.3c0.5,0.1,0.5,0.1,0.5,0.5C31,70.3,31,70.3,30.9,70.2z"/>
	<path class="st0" d="M30.8,70.8c0-0.2,0.1-0.4,0.1-0.5c0.1,0,0.1,0.1,0.2,0.1C31.3,70.6,31.2,70.7,30.8,70.8z"/>
	<path class="st0" d="M23.6,122.4c0-0.4,0-0.7-0.1-1.1c0.1,0,0.1,0,0.1,0C23.6,121.7,23.6,122,23.6,122.4L23.6,122.4z"/>
	<path class="st0" d="M23.7,122.5c0-0.2,0-0.3,0-0.5c0.1,0,0.1,0,0.1,0c0.1,0.2,0.1,0.3,0.1,0.5C23.9,122.5,23.9,122.5,23.7,122.5z"
		/>
	<path class="st0" d="M37.6,118.9C37.6,119,37.5,119,37.6,118.9c-0.1-0.1-0.1-0.3-0.2-0.5h0.1C37.5,118.6,37.6,118.8,37.6,118.9
		S37.6,119,37.6,118.9z"/>
	<path class="st0" d="M38.7,120.1c0,0.2-0.1,0.3-0.1,0.5h-0.1C38.5,120.4,38.6,120.3,38.7,120.1L38.7,120.1z"/>
	<path class="st0" d="M37.9,120.2c-0.1-0.2-0.2-0.3-0.3-0.5C37.9,119.8,37.9,120,37.9,120.2z"/>
</g>
</svg>
