<?xml version="1.0" encoding="utf-8"?>
<!-- Generator: Adobe Illustrator 27.1.1, SVG Export Plug-In . SVG Version: 6.00 Build 0)  -->
<svg version="1.1" id="Layer_1" xmlns="http://www.w3.org/2000/svg" xmlns:xlink="http://www.w3.org/1999/xlink" x="0px" y="0px"
	 viewBox="0 0 87 140" style="enable-background:new 0 0 87 140;" xml:space="preserve">
<style type="text/css">
	.st0{fill:#EBFF27;}
</style>
<g>
	<path class="st0" d="M24.8,64.9c0-0.1,0-0.2,0-0.3c-0.4-0.1-0.8,0-1.2-0.3c-0.3-0.2-0.7-0.3-1-0.5c-0.3-0.2-0.6-0.5-1-0.7
		c0.1-0.2,0.2-0.3,0.4-0.5c-0.2-0.1-0.3-0.2-0.5-0.3c-0.2,0-0.8-0.1-0.9-0.1c-0.3-0.1-0.3-0.4-0.2-0.6c0.1,0,0.3,0.1,0.5,0.1
		c0-0.1-0.1-0.2-0.1-0.2c-0.4-0.1-0.8-0.2-1.2-0.3c-0.2-0.1-0.4-0.1-0.6-0.2c0,0,0-0.1,0-0.1c0.1,0,0.2,0,0.4-0.1
		c0.1-0.2-0.2-0.6-0.4-0.6c-0.2,0-0.3,0-0.5,0c-0.3,0-0.6-0.1-0.7-0.4c0.2,0,0.3-0.1,0.5-0.1c-0.1-0.3-0.3-0.5-0.6-0.4
		c0.1,0.2,0.1,0.3,0.2,0.5c-0.6-0.5-1.3-0.9-1.9-1.2c-0.6-0.3-1.2-0.7-1.8-1c-0.5-0.2-0.9-0.6-1.4-0.7c-0.1,0-0.2-0.1-0.4-0.2
		c0.2-0.1,0.4-0.2,0.5-0.2c0.5,0,1,0.1,1.5,0.2c0.4,0,0.7,0.1,1.1,0.1c0.4,0,0.7-0.1,0.6-0.8c0.5,0.8,1.2,0.4,1.6,0.7
		c0.1-0.1,0.2-0.2,0.2-0.2c0.4,0.1,0.8,0.3,1.2,0.4c0.1-0.2,0.2-0.3,0.2-0.5c0.2,0.1,0.5,0.2,0.7,0.3c0.3-0.4,0.6-0.5,1-0.2
		c0.2,0.1,0.5,0.1,0.7,0c0.4-0.2,0.7-0.2,1,0.1c0.1,0.1,0.2,0.1,0.4,0.1c0.1-0.2,0.2-0.3,0.3-0.5c0.4-0.1,0.8,0.1,1,0.4
		c0.3,0.3,0.4,0.2,0.6,0c0.3,0.1,0.6,0.3,0.8,0.2c0.2-0.1,0.2-0.5,0.4-0.8c0.2-0.1,0.3,0.1,0.5,0.4c0.1,0.2,0.3,0.4,0.5,0.5
		c0.4,0.2,0.7,0,0.7-0.5c0-0.1,0-0.1,0-0.3c0.1,0.1,0.3,0.2,0.3,0.3c0.1,0.2,0.2,0.3,0.4,0.5c0.4,0.3,0.7,0.2,0.9-0.3
		c0-0.1,0.1-0.2,0.1-0.3c0.4,0.2,0.4,0.2,0.7,0.7c0.2,0,0.4,0,0.6,0.1c0.5,0.1,0.6,0.1,0.7-0.4c0-0.1,0.1-0.2,0.1-0.4
		c0.3,0,0.6,0,0.9,0.2c0.1,0.1,0.4,0.1,0.7,0.2c0,0.1,0.1,0.3,0.1,0.5c0.3,0,0.5,0,0.8,0c0.1-0.3,0.2-0.6,0.3-1.1
		c0.5,0.5,1,0.8,1.4,1.2c0.2-0.3,0.3-0.5,0.4-0.7c0.5,0.2,1,0.3,1.6,0.5c0-0.3,0-0.6,0.1-0.9c0.8,0.2,1.4,1.1,2.4,0.8
		c0.1-0.3,0.2-0.6,0.4-1c-0.2-0.3-0.5-0.3-0.8-0.3c-0.5,0-1.1,0-1.6,0.1c-0.6,0.1-1.2,0-1.8,0c-1.4-0.1-2.8-0.1-4.2-0.1
		c-0.5,0-1,0.1-1.4-0.3l0,0c0.4-0.7,1-0.9,1.7-0.6c0.2,0.1,0.3,0.2,0.4,0.3c0.5,0.4,0.8,0.4,1.2-0.1c0,0,0.1-0.1,0.1-0.1
		c0.7,0.4,1.5,0.4,2.4,0.4c0.1-0.3,0.1-0.7,0.2-1c-0.5-0.4-1-0.4-1.5-0.4c-0.5,0-1,0-1.5-0.1c0.3-0.4,0.6-0.5,0.9-0.5
		c0.4,0,0.8-0.2,1.3-0.3c0.3,0,0.4-0.3,0.4-0.5c0-0.3-0.2-0.4-0.4-0.4c-0.3,0-0.6-0.1-0.9-0.1c-0.1,0-0.3-0.1-0.5-0.1
		c0.1-0.3,0.4-0.3,0.6-0.3c0.4,0,0.7-0.1,0.9-0.4c0.3-0.4,0.1-0.8-0.3-0.9c-0.4-0.1-0.7-0.2-1.1,0c-0.2,0.1-0.4-0.1-0.7-0.1
		c-0.4,0-0.7,0.1-1.1,0.1c-0.2,0-0.5,0-0.5-0.3l0,0c0.5-0.2,0.9-0.3,1.5-0.1c0.1,0,0.3,0,0.4,0l0.8-0.1c0.3-0.1,0.5,0,0.7-0.2
		c0.1-0.1,0.2-0.4,0.2-0.6c0-0.2-0.2-0.3-0.4-0.4c-0.8,0-1.5-0.1-2.3-0.1c-0.5,0-1-0.1-1.4,0.1c-0.4,0.1-0.9,0-1.4-0.2
		c-0.2-0.1-0.4-0.1-0.5,0c-0.7,0.3-1.5,0.3-2.2,0.1c-0.9-0.2-1.7-0.2-2.6,0c-0.3,0-0.4,0.2-0.4,0.5c0,0.2,0.1,0.4,0.1,0.5
		c0,0.2,0,0.4-0.1,0.5c-0.6,0.5-0.6,0.6-0.3,1.2c0,0.1,0.1,0.1,0.2,0.2c0.5-0.1,1.1-0.2,1.6-0.2c0.3,0.2,0.5,0.3,0.8,0.6
		c0,0.2-0.2,0.3-0.5,0.3c-0.7-0.1-1.5-0.1-2.2-0.2c-0.5,0-0.7,0.2-0.5,0.7c0.1,0.3,0.3,0.5,0.4,0.8c0.1,0.2,0.2,0.3,0,0.5
		c-0.3,0.2-0.3,0.5-0.1,0.8c0.1,0.2,0.3,0.5,0.5,0.7c-0.3,0.2-0.7,0.2-1.1,0.2c-0.8,0-1.7-0.1-2.5-0.1c-1.5,0-3.1-0.1-4.6-0.1
		c-0.7,0-1.4,0-2.1-0.1c-0.2,0-0.4-0.2-0.6-0.2c0,0,0,0,0,0c-0.1-0.3-0.4-0.6-0.1-1c0.1-0.1-0.1-0.4-0.2-0.6
		c-0.1-0.3-0.4-0.5-0.5-0.7c-0.1-0.2-0.1-0.4,0-0.6c0.1-0.3,0.1-0.5-0.1-0.8C13,50.9,13,50.7,13,50.6c0.1-0.7,0.1-1.5,0.2-2.2
		c0-0.1,0-0.1,0-0.3c-0.2,0-0.4,0-0.6-0.1c-0.3,0-0.6,0-0.9,0c-0.4,0-0.6-0.3-0.8-0.6c-0.2-0.3,0-0.7,0.2-0.9
		c0.1-0.2,0.3-0.3,0.5-0.4c-0.3-1.1,0.6-1.5,1.3-1.9c0.3-0.2,0.7-0.1,1.1-0.1c0.1,0,0.3,0,0.4-0.1c0.2-0.4,0.6-0.4,1-0.5
		c0.1-0.5,0.1-0.9,0.7-1c0-0.5-0.2-1,0.4-1.1c0-0.3,0-0.7,0.1-0.9c0.1-0.2,0.4-0.3,0.8-0.5c0-0.6,0.2-1.2,1-1.2
		c0.2-0.3,0.2-0.7,0.4-0.9c0.2-0.2,0.5-0.2,0.8-0.3c-0.1-0.7,0.3-1,0.9-1.1c0-0.1,0.1-0.2,0-0.3c-0.1-0.4,0.1-0.7,0.5-0.8
		c0.3-0.1,0.5-0.3,0.6-0.7c0-0.2,0.3-0.3,0.4-0.5c0.2-0.2,0.5-0.3,0.7-0.5c-0.1-0.2-0.2-0.2-0.3-0.3c0,0,0-0.1,0.1-0.1
		c0.3-0.2,0.6-0.4,0.6-0.9c0-0.1,0.2-0.3,0.3-0.3c0.2-0.1,0.3-0.1,0.6-0.1c0.2-0.4,0.4-0.9,0.9-0.9c0.1,0,0.2-0.2,0.2-0.3
		c0.1-0.4,0.4-0.6,0.8-0.6c0.1,0,0.2,0,0.2-0.1c0.3-0.5,0.9-0.8,1.2-1.2c0.2-0.3,0.4-0.5,0.7-0.6c0.3-0.1,0.5-0.2,0.6-0.5
		c0,0,0-0.1,0.1-0.1c0.5-0.4,0.9-0.8,1.4-1.2c0.1-0.1,0.2-0.1,0.2-0.1c0.1-0.7,0.8-0.9,1.1-1.4c0.4-0.5,1-0.9,1.5-1.3
		c0.1,0,0.1,0,0.2-0.1c0.5-0.9,1.6-1.2,2.2-2c0.1-0.2,0.4-0.2,0.6-0.3c0,0,0,0,0,0c-0.1,0.2-0.2,0.5-0.3,0.7
		c-0.5,0.3-0.5,0.3-0.5,0.8c-0.2,0.1-0.5,0.2-0.5,0.3c-0.1,0.3-0.2,0.4-0.4,0.6c-0.1,0.1-0.2,0.3-0.2,0.4c0,0.1,0,0.3-0.1,0.3
		c-0.3,0.3-0.7,0.5-0.4,1c0,0,0,0.1,0,0.1c-0.2,0.5-0.4,0.9-0.6,1.4c0,0.1-0.1,0.2,0,0.3c0.1,0.2,0,0.4-0.2,0.6
		c-0.2,0.4-0.1,0.7,0.3,0.8c0.1,0,0.2,0.1,0.4,0.1c-1.3-0.1-1.3-0.1-1.2,1c-0.3,0.2-0.4,0.5-0.3,0.9c0.1,0.4,0,0.9-0.1,1.4
		c-0.1,0.3-0.1,0.6,0.1,0.8c0.3,0.2,0.5,0,0.8-0.1c-0.3-0.6,0-0.9,0.4-1.1c0-0.3-0.1-0.6-0.1-0.8c0.2-0.3,0.6-0.2,0.6-0.7
		c-0.1-0.4-0.4-0.3-0.8-0.5c0.5-0.1,0.9-0.2,1.3-0.2c0-0.3,0-0.6-0.1-0.8c0.2,0,0.4-0.1,0.6-0.1c0.1-0.1,0.3-0.2,0.3-0.3
		c0-0.1-0.1-0.3-0.3-0.3c-0.2-0.1-0.5-0.1-0.7-0.2c0,0,0-0.1,0-0.1c0.5-0.1,1-0.1,1.6-0.2c-0.1-0.4-0.1-0.6-0.1-0.9
		c0.2-0.1,0.5-0.2,0.8-0.3c-0.2-0.3-0.3-0.6-0.5-0.9c0.3-0.1,0.7-0.2,1-0.3c0.1-0.7-0.7-0.4-0.9-0.8c0.5-0.2,1.1,0.2,1.5-0.4
		c-0.3,0-0.5-0.1-0.7-0.1c-0.4,0-0.4,0-0.6-0.2c0.6-0.1,1.1-0.2,1.6-0.3c0-0.1,0-0.1,0-0.2c-0.1,0-0.3-0.1-0.4-0.1
		c-0.2,0-0.5,0-0.7-0.1c0,0,0-0.1-0.1-0.1c0.1-0.1,0.3-0.2,0.4-0.3c-0.2-0.3-0.5-0.2-0.7-0.2c-0.2,0-0.4,0-0.4-0.2
		c0.3,0,0.6,0,0.9,0c0.6,0,1.1-0.1,1.7-0.1c0.2,0,0.4-0.1,0.6-0.1c-0.1-0.2-0.1-0.3-0.2-0.5c0.2-0.1,0.3-0.2,0.6-0.3
		c-0.7-0.5-1.4-0.2-2-0.4c0.3-0.2,0.6-0.4,1-0.4c0.2,0,0.5,0,0.7-0.1c0.5-0.1,0.5-0.1,0.5-0.8c-0.7,0-1.5,0.2-2.2,0c0,0,0,0,0,0
		c0.1-0.2,0.2-0.3,0.3-0.5c0-0.2-0.1-0.4-0.1-0.7c-0.1,0-0.3,0-0.4-0.1c0.2-0.5,0.1-0.9-0.1-1.3c-0.1-0.3-0.2-0.6-0.3-0.9
		c-0.1-0.1-0.1-0.3-0.2-0.4c-0.1-0.1-0.2-0.3-0.2-0.4c0.1-0.8-0.4-1.6-0.1-2.4c0-0.1,0-0.3,0-0.5c0-0.2-0.1-0.3,0-0.5
		c0.4-0.8,0-1.6,0.1-2.5c0.1-0.9,0.2-1.1,1-1.1c0.1,0,0.2,0,0.3,0c1.1-0.4,2.3-0.4,3.4-0.5c0.3,0,0.5,0,0.8-0.1
		c0.1,0,0.3-0.2,0.3-0.3c0-0.2-0.2-0.3-0.4-0.3c-0.7,0-1.4,0.1-2.1,0.1c-0.6,0-1.2,0.1-1.7,0.1c-0.3,0-0.5,0.1-0.8,0.2
		c-0.4,0.2-0.8,0.2-1.2,0.2c-0.2-0.4,0-0.7,0.3-0.9c0.5-0.5,1.1-0.9,1.7-1.3c0.2-0.2,0.5-0.3,0.8-0.4C40.8,3.9,43,4,45.1,4.4
		c0.7,0.1,1.3,0.5,1.8,1c0.1,0.1,0.2,0.2,0.3,0.2c0.7,0.2,0.7,0.8,0.9,1.3c0,0-0.1,0.1-0.2,0.2c0.9,0.6,0.7,1.6,0.8,2.5
		c0.2,1.4,0.1,2.9,0,4.3c-0.1,0.7-0.1,1.5-0.4,2.2c-0.2,0.7-0.6,1.5-0.5,2.4c0,0.2-0.2,0.4-0.3,0.6c0,0.3,0.6,0.4,0.4,0.8
		c0.2,0.1,0.4,0.1,0.7,0.2c-0.1,0.1-0.2,0.2-0.2,0.3c0.2,0,0.4,0.1,0.6,0.1c-0.1,0.1-0.1,0.2-0.2,0.2c-0.2,0-0.4,0-0.7,0.1
		c0.3,0.3,0.4,0.6,0.8,0.6c0.1,0,0.2,0.1,0.3,0.2c0.5,0.4,1.1,0.8,1.6,1.2c0.1,0,0.1,0.1,0.2,0.1c0.5-0.2,0.7,0.2,1,0.5
		c0.4,0.4,0.4,0.4,1,0.3c0.2,0.5,0.4,1.1,1.2,1.1c0.1,0.3,0.3,0.6,0.4,0.9c0.3,0,0.5,0,0.7,0.3c0.3,0.4,0.7,0.8,1.3,1
		c0.4,0.1,0.4,0.3,0.2,0.6c0.4,0.3,0.8,0.5,1.2,0.8c0.1,0.1,0.1,0.4,0.3,0.5c0.4,0.4,0.8,0.8,1.3,1.1c0.3,0.2,0.5,0.4,0.6,0.8
		c0,0.1,0.1,0.2,0.2,0.3c0.4,0,0.5,0.4,0.6,0.7c0.4,0.7,0.8,1.4,1.6,1.7c0.1,0,0.2,0.3,0.3,0.4c0.1,0.3,0.3,0.6,0.6,0.8
		c0.1,0.1,0.2,0.2,0.3,0.3c0.2,0.3,0.4,0.6,0.8,0.7c0.2,0.1,0.4,0.4,0.6,0.6c0.2,0.2,0.4,0.3,0.5,0.4c0.3,0.4,0.6,0.8,1,1.3
		c-0.2,0.1-0.3,0.2-0.4,0.2c0.1,0.3,0.3,0.2,0.5,0.2c0.3,0,0.5,0.1,0.7,0.4c0.3,0.5,0.8,1,1.2,1.4c-0.2,0.3-0.2,0.4,0.1,0.6
		c0.1,0,0.2,0.1,0.2,0.1c0.2,0.2,0.5,0.5,0.7,0.8c-0.1,0.1-0.3,0.1-0.5,0.3c0.5,0.1,1,0.1,1.2,0.7c-0.1,0.1-0.2,0.2-0.3,0.4
		c0.3,0.1,0.5,0.1,0.6,0.1c0.6,0.1,0.7,0.2,0.5,0.9c0.5,0,0.9,0.2,1.3,0.7c-0.1,0.1-0.1,0.2-0.2,0.3c0,0.3,0.3,0.2,0.4,0.2
		c0.1,0,0.2,0.2,0.4,0.2c-0.1,0.1-0.2,0.2-0.4,0.3c0,0-0.1,0-0.2,0c-0.6,0-1.2,0-1.7,0c0,0-0.1,0-0.2,0.1c1,0.2,2,0.4,3,0.7
		c0.1,0.6,0,0.7-0.5,0.6c-0.4,0-0.7,0-1.1,0c0.4,0.1,0.8,0.3,1.2,0.4c0.3,0.1,0.3,0.1,0.5,0.5c-0.2,0.2-0.4,0.4-0.6,0.6
		c0.1,0.1,0.2,0.3,0.2,0.5c0.4,0.1,0.9-0.2,1.1,0.3c-0.2,0.6-0.8,0.2-1.2,0.5c0.1,0.5,0.5,0.6,0.9,0.9c0.1-0.1,0.2-0.2,0.3-0.4
		c0.1,0.4,0.1,0.6-0.3,0.7c-0.2,0.1-0.4,0.2-0.7,0.2c0.3,0.3,0.6,0.6,0.9,0.8c-0.2,0.8-0.7,0.8-1.3,0.8c0,0.5,0.3,0.3,0.6,0.4
		c-0.1,0.5-0.1,1-0.2,1.5c0,0.1-0.1,0.1-0.2,0.2c-0.4,0.2-0.5,1.1-1.3,0.8c0.1-0.2,0.3-0.4,0.4-0.5c0,0-0.1-0.1-0.1-0.1
		c-0.1,0.2-0.2,0.4-0.2,0.6c-0.3,0-0.6,0.2-0.7,0.5c-0.1,0.2-0.3,0.3-0.5,0.4c-0.4,0.1-0.7,0.2-1.1,0.3c-0.3,0.1-0.5,0.2-0.7,0.5
		c-0.1,0.1-0.2,0.3-0.3,0.3c-0.5,0-0.7,0.3-0.9,0.7c-0.1,0.1-0.2,0.2-0.3,0.3c-0.4,0.2-0.6,0.5-0.8,0.9c-0.1,0.1-0.2,0.3-0.3,0.4
		c-0.4,0.3-1,0.4-1.2,1c0,0,0,0-0.1,0c-1.1,0.3-1.8,1.3-2.8,1.7c-0.6,0.3-0.7,0.6-0.2,1.2c0.3,0.3,0.4,0.6,0.3,1c0,0.2,0,0.3,0,0.6
		c-0.2,0.1-0.4,0.3-0.7,0.4c0.3,0.2,0.3,0.2,0.7,0.2c0.1,0.1,0.2,0.3,0.2,0.5c0.1,0.4-0.1,0.6-0.5,0.6c-0.3,0-0.5,0.2-0.6,0.5
		c-0.5-0.3-1.5-0.3-1.9,0c0.1,0.3,0.3,0.3,0.5,0.2c0.3-0.1,0.6-0.1,0.9,0c0.2,0.1,0.4,0,0.4-0.3c0.4,0.1,0.8,0.1,1,0.5
		c0-0.2,0.1-0.3,0.1-0.5c0.4,0.4,0.4,0.5,0.2,0.9c-0.1,0.4-0.6,0.2-0.8,0.6c0.2,0.2,0.4,0.4,0.6,0.7c0.1-0.1,0.2-0.2,0.3-0.3
		c0.2,0.1,0.3,0.2,0.5,0.2c0,0.4-0.2,0.6-0.5,0.8c-0.2,0.1-0.4,0.3-0.5,0.4c-0.1,0-0.2-0.1-0.3-0.1c-0.4,0.2-0.8,0.2-1.2,0.1
		c-0.3,0-0.6,0-0.8,0.2c0.4,0.3,0.7,0.3,1.1,0.2c0.3-0.1,0.6-0.1,0.9-0.2c0.2,0,0.3-0.1,0.3-0.3c0.2,0.1,0.4,0.2,0.6,0.2
		c0.2,0.1,0.3,0.1,0.6,0.2c0.2,0.5-0.1,0.9-0.6,1.2c0.1,0.4,0.5,0.4,0.8,0.5c0.1,0.2,0.1,0.5,0.2,0.7c-0.1,0.1-0.2,0.1-0.4,0.2
		c0.1,0.1,0.1,0.2,0.2,0.3c0.6,1,0.6,1-0.4,1.6c-0.1,0-0.1,0.1-0.3,0.2c0.1,0.1,0.1,0.3,0.2,0.3c0.3,0,0.7,0,1.1,0
		c0.3,0.6-0.3,0.9-0.5,1.3c0,0.5,0.4,0.2,0.6,0.3c0.1,0.3,0.2,0.6,0.3,0.9c-0.5,0.3-0.6,0.8,0,1.2c0.4,0.3,0.8,0.5,0.8,1.1
		c-0.1-0.1-0.2-0.1-0.2-0.2c0,0-0.1-0.1-0.1-0.2c-0.1,0-0.3-0.1-0.3,0c-0.1,0.1-0.1,0.3-0.1,0.3c0.3,0.3,0.2,0.8,0.7,0.9
		c0.3,0,0.4,0.5,0.5,1.1c-0.2-0.3-0.4-0.6-0.6-0.8c-0.3,0.1-0.4,0.2-0.3,0.5c0.2,0.3,0.4,0.6,0.5,0.9c0,0,0.1,0,0.2-0.1
		c0.2,0.2,0.1,0.4-0.1,0.5c-0.1,0.1-0.3,0.2-0.3,0.3c0,0.1,0,0.2,0.1,0.3c0.5-0.2,0.3,0.4,0.6,0.5c0.3-0.3-0.1-0.7,0.1-1
		c0.3,0.3,0.2,0.7,0.3,1.1c0,0.1,0,0.4,0.1,0.4c0.3,0.3,0.4,0.6,0.4,1c0,0.1,0.1,0.3,0.2,0.4c0,0,0,0,0,0.1c0.1,0.5,0.2,1,0.4,1.4
		c0.3,0.4,0.3,0.9,0.2,1.3c0,0.1,0,0.3,0,0.4c0.5,0.4,0.3,1.1,0.6,1.5c0.3,0.5,0.4,1,0.6,1.5c0,0.1,0.2,0.3,0.2,0.4
		c0.1,0.4,0.2,0.8,0.4,1.2c0.3,0.6,0.4,1.3,0.7,1.9c0.2,0.4,0.3,0.7,0.4,1.1c0,0.2,0.1,0.5,0.2,0.7c0,0.1,0.1,0.2,0.1,0.2
		c0.3,0.9,0.4,1.8,0.8,2.6c0.3,0.8,0.5,1.7,0.8,2.5c0.1,0.4,0.2,0.7,0.3,1.1c0.2,0.8,0.4,1.7,0.6,2.5c0,0.2,0.1,0.3,0.2,0.4
		c0.2,0.8,0.3,1.6,0.4,2.4c0,0.2,0,0.3,0.1,0.5c0.3,0.5,0.4,1,0.4,1.6c0,0.2,0.1,0.3,0.2,0.5c0.1,0.2,0.2,0.3,0.2,0.5
		c0.1,1.6,0.8,3,0.9,4.6c0,0.2,0.1,0.4,0.2,0.6c0.1,0.3,0.3,0.6,0.4,0.9c0.2,0.9,0.5,1.7,0.7,2.5c0.3,1,0.5,2.1,0.6,3.2
		c0,0.6-0.2,1.2-0.4,1.8c-0.1,0.2-0.2,0.4-0.3,0.6c-0.7,1.9-2.2,3-3.9,3.9c-1.6,0.8-3.4,1.2-5.1,1.7c-3.1,0.9-6.3,1.6-9.5,2
		c-2.5,0.3-4.9,0.6-7.4,0.8c-4.4,0.4-8.8,0-13.2-0.2c-1.5-0.1-3.1-0.2-4.6-0.3c-3.1-0.3-6.2-0.6-9.3-1.2c-1.6-0.3-3.2-0.6-4.8-1.1
		c-1.9-0.6-3.7-1.4-5.5-2.4c-1.5-0.8-2.6-2-3.6-3.4c-0.8-1.2-1.4-2.5-1.5-3.9c-0.1-0.6-0.1-1.1-0.1-1.7c0-0.3,0-0.7,0.1-1
		c0.3-0.8,0.7-1.6,1.1-2.4c0,0.2,0,0.4,0,0.6c0.5-0.1,0.5-0.4,0.5-0.7c-0.1-0.7,0-1.3,0.2-1.9c0.1-0.3,0.2-0.5,0.4-0.8
		c0,0.3,0,0.5,0,0.8c0.7-0.5,0.7-0.5,0.3-1.2c-0.1,0-0.1,0.1-0.2,0.1c0-0.2,0-0.3,0-0.4c0.3-0.2,0.6-0.4,0.9-0.6
		c0.2,0.2,0.4,0.4,0.2,0.7c-0.5,0.5-0.4,1-0.1,1.5c-0.4,0.4-0.8,0.7-0.7,1.2c0,0.2,0.2,0.4,0.4,0.7c0.3-0.4,0.5-0.8,0.8-1.1
		c-0.1-0.3-0.3-0.7-0.2-1c0-0.3,0.3-0.7,0.4-1c-0.4-0.7-0.3-1.4,0.3-2.1c-0.3-0.6-0.3-1.1,0.1-1.6c0.3-0.4,0.3-0.7-0.2-1.1
		c0.2-0.4,0.4-0.7,0.6-1.1c0.2-0.2,0.3-0.5,0.2-0.7c-0.1-0.4,0-0.8,0.2-1.2c0.1-0.2,0.2-0.5,0.1-0.6c-0.3-0.6-0.1-1,0.3-1.5
		c0.2-0.2,0.3-0.4,0.1-0.6c-0.5,0.2-0.8,0.6-0.7,1.2c0,0.3,0,0.6-0.2,0.8c-0.4,0.4,0,1-0.3,1.4c-0.3,0.4-0.6,0.8-0.5,1.3
		c0,0.1,0,0.2,0,0.3c-0.1,0.1-0.2,0.2-0.3,0.4c0-0.3,0-0.4,0-0.5c0.2-1.3,0.7-2.5,1.1-3.7c0.1-0.2,0-0.4,0.1-0.7
		c0.1-0.4,0.2-0.8,0.3-1.2c0.1-0.2,0.1-0.4,0.1-0.6c0-0.4,0-0.7,0.3-1c0.2-0.2,0.3-0.3,0.2-0.6c-0.1-0.4-0.1-0.8,0.2-1.1
		c0.1-0.1,0.1-0.2,0.1-0.3c0.1-0.8,0.4-1.5,0.5-2.3c0.1-0.6,0.4-1.2,0.6-1.8c0.1-0.4,0.2-0.7,0.1-1.1c-0.1-0.4,0-0.8,0.2-1.1
		c0.2-0.2,0.2-0.4,0.2-0.7c0-0.1-0.1-0.2,0-0.3c0.1-0.4,0.4-0.8,0.4-1.2c0-0.5,0.1-0.8,0.4-1.2c0-0.1,0.1-0.1,0.1-0.2
		c0.1-0.6,0.2-1.3,0.6-1.8c0,0,0-0.1,0-0.1c-0.2-0.6,0.1-1.1,0.5-1.6c-0.1-0.3-0.2-0.6-0.1-0.8c0.4-0.6,0.2-1.4,0.6-2.1c0,0,0,0,0,0
		c0,0.3,0.1,0.6,0.1,0.9c0,0.3,0.2,0.5,0.5,0.6c0.2-0.6,0.5-1.2,0.4-1.9c-0.1-0.5,0.2-1,0.5-1.4c-0.3-0.5-0.2-1,0.1-1.5
		c0.1-0.1,0.1-0.4,0.1-0.5c-0.2-0.4-0.1-0.8,0.1-1.1c0.3-0.5,0.3-1,0.2-1.6c0.2,0,0.2,0,0.3,0c0.1-0.8-0.3-1.7,0.3-2.4
		c-0.3-0.5-0.3-1,0-1.6c0.1-0.2,0-0.4,0-0.6c-0.2-0.5,0-0.9,0.3-1.3c0.3-0.4,0.9-0.4,1.3-0.2c0.3,0.1,0.6,0.3,0.9,0.3
		c0.7,0,0.7-0.1,1.3,0.2c0.1-0.1,0.1-0.2,0.2-0.4c0.3,0.2,0.6,0.4,1,0.7c-0.6,0.2-1.2,0.4-1.7,0.6c0.1,0.5,0.7,0.6,1.1,1.1
		c-0.3,0-0.5,0-0.7,0.1c-0.3,0.1-0.6,0.2-0.7,0.4c-0.2,0.3,0,0.8,0.4,0.9c0.2,0.1,0.5,0.1,0.8,0.3c-0.2,0-0.4,0.1-0.6,0.1
		C24.7,77,24.5,77.5,25,78c0.1,0.1,0.3,0.2,0.4,0.3c-1,0.8-1.1,1-0.4,2c-0.1,0.2-0.3,0.3-0.4,0.5c-0.4,0.6-0.1,1.2,0.6,1.2
		c0.5,0,1.1,0,1.6,0c0.1-0.4,0.1-0.7,0.2-1.2c-0.6-0.2-1.2-0.3-1.8-0.5c0.1-0.2,0.2-0.4,0.2-0.7c0.2,0,0.4,0,0.6,0.1
		c0.4,0.6,0.6,0.7,1.3,0.4c0-0.4,0.1-0.9,0.1-1.4c-0.7,0.2-1.5-0.2-2.1,0.4c0,0-0.1-0.1-0.1-0.1c0.1-0.2,0.2-0.4,0.3-0.5
		c0.3-0.2,0.6-0.3,0.9-0.4c0.2,0,0.4,0.1,0.6,0.1c0.2,0,0.4,0,0.6,0c0.1-0.6,0.3-1.1,0.4-1.6c0,0-0.1-0.1-0.1-0.1l0,0
		c0.6-0.3,1.1-0.3,1.7,0c0.3,0.2,0.8,0.1,1.3,0.1c0-0.1,0.1-0.3,0.2-0.5c0.3,0.3,0.6,0.5,0.9,0.8c-0.5,0-1,0-1.5,0
		c-0.2,0-0.4,0.1-0.6,0.2c-0.2,0.1-0.4,0.3-0.3,0.5c0.1,0.2,0.2,0.3,0.4,0.4c0.6,0.2,1.2,0.5,1.7,0.7c-0.4,0.2-0.7,0.1-1.1,0
		c-0.4-0.1-0.8,0.3-0.9,0.7c0,0.2,0.3,0.8,0.5,0.7c0.5-0.1,0.9,0.2,1.4,0.1c0.5,0,0.9,0,1.1-0.4c0.4,0.2,0.7,0.3,1.1,0.4
		c0.1-0.2,0.1-0.4,0.1-0.6c0.1,0.2,0.2,0.4,0.3,0.6c0.2,0,0.4-0.1,0.7-0.1c0-0.5,0-0.9,0-1.3c-0.8,0.1-1.5-0.1-2.2,0.4
		c-0.3-0.5-0.3-0.5-0.7-0.5c-0.1,0-0.2-0.1-0.3-0.1c0.3-0.1,0.6-0.2,1-0.3c0,0,0.2,0.1,0.3,0.2c0.3,0.1,0.7,0.2,0.9,0.1
		c0.5-0.3,0.9-0.1,1.3-0.2c0.1,0,0.1,0,0.2-0.1c0-0.5,0-0.9,0-1.4c-0.3,0-0.7,0.1-1,0.1c-0.7-0.1-1.4-0.2-2.2-0.3
		c-0.1,0-0.1,0-0.2,0c0.2-0.2,0.4-0.3,0.7-0.2c0.4,0.2,0.6,0,0.8-0.4c0.5,0.2,0.9,0.4,1.3,0.4c0.4,0.1,0.8,0,1.3,0c0-0.5,0-1,0-1.5
		c-0.9,0-1.7,0-2.5,0.2c-0.2-0.3-0.7-0.6-0.4-1c0.6,0,1.2,0,1.8,0c0.4,0,0.6,0.3,0.8,0.5c0.7-0.3,0.8-0.5,0.4-1.4
		c-0.2,0.1-0.5,0.1-0.7,0.2c-0.7,0.5-1.4,0.2-2.1,0.1c-0.1,0-0.2-0.2-0.3-0.3c-0.7,0-1.4,0.1-2.1-0.2c-0.2-0.1-0.5,0-0.7,0.1
		c-0.2,0-0.5,0.1-0.7,0.1c-0.7-0.2-1.4-0.1-2,0c-0.2-0.1-0.2-0.3,0-0.4c0.1-0.1,0.3-0.2,0.5-0.4c0.2,0.1,0.4,0.2,0.7,0.2
		c0.4,0.1,0.8,0.2,1.2,0.1c0.4-0.1,0.8,0.1,1.2,0.2c0.2,0,0.3,0.1,0.5,0.1c0.4-0.6,0.4-0.5,1-0.3c0.7,0.2,1.5,0.2,2.2,0.3
		c0.1,0,0.2,0,0.2-0.1c0.2-0.4,0.5-0.3,0.9-0.3c0.6,0.1,1.2,0.1,1.7,0.3c0.7,0.2,1.2,0,1.6-0.6c0.3,0.2,0.7,0.4,1.1,0.4
		c0.3,0,0.6,0,0.9,0.2c0.1,0.1,0.3,0.1,0.4,0c0.5-0.1,0.9,0,1.4,0.1c0.3,0,0.5,0,0.8,0c0.4-0.1,0.9-0.2,1.3-0.2c0.4,0,0.8,0,1.1,0.2
		c0.4,0.3,0.8,0.2,1.1,0.1c0.7-0.3,1.4-0.2,2.1-0.1c0.3,0,0.7,0,1-0.2c0.4-0.4,0.9-0.5,1.4-0.1c0.2,0.1,0.6,0.1,0.8,0.1
		c0.2,0,0.3-0.3,0.4-0.5c-0.6-0.6-1.1-0.6-1.7-0.3c-0.1,0.1-0.3,0.1-0.5,0.1c-1-0.2-1.9-0.3-2.9,0c-0.2,0.1-0.4,0-0.6-0.1
		c-0.3,0-0.6-0.1-0.8-0.1c-0.5,0-1,0.1-1.5,0.1c-0.4,0-0.8,0.1-1,0c-0.8-0.4-1.7-0.1-2.5-0.1c-0.6,0-1.2,0.1-1.9,0.2
		c0,0-0.1,0.2-0.2,0.3c0-0.4-0.2-0.6-0.7-0.6c-1,0-2,0-3,0.4c-0.3-0.5-0.8-0.5-1.3-0.5c-0.6,0-1.2,0.2-1.8,0.4
		c-0.4,0.1-0.5,0-0.4-0.5c-0.5,0-1.1,0-1.6,0c-0.2,0-0.4-0.1-0.4-0.3c0-0.3,0.2-0.3,0.4-0.3c0.3,0,0.6,0,0.9,0c0.2,0,0.4,0,0.6,0.2
		c0.2,0.3,0.6,0.2,0.7,0.1c0.4-0.6,0.8-0.2,1.3-0.1c0.4,0.1,1.2,0.1,1.6,0.1c0.6-0.1,1.2-0.1,1.7-0.1c0.2,0,0.5,0.2,0.8,0
		c0,0,0.1,0,0.2,0c0.5,0.5,0.9,0.2,1.3-0.1c0.2-0.2,0.4-0.2,0.6-0.1c0.6,0.2,1.2,0.3,1.9,0.2c0.1,0,0.3,0,0.4,0.1
		c0.6,0.3,0.6,0.3,1-0.2c0,0,0.1-0.1,0.1-0.1c0.1,0.1,0.3,0.1,0.4,0.2c0.3,0.1,0.5,0.1,0.8,0.1c0.4-0.1,0.9-0.1,1.3,0
		c0.8,0.2,0.8,0.2,1.2-0.4c0.5,0.1,0.9,0.3,1.4,0.4c0.4,0.1,0.6,0,0.5-0.5c0-0.2-0.1-0.3-0.1-0.4c-0.1-0.3-0.4-0.3-0.5-0.2
		c-0.2,0.2-0.4,0.1-0.5,0.2c-0.4,0.4-0.7,0.2-1,0c-0.4-0.3-0.7-0.3-1.1,0.1c-0.3,0.3-0.7,0.3-1,0.1c-0.3-0.2-0.6-0.2-0.9-0.2
		c-0.2,0-0.5,0.1-0.7-0.2C43.3,70,42.9,70,42.6,70c-0.4,0-0.9,0.1-1.3,0.1c-0.5,0-1,0-1.3,0.5c-0.3-0.1-0.3-0.6-0.8-0.5
		c-0.4,0.1-0.8,0-1,0.4c-0.5-0.4-0.9-0.1-1.4,0.2c-0.2-0.1-0.3-0.2-0.5-0.3c-0.1,0.1-0.2,0.2-0.4,0.4c0.2-0.5,0-0.6-0.3-0.6
		c-0.5,0-0.9,0.1-1.4,0.1c-0.4,0.1-0.8,0.2-1.2-0.1c-0.4-0.2-0.8,0-1.2,0.3c-0.5-0.3-1-0.3-1.5,0.1c0-0.2-0.1-0.4-0.1-0.5
		c-0.3-0.1-0.7,0.1-1-0.4c0.1-0.1,0.3-0.2,0.4-0.2c0.6,0,1.3,0,1.9,0.3c0.1,0.1,0.4,0.1,0.5,0c0.6-0.6,1.3-0.4,2-0.3
		c0.2,0,0.4,0.1,0.6,0.2c0.7,0.2,0.8,0.2,1.1-0.4c0.4,0,0.7,0.1,1.1,0c0.4,0,0.9-0.1,1.1,0.4c0,0.1,0.4,0.1,0.5,0
		c0.4-0.5,0.9-0.3,1.3-0.2c0.1,0,0.3,0.1,0.4,0.1c0.5-0.1,0.8,0,1.2,0.3c0.2-0.2,0.3-0.4,0.4-0.5c0.2,0,0.4,0,0.6,0.1
		c0.2,0,0.4,0.2,0.6,0.2c0.2,0,0.4-0.1,0.6,0c0.3,0.1,0.6,0.1,0.8-0.3c0.1-0.3,0.3-0.3,0.6-0.2c0.3,0.1,0.6,0.2,0.9,0.3
		c0.3,0.2,0.6,0.1,0.8-0.1c0.5-0.5,1-0.3,1.5-0.1c0.6,0.2,0.7,0.2,1-0.4c-0.2-0.2-0.5-0.4-0.8-0.7c-0.2,0.1-0.6,0.2-1,0.3
		c-0.2,0-0.5,0.1-0.7,0c-0.6-0.5-1.1-0.2-1.6,0c-0.1,0.1-0.3,0.2-0.4,0.2c-0.1,0-0.1,0-0.2-0.1c-0.6-0.7-1.3-0.5-2-0.2
		c-0.3,0.1-0.7,0-1,0c-0.4-0.1-0.7-0.1-1.1-0.1c-0.7,0.1-1.3,0.1-2,0.2c-0.1,0-0.2,0-0.2-0.1c-0.3-0.2-0.4-0.1-0.6,0.2
		c-0.2,0.4-0.5,0.4-0.8,0.3c-0.1-0.1-0.3-0.2-0.4-0.1c-0.5,0.2-0.8-0.1-1-0.5c-0.5,0.1-0.9,0.1-1.3,0.3c-0.4,0.2-0.9,0.1-1.3,0.1
		c0,0,0,0-0.1,0c-0.2-0.1-0.2-0.4-0.5-0.3c-0.2,0.1-0.4,0.1-0.7,0.1c-0.1-0.3-0.2-0.5-0.3-0.8c0.4-0.4,1,0.2,1.3-0.4
		c0.2,0.1,0.4,0.2,0.6,0.3c0.1,0.1,0.2,0.1,0.3,0.2c0.2,0.6,0.7,0.4,1.2,0.5c0.1-0.2,0.2-0.4,0.3-0.7c1.1,0,2.2,0.1,3.3,0.1
		c0.1,0,0.2,0,0.4,0c0.2,0,0.5,0.1,0.7,0.2c0.5,0.2,0.5,0.2,0.8-0.1c0.2-0.1,0.4-0.2,0.7-0.2c0.6,0.1,1.2,0.2,1.8,0.4
		c0.4,0.1,0.7,0.1,1-0.1c0.1-0.1,0.3-0.2,0.5-0.3c0.2,0.4,0.5,0.3,0.8,0.2c0.3-0.1,0.6-0.1,0.9,0c0.4,0.2,0.5-0.2,0.6-0.4
		c0.2,0.1,0.2,0.1,0.2-0.2c-0.1,0.1-0.1,0.2-0.2,0.3c-0.2-0.6-0.4-0.8-0.9-0.7c-0.4,0-0.8,0.1-1.2,0.2c-0.3,0-0.5,0.2-0.8-0.1
		c-0.1-0.1-0.5,0-0.7,0c-0.5,0-1,0.1-1.5,0.2c-0.4,0.1-0.7,0.2-1.1,0.4c-0.4-0.6-0.4-0.5-1.2-0.4c-0.5,0.1-1.1,0.2-1.6,0.2
		c-0.7,0-1.4,0-2-0.1c-0.5-0.1-0.9-0.1-1.4,0c-0.4,0.1-0.9,0.1-1.4,0c-0.4-0.1-0.9,0.1-1.3-0.2c-0.1-0.1-0.3,0-0.5,0
		c-0.8,0.1-1.6,0.2-2.3-0.1c-0.3-0.1-0.7,0-1.1,0c-0.1,0.1-0.1,0.2-0.2,0.4c-0.1,0-0.1,0-0.1,0c-0.1-0.4-0.8-0.3-0.8-0.8
		c0.7,0,1.5,0.1,2.2,0.1c0.1-0.2,0.2-0.4,0.3-0.5c0.5,0.1,1,0.1,1.4,0.4c0.2,0.1,0.6,0.2,0.9,0.2c0.1,0,0.3-0.1,0.3-0.2
		c0-0.6,0.4-0.5,0.9-0.7c0,0.2,0,0.4,0,0.6c0,0,0.1,0.1,0.2,0.1c0.4,0.1,0.9,0.1,1.3,0.2c0.4,0.1,0.7,0.1,1-0.2
		c0.1-0.1,0.3-0.1,0.4,0c0.6,0.3,1.1,0.2,1.7-0.1c0.3-0.1,0.8-0.1,1.1,0.1c0.3,0.2,0.6-0.2,0.7,0.2c0.1-0.1,0.2-0.1,0.4-0.2
		c0.6-0.4,1.2-0.3,1.8-0.1c0.4,0.1,0.9,0.3,1.3,0.1c0-0.1,0.1-0.2,0.1-0.3c0-0.8-0.5-1-1.2-0.7c-0.6,0.3-0.6,0.3-1.5,0.2
		c0-0.3-0.3-0.6,0.3-0.7c0.1,0,0.1-0.3,0.2-0.5c-0.7-0.2-1.3-0.2-2,0.1c0.4,0.5,1.3,0,1.3,0.9c-0.8-0.2-1.6,0.1-2.4,0.3
		c-0.2-0.3-0.4-0.6-0.3-1c0-0.1-0.1-0.3-0.1-0.3c-0.4-0.1-0.9-0.2-1.2,0.1c-0.1,0.1-0.2,0.4-0.3,0.6c0.4,0,0.6,0.1,1,0.1
		c-0.9,0.5-1.5,0.5-1.7-0.1c0.1,0,0.2,0,0.2-0.1c0.1-0.1,0.3-0.3,0.3-0.4c0-0.2-0.2-0.2-0.4-0.2c-0.4,0-0.8-0.1-1.1,0.1
		c-0.2,0.1-0.5,0.1-0.7,0.1c0.2,0.3,0.5,0.3,0.7,0.3c0.2,0,0.3,0,0.5,0c0.5,0.1,0.5,0.3,0.2,0.8c-0.3-0.3-0.6-0.3-1-0.2
		c-0.4,0.1-0.9,0.1-1.3-0.3c0.5-0.2,0.9-0.5,0.8-1.1c-0.4,0.4-1,0.1-1.4,0.4c-0.2,0.4,0.2,0.4,0.4,0.6c-0.8,0.8-1.8,0.6-2.8,0.7
		c0.1-0.2,0.2-0.4,0.3-0.5c-0.1,0-0.3-0.1-0.4-0.1c0-0.3-0.1-0.5-0.1-0.8c-0.2,0.1-0.3,0.1-0.4,0.1c0.1,0.2,0.2,0.4,0.3,0.6
		c-0.4,0.3-0.7,0.2-1.1,0.1c0-0.2,0.1-0.4,0.1-0.5c0-0.1-0.2-0.4-0.2-0.3c-0.4,0-0.9,0-1.3,0.3c0.6-0.1,1,0.2,1.4,0.6
		c-0.2,0.2-0.4,0.3-0.6,0.2c-0.3-0.2-0.5-0.2-0.9,0C25.4,64.9,25.1,64.9,24.8,64.9L24.8,64.9z M66.8,121.2c-0.2-0.2-0.4-0.2-0.6,0
		C66.4,121.6,66.4,121.6,66.8,121.2c0.3,0,0.5-0.1,0.6-0.4C67.1,120.9,66.9,121,66.8,121.2z M68.6,95.8c-0.4,0-0.7,0.2-0.8,0.5
		c-0.4,0.1-0.9,0.3-1.4,0.4c0.5,0.3,1,0.1,1.4-0.4c0.2,0.1,0.4,0.2,0.6-0.2C68.4,96,68.5,95.9,68.6,95.8c0.1,0,0.3,0.1,0.4,0.1
		c0,0,0.1-0.1,0.1-0.1c-0.1-0.1-0.2-0.3-0.4-0.3C68.6,95.4,68.6,95.6,68.6,95.8z M65.6,121.4c-0.7,0.1-0.7,0.1-0.9,0.8
		C65.1,121.8,65.3,121.6,65.6,121.4c0.1,0.1,0.2,0.2,0.4,0.3C66,121.3,65.8,121.3,65.6,121.4z M66.8,90.8c0.1,0,0.3,0.1,0.4,0.1
		c0.1-0.2,0.2-0.3,0.3-0.5c-0.1-0.1-0.2-0.2-0.4-0.4C67.1,90.3,66.7,90.4,66.8,90.8c-0.1,0-0.2,0-0.3,0c0,0.1,0.1,0.1,0.1,0.2
		C66.7,90.9,66.8,90.9,66.8,90.8z M46.4,12.2c0-0.1,0-0.3,0-0.5c-0.3,0.1-0.7,0.1-0.6,0.4C45.9,12.5,46.2,12.2,46.4,12.2
		c0.4,0.4,0.9,0.4,1.2,0C47,11.7,47,11.7,46.4,12.2z M21.9,59.5c-0.5-0.3-1-0.2-1.6-0.1C20.9,60,21.3,60,21.9,59.5
		c0.6,0.4,0.6,0.4,1.1,0C22.6,59.4,22.3,59.1,21.9,59.5z M60.9,110.3c-0.7-0.2-1.4-0.1-2.1,0c0.1,0.4,0.2,0.5,0.5,0.4
		C59.8,110.6,60.4,110.4,60.9,110.3c0.6,0.2,1.1,0,1.6-0.4C62,109.6,61.2,109.8,60.9,110.3z M66.7,94.6c0.7,0,1.3-0.1,2-0.4
		c-0.2-0.2-0.3-0.4-0.5-0.6C67.7,93.9,67.2,94.3,66.7,94.6c-0.5-0.1-0.8,0.1-1.3,0.3C65.9,95.3,66.3,95.2,66.7,94.6z M61.9,50.3
		c0.1,0.2,0.1,0.3,0.2,0.6c0.1-0.3,0.3-0.2,0.5-0.1c0.2,0.1,0.4,0,0.6-0.1c0.1-0.1,0.1-0.3,0.3-0.6C62.8,50.2,62.4,50.2,61.9,50.3
		c-0.6,0-1.2-0.1-1.8-0.1c-0.7,0-0.8,0.3-0.5,0.9c0.4,0,0.8-0.1,1.1-0.3C61.2,50.7,61.5,50.5,61.9,50.3z M60.7,42.6L60.7,42.6
		c-0.2,0-0.4,0-0.6,0c0.3,0.7,0.4,0.8,1.4,0.7c0-0.1,0.1-0.3,0.1-0.4c0,0,0.1,0,0.1,0c0,0.3,0.1,0.6,0.1,0.8c-0.3,0-0.5,0-0.4,0.4
		c-0.2,0-0.5,0-0.7-0.1c-0.3-0.1-0.8-0.2-0.8-0.4c-0.1-0.5-0.4-0.5-0.8-0.6c-0.3-0.1-0.6-0.3-0.9-0.5c0.1-0.3,0.3-0.3,0.5-0.3
		c0.5,0,1-0.1,1.5-0.1c0.1,0,0.3-0.1,0.4-0.2c0.7,0.4,2,0.3,2.8-0.3c-0.9-0.1-1.8-0.2-2.6-0.1c-0.1,0-0.1,0.2-0.2,0.4
		c-0.3-0.1-0.6-0.3-1-0.3c-0.2,0-0.4-0.1-0.3-0.5c0.3,0,0.6-0.1,1-0.1c0.8,0,1.7,0,2.5-0.3c-0.1-0.3-0.4-0.4-0.6-0.4
		c-0.7,0-1.4,0-2.2,0c-0.3,0-0.6,0.3-0.7,0.2c-0.4-0.3-0.5,0.2-0.8,0.2c-0.3,0-0.5,0.1-0.6-0.3l0,0c0.2-0.2,0.3-0.5,0.5-0.5
		c0.5-0.1,1-0.4,1.6-0.3c0.4,0.1,0.9,0,1.3,0c0.1,0,0.3-0.1,0.4-0.1C61.6,39,61.3,39,60.9,39c-1.1,0-2.1,0-3.2,0
		c-0.2,0-0.5,0.1-0.5-0.3c0.6,0,1.3-0.1,1.9-0.1c0.6-0.1,1.2,0,1.9-0.3c-0.2-0.4-0.5-0.5-0.9-0.5c-0.3,0-0.6,0-0.9,0
		c-0.3,0-0.6,0-1.1-0.2c0.7-0.3,1.3-0.1,1.8-0.4c-0.1-0.4-0.3-0.5-0.6-0.5c-0.2,0-0.5,0-0.7,0c-0.5,0-1,0-1.6,0
		c0.2-0.2,0.2-0.3,0.3-0.4c0.3,0.1,0.6,0.1,0.9,0.1c0.2,0,0.4-0.1,0.5-0.2c0.1-0.2-0.1-0.4-0.3-0.5c-0.1-0.1-0.3-0.1-0.4-0.1
		c-0.2,0-0.4,0-0.6-0.1c0,0-0.1-0.1-0.2-0.1c0.2-0.1,0.3-0.1,0.5-0.2c-0.1-0.4-0.4-0.6-0.8-0.6c-0.3,0-0.5,0-0.8,0
		c-0.4,0-0.8-0.2-1,0.3c0,0-0.2,0-0.4,0c0-0.1,0-0.3,0.1-0.3c0.2-0.1,0.5-0.2,0.7-0.2c0.3-0.1,0.6-0.1,0.9-0.1
		c-0.3-0.6-0.5-0.7-0.9-0.7c-0.3,0.1-0.6,0-1-0.2c0.3-0.1,0.5-0.1,0.7-0.2c0.3-0.1,0.3-0.4,0.1-0.5c-0.2-0.1-0.4-0.1-0.6-0.2
		c-0.2,0-0.4-0.1-0.5-0.1c0-0.8-0.1-0.9-0.8-0.8c-0.3,0-0.5,0.1-0.8,0.1c-0.6,0-1.1-0.1-1.8-0.3c0.8-0.4,1.5,0,2.2-0.4
		c-0.1-0.4-0.3-0.6-0.8-0.5c-0.3,0.1-0.6,0.1-0.9,0c-0.3,0-0.5-0.1-0.5-0.5c0.4,0,0.7,0,1.1-0.1c0-0.1,0.1-0.4,0-0.5
		c-0.3-0.2-0.6-0.3-0.9-0.5c0-0.7-0.5-0.8-1.1-0.9c-0.1-0.7-0.2-0.8-1-1l0,0c-0.1-0.7-0.2-0.8-0.9-0.8c-0.2,0-0.5,0-0.7,0
		c-0.5,0.1-0.8,0-1.2-0.2c0-0.3,0-0.6,0-0.8l0,0c0.1,0.2,0.2,0.4,0.3,0.6c0.5-0.1,1-0.1,1.5-0.1c0-0.4-0.2-0.5-0.5-0.5
		c-0.3,0-0.6,0-0.9,0c-0.1,0-0.2-0.1-0.2-0.2c0-0.1,0.1-0.2,0.1-0.3c0.2-0.1,0.4-0.1,0.8-0.2c-0.3-0.2-0.4-0.4-0.6-0.4
		c-0.5-0.1-1-0.1-1.5-0.1c-0.6,0-1.2,0.2-1.7,0c-0.2-0.1-0.4,0-0.5,0c-0.1,0-0.2,0.2-0.3,0.3c0.1,0.1,0.2,0.3,0.3,0.3
		c0.3,0.1,0.6,0.1,0.8,0c0.7-0.1,1.3,0,2,0.1c0.1,0.3,0,0.4-0.3,0.4c-0.2,0-0.4-0.1-0.7-0.1c-0.5,0-0.6,0.2-0.3,0.7
		c0.3,0,0.7-0.2,1.1,0.2c-1,0.3-1.9,0.4-2.9,0c0.5-0.4,1,0,1.4-0.3c0-0.6,0-0.6-0.5-0.7c-0.3,0-0.7,0-1,0c-0.3,0-0.4,0.2-0.3,0.6
		c0,0.1,0.1,0.2,0.1,0.3c0,0.1-0.1,0.1-0.1,0.1c-0.4,0.2-0.6,0.5-0.4,0.8c0.1,0.4,0.4,0.3,0.7,0.2c0.2,0,0.4-0.1,0.6,0.2
		c-0.4,0-0.7,0-0.9,0.1c-0.2,0-0.5,0.1-0.5,0.2c-0.1,0.4-0.4,0.7-0.6,1c-0.1,0.2,0,0.4,0,0.5c-0.1,0.4-0.2,0.6-0.3,0.9
		c0,0.1,0,0.3-0.1,0.3c-0.3,0.2-0.2,0.5-0.2,0.7c0,0.1,0,0.3,0,0.3c-0.4,0.4-0.2,0.8-0.2,1.2c-0.2,0.1-0.4,0.1-0.6,0.2
		c0,0.3,0.1,0.6,0.1,1c-0.5,0.3-0.4,0.8-0.4,1.3c-1-0.1-0.6,0.7-0.7,1.1c-0.3,0.2-0.7,0.1-0.7,0.5c0,0.3,0,0.6,0,0.9
		c-0.2,0-0.4,0.1-0.6,0.1c0,0.1-0.1,0.2-0.1,0.3c0,0.2-0.4,0.9-0.5,1.1C37,39.1,37,39.3,37,39.4c0,0.1,0,0.3,0.1,0.5
		c-0.3,0.1-0.7,0.1-0.9,0.3c-0.2,0.2-0.1,0.6-0.2,1c-0.5,0-0.6,0.4-0.6,0.9c0,0.3-0.2,0.3-0.4,0.4c-0.2,0.1-0.5,0.2-0.5,0.3
		c-0.1,0.4-0.4,0.6-0.6,0.9c-0.3,0.4-0.5,0.6-1,0.3c0.1,0.5,0.3,0.4,0.6,0.4c1.6,0,3.2,0,4.8,0c0.2,0,0.3,0,0.5,0
		c0.9,0,1.7,0.1,2.6,0.1c0.3,0,0.5-0.1,0.8-0.1c-0.1-0.5,0.2-0.7,0.6-0.8c-0.2-0.5,0-0.8,0.4-1.1c-0.2-0.5-0.1-0.5,0-1
		c0.1-0.2,0.1-0.4,0.1-0.6c0-0.3,0.1-0.5,0.4-0.5c0.4,0,0.5-0.3,0.5-0.6c0-0.2,0-0.5,0.1-0.5c0.4-0.2,0.3-0.5,0.2-0.8
		c0-0.2,0-0.3,0-0.4c0.2-0.2,0.4-0.4,0.4-0.6c0-0.2-0.1-0.5-0.2-0.7c0.7-0.4,0.6-0.7-0.1-1.2c0.2-0.1,0.4-0.1,0.5-0.2
		c0.1-0.1,0.3-0.1,0.3-0.2c0-0.1-0.1-0.3-0.2-0.4c-0.2-0.1-0.5-0.1-0.8-0.1c-0.2,0-0.5,0-0.8,0.1c0.1-0.2,0.1-0.3,0.2-0.4
		c0.4,0.2,0.8-0.3,1.2,0c0.3,0.2,0.6-0.2,0.5-0.6c-0.1-0.2-0.1-0.3-0.2-0.5c0.7-0.3,0.8-0.4,0.3-1c-0.3-0.1-0.7,0.3-1-0.2
		c0.4-0.1,0.7-0.2,1.1-0.3c-0.2-0.6-0.2-0.6-0.8-0.5c-0.4,0-0.9,0-1.4-0.1c0.2-0.4,0.5-0.3,0.7-0.3c0.4,0,0.9,0.2,1.2-0.4
		c-0.1-0.2-0.2-0.4-0.3-0.6c0.5-0.4,0.5-0.5,0.1-1c-0.7,0.2-1.1,0.2-1.6,0l0,0c0.3-0.3,0.7-0.2,1.1-0.3c0.4,0,0.8,0,1.2-0.3
		c-1.1-0.6-2.3,0-3.4-0.4c0.2-0.1,0.2-0.2,0.3-0.2c0.4-0.1,0.8,0,1.2,0c0.6,0.1,1.2,0,1.8-0.3c-0.1-0.3-0.2-0.5-0.4-0.8
		c0.5,0,1,0.1,1.4,0.1c0,0,0,0.1,0,0.1c-0.1,0-0.1,0.1-0.2,0.1c-0.2,0-0.4,0-0.4,0.3c0,0.3,0.2,0.4,0.5,0.4c0.3,0,0.6,0,0.9,0
		c0.2,0,0.2,0,0.2,0.3c-0.3,0.1-0.7,0.1-0.9,0.5c0.6,0.2,1.2,0.7,1.8,0.1c0.1,0.1,0.3,0.3,0.4,0.4c-0.4,0.3-0.9,0.3-1.3,0.2
		c-0.1,0-0.2,0.1-0.3,0.2c0.1,0.1,0.2,0.3,0.2,0.3c0.3,0,0.6,0,0.9,0c0.3,0,0.6,0,0.8,0c0,0.3-0.1,0.5-0.3,0.5
		c-0.2,0-0.4-0.1-0.5-0.1c-0.3,0-0.5,0.2-0.4,0.6c0.4,0.1,0.6,0.4,0.7,0.8c0,0.1,0.1,0.4,0.2,0.4c0.4,0.2,0.5,0.6,0.6,1
		c0.5,0.1,0.9,0.3,1.4,0.4c-0.2,0.2-0.3,0.3-0.5,0.5c0.2,0.2,0.4,0.3,0.6,0.4c0.2,0.1,0.4,0,0.6,0c0.4,0.4-0.1,0.5-0.3,0.8
		c0.1,0.1,0.2,0.3,0.4,0.3c0.5,0.1,0.7,0.4,0.8,0.9c0,0.1,0.1,0.3,0.2,0.3c0.4,0.2,0.6,0.5,0.7,1c0.8-0.1,0.8,0.7,1.2,1.1
		c0.6,0,1.3,0.1,1.9,0.1c-0.2,0.2-0.3,0.3-0.5,0.5c-0.1,0-0.3-0.1-0.5-0.1c-0.1,0.5-0.1,0.5,0.6,0.7c0.1,0.4,0.2,0.8,0.4,1.3
		c0.3,0,0.8,0,1.2,0c0.4,0,0.8-0.1,1.2,0.2c-1,0.4-1.3,1.4-0.7,2.3c0.2,0,0.5,0,0.7-0.1c0.1,0.3-0.4,0.6-0.1,1c0.1,0,0.2,0,0.3,0
		c0.6,0.1,1.3-0.2,1.9-0.1c0.2,0.1,0.3-0.1,0.3-0.3c0.2,0.2,0.4,0.3,0.6,0c-0.1-0.1-0.1-0.3-0.2-0.4c0-0.1,0.1-0.1,0.1-0.2
		c0.5-0.7,0.5-0.7,1.3-0.4c0.2,0.1,0.5,0.1,0.7,0c-0.1-0.2-0.2-0.3-0.4-0.5C62.7,42.6,61.7,42.6,60.7,42.6z M58.6,108.5
		c1.1,0.7,2.2,0.1,3.3-0.3c0.1,0,0.1-0.2,0.2-0.3c-0.1,0-0.3-0.1-0.4-0.1c0,0,0,0-0.1,0c-0.7,0.2-1.5,0.4-2.3,0.4
		C59.1,108.2,58.7,108.2,58.6,108.5c-0.2,0-0.3-0.1-0.6-0.2c0.1,0.3,0.2,0.4,0.3,0.7C58.4,108.8,58.5,108.7,58.6,108.5z M55.7,94.9
		c0.1,0.1,0.1,0.2,0.2,0.2c0.6,0,1.1,0,1.7-0.3c-0.2-0.2-0.4-0.4-0.6-0.4c-0.5,0-1-0.1-1.5,0.2c-0.8-0.4-1.7,0.1-2.6,0
		c0.1,0.3,0.1,0.5,0.2,0.6c0.4,0.1,0.8,0.3,1.1,0.3c0.2-0.2,0.4-0.4,0.6-0.6c0.3,0.2,0.5,0.3,0.7,0.4C55.7,95.2,55.7,95,55.7,94.9z
		 M50.1,44c0,0.2-0.1,0.4-0.1,0.6c0.6,0,1.1,0,1.6,0c0.2,0,0.4,0,0.4-0.3c0-0.2-0.2-0.3-0.4-0.3c-0.2,0-0.4,0-0.6,0c0,0,0-0.1,0-0.1
		c0.2-0.1,0.3-0.2,0.4-0.3c-0.2-0.7-0.6-0.8-1.3-0.3C50.1,43.6,50.1,43.8,50.1,44L50.1,44z M57.3,96.5c0.2,0.2,0.2,0.7,0.7,0.6
		c0.2-0.3,0-0.6-0.2-0.7C57.7,96.3,57.4,96.2,57.3,96.5c-0.8,0-1.5,0-2.3,0c-0.5,0-0.8,0.1-1.1,0.7c0.5-0.1,0.9-0.1,1,0.5
		c0.1,0,0.1,0,0.2,0c0.1-0.2,0.2-0.4,0.3-0.6c0,0.1,0.1,0.1,0.1,0.2c0.6,0,1.1-0.1,1.8-0.1C57.3,96.9,57.3,96.7,57.3,96.5z
		 M12.3,123c0-0.2,0.1-0.4,0-0.5c-0.3-0.4-0.6-0.8-1-1.3c-0.6,0.9-0.4,1.7,0.6,2.5C12.1,123.5,12.2,123.2,12.3,123
		c0.1,0.4,0.3,0.7,0.3,1.1c0,0.4,0.2,0.6,0.5,0.8c0.7,0.4,1.4,0.8,2,1.2c0.1,0.1,0.3,0.1,0.5,0.2c0.2-0.6,0.3-1.1,0.4-1.6
		c-0.4-0.2-0.9-0.2-1.3-0.5c-0.7-0.5-1.4-0.8-2.2-1.2C12.6,122.9,12.4,123,12.3,123z M30.3,90.4c-0.6,0.1-1.1,0.1-1.7,0.2
		c-0.1,0-0.2,0-0.3,0c-0.3,0.1-0.5,0.7-0.4,1.1c0.1,0.4,0.4,0.4,0.7,0.4c0.5,0.1,0.9,0.1,1.4,0.1c0.3,0,0.6-0.1,1-0.1
		c0.1,0,0.2-0.1,0.4,0c0.2,0,0.4,0.1,0.6,0.1c0.5-0.5,0.5-0.7,0.3-1.2c-0.2-0.4-0.6-0.4-0.9-0.4s-0.7,0.1-1.1,0.1
		C30.3,90.6,30.3,90.5,30.3,90.4c0.3-0.1,0.5-0.1,0.8-0.1c0.6,0,1.1,0,1.7,0c0-0.5,0-1,0-1.4c-0.4-0.1-0.7-0.1-1.1-0.1
		c-0.7-0.2-1.4-0.1-2.1-0.1c-0.4,0-0.7,0.6-0.7,1c0,0.4,0.2,0.5,0.7,0.6C29.9,90.2,30.2,90.1,30.3,90.4z M36.3,119.1
		c-0.2,0-0.3,0-0.5,0c-1,0-1.2,0.3-0.9,1.4c0,0.1,0.1,0.2,0.2,0.3c0.8,0.1,1.6,0.2,2.5,0.2c1.2,0.1,2.3-0.2,3.5-0.1
		c0.2,0,0.3-0.2,0.5-0.3c0.2,0.2,0.4,0.3,0.7,0.1c0.3-0.2,0.3-0.5,0.2-0.9c0-0.3-0.1-0.5-0.5-0.5c-0.7,0-1.5,0-2.2,0
		c-0.1,0-0.2,0.2-0.3,0.2c-0.2-0.1-0.4-0.2-0.5-0.3c-0.7-0.1-1.3-0.1-2-0.1C36.7,119.2,36.5,119.1,36.3,119.1
		c0.1-0.1,0.2-0.2,0.3-0.2c1.1,0,2.1-0.1,3.1,0c0.3,0,0.2-0.2,0.4-0.2c0.1,0.1,0.2,0.2,0.3,0.2c0.6,0,1.2,0,1.8,0
		c0.1,0,0.3-0.2,0.3-0.3c0.1-0.2,0.1-0.4,0-0.6c0-0.4-0.2-0.5-0.6-0.6c-1.2,0-2.5,0-3.7-0.1c-0.8,0-1.6-0.1-2.5-0.1
		c-0.5,0-0.6,0.1-0.7,0.6c-0.1,0.5,0.1,0.8,0.5,1C35.9,118.9,36.1,119,36.3,119.1z M25.3,105.8c-0.1,0.1-0.3,0.1-0.4,0.2
		c-0.4,0.2-0.6,0.6-0.6,1c0,0.5,0.4,0.5,0.7,0.6c0.3,0.1,0.7,0.1,1,0.1c0.1,0,0.3,0,0.4,0.1c0.5,0.3,1,0.2,1.5,0.2c0.7,0,1-0.3,1-1
		c0-0.1,0-0.3,0-0.4c-0.2-0.2-0.6-0.1-0.6-0.5c1.2-0.1,1.2-0.1,1.2-1.4c0,0,0,0,0-0.1c-0.6-0.1-1.2-0.2-1.8-0.3
		c-0.6-0.1-1.2-0.1-1.8-0.2c0,0,0-0.1,0-0.1c0.2-0.1,0.4-0.2,0.5-0.3c0.3,0.1,0.5,0.2,0.7,0.2c0.6-0.1,1.2,0.4,1.7-0.1
		c0.3,0.3,0.7,0,1,0.2c0-0.4,0-0.7,0-1c-0.2,0-0.4,0-0.6,0c-0.3-0.1-0.6-0.1-0.8-0.3c-0.3-0.4-0.5-0.2-0.8-0.1c0,0,0,0,0,0
		c-0.3-0.1-0.5-0.3-0.8-0.4c-0.1,0.1-0.2,0.2-0.2,0.3c-0.3-0.2-1.5-0.6-1.8-0.4c-0.2,0.1-0.4,0.3-0.5,0.5c-0.2,0.5,0.1,0.9,0.6,1.1
		c0.1,0.1,0.3,0.1,0.5,0.2c-0.2,0.1-0.3,0.1-0.3,0.1c-0.5,0.1-0.7,0.3-0.7,0.7c0,0.4,0.1,0.6,0.6,0.8
		C25.1,105.5,25.2,105.7,25.3,105.8z M31.5,33.8c-1.2,0-1.2,0.2-1.1,0.9c0,0,0,0.1-0.1,0.1c-0.8,0.4-0.8,0.4-0.6,1.4
		c-0.2,0-0.4,0.1-0.6,0.1c-0.3,0.3-0.1,0.7-0.1,1.1c-1,0.2-1,0.2-0.8,1.3c-0.9,0.2-1.1,0.6-0.8,1.3c-0.1,0.4-0.2,0.7-0.1,0.9
		c0.1,0.3,0.1,0.6-0.1,0.9c-0.1,0.1-0.1,0.2-0.1,0.3c0.1,0.6-0.2,1-0.5,1.3c0.1,0.3,0.2,0.5,0.3,0.8c0.1,0,0.2,0,0.3-0.1
		c0.2-0.4,0.6-0.6,1.1-0.5c0.2,0,0.4-0.1,0.4-0.4c0-0.5,0.2-0.7,0.7-0.7c0.3,0,0.5-0.2,0.5-0.6c0-0.3,0.1-0.5,0.3-0.6
		c0.3-0.1,0.4-0.3,0.4-0.6c0-0.6,0-0.6,0.6-0.7c0.3-0.1,0.5-0.2,0.4-0.5c0-0.3,0-0.5-0.3-0.7c0.2-0.2,0.2-0.5,0.1-0.7
		c-0.1-0.2-0.1-0.4-0.1-0.5c0.1-0.7,0.3-1.5,0.2-2.2C31.5,34.8,31.5,34.3,31.5,33.8c0.3-0.4,0.3-0.6,0-1
		C31.3,33.2,31.5,33.5,31.5,33.8z M29.1,96.2c-0.7,0.1-1.4,0.2-2.2,0.4c0-0.1,0-0.3,0-0.4c-0.8-0.1-1.5-0.1-2.3-0.2
		c-0.2,0.4-0.5,0.7-0.3,1.2c0.2,0.6,0.8,0.4,1.2,0.5c-0.2,0.7-0.8,0.9-1.4,0.9c0.3,0.2,0.6,0.4,0.8,0.6c0.2,0.2,0.4,0.6,0.6,0.9
		c-0.1,0-0.2,0.1-0.2,0.1c-0.1,0-0.2,0-0.2,0c-0.5-0.2-0.7,0-0.7,0.5c0,0.7,0.1,0.8,0.8,0.9c0,0,0.1,0,0.1,0
		c0.7,0.5,1.5,0.2,2.2,0.4c0.1-0.2,0.2-0.4,0.3-0.5c0.7,1,1.6,0.5,2.5,0.6c0-0.6,0.1-1,0.1-1.6c-0.2,0-0.3,0-0.5,0
		c-0.6,0-1.3,0.2-1.9,0.1c-0.5-0.1-1-0.4-1.5-0.6l0,0c0.2,0,0.4,0,0.5,0c0.1,0,0.2-0.1,0.4-0.1c0.1-0.1,0.3-0.2,0.4-0.2
		c0.2,0,0.4,0.1,0.5,0.2c0.3,0.3,0.7,0.4,1,0.4c1,0.2,1.2,0.1,1.3-0.9c0-0.3,0-0.8,0.1-1c0.4-0.5,0.3-1.1,0.2-1.7
		c-0.6-0.1-1.2-0.1-1.7-0.2C29.2,96.4,29.2,96.3,29.1,96.2c0.8-0.3,1.7,0.1,2.6-0.1c0.2-0.5,0.4-0.9,0.1-1.5c-0.5,0-1-0.1-1.5-0.1
		c-0.3,0-0.7-0.4-1,0.1c-0.3-0.3-0.7-0.2-1.1-0.2c-0.1,0-0.2-0.2-0.3-0.4c0.8,0,1.4,0,2,0c0.5,0,1.1,0.1,1.6,0.2
		c0.3,0,0.5-0.1,0.7-0.1c0-0.5,0-0.9,0-1.4c-0.4-0.1-0.8-0.1-1.1-0.1c-0.6-0.1-1.2-0.1-1.8-0.2c-0.4,0-0.8-0.1-1.3,0
		c-0.6,0.1-0.8,0.3-0.7,0.9c0,0.3,0.1,0.5,0.2,0.9c-0.4,0-0.8,0.1-1.2,0.1c-0.4,0.1-0.6,0-0.6-0.4c-0.3,0.1-0.6,0.2-0.8,0.1
		c-0.3-0.1-0.4,0.1-0.6,0.3c-0.2,0.2-0.1,0.4,0,0.6c0.2,0.4,0.5,0.6,1,0.8c0-0.2,0.1-0.3,0.1-0.6c0.4,0.7,1,0.8,1.6,0.8
		c0.5,0,0.9,0,1.4,0.1C28.6,96,28.9,95.9,29.1,96.2z M16.5,105.4c-0.8,0.6-0.8,0.9-0.2,1.9c-0.7,0.5-0.7,1.1-0.4,1.8
		c-0.4,0.2-0.8,0.5-0.7,0.9c0,0.4,0.2,0.7,0.4,1.1c-0.1,0.1-0.3,0.2-0.4,0.3c-0.3,0.2-0.4,0.9-0.2,1.2c0.2,0.3,0.4,0.5,0.7,0.3
		c0.1,0.2,0.1,0.4-0.1,0.5c-0.1,0-0.3,0-0.4,0.1c-0.3,0.1-0.5,0.2-0.5,0.5c-0.1,0.3-0.1,0.6,0.2,0.9c0.3,0.2,0.6,0.4,0.9,0.6
		c0.3,0.2,0.5,0.3,0.8,0.5c-0.2,0.1-0.4,0.2-0.4,0.1c-0.3-0.6-0.9-0.5-1.3-0.7c-0.6,0.8-0.6,1.4,0.2,1.9c0.2,0.2,0.5,0.3,0.7,0.5
		c-0.4,0.3-0.7-0.1-1-0.1c-0.1,0.1-0.2,0.2-0.3,0.4c-0.2,0.4-0.2,0.5,0.1,0.9c0.2,0.3,0.4,0.5,0.6,0.8l0,0c-0.9,0.1-1.2,0.5-1,1.2
		c0.1,0.4,0.5,0.6,0.9,0.8c0.1-0.1,0.2-0.2,0.4-0.3c0.3,0.8,0.9,1,1.5,1.2c0.1-0.5,0.2-0.9,0.4-1.3c0.1-0.3,0.1-0.5,0.1-0.8
		c-0.1-0.4-0.1-0.8,0.1-1.2c0.1-0.1,0.1-0.3,0.2-0.5c-0.3-0.1-0.6-0.2-1-0.3c0.3,0,0.5,0,0.6-0.1c0.1-0.5,0.2-0.9,0.4-1.3
		c0.1-0.2,0.1-0.5,0-0.7c-0.2-0.4-0.2-0.8,0.1-1.2c0.1-0.2,0.2-0.4,0.2-0.6c-0.2-0.1-0.4-0.1-0.5-0.2c0,0,0-0.2-0.1-0.2
		c0.2,0,0.3-0.1,0.4-0.1c0.1-0.4,0.3-0.8,0.4-1.1c0.1-0.4,0-0.4-0.4-0.6c-0.1,0-0.1,0-0.1,0c0-0.4,0-0.7,0.1-1
		c0.1-0.3,0.2-0.7,0.3-1c-0.3-0.3-0.7,0.1-0.9-0.5c0.2,0,0.5-0.1,0.7-0.1c0.1-0.3,0.2-0.5,0.3-0.8c0.1-0.3,0.1-0.5-0.1-0.7
		c-0.2-0.3-0.5-0.5-0.8-0.5c-0.2,0-0.3-0.1-0.3-0.3c0.4,0.1,0.8,0.2,1.2,0.3c0.1-0.5,0.3-0.9,0.4-1.3c-0.2-0.2-0.5-0.4-0.7-0.5
		c0.2-0.1,0.4-0.2,0.4-0.3c0.1-0.3,0.2-0.7,0.3-1c0-0.1,0-0.2,0-0.3c-0.4-0.3-0.2-0.6-0.1-0.9c0-0.4,0.2-0.7,0.3-1.1
		c-0.3-0.4-0.4-0.7-0.2-1.2c0.2-0.3,0.2-0.8,0.1-1.2c-0.1-0.5-0.1-0.8,0.2-1.2c0.2-0.3,0.2-0.5,0.1-0.8c-0.2-0.4,0-0.7,0.2-1
		c0.1-0.1,0.2-0.3,0.2-0.4c-0.3-0.1-0.7-0.3-1-0.4c0.6-0.6,0.9-1.2,0.8-1.9c-0.1-0.6,0-1.1,0.4-1.5c0,0,0-0.1,0-0.2
		c-0.2,0-0.3-0.1-0.5-0.1c0.4-0.6,0.6-1.4,0.5-2.2c0-0.2,0-0.3,0-0.5c0.2-0.5,0.5-1,0.1-1.5c-0.1-0.1,0-0.3,0-0.4
		c0.1-0.3,0.2-0.7,0.3-1c-0.3-0.2-0.7-0.3-1,0c-0.5,0.5-0.1,1,0.1,1.4c-0.3,0.3-0.6,0.6-0.7,0.9c-0.1,0.3,0.2,0.7,0.3,1
		c-0.2,0.3-0.5,0.6-0.6,0.9c0,0.3,0.2,0.7,0.3,1.1c-0.2,0.2-0.4,0.4-0.6,0.6c0-0.2,0-0.3,0-0.6c-0.3,0.3-0.1,0.4,0,0.6
		c0,0.3-0.1,0.6,0.3,0.8c0.1-0.1,0.1-0.2,0.2-0.3c0.1,0.3,0.1,0.5,0.2,0.7c-0.4,0.1-1,0.1-1,0.6c-0.1,0.4,0.1,0.8,0.2,1.3
		c-0.2,0.2-0.6,0.3-0.6,0.7c0,0.4,0.2,0.7,0.3,1.1c-0.8,0.8-0.8,1.2,0.1,1.8c-1,0.2-1.3,0.6-0.5,2.1c-0.4,0.1-0.8,0.1-0.8,0.6
		c0,0.2,0,0.5,0.1,0.6c0.1,0.2,0.4,0.3,0.6,0.4c0.4,0.2,0.5,0.2,0.6,0.8c-0.2-0.1-0.5-0.2-0.7-0.3c-0.5-0.3-0.9-0.1-1,0.5
		C15.9,104.8,16.2,105.1,16.5,105.4L16.5,105.4z M39.8,122.4c0.1,0.2,0.2,0.4,0.2,0.5c0.1-0.2,0.1-0.3,0.2-0.5
		c0.1,0.3,0.1,0.5,0.2,0.7c0.4,0,0.8,0.1,1.2,0.1c0.1,0,0.4-0.2,0.4-0.3c0-0.5,0.2-1-0.1-1.6c-0.6,0.2-1.4-0.2-2,0.4
		c-0.3-0.2-0.7,0.2-0.9-0.2c-0.1-0.1-0.4-0.1-0.6-0.1c-0.6,0-1.2,0-1.8,0c-0.6,0-1.2,0-1.8,0c0,0.4,0,0.8,0,1.2
		c0,0.5,0.1,0.6,0.6,0.5c0.7-0.1,1.4,0,2.1,0.1c0.3,0.1,0.6,0,0.9,0c0.6-0.1,0.5-0.1,0.7-0.7c0-0.1,0.1-0.1,0.2-0.3
		c0.1,0.2,0.2,0.3,0.3,0.4C39.7,122.5,39.7,122.5,39.8,122.4z M42.8,115.2c-0.4,0.1-0.7,0.1-1,0.1c-0.4,0-0.8,0.2-1.1,0.1
		c-0.3-0.1-0.6-0.1-1-0.1c-0.4,0-0.9,0.1-1.3,0c-0.6-0.1-1.1-0.1-1.7-0.1c-0.4,0-0.6,0.2-0.7,0.4c-0.3,0.3-0.1,0.6,0,1
		c0.1,0.3,0.3,0.3,0.6,0.3c0.5,0,1,0.1,1.5,0c0.5-0.1,1.1,0.3,1.6-0.2c0.1,0.3,0.5,0,0.5,0.1c0.2,0.4,0.4-0.3,0.6,0
		c0.1,0.1,0.2,0,0.3,0c0.6,0,1.2,0.3,1.9-0.1C42.9,116.2,42.8,115.8,42.8,115.2z M20.3,126.9c0.1,0.2,0.2,0.4,0.2,0.6
		c0,0.4,0.3,0.6,0.6,0.6c0.5,0.1,1,0.2,1.6,0.2c0.1,0,0.2,0,0.3-0.1c0.3-0.1,0.4-0.1,0.6,0.1c0.1,0.1,0.2,0.1,0.3,0.2
		c0.2-0.2,0.3-0.4,0.5-0.6c0.8,0.5,1.8,0.8,2.8,0.8c0.1-0.5,0.4-1,0.2-1.6c-0.8,0-1.7-0.2-2.5,0.2c-0.1,0-0.3-0.1-0.3-0.1
		c-0.1-0.5-0.5-0.4-0.8-0.4c-0.4,0-0.9,0.3-1.3,0c0,0-0.2,0.1-0.3,0.1c-0.1,0-0.2,0-0.4-0.1c0-0.1,0.1-0.2,0.1-0.3
		C21.4,126.4,20.8,126.4,20.3,126.9z M43.9,112.6c0.3-0.2,0.5-0.3,0.6-0.4c0-0.7-0.1-0.8-0.5-0.8c-1.1,0-2.2-0.1-3.3-0.1
		c-0.7,0-1.5,0-2.2,0c-0.3,0-0.7,0-1,0.2c-0.2,0.1-0.4,0.3-0.4,0.5c0,0.2,0.2,0.6,0.3,0.7c0.3,0.2,0.6,0.2,0.9,0.2
		c0.4,0,0.8,0,1.3,0c0.5,0,1,0,1.5,0c0.2,0,0.4,0,0.7,0c0.2,0,0.4,0.1,0.5-0.2c0.1-0.4,0.3,0.1,0.5-0.1
		C43.1,112.3,43.6,112.4,43.9,112.6z M36.4,124.4c0.7,0.3,1.4,0.8,2.2,0.7c0-0.2,0.1-0.4,0.1-0.8c0.3,0.2,0.7,0.2,0.9,0.4
		c0.6,0.5,1.3,0.3,2,0.3c0-0.4,0-0.7,0-1.1c0-0.3-0.2-0.5-0.5-0.5c-0.5,0.1-1.1,0-1.6,0.3c-0.1,0.1-0.4,0.1-0.5,0
		c-0.3-0.5-0.7-0.3-1.1-0.3c-0.4,0.1-0.8,0.1-1.3,0.1c-0.1,0-0.2,0-0.2-0.1c-0.6-0.6-1.1,0.3-1.7,0c0,0.2,0,0.3-0.1,0.6
		c-0.1-0.2-0.2-0.4-0.3-0.6c0,0.4-0.1,0.7-0.1,0.9c0.2,0,0.4,0,0.5,0c0.1,0,0.3,0,0.4,0c0.4,0.7,0.5,0.7,1.2,0.5
		C36.2,124.8,36.3,124.6,36.4,124.4z M39.9,106.9c0.3,0,0.6,0.1,0.7-0.2c0,0,0.1,0,0.2,0c0.1,0,0.3,0.1,0.4,0c0.5-0.3,1-0.2,1.5,0.1
		c0.5,0.3,1.3,0.1,1.5-0.4c0.4,0.1,0.9-0.3,1.2,0c0.3-0.5,0.1-0.9-0.2-1.2c-0.8,0-0.8,0-1,0.3c-0.2,0-0.2-0.4-0.5-0.1
		c-0.2-0.2-0.5,0-0.7-0.1c-0.2,0-0.4-0.1-0.6-0.1c-0.4,0-0.8,0.1-1.2,0.1c-0.5,0-1-0.1-1.4-0.1c-0.9,0-1.1,0.5-0.8,1.3
		c0.1,0.2,0.3,0.3,0.5,0.5c0.1-0.2,0.1-0.4,0.2-0.6C39.8,106.6,39.8,106.8,39.9,106.9z M44,110.6c0.1-0.1,0.3-0.2,0.4-0.3
		c0.3-0.2,0.2-0.4,0.2-0.7c-0.1-0.2-0.2-0.3-0.5-0.2c-0.6,0-1.2,0-1.7,0c-0.3,0-0.6-0.1-0.9-0.1c-0.4,0-0.9,0-1.3,0.1
		c-0.8,0-1.5,0.2-2.3,0.5c0.2,0.5,0.6,0.3,0.9,0.4c0,0.2,0.1,0.4,0.1,0.7c0.8,0,1.5,0,2.3,0c0.3,0,0.7,0.2,1,0.1
		c0.3-0.1,0.6-0.1,0.9,0C43.2,110.2,43.4,110.2,44,110.6z M31.1,128.4c0.2,0.6,0.7,0.4,1,0.5c0.2,0.1,0.4-0.1,0.5-0.2
		c0.3-0.2,0.9-0.3,1.1,0c0.2,0.3,0.3,0.3,0.6,0.3c0.5,0.1,1,0.1,1.5,0.2c0-0.6,0-1.1,0-1.6c-0.5,0-1,0-1.5,0.2
		c-0.3,0.1-0.6,0.2-0.9,0.3c-0.3,0.1-0.5,0-0.6-0.3c0-0.1-0.1-0.2-0.1-0.3c-0.6,0.1-1.2,0.2-1.9,0.3c-0.2-0.5-0.8-0.5-1.3-0.4
		c-0.4,0.1-0.7,0.3-1.1,0.4c0.3,0.3,0.5,0.6,0.8,0.9c0.3,0.3,1,0.3,1.3,0.1C30.6,128.7,30.8,128.6,31.1,128.4z M18.3,51.6
		c0.2-0.5,0.7-0.2,1-0.5c0-0.4,0-0.8,0-1.3c-0.4,0-0.8,0.3-0.9-0.2c0,0,0-0.1,0-0.1c0.1,0,0.3-0.1,0.4-0.1c0.3,0,0.7-0.4,0.7-0.7
		c0-0.3-0.2-0.4-0.7-0.4c-0.3,0-0.7,0-1-0.1c-0.5-0.2-0.9,0.2-0.8,0.7c0.1,0.3,0.2,0.6,0.3,0.9c-0.4,0.7-0.2,1.1,0.4,1.7
		c-0.4,0.7-0.4,1,0.2,1.5c0.3,0,0.7-0.1,1-0.1c0-0.4,0.1-0.7,0.1-1.2C18.9,51.7,18.6,51.7,18.3,51.6z M39.7,109
		c0-0.3-0.1-0.8,0.3-0.7c0.7,0.1,1.5-0.1,2.1,0.5c0.3,0.3,0.6,0.2,0.9,0c0.3-0.3,0.6-0.5,1.1-0.3c0.1,0,0.2,0,0.2,0
		c0.3-0.3,0.5-0.1,0.8,0.1c0.2-0.5,0.3-0.9-0.1-1.3c-0.7,0.3-1.4,0.3-2.1,0.2c-0.3,0-0.7-0.2-0.9,0.2c-0.7-0.2-1.3,0-1.9-0.1
		c-0.6-0.1-1.2-0.1-1.8-0.1c-0.1,0.4-0.2,0.7,0.2,0.9c0.1,0,0.1,0.2,0.1,0.2c-0.1,0.5,0.2,0.5,0.6,0.6c0.1-0.2,0.1-0.3,0.2-0.5
		C39.5,108.7,39.6,108.8,39.7,109z M46.5,49.7c0,0.4,0.1,0.7,0.1,1.1c0,0.4,0.2,0.6,0.5,0.7c0.1,0.1,0.4,0.1,0.6,0
		c0.6-0.1,1.1-0.3,1.7-0.4c0-0.3-0.1-0.5-0.1-0.8c-0.4,0.1-0.6,0.1-0.9,0.2c0-0.1-0.1-0.2-0.1-0.3c-0.2,0.1-1.4,0.1-1.5,0
		c0-0.1,0.1-0.3,0.1-0.4c0.3,0,0.5-0.1,0.8-0.1c0.6-0.1,1.3-0.6,1.9,0c0.4-0.3,0.4-0.6,0.3-0.9c-0.6-0.1-1.2-0.1-1.8-0.2
		c-0.6-0.1-1.3-0.1-2-0.1c0.1,0.4,0.1,0.8,0.2,1.2C46.3,49.7,46.4,49.7,46.5,49.7z M33,82.5C33,82.5,33,82.5,33,82.5
		c0.2,0,0.4,0,0.6,0c0.2,0,0.5,0,0.7,0c0.4,0,0.6-0.3,0.6-0.8c0-0.5-0.1-0.6-0.6-0.6c-0.5,0-1,0-1.4-0.1c-0.7-0.2-1.3,0.1-2-0.2
		c-0.1,0-0.1,0-0.2,0c-0.4,0.1-0.4,0.4-0.5,0.7c-0.1,0.3,0,0.5,0.2,0.6c0.2,0.1,0.5,0.2,0.7,0.2C31.7,82.5,32.3,82.5,33,82.5z
		 M43,104.7c0.3,0,0.6,0,0.7-0.3c0.1-0.2,0.4-0.3,0.6-0.4c0.1,0.2,0.1,0.3,0.1,0.5c0-0.2,0.1-0.4,0.1-0.5c0.4-0.1,0.8-0.1,1.2-0.2
		c-0.1-0.2-0.1-0.2-0.2-0.3c-1-0.3-2-0.5-3.1-0.4c-0.6,0-1.3,0.4-1.9,0c-0.1-0.1-0.4,0-0.6,0c-0.3,0-0.5,0.2-0.5,0.6
		c0,0.2,0,0.5,0.1,0.7c0.1,0.3,0.4,0.4,0.6,0.3c0.2-0.2,0.6-0.1,0.8-0.3c0.4-0.3,0.7-0.1,1.1-0.1C42.4,104.3,42.8,104.4,43,104.7z
		 M40.1,101.6c0.5,0.3,0.8,0.5,1.1,0.7c0.5,0.4,1.3,0.5,1.9,0.1c0.1-0.1,0.2-0.1,0.3-0.1c0.3,0.2,0.6,0,0.9,0
		c0.5-0.1,1.1-0.2,1.6-0.3c0.1-0.3,0-0.8-0.2-0.7c-0.5,0.1-0.9-0.2-1.3-0.2c-0.5,0-0.9-0.1-1.4-0.1c-0.3,0-0.7,0-1,0
		c-0.3,0-0.7-0.2-1,0.2C40.5,101,40.5,101.6,40.1,101.6z M46,100c-0.1-0.3-0.2-0.6-0.3-0.8c-0.3,0-0.6,0-0.8,0
		c-0.6,0.1-1.2-0.2-1.8,0c-0.3,0.1-0.6,0.1-0.9-0.1c-0.5-0.2-1.1-0.3-1.7,0c-0.1,0.5-0.1,0.9,0.2,1.3c0.2,0,0.3,0,0.4,0.1
		c0.2,0.2,0.5,0.1,0.6-0.1c0.2-0.4,0.7-0.4,1-0.4c0.5-0.1,0.6,0,0.8,0.5c0,0,0.1,0,0.1,0c0.1-0.1,0.1-0.3,0.2-0.4c0.3,0.1,0.7,0,1,0
		C45.2,100.2,45.6,100.1,46,100z M34.4,82.9c-0.6,0-1.2-0.1-1.8,0.1c-0.1,0-0.1,0.1-0.2,0c-0.4-0.2-0.8-0.2-1.2-0.1
		c-0.5,0.1-0.6,0.1-0.7,0.5c-0.1,0.4,0,0.6,0.4,0.8c0.7,0.3,1.3,0.2,2,0.2c0.1,0,0.3-0.1,0.3,0c0.4,0.2,0.7,0.1,1.1,0
		c0-0.1,0.1-0.2,0.1-0.3C34.4,83.6,34.4,83.3,34.4,82.9z M33.4,88.4c0-0.4,0-0.8,0-1.1c0-0.4-0.1-0.5-0.5-0.5
		c-0.6,0-1.2-0.1-1.8-0.2c-0.3,0-0.7,0.1-1,0.3c-0.3,0.2-0.3,0.6-0.2,0.9c0.1,0.3,0.3,0.5,0.6,0.5c0.5,0,1.1,0.1,1.6,0.1
		C32.5,88.4,32.9,88.4,33.4,88.4z M45.8,94.2c0.2-0.4,0-0.7-0.1-1c-0.1-0.1-0.2-0.2-0.4-0.2c-0.4,0-0.7,0.1-1.1,0.1
		c-0.1,0-0.2,0.1-0.2,0c-0.4-0.4-0.9-0.2-1.4-0.2c-1.2,0.1-1.4,0.3-0.9,1.5c0,0,0.1,0.1,0.1,0.1c0.6-0.1,1.2-0.3,1.8,0
		c0.1,0,0.2,0,0.3,0c0.2,0,0.5-0.1,0.7-0.2C44.9,94.3,45.4,94.2,45.8,94.2z M41.8,96.1c0.4,0.5,0.7,0.4,1.2,0.3
		c0.3-0.1,0.5-0.2,0.9-0.1c0.3,0,0.6,0,0.8,0.2c0.2-0.4,0.7-0.1,1-0.3c0.2-0.1,0.4-0.2,0.3-0.5c-0.1-0.2-0.2-0.6-0.4-0.6
		c-0.5-0.1-1,0-1.6,0c-0.3,0-0.6,0.1-0.9,0c-0.7-0.2-1.3,0.1-2,0.1c0,0.4,0,0.7,0.1,1C41.3,96.1,41.5,96.5,41.8,96.1z M48.4,124.8
		c0.2,0,0.3-0.1,0.4,0c0.2,0.2,0.3,0.1,0.5-0.1c0.1-0.1,0.2-0.2,0.3-0.3c0,0,0.1,0,0.1,0c0,0.2,0,0.4,0,0.6c0.3,0.1,0.5,0.1,0.7-0.1
		c0.2-0.2,0.3-0.2,0.6-0.1c0.1,0.1,0.2,0.1,0.4,0.1c0.1-0.5,0.1-1-0.2-1.5c-0.4,0-0.9,0-1.2,0.1c-0.4,0.2-0.8,0-1.2,0
		c-0.5,0.1-1.1,0.1-1.7,0.1c-0.1,0.5,0,1,0.3,1.6c0.3-0.3,0.6-0.5,0.9-0.7C48.3,124.6,48.3,124.7,48.4,124.8z M50.1,116.5
		c0.6-0.4,1.2-0.5,1.8-0.5c0.1,0,0.2,0.1,0.3,0.1c0.5,0,0.9-0.1,1.4-0.1c0.3,0,0.6,0,0.9-0.1c0.1-0.5-0.2-0.8-0.4-1.1
		c-1.7,0.3-3.5,0.1-5.3,0.5c0.1,0.3,0.1,0.5,0.2,0.7C49.3,116.3,49.9,115.9,50.1,116.5z M26,87.8c0-0.5,0.2-1,0.1-1.4
		C25.9,85.9,26,85.5,26,85c0.1-0.6,0-0.6-0.5-0.6c-0.1,0-0.2,0-0.3,0c-0.4-0.1-0.8,0.1-0.9,0.6c-0.1,0.5,0.1,0.7,0.5,0.8
		c0.2,0,0.4-0.1,0.6,0.2c-0.3,0.1-0.6,0.1-0.8,0.2c-0.4,0.1-0.5,0.4-0.5,0.7c0,0.3,0.1,0.6,0.4,0.7C25,87.8,25.4,88,26,87.8z
		 M43.6,113.2c-0.3,0.1-0.6,0.1-0.8,0.1c-0.3,0-0.5,0-0.7,0.3c-0.2-0.2-0.4,0-0.5,0c-0.3-0.4-0.2,0.3-0.5,0.2
		c-0.1-0.1-0.2-0.1-0.3-0.1c-0.1-0.1-0.2-0.2-0.3-0.4c-0.6,0-1.7,0.4-2,0.7c0,0,0,0.1,0,0.1c0.4,0.4,1,0.4,1.2,0.8
		c0,0.1,0.2,0,0.4,0c0.2,0,0.3,0,0.5,0c0.1-0.2,0.1-0.5,0.2-0.8c0.4,0.2,0.8,0.3,1.2,0.4c0.3,0.1,0.6,0.2,0.8,0.2
		c0.5,0.1,0.7-0.1,0.7-0.6C43.6,113.8,43.6,113.5,43.6,113.2z M41.1,129.2c0-0.1,0.1-0.3,0.1-0.4c0.1-0.4-0.1-0.6-0.3-0.9
		c-0.2-0.2-0.5-0.1-0.8,0c-0.3,0.1-0.8,0-1.1-0.1c-0.2-0.1-0.3-0.2-0.5-0.1c-0.4,0.1-0.9,0.2-1.4,0.3c-0.1,0-0.1,0.1-0.2,0.1
		c0,0.1,0.1,0.2,0.1,0.4c0.1-0.1,0.2-0.1,0.3-0.2c0.1,0.4,0.2,0.8,0.3,1.2c0.2,0,0.3,0,0.4,0c0.2,0,0.5,0.1,0.7,0
		c0.2-0.1,0.2-0.4,0.3-0.5c0.1-0.1,0.2-0.1,0.3-0.3C39.7,129.4,40.4,129.3,41.1,129.2z M26.3,114.4c-0.5,0-0.9,0-1.3,0.1
		c-0.5,0-0.6,0.2-0.7,0.6c-0.1,0.7,0.1,1,0.8,1c0.2,0,0.4,0,0.5,0c0.4,0,0.5,0,0.5-0.4c0-0.5,0-1,0.4-1.4c0,0,0.1-0.1,0-0.2
		c-0.1-0.6,0-1.2,0.3-1.8c0,0-0.1-0.1-0.1-0.1c-0.3,0.2-0.6,0.3-1,0.5c-0.4-0.3-0.8,0-1.2,0c0.1,0.8,0.1,0.7,0.8,0.6
		c0.2,0,0.4,0,0.6,0.3C26,113.9,26.1,114,26.3,114.4z M28.2,108.6c-0.3,0-0.7,0.1-0.9,0c-0.7-0.4-1.5-0.3-2.2-0.5
		c-0.5-0.1-0.7,0.1-0.8,0.6c0,0.3,0,0.5,0,0.8c0.5,0.1,1,0.1,1.5,0.2c0.5,0.1,0.9,0.1,1.2-0.4c0.1,0.3,0.3,0.5,0.6,0.4
		C28,109.5,28.1,109.1,28.2,108.6z M33.9,84.8c-0.2,0-0.4-0.1-0.6-0.1c-0.4,0-0.8,0-1.2,0c-1.1-0.1-1.4,0.2-1.2,1.3c0,0,0,0.1,0,0.1
		c0.9,0.4,1.9,0.4,3,0.2C33.9,85.8,33.9,85.4,33.9,84.8z M39.2,7.8c0-0.1,0-0.1,0-0.2c-0.7,0.1-1.3,0.2-2,0.3
		c-0.3,0.1-0.4,0.3-0.3,0.6c0,0.3,0.2,0.4,0.6,0.3c0.6-0.1,1.3-0.3,1.9-0.3c0.4-0.1,0.9,0,1.3,0c0.4,0,0.8,0,1.1-0.1
		c0.2-0.1,0.4-0.2,0.3-0.4c0-0.3-0.1-0.5-0.4-0.5c-0.3,0-0.5,0-0.8,0C40.3,7.6,39.7,7.7,39.2,7.8z M51.2,119.2c-0.6,0-1.1,0-1.5,0
		c-0.5,0-0.9,0.3-1.4,0.1c-0.2-0.1-0.4,0.1-0.4,0.4c0,0.3,0.1,0.6,0.2,0.8c0.1,0.1,0.4,0.1,0.6,0.1c0.2,0,0.3,0.1,0.5,0.1
		c0.1-0.1,0.1-0.2,0.2-0.3c0.4,0.3,1.1,0.4,1.2,0.1c0.2-0.4,0.4-0.4,0.9-0.4C51.3,119.7,51.2,119.4,51.2,119.2z M47.8,76
		c-0.7-0.4-1.5-0.3-2.3-0.2c-0.1,0.9-0.1,1,0.8,1c0.2,0,0.4,0.1,0.6,0c0.9-0.1,1.8-0.3,2.7-0.2c0,0,0,0,0.1,0c0.1-0.5,0.1-0.5-0.3-1
		c-0.3,0-0.7,0-0.9,0.2C48.3,76,47.9,75.5,47.8,76z M26.7,93.8c0.1-0.4,0.1-0.9,0.2-1.3c-0.5-0.4-1.1-0.4-1.7-0.5
		c-0.2,0-0.4,0.1-0.6,0.1c-0.3,0.1-0.4,0.4-0.4,0.7c0,0.2,0,0.5,0.3,0.6C25.2,93.6,25.9,93.9,26.7,93.8z M27.4,111.5
		c0-0.2,0.1-0.4,0.1-0.6c0-0.3,0-0.5-0.5-0.5c-0.3,0-0.6,0-0.8-0.1c-0.3-0.2-0.5-0.2-0.8-0.2c-0.9-0.1-1.1,0.2-1,1
		c0,0.4,0.4,0.6,0.9,0.7c0.3,0.1,0.5,0,0.7-0.5c0.1,0.1,0.2,0.1,0.3,0.2c0.1-0.3,0.3,0.2,0.4,0C27,110.9,27.2,111.3,27.4,111.5z
		 M56.8,93.3c-0.1-0.7-0.3-0.9-0.9-0.8c-0.7,0-1.3,0.1-2,0.2c-0.5,0.1-0.9,0-1.5,0c0.1,0.4,0.2,0.7,0.3,1c0.4,0,0.7,0,1,0
		c0.3,0,0.7,0,0.9-0.2c0.3-0.2,0.6,0.1,1-0.1C56,93.2,56.4,93.3,56.8,93.3z M37.1,10.2c0.5,0,0.9-0.1,1.4-0.1c0.3,0,0.7-0.1,1-0.1
		c0.1,0,0.2-0.1,0.3-0.1c0.7,0.2,1.2-0.3,1.8-0.4c0.2,0,0.3-0.2,0.1-0.5C41.3,9,41,9,40.7,9c-0.3,0-0.6,0-0.9,0.1
		c-0.4,0.1-0.6-0.3-0.9-0.1c-0.1,0-0.2,0-0.3,0c-0.3,0.1-0.7,0.2-1,0.2C37,9.3,36.9,9.5,37.1,10.2z M45.6,91
		c-0.4,0.1-0.7,0.2-1.1,0.3c-0.2,0-0.4-0.1-0.5,0.1c-0.2-0.4-0.6-0.1-1-0.3c-0.2-0.1-0.5,0-0.7,0.1c-0.3,0.1-0.3,0.6-0.1,0.7
		c0.3,0.2,0.6,0.5,1,0.4c0.6-0.1,1.2-0.3,1.9-0.1c0.2,0,0.3,0,0.5,0.1C46,91.8,45.8,91.4,45.6,91z M54.2,87.8
		c-0.1-0.9-0.2-1-0.9-0.9c-0.5,0.1-1,0-1.5,0.1c-0.4,0-0.8,0.1-1.3,0.1c0.1,0.4,0.2,0.8,0.4,1.2c0.4-0.3,0.8,0.1,1.2-0.1
		c0.4-0.3,1-0.3,1.5-0.3C53.7,87.8,53.9,87.8,54.2,87.8z M26.4,88.4c-0.5-0.3-1.1-0.3-1.6-0.3c-0.4,0-0.7,0.4-0.8,0.8
		c0,0.4,0.1,0.7,0.6,0.8c0.5,0.2,1,0.2,1.6,0C26.3,89.3,26.3,88.8,26.4,88.4z M55.8,91.2c-0.1-0.6-0.2-0.6-0.7-0.6
		c-0.7,0-1.3,0.1-2,0.1c-0.4,0-0.8,0-1.2,0.3c0.1,0.3,0.1,0.5,0.2,0.7C53.4,91.7,54.6,91.6,55.8,91.2z M26.4,82.2
		c-0.5,0.2-0.5,0.2-1,0.1c-0.7-0.2-1.3,0.4-1.1,1c0.1,0.3,0.2,0.4,0.5,0.5c0.4,0,0.8,0.2,1.2,0.2c0.3,0,0.4-0.1,0.5-0.4
		c0-0.3,0.1-0.7,0.1-1C26.6,82.5,26.5,82.4,26.4,82.2z M59.7,100.8c-0.1-0.3-0.2-0.6-0.3-0.8c-1.4,0.2-2.8,0.4-4.2,0.6
		c0,0.4,0.1,0.7,0.6,0.8c0.3,0.1,0.3-0.2,0.5-0.2c0.4,0,0.9,0,1.2-0.2c0.3-0.1,0.6-0.1,1-0.1C58.8,101,59.2,100.9,59.7,100.8z
		 M51.1,117.1c-0.9,0.1-1.8,0-2.6,0.3c-0.1,0.4,0.1,0.7,0.5,0.8c0.2,0,0.5,0.1,0.7,0.2c0.3,0.3,0.5-0.1,0.7-0.1
		c0.1,0.1,0.2,0.2,0.3,0.2C51.1,118.1,51.7,117.9,51.1,117.1z M24.4,90.3c-0.3,0.6-0.3,1.1,0.2,1.3c0.6,0.3,1.2,0.2,1.8,0.2
		c0-0.3,0-0.6,0.1-0.8c0-0.6-0.3-0.8-0.8-0.8C25.3,90.2,24.9,90.2,24.4,90.3z M43,90.4c0.2,0,0.5,0.1,0.7,0c0.6-0.3,1.1-0.1,1.6-0.1
		c0.1,0,0.3,0,0.4,0c0-0.9-0.2-1.1-1-1.1c-0.4,0-0.8,0-1.1,0c-0.9,0-1.1,0.2-0.7,1.1C43,90.3,43,90.4,43,90.4z M53.2,85.8
		c0-0.5-0.2-0.8-0.7-0.8c-0.7,0-1.3,0-2,0c-0.1,0-0.1,0-0.2,0c-0.2,0.1-0.5,0.1-0.5,0.4c0,0.4,0.2,0.6,0.5,0.6c0.4,0,0.7,0.1,1.1,0
		C52,86,52.6,85.9,53.2,85.8z M55.2,89.4c-0.1-0.3-0.3-0.6-0.6-0.6c-1,0-1.9,0.1-2.9,0.2c0,0-0.1,0-0.1,0c-0.2,0.1-0.4,0.2-0.3,0.4
		c0,0.1,0.2,0.3,0.3,0.3c0.3,0.1,0.5,0.1,0.8,0.1C53.4,89.9,54.3,89.9,55.2,89.4z M43.9,88.4c0.7-0.1,1.3,0.2,2-0.1
		c0-0.3-0.1-0.6-0.1-0.8c0-0.1-0.2-0.3-0.3-0.3c-0.5,0-1.1,0-1.6,0c-0.1,0-0.4,0.2-0.4,0.3c0,0.5,0,0.9,0.3,1.4
		C43.8,88.7,43.8,88.5,43.9,88.4z M41.1,11c-0.2-0.6-0.4-0.7-0.8-0.7c-0.5,0-1,0-1.5,0.1c-0.3,0-0.6,0-0.9,0
		c-0.4,0.1-0.6,0.5-0.6,0.8c0.1,0.3,0.2,0.3,0.7,0.2c0.7-0.1,1.5-0.3,2.2-0.4C40.5,11.1,40.8,11.1,41.1,11z M53.7,119.9
		c0.8,0,1.5-0.2,2.3-0.5c-0.2-0.3-0.3-0.5-0.5-0.7c-0.5,0.3-1,0.1-1.5,0.2c-0.5,0.1-1.1,0.1-1.7,0.2c0,0.5,0.3,0.8,0.5,1.1
		c0.3,0,0.5,0,0.7,0C53.6,120.1,53.7,120,53.7,119.9z M19.8,125.9c-0.5-0.1-1-0.2-1.4-0.2c-0.2,0-0.4,0.1-0.5,0.3
		c-0.4,0.7-0.1,1.3,0.6,1.6c0.2,0.1,0.3,0.1,0.5,0.2c0.3,0.1,0.4-0.1,0.5-0.3C19.6,126.9,19.7,126.5,19.8,125.9z M38.6,12.9
		c0.1,0,0.1,0,0.2-0.1c0.6-0.1,1.2-0.2,1.8-0.3c0.2,0,0.4-0.1,0.4-0.4c0-0.3-0.2-0.5-0.5-0.5c-0.8,0-1.7,0.1-2.5,0.1
		c-0.1,0-0.3,0.2-0.3,0.3C37.7,12.6,38,12.9,38.6,12.9z M42.4,98.4c0-0.2,0.1-0.3,0.1-0.4c0.2-0.1,0.4,0.2,0.6-0.1
		c0.2-0.3,0.1-0.7-0.3-0.8C42.3,97,41.7,97,41.2,97c-0.6,0-0.8,0.5-0.5,1c0.2,0.2,0.3,0.4,0.5,0.6c0.2-0.1,0.4-0.2,0.6-0.2
		c0.3,0.1,0.2-0.4,0.5-0.2C42.3,98.2,42.3,98.3,42.4,98.4z M46,85.1c-0.4,0-0.9,0-1.3,0c-0.8,0.1-1.1-0.1-0.8,1.1
		c0,0.1,0.1,0.2,0.1,0.4c0.5-0.1,1-0.2,1.6-0.2c0.7,0,0.9-0.2,0.6-0.9C46.1,85.3,46,85.2,46,85.1z M49.6,84c0.2,0,0.3-0.1,0.4,0
		c0.1,0.3,0.4,0.2,0.6,0.2c0.3-0.2,0.6-0.1,1-0.1c0.2,0,0.3,0,0.5,0c0.2-0.1,0.4-0.3,0.5-0.5c0.1-0.2-0.3-0.6-0.5-0.6
		c-0.2,0-0.3,0-0.5,0c-0.4,0-0.9,0.1-1.3,0c-0.7,0-0.8,0.1-0.7,0.8C49.5,83.9,49.5,84,49.6,84z M58.8,98.6c0-0.1,0.1-0.1,0.1-0.2
		c-0.1,0-0.2-0.1-0.3-0.1c-0.3,0-0.6,0-0.9,0.1c-0.4,0.1-0.9,0.1-1.3,0.1c-0.5-0.1-1,0-1.5,0.1c-0.2,0-0.4,0.2-0.3,0.4
		c0,0.2,0.1,0.4,0.4,0.4c0.2,0,0.4,0,0.6,0c0.3,0.1,0.6,0.1,0.9-0.2c0.2-0.2,0.5-0.3,0.7-0.3C57.8,99,58.3,98.8,58.8,98.6z
		 M46.9,127.8c-0.2,0.1-0.3,0.2-0.4,0.2c-0.3-0.2-0.6-0.2-0.9,0c-0.3,0.1-0.6,0.2-0.9,0.2c0.2,0.4,0.4,0.8,0.6,1.2
		c0.3,0,0.6,0.1,1,0.1c0-0.3,0-0.5,0-0.8c0,0,0,0,0.1,0c0.1,0.2,0.1,0.3,0.2,0.6c0-0.2,0.1-0.3,0.1-0.5c0.1,0.2,0.2,0.3,0.3,0.5
		C47.3,128.8,47.3,128.4,46.9,127.8z M44.1,57c0.6,0,0.6-0.2,0.5-1.1c-1.1,0-2.3-0.1-3.4,0.1c0.3,0.8,0.6,1.1,1.6,1
		c0-0.5,0.5-0.5,0.7-0.9C43.7,56.3,43.9,56.6,44.1,57z M47.8,78.4c0.2,0.1,0.4,0.2,0.6,0.2c0.2,0,0.3-0.1,0.5-0.2
		c0.2,0.1,0.3,0.2,0.5,0.3c0.5,0.2,0.8,0,0.8-0.6c0-0.2-0.1-0.5-0.1-0.7c-0.9,0-1.7-0.1-2.5,0.2C47.7,77.9,47.7,78.1,47.8,78.4z
		 M46.8,84.2c0-0.2,0-0.5-0.1-0.7c0-0.1-0.2-0.3-0.4-0.3c-0.6,0-1.2,0-1.9,0.1c-0.2,0-0.3,0.2-0.4,0.4c0,0.5,0.2,0.7,0.7,0.7
		C45.5,84.3,46.1,84.3,46.8,84.2z M52.5,118.2c0.1-0.1,0.2-0.2,0.3-0.2c0.6-0.1,1.2-0.4,1.9-0.3c0.2,0,0.5,0,0.6-0.3
		c0-0.3-0.3-0.6-0.6-0.6c-0.2,0-0.3,0-0.5,0.1c-0.5,0.1-0.9,0.2-1.4,0.1c-0.2-0.1-0.4,0-0.7,0.1c-0.3,0.1-0.4,0.4-0.2,0.6
		C52.1,117.9,52.3,118,52.5,118.2z M51.6,82c-0.1-0.7-0.2-0.8-0.8-0.8c-0.2,0-0.4-0.1-0.6,0c-0.5,0.1-1.1-0.1-1.6,0.4
		c0.1,0.3,0.2,0.5,0.3,0.8C49.8,82.2,50.6,82.1,51.6,82z M43.1,65.3c0,0.1,0,0.1,0.1,0.2c0.1,0.1,0.1,0.1,0.2,0.1
		c0.9,0.3,1.7,0.2,2.6,0.1c0.3,0,0.4-0.3,0.2-0.5c-0.1-0.2-0.3-0.4-0.4-0.4c-0.4,0.1-0.8-0.2-1.2-0.1c-0.4,0-0.7,0-0.7,0.5
		c-0.1-0.1-0.2-0.2-0.4-0.4C43.6,65.3,43.3,65.2,43.1,65.3z M57.5,123.5c-0.1-0.4-0.2-0.6-0.5-0.6c-0.5,0-0.9,0.1-1.4,0.2
		c-0.2,0-0.3,0.1-0.5,0.1c-0.5-0.2-0.8,0.1-1.1,0.3c0.2,0.5,0.2,0.5,0.6,0.6C55.6,124.2,56.5,123.7,57.5,123.5z M61.2,115.8
		c0.1,0.7,0.5,0.9,1.1,0.6c0.6-0.3,1.3-0.5,2-0.7c0,0,0.1,0,0.1,0c0.4,0.1,0.7-0.1,1-0.4c-0.2-0.3-0.5-0.3-0.8-0.2
		c-0.2,0.1-0.3,0.2-0.5,0.2c-0.4,0.1-0.7,0.1-1.1,0.2c-0.4,0.1-0.8,0.3-1.2,0.2C61.7,115.7,61.5,115.8,61.2,115.8z M49.6,121.8
		c0.2,0.3,0.4,0.6,0.6,0.8c0,0.1,0.1,0.1,0.2,0.1c0.3,0.2,0.9,0.1,1.1-0.1c0.2-0.3,0.1-0.7,0-1c-0.1-0.3-0.3-0.6-0.6-0.5
		C50.3,121.2,49.8,121.2,49.6,121.8z M38.1,114.9c0-0.6,0.3-1.2-0.3-1.8c-0.3,0.1-0.6,0.1-0.8,0.2c-0.4,0.2-0.5,0.4-0.4,0.9
		c0.1,0.5,0.3,0.6,0.7,0.6C37.6,114.8,37.8,114.8,38.1,114.9z M38.3,17.4c0.6-0.2,1.1-0.4,1.5-0.6c0.3-0.2,0.3-0.7,0-0.7
		c-0.6-0.1-1.3-0.2-1.9,0.2c-0.2,0.2-0.3,0.4-0.2,0.6C37.9,17,38.1,17.2,38.3,17.4z M61.7,106c-0.2-0.1-0.3-0.2-0.4-0.2
		c-0.5,0.1-0.9,0.2-1.3,0.4c-0.2,0.1-0.5,0.2-0.7,0.1c-0.6-0.2-1.1,0.1-1.7,0.1c-0.3,0-0.3,0.3-0.1,0.5c0.1,0.1,0.2,0.1,0.4,0.1
		c0.5,0,1,0,1.4-0.2c0.3-0.2,0.7-0.5,1.1-0.2c0.1,0.1,0.3,0,0.4-0.1C61,106.4,61.2,106.3,61.7,106z M41.4,128.5
		c0.5,0.2,0.9,0.3,1.4,0.5c0.2,0.1,0.5,0,0.6,0.2c0.2,0.2,0.4,0.3,0.6,0.1c0.1-0.2,0.2-0.4,0.2-0.7c0-0.3-0.1-0.5-0.1-0.8
		c-0.4,0.1-0.8,0.3-1.2,0.4C42.4,128.2,41.9,128,41.4,128.5z M49.4,111.2c0,0.3,0,0.6,0.1,0.8c0.5,0,1,0.1,1.4,0.1
		c0,0.1,0,0.2,0.1,0.2c0,0.1,0,0.1,0.1,0.2c0.3-0.8,0.9-1.2,1.7-1.1c0-0.4-0.3-0.4-0.5-0.4C51.3,111.1,50.4,111.1,49.4,111.2z
		 M48.2,80.3c0.9-0.4,1.8-0.1,2.7,0.2c-0.1-0.4-0.1-0.8-0.2-1.1c-0.5-0.3-0.9,0-1.3,0c-0.4,0-0.8,0.1-1.3,0.1
		C48.1,79.7,48.1,80,48.2,80.3z M44.9,82.5c0.2-0.1,0.4-0.2,0.5-0.2c0.3,0,0.6,0,0.9,0c0.4,0,0.6-0.3,0.5-0.7
		c-0.1-0.2-0.2-0.3-0.2-0.5c-0.7,0-1.3,0.1-1.9,0.1C44.7,81.8,44.5,82.3,44.9,82.5z M44.9,98.5c0.2-0.1,0.3-0.2,0.5-0.2
		c0.3,0,0.4-0.3,0.4-0.3c0.2-0.6-0.4-1.1-0.9-1c-0.3,0.1-0.6,0-0.9,0.1c-0.2,0.1-0.4,0.2-0.5,0.3c-0.1,0.2,0.1,0.4,0.3,0.5
		c0.3,0.2,0.6,0,0.9,0C44.8,98.1,44.8,98.3,44.9,98.5z M46.8,74.3c0,0.1,0,0.2,0,0.4c0.1,0.2,0.3,0,0.4,0.1c0.6,0.3,1.3,0.2,2,0.3
		c0.2-0.9-0.1-1.2-0.9-1.1c-0.2,0-0.3,0.1-0.5,0.1C47.4,74.1,47.1,74.2,46.8,74.3z M25.8,117.9c0-0.5,0-0.9,0-1.4
		c-0.5,0-0.9-0.3-1.3,0.2c-0.2,0.2-0.2,0.9,0,1.1C24.9,118.1,25.3,118.2,25.8,117.9z M51.5,114.2c0.1-0.5,0.2-0.9-0.2-1.3
		c-0.7,0.1-1.4,0.3-2.2,0.4c0.1,0.2,0.1,0.5,0.2,0.7c0.5,0.3,0.5-0.1,0.6-0.3C50.4,113.9,51,114.1,51.5,114.2z M48.5,128.1
		c0.3,0.2,0.5,0.4,0.8,0.6c0-0.1,0.1-0.2,0.1-0.3c0.2,0.2,0.3,0.4,0.5,0.5c0,0,0.1-0.1,0.1-0.1c0.2,0.1,0.3,0.2,0.5,0.3
		c0-0.2,0.1-0.3,0.1-0.5c0-0.2-0.1-0.4-0.1-0.7c0-0.3-0.2-0.4-0.5-0.4c-0.2,0-0.5,0-0.7,0.1C49,127.7,48.7,127.8,48.5,128.1z
		 M27.5,60.5c-0.5-0.3-1,0-1.4-0.1c-0.5-0.1-1-0.2-1.5-0.2c0.1,0.6,0.4,0.9,0.8,0.8c0.6-0.1,1.1,0.1,1.7,0.1
		C27.5,61.2,27.6,61,27.5,60.5z M38.6,14.2c0.4-0.1,0.8-0.1,1.2-0.1c0.7-0.1,0.8-0.1,0.6-0.9c-0.5,0-1,0-1.5,0.1
		C38.2,13.3,38.1,13.6,38.6,14.2C38.5,14.2,38.5,14.2,38.6,14.2z M47.5,53.2c0.5-0.2,1.1-0.4,1.6-0.6c0.1-0.4-0.1-0.5-0.4-0.6
		c-0.4,0-0.7-0.1-1.1-0.1c-0.5-0.1-0.7,0.1-0.6,0.6C47,52.9,47.2,53.1,47.5,53.2z M46.8,55.8c-0.5,0-1.1,0-1.6,0
		c0,0.5-0.1,0.9,0.4,1.1c0.8,0.4,1.1,0.2,1.2-0.7C46.8,56.1,46.8,55.9,46.8,55.8z M46.3,77.3c-0.3,0.1-0.6,0.1-0.8,0.2
		c-0.2,0.1-0.3,0.2-0.3,0.4c0,0.3,0.1,0.6,0.5,0.7c0.2,0,0.5,0.2,0.7,0.2C46.8,78.4,46.8,78.1,46.3,77.3z M63.8,112.1
		c-0.2-0.7-0.3-0.7-0.8-0.6c-0.6,0.1-1.2,0.4-1.9,0.4c-0.1,0-0.3,0.1-0.4,0.2c0,0.1,0,0.1,0,0.2c0.2,0.1,0.4,0.2,0.6,0.2
		c0.3,0,0.5-0.1,0.8-0.2C62.6,112.1,63.1,111.9,63.8,112.1z M46.9,67.3c0.1,0,0.2-0.1,0.2-0.1c0.7,0,1.3,0.1,2,0.1
		c0.1,0,0.3-0.1,0.3-0.2c0-0.1,0-0.3-0.1-0.4c-0.1-0.1-0.4-0.2-0.5-0.2c-0.6,0.1-1.1,0.2-1.6,0.3C46.9,66.8,46.8,66.9,46.9,67.3z
		 M39.9,17.5c-0.6,0-1,0-1.5,0c-0.3,0-0.5,0.4-0.4,0.7c0.1,0.2,0.2,0.5,0.5,0.4c0.5-0.3,1-0.2,1.5-0.3
		C39.9,18.1,39.9,17.8,39.9,17.5z M40.2,14.6c-0.6,0-1.2,0.1-1.8,0.1c-0.5,0.1-0.6,0.4-0.3,0.9c0.6-0.1,1.3-0.3,2-0.4
		c0,0,0.1-0.1,0.1-0.2C40.2,14.9,40.2,14.8,40.2,14.6z M59.2,75.3c0,0.4,0.1,0.5,0.5,0.5c0.9-0.1,1.8-0.2,2.7-0.2
		c-0.2-0.5-0.2-0.5-0.5-0.5C61,75.2,60.1,75.2,59.2,75.3z M49.8,110.1c0.4,0,0.7-0.1,0.9,0.5c0.1-0.8,0.6-0.7,1.2-0.8
		c-0.1-0.3-0.1-0.5-0.1-0.6c-0.2,0-0.4,0.1-0.5,0c-0.5-0.2-1-0.1-1.5,0.2C49.8,109.5,49.8,109.8,49.8,110.1z M62.2,43.8
		c0.1,0.2,0.1,0.4,0.2,0.4c0.3,0.2,0.4-0.2,0.6-0.3c0.9,0.3,2.5,0.3,2.9,0.1C65.4,43.6,63.6,43.5,62.2,43.8z M49.5,65.8
		c-0.2-0.5-0.4-0.8-0.6-1.2c-0.4,0.2-0.8,0.3-1.2,0.5c0.1,0.3,0,0.7,0.4,0.7C48.5,65.8,49,65.8,49.5,65.8z M59.8,104.3
		c0-0.1,0-0.1,0-0.2c-1,0-2,0.2-3,0.3c0,0,0,0-0.1,0c0,0.1-0.1,0.1-0.1,0.2c0,0.1,0.1,0.2,0.1,0.2c0.3,0,0.6,0.1,0.9,0.1
		c0.5-0.1,1-0.3,1.5-0.4C59.4,104.5,59.6,104.4,59.8,104.3z M25.5,118.4c-0.5-0.1-0.9,0.1-1,0.5c-0.1,0.3,0,0.7,0.1,1
		c0.1,0.3,0.5,0.1,0.8,0.1C25.4,119.5,25.4,119,25.5,118.4z M43.1,23.2c0.2,0.5,0.2,0.6,0.7,0.6c0.8,0,1.6-0.1,2.3-0.2
		c-0.1-0.2-0.2-0.3-0.3-0.3C44.9,23.3,44,23,43.1,23.2z M53.8,128.8c0.1-0.2,0.2-0.6,0.3-0.7c0.2-0.1,0.5-0.1,0.8-0.1
		c0-0.4,0-0.4-0.2-0.7c-0.2,0.2-0.5,0.3-0.7,0.5c-0.1-0.1-0.3-0.2-0.4-0.3c-0.1,0.1-0.1,0.2-0.1,0.2c-0.1-0.1-0.3-0.1-0.5-0.2
		c0.1,0.3,0.1,0.5,0.1,0.7c0,0.2,0.4,0.2,0.4,0.3C53.4,128.8,53.8,128.6,53.8,128.8z M44.9,8.3c0.8,0.1,1.5,0.3,2.4-0.2
		c-0.4-0.2-0.8-0.4-1.2-0.3c-0.2,0-0.4,0-0.5-0.1C45.1,7.5,44.8,7.7,44.9,8.3z M57.3,70C57.3,70,57.3,70,57.3,70c-0.3,0-0.5,0-0.8,0
		c-0.1,0-0.2,0.2-0.3,0.3c0.1,0.1,0.2,0.3,0.3,0.3c0.4,0.1,0.9,0.1,1.3,0.1c0.2,0,0.4,0,0.4-0.3c0-0.3-0.2-0.4-0.4-0.4
		C57.7,70,57.5,70,57.3,70z M35,61.2c0.1-0.4-0.2-0.5-0.4-0.5c-0.6-0.1-1.1-0.1-1.7-0.1c-0.2,0-0.5-0.1-0.5,0.2
		c0,0.3,0.2,0.4,0.5,0.4c0.1,0,0.2,0,0.3,0c0.5-0.1,1.1,0,1.6,0C34.8,61.2,34.9,61.2,35,61.2z M25.1,122.7c-0.7-0.1-1,0.1-1,0.8
		c0,0.6,0.1,0.8,0.8,0.8C25,123.8,25,123.2,25.1,122.7z M52,113.8c0.4-0.1,0.6-0.2,0.9,0c0.2,0.1,0.7-0.1,0.8-0.4
		c0.1-0.3-0.1-0.7-0.4-0.6c-0.4,0.1-0.9,0.2-1.4,0.4C51.9,113.3,51.9,113.5,52,113.8z M17.6,125.3c-0.2,0-0.5-0.1-0.7-0.1
		c-0.3,0-0.4,0.4-0.4,0.6c-0.1,0.6,0,0.7,0.7,1C17.3,126.3,17.4,125.8,17.6,125.3z M59.1,52.8c0.2,0.2,0.4-0.4,0.5,0
		c0,0,0.3-0.1,0.5-0.1c0.2-0.1,0.4-0.1,0.6-0.2c0.2-0.1,0.4-0.2,0.6-0.2c-0.8-0.2-1.5-0.3-2.3-0.1C59,52.4,59,52.6,59.1,52.8z
		 M62.9,120.4c0.6-0.1,1.1-0.2,1.7-0.3c0.2,0,0.3-0.1,0.3-0.4c0-0.2-0.3-0.4-0.5-0.3c-0.5,0.1-1,0.3-1.5,0.4c0,0-0.1,0.1-0.1,0.1
		C62.8,120.1,62.9,120.2,62.9,120.4z M57.6,102.9c0.9,0.3,1.6-0.4,2.4-0.6c-0.1-0.1-0.1-0.2-0.1-0.2c-0.7-0.1-1.3,0-2,0.2
		C57.7,102.4,57.5,102.6,57.6,102.9z M45.3,8.9c0,0.4,0,0.7,0.4,0.8c0.5,0.1,1.1,0,1.6-0.1c0.1-0.3,0-0.4-0.3-0.5
		c-0.4,0-0.7-0.1-1.1-0.2C45.7,9,45.5,9,45.3,8.9z M56.6,121.6c-0.1-0.7-0.3-0.9-0.7-0.8c-0.5,0.1-0.9,0.4-1.3,0.5c0,0,0,0.1,0,0.1
		C55.3,121.5,55.9,121.6,56.6,121.6z M49.2,68.6c0,0.1,0.1,0.3,0.1,0.3c0.3,0,0.6-0.1,0.9,0c0.3,0.1,0.6,0.1,0.9,0.1
		c-0.1-0.9-0.2-1-0.9-0.8c-0.2,0.1-0.4,0.2-0.5,0.2C49.5,68.6,49.4,68.6,49.2,68.6z M46.7,6.9c-0.7-0.6-2-0.6-2.3,0
		C45.2,7.1,45.9,7.2,46.7,6.9z M64.4,113.4c-0.4-0.2-0.7,0-0.9,0.1c-0.3,0.1-0.6,0.2-0.9,0.2c-0.4,0-0.4,0-0.4,0.5
		C62.9,114.3,63.7,114,64.4,113.4z M56,72.5c0.4,0.1,0.7,0.3,1,0.3c0.2,0.1,0.5,0,0.5-0.4c0-0.3-0.1-0.6-0.4-0.6
		C56.7,71.7,56.2,71.9,56,72.5z M66.1,117.1c0-0.1,0-0.1,0-0.2c-0.1,0-0.3,0-0.4,0c-0.3,0.1-0.6,0.1-0.8,0.2
		c-0.1,0.1-0.3,0.2-0.3,0.3c0,0.1,0.1,0.3,0.2,0.4c0.2,0.1,0.4,0.2,0.5,0.1C65.6,117.7,65.8,117.4,66.1,117.1z M56.5,127.2
		c-0.4,0-0.7,0-1,0.1c-0.3,0.1-0.4,0.3-0.3,0.6c0.5-0.1,0.8,0,1,0.6c0.1-0.3,0.1-0.5,0.2-0.8c0.1,0.2,0.2,0.3,0.3,0.5
		C56.7,127.8,56.8,127.4,56.5,127.2z M55.5,72.8c0.1-0.7-0.2-1-0.7-0.9c-0.4,0.1-0.7,0.1-1.1,0.2c-0.1,0-0.2,0.1-0.3,0.2
		C54.1,72.7,54.9,72.4,55.5,72.8z M62.6,77.3c-0.1-0.3-0.3-0.4-0.6-0.4c-0.4,0-0.7,0.1-1.1,0.1c-0.3,0-0.5,0-0.8,0.1
		c0.3,0.5,0.8,0.5,1.2,0.5c0.1,0,0.2-0.2,0.4-0.3C61.9,77.2,62.2,77.6,62.6,77.3z M62.8,78.9c-0.7-0.3-1.8-0.3-2.4,0.1
		C61.2,79.5,61.9,79.1,62.8,78.9z M59,127c-0.3,0-0.6-0.1-0.9,0c-0.3,0.1-0.7-0.1-0.9,0.5c0.3,0.1,0.6,0.1,0.9,0.2
		c0.3,0.1,0.6-0.1,0.7-0.4c0.1,0.3,0.2,0.5,0.3,0.7c0.1-0.2,0.1-0.3,0-0.5C59.1,127.4,59,127.2,59,127z M53.5,68.3
		c-0.3,0.1-0.6,0.1-0.9,0.2c-0.3,0.1-0.5,0.1-0.9,0.2c0.4,0.1,0.7,0.2,1,0.3c0.3,0.2,0.6,0.2,1,0.1C53.7,68.8,53.6,68.6,53.5,68.3z
		 M45.4,10.4c0.2,0.3,0.2,0.5,0.3,0.5c0.6,0,1.3,0.2,2-0.1C47,10.4,46.3,10.6,45.4,10.4z M64.6,93.3c0.4,0.4,0.4,0.4,0.7,0.3
		c0.5-0.2,1-0.3,1.4-0.5c0.1,0,0.2-0.2,0.3-0.3c-0.1-0.1-0.2-0.1-0.3-0.1C66.1,92.8,65.4,93,64.6,93.3z M20.8,60.5
		c0.4,0.4,0.8,0.6,1.3,0.5c0.1,0,0.3-0.2,0.3-0.3c0-0.1-0.1-0.3-0.2-0.4C21.7,60.2,21.3,60.1,20.8,60.5z M60.3,70.5
		c0.3-0.5,0.5-0.4,1.5-0.2c0-0.2-0.1-0.4-0.3-0.4c-0.8,0-1.6,0-2.5,0c0,0-0.1,0.1-0.2,0.1c0.1,0.2,0.3,0.5,0.6,0.3
		C59.8,70,60,70.1,60.3,70.5z M53.9,70.9c0.1-0.5,0-0.8-0.3-0.9c-0.3-0.1-0.6,0-1,0.4C53.1,70.6,53.4,71.1,53.9,70.9z M62.1,53.9
		c-0.5,0-0.9,0.1-1.3,0.1c-0.1,0-0.3,0.2-0.3,0.3c-0.1,0.3,0.2,0.4,0.3,0.3c0.4-0.2,0.8,0.1,1.2-0.1C62.1,54.4,62.1,54.2,62.1,53.9z
		 M46.8,80c-0.1-0.7-0.2-0.8-1.1-0.5c0,0.2,0,0.5,0.1,0.8c0.2,0,0.4,0.1,0.6,0C46.5,80.3,46.6,80.1,46.8,80z M47.8,121.3
		c-0.7,0.5,0,1.1-0.2,1.6c0.2,0,0.3,0,0.5,0C48.1,122.4,48.4,121.9,47.8,121.3z M48.2,57c0.1-0.3,0.1-0.5,0.1-0.5
		c0.5-0.5,1.2,0,1.6-0.6c-0.6,0-1.2,0-1.9,0C48.1,56.2,48.1,56.5,48.2,57z M58.1,72.2c0.5,0.1,0.9,0.2,1.3,0.2
		c0.2,0,0.4,0.1,0.4-0.2c0-0.2,0-0.5-0.3-0.5C59,71.7,58.5,71.7,58.1,72.2z M47.7,54.7c0.3,0,0.7,0.1,0.8-0.3c0-0.1-0.1-0.4-0.2-0.5
		c-0.2-0.2-0.5-0.2-0.7,0C47.4,54.2,47.6,54.4,47.7,54.7z M24.1,61.1c0-0.8-0.5-1-1.4-0.7C23,60.9,23.5,61,24.1,61.1z M55.8,70.8
		c0.1-0.3,0.1-0.7-0.2-0.8c-0.2-0.1-0.5,0-0.7,0.1c-0.2,0.1-0.3,0.3-0.1,0.5C55.1,70.7,55.4,70.7,55.8,70.8z M50.3,107.8
		c0.5,0.1,0.8,0,1.1-0.3c-0.1-0.1-0.1-0.3-0.2-0.4c-0.4,0.1-0.7,0.1-1,0.2C50.2,107.4,50.2,107.6,50.3,107.8z M52,67.1
		c-0.2-0.7-0.3-0.7-0.7-0.7c-0.4,0-0.4,0.1-0.5,0.7C51.2,67.1,51.6,67.1,52,67.1z M31.1,61.2c0-0.5-0.1-0.6-0.4-0.7
		c-0.3,0-0.6,0-1.1,0C30,61.1,30.4,61.3,31.1,61.2z M60,74.1c-0.2-0.6-0.3-0.7-0.8-0.6c-0.2,0-0.4,0.1-0.4,0.3
		c0,0.1,0.2,0.3,0.4,0.3C59.4,74.2,59.7,74.1,60,74.1z M45,22.7c-0.6-0.4-1.3-0.3-2-0.2c0.1,0.1,0.1,0.3,0.1,0.3
		C43.8,22.8,44.4,22.9,45,22.7z M66.8,52.2c-0.8-0.3-1.6-0.3-2.3,0c0.1,0.1,0.2,0.2,0.3,0.2C65.4,52.3,66,52.2,66.8,52.2z
		 M65.1,126.4c0.2-0.3,0.3-0.6,0-0.9c-0.4,0.4-1.1,0.1-1.4,0.7C64.2,126.6,64.7,125.9,65.1,126.4z M63.9,117.8
		c-0.2-0.4-0.5-0.3-0.8-0.2c-0.6,0.1-0.6,0.3-0.2,0.8C63.2,118.2,63.5,118,63.9,117.8z M57.4,102.8c-0.5-0.3-1-0.4-1.1-0.2
		c-0.1,0.2-0.5,0.3-0.2,0.6C56.5,103.2,57,103.3,57.4,102.8z M59.8,54c-0.4,0-0.9-0.3-1.3,0.1c0.3,0.4,0.5,0.5,1.3,0.3
		C59.8,54.4,59.8,54.2,59.8,54z M60.9,80.6C61,81,61,81,61.3,81c0.3-0.1,0.7-0.2,1-0.3c0.1,0,0.2-0.1,0.4-0.2
		C62.1,80.4,61.5,80.5,60.9,80.6z M65.7,91.2c-0.8-0.1-1.1,0-1.6,0.3C64.6,91.9,65.3,91.8,65.7,91.2z M53.1,65.4
		c-0.4-0.6-0.7-0.6-1.5,0.1C52.1,65.7,52.6,65.6,53.1,65.4z M30.3,59.5c-0.5-0.2-1-0.2-1.4,0C29.4,60.1,29.9,60.1,30.3,59.5z
		 M62.8,82.4c0-0.1,0-0.2-0.1-0.2c-0.6,0-1.1,0.2-1.7,0.3c0.1,0.1,0.1,0.2,0.1,0.3c0.1,0,0.2,0.1,0.3,0.1
		C61.9,82.7,62.4,82.6,62.8,82.4z M62.9,88c0.1,0.3,0.2,0.4,0.5,0.3c0.4-0.2,0.9-0.1,1.1-0.7C63.9,87.7,63.4,87.8,62.9,88z
		 M60.6,73.6c0.5,0.2,1.5,0.1,2-0.1c0-0.2-0.2-0.3-0.4-0.3c-0.4,0-0.8,0.1-1.2,0.2C60.9,73.5,60.8,73.6,60.6,73.6z M18.8,53.4
		c-0.4,0.1-0.5,0.3-0.5,0.6c0,0.3,0.1,0.6,0.5,0.7C18.8,54.3,18.8,53.9,18.8,53.4z M55,68.2c-0.3,0.2-0.5,0.4-0.8,0.7
		c0.5,0,1,0.1,1.4-0.1C55.7,68.3,55.3,68.3,55,68.2z M61.6,84.2c0.1,0.4,0.1,0.4,0.2,0.4c0.4,0,0.8,0,1.1-0.5
		C62.5,84.1,62.1,84.2,61.6,84.2z M50.8,42.4c-0.1-0.2-0.2-0.4-0.3-0.6c-0.4,0.3-0.6,0.6-0.4,0.8C50.3,42.9,50.5,42.5,50.8,42.4z
		 M68.4,125c0.4,0,0.6-0.1,0.9-0.1c0.1,0,0.2,0,0.3-0.1c0.1-0.1,0.1-0.2,0.1-0.3c0-0.1-0.1-0.2-0.2-0.2
		C69.4,124.3,68.6,124.7,68.4,125z M26.4,59.6c-0.6-0.3-1.1-0.1-1.6-0.1C25.3,59.8,25.8,60.1,26.4,59.6z M56.5,68.1
		c0.1,0.3,0.1,0.5,0.2,0.7c0.1,0.1,0.3,0.1,0.4,0.1c0.1,0,0.2-0.1,0.2-0.2c0-0.1-0.1-0.3-0.2-0.4C57,68.2,56.8,68.2,56.5,68.1z
		 M68.6,97.9c-0.6,0.2-1,0.3-1.4,0.7C67.6,98.7,68.3,98.4,68.6,97.9z M51,70.7c0.3,0.1,0.6,0.2,0.9,0.2c0.2-0.4,0-0.7-0.3-0.9
		C51.3,70.3,51.2,70.5,51,70.7z M66.9,119.3c-0.4-0.6-0.5-0.6-1.1,0C66.2,119.8,66.5,119.5,66.9,119.3z M58.8,68.7
		c-0.3-0.6-0.6-0.6-1.2-0.1C58,68.7,58.4,68.6,58.8,68.7z M61.6,127.2c0.3-0.2,0.7-0.2,0.6-0.6c-0.1-0.2-0.3-0.3-0.5-0.2
		C61.3,126.6,61.5,126.9,61.6,127.2z M61.3,48.9c-0.7-0.3-0.9-0.2-1.4,0.3C60.4,49.3,60.8,49,61.3,48.9z M65.1,50.5
		c-0.7-0.5-1.1-0.5-1.4,0C64.2,50.5,64.6,50.5,65.1,50.5z M22.7,48.8c0-0.1,0-0.1,0-0.2c-0.5,0-1,0-1.4,0c0,0,0,0.1-0.1,0.2
		C21.8,49,22.2,49,22.7,48.8z M62.4,86.1c0,0.1,0,0.2,0.1,0.2c0.2,0.1,1-0.1,1.4-0.4C63.3,85.9,62.9,85.8,62.4,86.1z M46,13.4
		c0,0.1,0,0.3,0,0.3c0.3,0.1,0.6,0.1,1,0.2c0-0.2-0.1-0.4-0.1-0.5C46.7,13.4,46.4,13.4,46,13.4z M14.7,105.2
		c0.2-0.5,0.7-0.7,0.4-1.2C14.6,104.4,14.5,104.5,14.7,105.2z M23.2,61.6c0.4,0.3,0.7,0.4,1.1,0.2C24,61.4,23.8,61.4,23.2,61.6z
		 M21.9,110.1c0,0,0,0.1,0,0.1c0.9,0.3,1.1,0.3,1.4,0c-0.3,0-0.5,0-0.7-0.1C22.4,110.2,22.1,110.2,21.9,110.1z M24.8,122.2
		c0.1-0.6,0.1-1,0.2-1.6C24.5,121,24.5,121.4,24.8,122.2z M65.6,49c0-0.1,0-0.2,0-0.2c-0.4,0-0.8,0-1.3,0.1c0.1,0.2,0.1,0.4,0.1,0.4
		c0.2-0.1,0.4-0.1,0.6-0.2C65.2,49,65.4,49,65.6,49z M64.2,122.4c0-0.3,0.1-0.5,0-0.6c-0.3-0.3-0.5,0-0.9,0.1
		C63.7,122.1,63.9,122.2,64.2,122.4z M47.2,18.2c0.2-0.1,0.3-0.3,0.1-0.4c-0.3-0.4-0.6,0-0.9,0.1C46.7,17.9,46.9,18,47.2,18.2z
		 M61.8,49.3c0.2-0.1,0.6-0.1,0.5-0.4c0-0.2-0.3-0.3-0.5-0.2C61.5,48.8,61.8,49.1,61.8,49.3z M66.8,88.4c-0.6,0.4-0.6,0.4-0.5,0.8
		c0.2-0.1,0.4-0.2,0.6-0.3C66.9,88.7,66.8,88.5,66.8,88.4z M66.6,53.9c-0.5-0.2-1-0.1-1.5,0C65.6,54.2,66.1,54,66.6,53.9z
		 M61.4,114.3c-0.6-0.3-0.6-0.3-1,0c0.1,0.1,0.1,0.3,0.2,0.4C60.9,114.5,61.1,114.4,61.4,114.3z M24,49.1c0-0.1,0-0.3-0.1-0.3
		c-0.1-0.1-0.3-0.2-0.5-0.2c-0.3,0-0.4,0.1-0.3,0.3C23.5,49,23.7,49,24,49.1z M67.1,125.2c0,0.1,0,0.1,0,0.2
		c0.2,0.1,0.5,0.1,0.7,0.2c0-0.2,0.1-0.4,0.1-0.7C67.6,124.9,67.3,125.1,67.1,125.2z M64.8,89.7c0-0.1,0-0.1,0-0.2
		c-0.4,0.1-0.9,0.2-1.3,0.3C63.9,90.1,64.4,89.8,64.8,89.7z M67.7,91.8c-0.5,0.4-0.5,0.4-0.3,0.7c0.2-0.1,0.4-0.2,0.6-0.3
		C67.9,92.1,67.8,92,67.7,91.8z M23.1,62.4c0.3,0.5,0.3,0.5,0.8,0.3C23.8,62.3,23.5,62.2,23.1,62.4z M50.6,106
		c0.3-0.6,0.3-0.6-0.2-0.8C50.5,105.5,50.5,105.7,50.6,106z M12.8,47.8c0,0,0,0.1,0,0.1c0.6,0,1.2,0.1,1.7,0.1c0-0.1,0-0.1,0-0.2
		C13.9,47.8,13.4,47.8,12.8,47.8z M62.9,52.4c0.2,0,0.4,0,0.6,0c0-0.4-0.3-0.4-0.5-0.4C62.8,52,62.8,52.2,62.9,52.4z M45.4,64.1
		c-0.8-0.2-0.8-0.2-1,0.3C44.8,64,45.2,64.6,45.4,64.1z M26.6,61.9c-0.4-0.4-0.5-0.5-1.1-0.1C25.8,61.9,26.2,61.9,26.6,61.9z
		 M62,118.6c0.3-0.2,0.4-0.4,0.2-0.8c-0.2,0.1-0.3,0.1-0.5,0.2C61.9,118.2,61.9,118.4,62,118.6z M30.1,63.2c0.3,0.2,0.5,0.4,0.7,0.6
		c0-0.1,0.1-0.3,0.1-0.5C30.7,63.3,30.5,63.3,30.1,63.2z M72.6,123.2c-0.3,0.1-0.6,0.2-0.8,0.4c0.3,0.1,0.5,0.1,0.8,0.2
		C72.6,123.5,72.6,123.4,72.6,123.2z M57.1,41.8c0.1,0.6,0.5,0.4,0.8,0.5C57.9,41.7,57.5,42,57.1,41.8z M18.6,59.3
		c-0.1,0.3,0,0.5,0.3,0.5c0.2,0.1,0.3,0,0.4-0.3C19.1,59.5,18.9,59.4,18.6,59.3z M63.4,53.9c0.4,0.4,0.5,0.4,1,0
		C64,53.8,63.7,53.8,63.4,53.9z M23.6,63.5c-0.3-0.3-0.6-0.4-0.9-0.2C22.9,63.6,23.2,63.7,23.6,63.5z M47.2,16.5
		c-0.3-0.3-0.6-0.3-1-0.1C46.6,16.7,46.9,16.5,47.2,16.5z M37.3,22c0,0.1,0,0.1,0,0.2c0.3,0,0.6-0.1,0.9-0.2
		C37.7,21.7,37.7,21.7,37.3,22z M23,86.8c-0.3-0.1-0.6-0.4-1-0.2C22.4,86.8,22.7,87,23,86.8z M43.2,64c-0.6-0.1-0.6-0.1-0.8,0.2
		C42.7,64.2,43,64.4,43.2,64z M31.2,59.8c0.3,0.1,0.5,0.1,0.6,0.2c0.2-0.2,0.2-0.4,0-0.6C31.7,59.5,31.5,59.6,31.2,59.8z M43.3,21.9
		c0.4,0.2,0.6,0.2,0.9-0.1C43.9,21.8,43.6,21.6,43.3,21.9z M46.9,15.2c0-0.1,0-0.1,0-0.2c-0.2,0-0.5-0.1-0.7-0.1
		C46.3,15.4,46.6,15.3,46.9,15.2z M28.2,60c0.1-0.1,0.2-0.2,0.3-0.3c-0.1-0.1-0.2-0.2-0.3-0.3c0,0-0.3,0.1-0.2,0.1
		C28,59.7,28.1,59.8,28.2,60z M62.3,54c0.1,0.3,0.3,0.4,0.5,0.3c0.1,0,0.1-0.2,0.1-0.3C62.7,53.7,62.5,53.9,62.3,54z M47.3,78.3
		c-0.1-0.3-0.1-0.6-0.4-0.7C46.8,77.9,46.8,78.2,47.3,78.3z M65.9,87.3c0.1,0,0.1,0,0.2,0c0.1-0.2,0.2-0.4,0.4-0.6
		c-0.4-0.1-0.5,0.1-0.6,0.3C65.8,87,65.8,87.2,65.9,87.3z M42.6,131.9c0.9,0.3,0.9,0.2,1.3,0C43.5,131.9,43,131.9,42.6,131.9z
		 M54.7,56.7c0.4-0.5,0.4-0.5,0.1-0.9C54.7,56.1,54.7,56.4,54.7,56.7z M52.3,128.2c0.2,0,0.3,0.1,0.5,0.1c0-0.2,0.1-0.5-0.2-0.5
		C52.2,127.8,52.3,128.1,52.3,128.2z M37.4,61.4c0.2-0.1,0.5-0.1,0.4-0.4c0-0.1-0.1-0.1-0.2-0.1C37.3,60.9,37.4,61.1,37.4,61.4z
		 M29.5,64.7c0.3-0.6,0.3-0.6-0.2-0.8C29.3,64.1,29.4,64.3,29.5,64.7z M41.2,60.8c-0.1,0.1-0.2,0.2-0.2,0.3c0,0.1,0.1,0.2,0.2,0.3
		c0.1-0.1,0.2-0.2,0.2-0.3C41.4,61,41.3,60.9,41.2,60.8z M54.3,66.7c0,0.1,0,0.1,0,0.2c0.3,0.3,0.3,0.3,0.6-0.1
		C54.6,66.7,54.5,66.7,54.3,66.7z M19.8,58.6c0,0.1,0,0.1,0,0.2c0.2,0.1,0.4,0.2,0.7,0C20.2,58.7,20,58.6,19.8,58.6z M34.4,60.1
		c-0.3-0.6-0.3-0.6-0.7-0.2C33.9,59.9,34.1,60,34.4,60.1z M61.2,127.2c0,0,0.1,0,0.1,0c0-0.1,0-0.3-0.1-0.4c0-0.1-0.2-0.1-0.2-0.1
		c0,0.1-0.1,0.2-0.1,0.3C61,127,61.1,127.1,61.2,127.2z M47.5,65.6c-0.4-0.4-0.5-0.4-0.8,0C47,65.6,47.2,65.6,47.5,65.6z
		 M10.7,119.8c-0.4,0.3-0.4,0.3-0.3,0.7C10.7,120.2,10.7,120.2,10.7,119.8z M20.7,52.3c0-0.1,0-0.1,0-0.2c-0.3,0-0.5,0-0.8-0.1
		c0,0.1,0,0.1,0,0.2C20.2,52.2,20.4,52.2,20.7,52.3z M37.9,64c0-0.1,0-0.1,0-0.2c-0.2-0.1-0.5-0.1-0.6,0.4
		C37.5,64.2,37.7,64.1,37.9,64z M11.2,120.8c-0.5,0.3-0.5,0.3-0.4,1C10.9,121.4,11.1,121.1,11.2,120.8z M28.5,61.1
		c0.1-0.6,0.1-0.6-0.4-0.5C28.2,60.8,28.4,61,28.5,61.1z M53.9,64.9c0,0.2-0.1,0.3-0.1,0.5c0.2,0,0.4,0,0.7,0
		C54.2,65.2,54.1,65.1,53.9,64.9z M22.8,58.8c0-0.1,0-0.1,0-0.2c-0.2,0-0.5,0-0.8,0.1C22.3,58.8,22.5,58.9,22.8,58.8z M64.9,43.2
		c-0.1-0.3-0.2-0.4-0.5-0.3C64.5,43.2,64.5,43.2,64.9,43.2z M19.3,48C19.3,47.9,19.3,47.9,19.3,48c-0.3-0.1-0.6-0.1-0.8-0.1
		c0,0,0,0.1,0,0.1C18.8,48,19,48,19.3,48z M15.6,102.4c-0.4,0.1-0.4,0.1-0.5,0.5C15.3,102.7,15.5,102.5,15.6,102.4z M24.1,110.4
		c-0.1-0.1-0.2-0.2-0.3-0.1c-0.1,0-0.2,0.1-0.2,0.2c0.1,0.1,0.1,0.2,0.2,0.2C23.9,110.6,24,110.5,24.1,110.4z M44.1,60.1
		c0-0.1-0.1-0.1-0.1-0.2c-0.1,0.1-0.2,0.1-0.3,0.2c0,0,0.1,0.2,0.1,0.1C43.8,60.2,44,60.1,44.1,60.1z M46.6,74.1
		c-0.3,0.1-0.4,0.1-0.7,0.2c0.2,0.1,0.3,0.2,0.5,0.2C46.5,74.5,46.5,74.4,46.6,74.1z M36.4,83.8c-0.6-0.2-0.6-0.2-0.8,0
		C35.8,83.8,36,83.8,36.4,83.8z M50.8,70.8c-0.4-0.3-0.4-0.3-0.8,0C50.2,70.8,50.4,70.8,50.8,70.8z M13.2,50.6c0.2,0,0.3,0,0.4,0
		c0,0,0.1-0.1,0.1-0.2c0,0-0.1-0.1-0.1-0.1C13.4,50.3,13.1,50.2,13.2,50.6z M13.9,52.3C13.8,52,13.6,52,13.4,52
		C13.4,52.5,13.7,52.2,13.9,52.3z M63.2,75.4c0,0,0.1,0,0.1-0.1c0-0.2,0-0.4-0.4-0.5C63.1,75.1,63.1,75.2,63.2,75.4z M56.5,55.9
		c0,0-0.1,0-0.1,0c0,0.2,0,0.4,0,0.6c0.1-0.1,0.1-0.2,0.2-0.4C56.5,56.1,56.5,56,56.5,55.9z M52.8,55.9c-0.3,0.2-0.2,0.4-0.1,0.6
		C52.7,56.3,52.7,56.1,52.8,55.9z M18.4,58.6c0,0.1,0,0.1,0,0.2c0.2,0,0.3,0.1,0.5,0.1c0-0.1,0-0.1,0-0.2
		C18.7,58.7,18.5,58.6,18.4,58.6z M24.4,63.4c-0.1-0.2-0.3-0.2-0.5-0.1C24,63.6,24.2,63.6,24.4,63.4z M34.7,59.5
		c-0.2,0.3-0.2,0.5,0.2,0.7C34.8,59.9,34.8,59.8,34.7,59.5z M65.2,50.2c0.2,0.4,0.2,0.4,0.7,0.1C65.7,50.3,65.5,50.3,65.2,50.2z
		 M23.6,47.8c0,0.1,0,0.1,0,0.2c0.2,0,0.4,0,0.6,0c0,0,0-0.1,0-0.1C24,47.9,23.8,47.8,23.6,47.8z M39.9,61.1
		c0.2,0.1,0.4,0.1,0.6,0.2C40.5,60.8,40.3,60.8,39.9,61.1z M38.8,52.5c0-0.1,0-0.2,0-0.2c-0.1,0-0.2,0-0.4,0c0,0,0,0.2,0,0.2
		C38.5,52.5,38.7,52.5,38.8,52.5z M51.6,56c-0.1-0.1-0.2-0.1-0.3-0.2c0,0-0.1,0.1-0.1,0.1c0.1,0.1,0.1,0.2,0.2,0.2
		C51.4,56.2,51.5,56.1,51.6,56z M58.2,55.9c-0.1,0-0.1,0-0.2,0c0,0.1-0.1,0.2-0.1,0.2c0,0.1,0.1,0.2,0.1,0.2c0,0,0.1,0,0.1,0
		C58.2,56.1,58.2,56,58.2,55.9z M21.3,58.8c0-0.1,0-0.1,0-0.2c-0.2,0-0.3,0-0.5,0c0,0,0,0.1,0,0.1C21,58.8,21.2,58.8,21.3,58.8z
		 M22.4,62.3c0.1,0.2,0.2,0.3,0.4,0.3C22.8,62.3,22.7,62.2,22.4,62.3z M38,49.1c0-0.1,0-0.2,0.1-0.2c-0.1,0-0.2,0-0.4,0
		c0,0,0,0.1,0,0.1C37.7,49,37.8,49.1,38,49.1z M47.9,7.8c-0.2,0.4-0.2,0.5,0.2,0.7C48,8.3,47.9,8.1,47.9,7.8z M69.3,43.1
		c0-0.1,0-0.1,0-0.2c-0.2,0-0.3,0-0.5,0.1c0,0,0,0.1,0,0.1C69,43.1,69.2,43.1,69.3,43.1z M28.6,48c0,0,0-0.1,0-0.1
		c-0.2,0-0.4,0-0.6-0.1c0,0.1,0,0.1,0,0.2C28.2,48,28.4,48,28.6,48z M40.8,52.4c-0.1-0.1-0.2-0.2-0.2-0.2c-0.1,0-0.1,0.1-0.2,0.1
		c0.1,0.1,0.1,0.2,0.2,0.2C40.6,52.6,40.7,52.5,40.8,52.4z M34,48.1c0-0.1,0-0.1,0-0.2c-0.1,0-0.3,0-0.4,0.1c0,0,0,0.1,0,0.1
		C33.8,48.1,33.9,48.1,34,48.1z M36.4,81.8c0.1,0.1,0.2,0.1,0.2,0.1c0.1,0,0.1-0.1,0.2-0.2c-0.1,0-0.1-0.1-0.2-0.1
		C36.5,81.7,36.5,81.7,36.4,81.8z M20.4,60.7c0.1-0.3,0.1-0.4-0.3-0.4C20.2,60.5,20.3,60.6,20.4,60.7z M19.9,59.8
		c0-0.1,0.1-0.1,0.1-0.2c-0.1-0.1-0.2-0.1-0.3-0.2c0,0-0.1,0.1-0.1,0.1C19.7,59.6,19.8,59.7,19.9,59.8z M20.3,47.8
		c-0.2,0-0.3,0-0.5,0C20,48.1,20.1,48.1,20.3,47.8z M69.9,105.3c-0.1,0.1-0.2,0.1-0.2,0.2c0,0.1,0.1,0.1,0.1,0.2
		c0,0,0.1-0.1,0.1-0.1C70,105.5,70,105.4,69.9,105.3z M45.2,61.3c0.1,0,0.1,0,0.2,0c0-0.1,0-0.2,0-0.3c-0.1,0-0.2,0-0.2,0
		C45.2,61.1,45.2,61.2,45.2,61.3z M39.5,52.2c0,0.1-0.1,0.2-0.1,0.3c0,0,0.1,0.1,0.1,0.1c0.1,0,0.2-0.1,0.1-0.2
		C39.7,52.3,39.6,52.3,39.5,52.2z M26.6,63.2c0,0,0,0.1-0.1,0.1c0.1,0.1,0.3,0.1,0.4,0.2c0,0,0-0.1,0.1-0.1
		C26.9,63.3,26.8,63.3,26.6,63.2z M47.2,55.9c0.3,0.3,0.4,0.2,0.5,0C47.6,55.9,47.4,55.9,47.2,55.9z M32,38.2
		c-0.1-0.1-0.2-0.1-0.2-0.1c0,0-0.1,0.1-0.1,0.1c0.1,0,0.1,0.1,0.2,0.1C31.9,38.4,32,38.3,32,38.2z M21.7,47.8c0,0,0,0.1,0,0.1
		c0.1,0,0.2,0,0.3,0c0,0,0-0.1,0-0.1C21.9,47.8,21.8,47.8,21.7,47.8z M25.4,36.4c-0.1,0.1-0.2,0.1-0.1,0.2c0,0.1,0.1,0.1,0.1,0.2
		c0,0,0.1-0.1,0.1-0.1C25.5,36.5,25.5,36.5,25.4,36.4z M62.4,127.2c0,0-0.1,0-0.1,0c0,0.1,0,0.3,0,0.4c0,0,0.1,0,0.1,0
		C62.3,127.4,62.3,127.3,62.4,127.2z M36.4,34.7c0.1-0.1,0.2-0.1,0.2-0.2c0-0.1-0.1-0.1-0.1-0.2c0,0-0.1,0.1-0.1,0.1
		C36.3,34.6,36.3,34.6,36.4,34.7z M60.7,104.3c0.1-0.1,0.2-0.1,0.2-0.2c0-0.1-0.1-0.1-0.1-0.2c0,0-0.1,0.1-0.1,0.1
		C60.6,104.1,60.6,104.2,60.7,104.3z M33.6,33.3c0,0.1-0.1,0.1-0.1,0.2c0,0,0.1,0.1,0.1,0.1c0-0.1,0.1-0.1,0.1-0.2
		C33.7,33.4,33.7,33.4,33.6,33.3z M32.9,33.3c0,0.1-0.1,0.1-0.1,0.2c0,0,0.1,0.1,0.1,0.1c0-0.1,0.1-0.1,0.1-0.2
		C33,33.4,33,33.4,32.9,33.3z M34,97.6c-0.1-0.3-0.1-0.3-0.4-0.2C33.8,97.5,33.9,97.5,34,97.6z M37.2,34.3c-0.1,0.1-0.1,0.2-0.1,0.2
		c0,0.1,0.1,0.1,0.2,0.1c0,0,0.1-0.1,0.1-0.1C37.3,34.4,37.3,34.4,37.2,34.3z M32.7,99.2c-0.1,0-0.1,0-0.2,0c0,0.1,0.1,0.2,0.1,0.3
		c0,0,0.1,0,0.1,0C32.7,99.4,32.7,99.3,32.7,99.2z M47.1,19.3c0-0.1,0-0.1,0-0.2c-0.1,0-0.3,0-0.4,0c0,0,0,0.1,0,0.1
		C46.8,19.2,46.9,19.3,47.1,19.3z M28.8,63.4c-0.1-0.1-0.1-0.1-0.2-0.1c-0.1,0-0.1,0.1-0.2,0.1c0,0,0.1,0.1,0.2,0.1
		C28.7,63.5,28.7,63.4,28.8,63.4z M40,99.9c-0.1-0.1-0.1-0.1-0.2-0.2c0,0-0.1,0.1-0.1,0.1c0.1,0.1,0.1,0.1,0.2,0.2
		C39.9,100,40,99.9,40,99.9z M44.2,81.9c-0.1,0-0.1-0.1-0.2-0.1c0,0-0.1,0.1-0.1,0.1C44,82,44,82,44.1,82
		C44.1,82.1,44.2,82,44.2,81.9z M43.1,81.8C43.1,81.9,43,82,43,82c0,0,0.1,0.1,0.1,0.1c0,0,0.1-0.1,0.1-0.1
		C43.2,82,43.2,81.9,43.1,81.8z M50.8,65.4c0,0,0-0.1,0-0.1c-0.1,0-0.2,0.1-0.4,0.1c0,0,0,0.1,0,0.1C50.6,65.5,50.7,65.5,50.8,65.4z
		 M38.3,34.4c-0.1-0.1-0.1-0.1-0.2-0.1c0,0-0.1,0.1-0.1,0.1c0,0,0.1,0.1,0.1,0.1C38.2,34.5,38.2,34.5,38.3,34.4z M37.3,103.5
		c-0.1-0.1-0.1-0.1-0.1-0.2c0,0-0.1,0-0.1,0c0,0.1,0,0.1,0.1,0.2C37.2,103.5,37.2,103.5,37.3,103.5z M54.3,56.3
		c0.1-0.1,0.1-0.1,0.2-0.1c-0.1,0-0.1-0.1-0.2-0.1c0,0-0.1,0-0.1,0.1C54.2,56.1,54.3,56.2,54.3,56.3z M21.7,61.8c0,0,0-0.1,0.1-0.1
		c-0.1-0.1-0.2-0.1-0.3-0.2c0,0,0,0.1-0.1,0.1C21.5,61.7,21.6,61.7,21.7,61.8z M34.5,33.6c0.1-0.1,0.1-0.1,0.1-0.2
		c0,0-0.1-0.1-0.1-0.1c0,0-0.1,0.1-0.1,0.1C34.3,33.5,34.4,33.6,34.5,33.6z M35.9,26.9c0.1,0,0.1-0.1,0.2-0.1c0,0-0.1-0.1-0.1-0.1
		c0,0-0.1,0-0.2,0.1C35.9,26.8,35.9,26.9,35.9,26.9z M36.3,39.4c-0.1,0.1-0.1,0.1-0.1,0.2c0,0,0.1,0.1,0.1,0.1c0.1,0,0.1,0,0.2-0.1
		C36.4,39.5,36.3,39.5,36.3,39.4z M33.2,39.6c0.1-0.1,0.1-0.1,0.1-0.2c0,0-0.1-0.1-0.1-0.1c0,0-0.1,0.1-0.1,0.1
		C33.1,39.5,33.2,39.6,33.2,39.6z M34.5,97.6c0.1,0.1,0.2,0.1,0.2,0.1c0.1,0,0.1-0.1,0.2-0.1c0,0-0.1-0.1-0.1-0.1
		C34.7,97.5,34.6,97.5,34.5,97.6z M35.6,97.4c-0.1,0.1-0.1,0.2-0.1,0.2c0,0.1,0.1,0.1,0.2,0.1c0,0,0.1-0.1,0.1-0.1
		C35.7,97.6,35.6,97.5,35.6,97.4z M37,78c-0.1-0.1-0.1-0.1-0.2-0.2c0,0-0.1,0.1-0.1,0.1c0,0.1,0.1,0.1,0.1,0.2
		C36.8,78.1,36.9,78.1,37,78z M38,33.2c-0.1-0.1-0.1-0.1-0.2-0.1c0,0-0.1,0.1-0.1,0.1c0,0,0.1,0.1,0.1,0.1
		C37.9,33.4,37.9,33.3,38,33.2z M15.8,47.8C15.8,47.8,15.8,47.9,15.8,47.8c0.2,0.1,0.4,0.1,0.6,0.1c0,0,0,0,0-0.1
		C16.2,47.8,16,47.8,15.8,47.8z M29.8,105.1c-0.1,0.1-0.1,0.2-0.1,0.3c0,0,0.1,0.1,0.1,0.1c0-0.1,0.1-0.1,0.1-0.2
		C29.9,105.2,29.9,105.2,29.8,105.1z M60.3,112.1c-0.1,0-0.1,0-0.2,0c0,0.1,0,0.2,0,0.3c0,0,0.1,0,0.1,0
		C60.3,112.2,60.3,112.2,60.3,112.1z M38.1,51c0-0.1,0.1-0.1,0.1-0.2c0,0-0.1-0.1-0.1-0.1c-0.1,0-0.1,0.1-0.1,0.2
		C37.9,50.9,38,50.9,38.1,51z M16.9,52.4c0-0.1,0.1-0.2,0.1-0.3c0,0-0.1-0.1-0.1-0.1c-0.1,0.1-0.1,0.1-0.1,0.2
		C16.7,52.3,16.8,52.4,16.9,52.4z M26,47.9C26,47.9,26,48,26,47.9c0.2,0.1,0.4,0.1,0.6,0.1c0,0,0-0.1,0-0.1
		C26.4,47.9,26.2,47.9,26,47.9z M70.3,107.2c-0.1,0.1-0.1,0.1-0.1,0.1c0,0.1,0.1,0.1,0.1,0.1c0.1,0,0.1-0.1,0.2-0.1
		C70.4,107.3,70.4,107.2,70.3,107.2z M18.8,101.5c0,0,0.1,0,0.1,0c0-0.1,0.1-0.2,0.1-0.3c0,0-0.1,0-0.1,0
		C18.9,101.2,18.9,101.3,18.8,101.5z M20.7,50.5c0-0.1-0.1-0.2-0.1-0.2c0,0-0.1,0-0.2,0.1c0,0.1,0.1,0.1,0.1,0.2
		C20.5,50.6,20.6,50.6,20.7,50.5z M60.1,54.5c0,0,0.1,0,0.1,0c0-0.2,0-0.3,0-0.5c0,0-0.1,0-0.1,0C60.1,54.2,60.1,54.3,60.1,54.5z
		 M35.4,60.7c-0.1,0.1-0.1,0.2-0.2,0.2c0,0,0.1,0.1,0.1,0.1c0.1,0,0.1-0.1,0.1-0.1C35.5,60.9,35.5,60.8,35.4,60.7z M35.4,87.6
		c0,0-0.1,0-0.1,0c0,0.1,0,0.2,0,0.3c0,0,0.1,0,0.2,0C35.4,87.8,35.4,87.7,35.4,87.6z M57.7,56.3C57.7,56.3,57.7,56.3,57.7,56.3
		c0.1-0.2,0.1-0.3,0-0.4c0,0-0.1,0-0.1,0C57.6,56,57.6,56.2,57.7,56.3z M31.6,122.1c0-0.1,0.1-0.1,0.1-0.2c0,0-0.1-0.1-0.1-0.1
		c-0.1,0-0.1,0.1-0.1,0.1C31.4,122,31.5,122,31.6,122.1z M70.7,102.7c0,0-0.1,0.1-0.1,0.1c0.1,0.1,0.2,0.2,0.3,0.2
		c0,0,0.1-0.1,0.1-0.1C70.9,102.9,70.8,102.8,70.7,102.7z M42.4,82.1c0,0-0.1-0.1-0.1-0.1c0,0-0.1,0.1-0.1,0.1
		C42.2,82.1,42.3,82.1,42.4,82.1C42.3,82.2,42.4,82.1,42.4,82.1z M20.6,48.6c0,0.1-0.1,0.1-0.1,0.2c0,0,0.1,0.1,0.1,0.1
		c0,0,0.1-0.1,0.1-0.1C20.8,48.7,20.7,48.7,20.6,48.6z M47.8,48.3C47.9,48.3,47.9,48.2,47.8,48.3c-0.1-0.1-0.2-0.1-0.4-0.1
		c0,0,0,0,0,0.1C47.6,48.3,47.7,48.3,47.8,48.3z M38.8,48.1C38.8,48.1,38.8,48.1,38.8,48.1c0.1,0.1,0.3,0.1,0.4,0.1c0,0,0-0.1,0-0.1
		C39.1,48.1,39,48.1,38.8,48.1z M19.9,126.6c0,0.1,0,0.1,0.1,0.1c0,0,0.1-0.1,0.1-0.1c0,0,0-0.1,0-0.1C20,126.6,20,126.6,19.9,126.6
		z M20.8,47.9c0.1,0,0.1,0.1,0.2,0.1c0,0,0.1-0.1,0.1-0.1c-0.1,0-0.1,0-0.2,0C20.9,47.8,20.9,47.9,20.8,47.9z M38.8,91.5
		c-0.1,0.1-0.1,0.1-0.2,0.2c0,0,0.1,0.1,0.1,0.1c0,0,0.1-0.1,0.1-0.1C38.9,91.6,38.8,91.6,38.8,91.5z M40.4,91.6c0,0,0,0.1,0,0.1
		c0,0,0.1,0,0.1,0c0,0,0.1-0.1,0.1-0.2C40.6,91.6,40.5,91.6,40.4,91.6z M26.2,36.7c0,0-0.1-0.1-0.1-0.1c0,0-0.1,0.1-0.1,0.1
		c0,0,0.1,0.1,0.1,0.1C26.1,36.8,26.1,36.8,26.2,36.7z M35,34.6c-0.1-0.1-0.1-0.1-0.2-0.1c0,0-0.1,0.1-0.1,0.1c0,0,0.1,0.1,0.1,0.1
		C34.9,34.7,34.9,34.6,35,34.6z M35.6,34.7c0.1-0.1,0.1-0.1,0.1-0.1c0-0.1,0-0.1-0.1-0.2c-0.1,0-0.1,0.1-0.2,0.1
		C35.5,34.5,35.5,34.6,35.6,34.7z M23,33.6c0,0,0,0.1,0,0.1c0,0,0.1,0.1,0.1,0c0,0,0.1-0.1,0.1-0.1C23.2,33.6,23.1,33.6,23,33.6z
		 M31.9,97.5c-0.1-0.1-0.1-0.1-0.2-0.1c0,0-0.1,0-0.1,0.1c0,0.1,0,0.1,0.1,0.1C31.7,97.6,31.8,97.5,31.9,97.5z M48.5,97.9
		C48.5,97.9,48.5,97.9,48.5,97.9c0-0.2-0.1-0.2-0.1-0.3c0,0-0.1,0-0.1,0.1C48.3,97.7,48.4,97.8,48.5,97.9z M39.5,33.2
		c0-0.1,0.1-0.1,0.1-0.2c0,0-0.1-0.1-0.1-0.1c-0.1,0-0.1,0-0.1,0.1C39.4,33.1,39.4,33.2,39.5,33.2z M69.5,99.5
		C69.4,99.4,69.4,99.4,69.5,99.5c-0.1,0-0.2,0-0.3,0.1c0,0,0,0.1,0.1,0.1C69.3,99.6,69.4,99.5,69.5,99.5z M68,100.5
		c-0.1-0.1-0.1-0.1-0.2-0.1c0,0-0.1,0.1-0.1,0.1c0,0,0.1,0.1,0.1,0.1C67.8,100.6,67.9,100.6,68,100.5z M47.6,6.8c0,0,0-0.1,0.1-0.1
		c-0.1,0-0.2-0.1-0.3-0.1c0,0,0,0.1,0,0.1C47.5,6.7,47.5,6.7,47.6,6.8z M30.7,28.9c0,0-0.1-0.1-0.1-0.1c0,0-0.1,0.1-0.1,0.1
		c0,0,0.1,0.1,0.1,0.1C30.6,29,30.6,28.9,30.7,28.9z M42.8,65C42.7,65,42.7,65,42.8,65c-0.1,0.1,0,0.3,0,0.4c0,0,0.1,0,0.1,0
		C42.8,65.3,42.8,65.2,42.8,65z M24.4,64.3c0.1,0,0.1,0,0.1-0.1c0-0.1,0-0.1-0.1-0.2c0,0-0.1,0-0.1,0.1
		C24.4,64.2,24.4,64.2,24.4,64.3z M34.1,109.4c0,0.1-0.1,0.1-0.1,0.2c0,0,0.1,0,0.1,0.1c0,0,0.1-0.1,0.1-0.1
		C34.3,109.5,34.2,109.5,34.1,109.4z M36.3,109.8c0-0.1-0.1-0.1-0.1-0.1c-0.1,0-0.1,0-0.2,0.1c0,0,0,0.1,0,0.1
		C36.2,109.8,36.2,109.8,36.3,109.8z M25.5,63.4c-0.1,0-0.1-0.1-0.1-0.1c0,0-0.1,0.1-0.1,0.1C25.3,63.4,25.4,63.5,25.5,63.4
		C25.4,63.5,25.5,63.4,25.5,63.4z M59.6,56.1c0.1,0,0.1-0.1,0.1-0.1c0-0.1,0-0.1-0.1-0.2c0,0-0.1,0-0.1,0.1
		C59.5,56,59.6,56,59.6,56.1z M55.7,56.2c0,0,0.1,0,0.1,0c0-0.1,0-0.2-0.1-0.3c0,0-0.1,0-0.1,0C55.7,56,55.7,56.1,55.7,56.2z
		 M37,83.8c0-0.1,0.1-0.1,0.1-0.2c0,0-0.1-0.1-0.1-0.1c-0.1,0-0.1,0.1-0.1,0.1C36.9,83.7,36.9,83.7,37,83.8z M41.8,54
		c0,0.1-0.1,0.1-0.1,0.2c0,0,0,0.1,0.1,0.1c0,0,0.1-0.1,0.1-0.1C41.9,54.1,41.8,54.1,41.8,54z M37.9,54.1c0,0-0.1,0-0.1,0
		c0,0.1,0,0.2-0.1,0.3c0,0,0.1,0,0.1,0C37.8,54.3,37.8,54.2,37.9,54.1z M67.3,53.9c-0.1-0.1-0.1-0.1-0.2-0.1c0,0-0.1,0.1-0.1,0.1
		c0,0,0.1,0.1,0.1,0.1C67.1,54,67.2,54,67.3,53.9z M23.1,53.8C23,53.9,23,53.9,23,54c0,0,0.1,0.1,0.1,0.1c0,0,0.1-0.1,0.1-0.1
		C23.2,53.9,23.1,53.9,23.1,53.8z M62.1,52.3c-0.1,0-0.2-0.1-0.2-0.1c0,0-0.1,0.1-0.1,0.1c0,0,0.1,0,0.1,0
		C62,52.4,62,52.3,62.1,52.3z M31.4,113.7c0.1-0.1,0.1-0.1,0.1-0.2c0,0,0-0.1-0.1-0.1c-0.1,0-0.1,0-0.1,0.1
		C31.3,113.6,31.4,113.7,31.4,113.7z M22.5,50.4c-0.1,0-0.1-0.1-0.2-0.1c0,0-0.1,0.1-0.1,0.1c0,0,0,0.1,0.1,0.1
		C22.4,50.5,22.4,50.5,22.5,50.4z M21.8,50.7C21.8,50.7,21.8,50.7,21.8,50.7c0.1-0.1,0.1-0.2,0.1-0.3c0,0-0.1,0-0.1,0
		C21.8,50.5,21.8,50.6,21.8,50.7z M45.4,79.7C45.4,79.7,45.4,79.7,45.4,79.7c-0.1,0.1-0.1,0.3-0.1,0.4c0,0,0,0,0.1,0
		C45.4,80,45.4,79.8,45.4,79.7z M14.4,50.6c0-0.1,0.1-0.1,0.1-0.2c0,0-0.1,0-0.1-0.1c0,0.1-0.1,0.1-0.1,0.2
		C14.3,50.6,14.3,50.6,14.4,50.6z M37.5,81.7c0-0.1-0.1-0.1-0.1-0.2c0,0-0.1,0.1-0.1,0.1c0,0.1,0,0.1,0.1,0.2
		C37.4,81.8,37.4,81.8,37.5,81.7z M52.4,44.4c-0.1,0-0.1-0.1-0.2-0.1c0,0-0.1,0.1-0.1,0.1c0,0.1,0.1,0.1,0.1,0.1
		C52.3,44.5,52.3,44.4,52.4,44.4z M22,88.4c0-0.1-0.1-0.1-0.1-0.1c0,0-0.1,0.1-0.1,0.1c0,0,0,0.1,0.1,0.1C21.9,88.4,22,88.4,22,88.4
		z M58,88.9c0,0-0.1-0.1-0.1-0.1c0,0-0.1,0.1,0,0.1c0,0,0.1,0.1,0.1,0.1C58,89,58,88.9,58,88.9z M34.8,39.3c0,0.1-0.1,0.1-0.1,0.2
		c0,0,0.1,0.1,0.1,0.1c0.1,0,0.1-0.1,0.1-0.1C34.9,39.4,34.8,39.3,34.8,39.3z M33.3,101.7c0,0,0.1,0,0.1,0c0,0,0-0.1-0.1-0.1
		C33.4,101.5,33.3,101.6,33.3,101.7C33.3,101.6,33.3,101.6,33.3,101.7z M32.5,101.6C32.6,101.5,32.6,101.5,32.5,101.6
		c0.1-0.1,0.1-0.1,0-0.1C32.5,101.4,32.5,101.5,32.5,101.6C32.5,101.5,32.5,101.5,32.5,101.6z M32.4,109.2c0,0.1-0.1,0.1-0.1,0.2
		c0,0,0,0.1,0.1,0.1c0,0,0.1-0.1,0.1-0.1C32.5,109.3,32.5,109.2,32.4,109.2z M24.3,62.5c-0.1,0-0.1,0-0.2-0.1c0,0,0,0.1,0,0.1
		c0,0,0.1,0.1,0.1,0.1C24.3,62.6,24.3,62.6,24.3,62.5z M29.7,61.7c0.1,0.1,0.1,0.2,0.1,0.2c0.1,0,0.1,0,0.2-0.1
		C30,61.8,29.9,61.8,29.7,61.7z M25,61.7c-0.1,0-0.1-0.1-0.2-0.1c0,0-0.1,0-0.1,0.1C24.8,61.7,24.9,61.8,25,61.7
		C24.9,61.8,25,61.8,25,61.7z M38.2,105.7C38.2,105.8,38.2,105.8,38.2,105.7c0,0.1,0,0.1,0,0.1c0,0,0-0.1,0.1-0.1
		C38.3,105.8,38.2,105.8,38.2,105.7z M41.5,52.3C41.4,52.3,41.4,52.4,41.5,52.3c0,0.1,0,0.2,0,0.2C41.5,52.4,41.5,52.4,41.5,52.3
		C41.5,52.3,41.5,52.3,41.5,52.3z M40.6,74.6c0-0.1,0-0.1,0-0.1c0,0-0.1,0-0.2,0c0,0,0,0.1,0,0.1C40.5,74.5,40.5,74.5,40.6,74.6z
		 M37.6,52.4C37.6,52.4,37.6,52.3,37.6,52.4c-0.1-0.1-0.1-0.1-0.1-0.1c0,0,0,0.1,0,0.1C37.6,52.4,37.6,52.4,37.6,52.4z M47.9,111.6
		C47.8,111.6,47.8,111.6,47.9,111.6c-0.1,0.1,0,0.2,0,0.2C47.9,111.7,47.9,111.7,47.9,111.6C47.9,111.6,47.9,111.6,47.9,111.6z
		 M31.7,101.4C31.8,101.4,31.8,101.3,31.7,101.4c0-0.1,0-0.2-0.1-0.3c0,0-0.1,0-0.1,0.1C31.6,101.2,31.7,101.3,31.7,101.4z M22,52.2
		C22,52.1,22,52.1,22,52.2c-0.1-0.1-0.1-0.1-0.1,0C21.9,52.2,21.9,52.2,22,52.2C21.9,52.2,22,52.2,22,52.2z M21.4,52.1
		c0,0-0.1-0.1-0.1-0.1c0,0-0.1,0.1-0.1,0.1c0,0,0.1,0.1,0.1,0.1C21.4,52.2,21.4,52.2,21.4,52.1z M19.4,52.2c0,0.1,0,0.1,0.1,0.1
		c0,0,0.1-0.1,0.1-0.1c0,0,0-0.1,0-0.1C19.5,52.2,19.4,52.2,19.4,52.2z M38.3,99.6C38.3,99.6,38.2,99.5,38.3,99.6
		c-0.1-0.1-0.1,0-0.2,0C38.2,99.6,38.2,99.7,38.3,99.6C38.2,99.7,38.3,99.6,38.3,99.6z M14.7,52.1C14.7,52.1,14.7,52,14.7,52.1
		c-0.1-0.1-0.1,0-0.2,0c0,0,0.1,0,0.1,0.1C14.7,52.2,14.7,52.1,14.7,52.1z M39.1,50.8c0-0.1,0-0.1-0.1-0.1c0,0-0.1,0-0.1,0
		c0,0,0,0.1,0,0.1C39,50.8,39,50.8,39.1,50.8z M36.5,105.6C36.5,105.5,36.5,105.5,36.5,105.6c-0.1-0.1-0.1-0.1-0.1-0.1
		c0,0,0,0.1,0,0.1C36.5,105.6,36.5,105.6,36.5,105.6z M35.9,99.6C35.9,99.6,35.9,99.5,35.9,99.6c-0.1-0.1-0.1-0.1-0.1-0.1
		c0,0,0,0.1,0,0.1C35.8,99.7,35.8,99.6,35.9,99.6z M16.5,50.3c0.1,0.1,0.1,0.2,0.1,0.2c0.1,0,0.1,0,0.2,0
		C16.7,50.5,16.7,50.4,16.5,50.3z M36.4,33.2c0,0.1,0,0.1-0.1,0.2c0,0,0.1,0.1,0.1,0c0,0,0.1-0.1,0.1-0.1
		C36.5,33.3,36.4,33.3,36.4,33.2z M32.4,33.5c-0.1-0.1-0.1-0.1-0.1-0.2c0,0-0.1,0.1-0.1,0.1c0,0,0,0.1,0.1,0.1
		C32.3,33.6,32.3,33.5,32.4,33.5z M66.6,50.3c0,0-0.1,0.1-0.1,0.1c0,0,0.1,0.1,0.1,0.1c0,0,0.1-0.1,0.1-0.1
		C66.7,50.4,66.7,50.3,66.6,50.3z M22.2,96C22.2,96,22.1,96,22.2,96c-0.1,0.1-0.1,0.2,0,0.2c0,0,0.1-0.1,0.1-0.1
		C22.3,96.1,22.2,96,22.2,96z M29.9,26.9c0-0.1,0-0.1-0.1-0.1c0,0-0.1,0.1-0.1,0.1c0,0,0,0.1,0,0.1C29.8,26.9,29.8,26.9,29.9,26.9z
		 M19.6,95.5c0-0.1,0-0.1-0.1-0.1c0,0-0.1,0.1-0.1,0.1c0,0,0,0.1,0,0.1C19.5,95.6,19.6,95.6,19.6,95.5z M37,49
		C36.9,49,36.9,48.9,37,49c-0.1-0.1-0.1,0-0.2,0C36.8,49,36.9,49.1,37,49C36.9,49.1,36.9,49,37,49z M41.4,48.8
		c0,0.1-0.1,0.1-0.1,0.2c0,0,0.1,0.1,0.1,0.1c0,0,0.1-0.1,0.1-0.1C41.5,48.8,41.5,48.8,41.4,48.8z M35.7,81.7
		c0.2,0.1,0.2,0.1,0.2,0.2c0,0,0.1-0.1,0.1-0.1c0-0.1-0.1-0.1-0.1-0.1C35.8,81.6,35.8,81.7,35.7,81.7z M39.1,34.4
		C39.1,34.3,39.1,34.3,39.1,34.4c-0.1-0.1-0.1,0-0.2,0C39,34.4,39,34.4,39.1,34.4C39.1,34.4,39.1,34.4,39.1,34.4z M47.2,93.6
		C47.1,93.5,47.1,93.5,47.2,93.6c-0.1-0.1-0.2,0-0.2,0C47,93.6,47.1,93.6,47.2,93.6C47.1,93.6,47.1,93.6,47.2,93.6z M36.8,26.8
		C36.8,26.8,36.8,26.7,36.8,26.8c-0.1-0.1-0.1,0-0.2,0C36.7,26.8,36.7,26.9,36.8,26.8C36.8,26.9,36.8,26.8,36.8,26.8z M33.5,93.5
		c0,0-0.1-0.1-0.1-0.1c0,0-0.1,0.1-0.1,0.1c0,0,0.1,0.1,0.1,0.1C33.4,93.6,33.5,93.5,33.5,93.5z M24.4,36.7c0,0-0.1-0.1-0.1-0.1
		c0,0-0.1,0-0.1,0.1c0,0,0.1,0.1,0.1,0.1C24.3,36.7,24.4,36.7,24.4,36.7z M37.8,27.7C37.8,27.8,37.8,27.8,37.8,27.7
		c0.1,0.1,0.2,0.1,0.3,0.1c0,0,0-0.1,0-0.1C38,27.7,37.9,27.7,37.8,27.7z M27.5,119.5C27.5,119.5,27.4,119.4,27.5,119.5
		c-0.1-0.1-0.1,0-0.2,0C27.3,119.5,27.4,119.5,27.5,119.5C27.4,119.5,27.5,119.5,27.5,119.5z M24.6,48.7
		C24.5,48.7,24.5,48.8,24.6,48.7c-0.1,0.1,0,0.2,0,0.2C24.6,48.9,24.6,48.8,24.6,48.7C24.6,48.8,24.6,48.7,24.6,48.7z M41.6,64.1
		C41.6,64.1,41.6,64.1,41.6,64.1c0-0.1,0-0.1-0.1-0.2C41.5,64,41.5,64.1,41.6,64.1C41.5,64.1,41.5,64.1,41.6,64.1z M52.2,48.4
		C52.2,48.4,52.2,48.4,52.2,48.4c-0.1-0.1-0.2-0.1-0.3,0c0,0,0,0,0,0C52.1,48.4,52.1,48.4,52.2,48.4z M56,56.3c0,0,0.1,0,0.1,0
		c0-0.1,0-0.2,0-0.3c0,0-0.1,0-0.1,0C56,56.1,56,56.2,56,56.3z M55.4,56c0,0,0-0.1-0.1-0.1c0,0-0.1,0.1-0.1,0.1
		C55.3,56,55.4,56.1,55.4,56C55.4,56.1,55.4,56,55.4,56z M37.6,48.1C37.6,48.1,37.6,48.1,37.6,48.1c0.1,0,0.2,0,0.3,0c0,0,0,0,0,0
		C37.8,48.1,37.7,48.1,37.6,48.1z M23.2,108.4C23.2,108.4,23.2,108.4,23.2,108.4c-0.1-0.1-0.2,0-0.2,0
		C23.1,108.5,23.1,108.5,23.2,108.4C23.2,108.5,23.2,108.5,23.2,108.4z M36.2,48.1C36.2,48.1,36.2,48.1,36.2,48.1
		c0.1,0.1,0.2,0.1,0.3,0.1c0,0,0-0.1,0-0.1C36.4,48.1,36.3,48.1,36.2,48.1z M24.9,36.6C24.9,36.6,24.9,36.6,24.9,36.6
		c-0.1-0.1-0.1,0-0.2,0C24.8,36.7,24.8,36.7,24.9,36.6C24.9,36.7,24.9,36.7,24.9,36.6z M23.1,92.5c0,0,0.1,0.1,0.1,0.1
		c0,0,0.1,0,0.1-0.1c0,0,0-0.1,0-0.1C23.2,92.5,23.2,92.5,23.1,92.5z M31.5,48C31.5,48,31.5,48,31.5,48c0.1,0.1,0.2,0.1,0.4,0.1
		c0,0,0,0,0-0.1C31.7,48,31.6,48,31.5,48z M30.8,48C30.8,48,30.8,48,30.8,48c-0.1-0.1-0.3-0.1-0.4-0.1c0,0,0,0,0,0.1
		C30.5,48,30.6,48,30.8,48z M36,37C36.1,37,36.1,37,36,37c0.1-0.1,0-0.1,0-0.1C36,36.9,36,36.9,36,37C36,36.9,36,37,36,37z
		 M24.9,47.9C24.9,47.9,24.9,48,24.9,47.9C25,48,25.1,48,25.2,48c0,0,0,0,0-0.1C25.1,47.9,25,47.9,24.9,47.9z M27.4,47.9
		C27.4,47.9,27.4,47.9,27.4,47.9c-0.1-0.1-0.2-0.1-0.2,0C27.3,47.9,27.3,48,27.4,47.9C27.4,48,27.4,48,27.4,47.9z M38,91.6
		c-0.1,0-0.1,0-0.2-0.1c0,0,0,0.1,0,0.1c0,0,0.1,0.1,0.2,0.1C38,91.7,38,91.7,38,91.6z M39.4,101.8c0-0.1,0.1-0.1,0.1-0.2
		c0,0-0.1-0.1-0.1-0.1c0,0-0.1,0.1-0.1,0.1C39.3,101.7,39.3,101.7,39.4,101.8z M45.8,38.9C45.8,38.9,45.8,39,45.8,38.9
		c-0.1,0.1,0,0.1,0,0.1C45.8,39,45.8,39,45.8,38.9C45.8,39,45.8,38.9,45.8,38.9z M30.1,131.5C30.1,131.5,30.1,131.4,30.1,131.5
		c-0.1-0.1-0.2-0.1-0.3-0.1c0,0,0,0.1,0,0.1C29.9,131.5,30,131.5,30.1,131.5z M41.6,131.8c-0.1,0-0.1-0.1-0.1-0.1c0,0-0.1,0-0.1,0.1
		c0,0,0.1,0.1,0.1,0.1C41.5,131.8,41.5,131.8,41.6,131.8z M70.8,124C70.8,124,70.8,124,70.8,124c0.1,0.1,0.2,0.1,0.2,0.1
		c0-0.1,0-0.1,0-0.2C70.9,123.9,70.9,123.9,70.8,124z"/>
	<path class="st0" d="M30.8,53.5c0.2-0.1,0.4-0.1,0.6-0.1c0.8,0,1.6-0.1,2.4-0.1c0,0.1,0,0.2,0.1,0.4c-0.8,0.2-1.6,0.2-2.4,0.1
		c-0.1,0-0.1-0.1-0.2-0.1c-0.6,0.3-1.2,0.1-1.8,0c-1-0.1-2.1,0.2-3.1-0.2c-0.2-0.1-0.5,0-0.7,0c-0.6,0-0.6-0.1-0.6-0.6
		c0-0.1,0-0.2,0-0.3c0.5,0,1.1,0,1.6,0.2c0.3,0.1,0.2-0.2,0.4-0.2c0.1,0.2,0.2,0.4,0.3,0.6c0.1,0.1,0.3,0.2,0.4,0.3
		c0.1,0,0.2-0.2,0.2-0.3c0-0.1,0-0.2,0.1-0.3c0.5,0,1.1-0.3,1.6,0.2c0,0,0.1,0,0.1,0C30.4,52.6,30.6,53,30.8,53.5z"/>
	<path class="st0" d="M31.1,55.4c-0.1,0.1-0.3,0.3-0.4,0.3c-0.6-0.1-1.2-0.1-1.8-0.2c-0.6-0.1-1.2-0.1-1.8-0.1
		c-0.6,0-1.3-0.1-1.9-0.2c0.3-0.2,0.6-0.1,0.9-0.2c0.4-0.1,0.8-0.1,1.2-0.2c0.5-0.1,1-0.2,1.4,0.3c0.3-0.5,0.7-0.3,1.1-0.4
		C30.5,54.4,30.8,54.8,31.1,55.4C31.1,55.3,31.1,55.3,31.1,55.4C31.1,55.4,31.1,55.4,31.1,55.4z"/>
	<path class="st0" d="M31.1,68c-0.5,0.3-1,0.6-1.6,0.2c-0.3-0.2-1,0.1-1.2,0.3c-0.2,0.2-0.2,0.5,0.1,0.7c0.1,0.1,0.2,0.2,0.4,0.3
		c0,0,0.1,0.1,0.1,0.2c-0.4,0.1-0.8,0.2-1.3,0.3c-0.2-0.2-0.4-0.5-0.6-0.8c0.4-0.2,1.1,0,1-0.8c-0.2-0.1-0.4-0.1-0.8-0.2
		c0.5-0.3,0.8-0.5,1.1-0.7c0.5,0.1,0.9,0.2,1.3,0.1C30.2,67.5,30.6,67.9,31.1,68z"/>
	<path class="st0" d="M32.6,75.3c-0.6,0.1-1.2,0.4-1.9,0.1c-0.6-0.2-1.2-0.1-1.8,0.4c-0.1-0.3-0.2-0.5-0.3-0.7
		c0.5-0.4,1-0.3,1.5-0.1c0.2,0.1,0.4,0.2,0.7,0c0-0.1,0.2-0.1,0.2-0.1c0.5,0.1,1.1,0.2,1.6,0.3C32.6,75.2,32.6,75.2,32.6,75.3z"/>
	<path class="st0" d="M30,49.1c0,0.3,0,0.5,0,0.8c-0.9,0.1-1.6,0.2-2.4-0.2c0.3-0.5,0.8-0.7,1.4-0.6C29.3,49.2,29.6,49.1,30,49.1z"
		/>
	<path class="st0" d="M31,51.4c-0.6,0.6-2.1,0.7-3.2,0.2c-0.2-0.5,0.3-0.5,0.5-0.5c0.3,0,0.7,0,1,0.1c0.3,0.2,0.6,0.2,1,0.1
		C30.5,51.4,30.7,51.4,31,51.4z"/>
	<path class="st0" d="M26.8,69.6c-0.9,0.4-1.6,0.1-2.3-0.1c-0.2-0.1-0.3-0.2-0.3-0.5c0.3-0.3,0.5,0.2,0.8,0.2
		c0.3-0.1,0.3-0.6,0.7-0.4c0.2,0.1,0.4,0.3,0.7,0.4C26.4,69.4,26.6,69.4,26.8,69.6z"/>
	<path class="st0" d="M32.6,49.9c-0.5,0-1,0.1-1.5,0.1c-0.2,0-0.4-0.2-0.4-0.4c0-0.1,0.2-0.3,0.3-0.4c0.1-0.1,0.3,0,0.4,0
		c0.3,0,0.6-0.1,1-0.1C32.5,49.4,32.5,49.7,32.6,49.9C32.6,49.9,32.6,49.9,32.6,49.9z"/>
	<path class="st0" d="M33.9,50.8c0.1,0.2-0.1,0.5,0.2,0.6c0,0,0,0.4-0.1,0.4c-0.2,0.2-1.1,0.1-1.2-0.2c0-0.1,0-0.2,0-0.3
		C33.3,51.4,33.7,51.3,33.9,50.8z"/>
	<path class="st0" d="M25.5,68.2c0.1-0.3,0.3-0.5,0.4-0.8c0.5,0.1,0.9,0.3,1.5,0.5C26.8,68.1,26.2,68.3,25.5,68.2z"/>
	<path class="st0" d="M28.4,75c-0.5,0.1-0.9,0.3-1.4,0.4c-0.3-0.4-0.3-0.5,0.1-0.7C27.5,74.5,27.8,74.6,28.4,75z"/>
	<path class="st0" d="M24.8,64.9c0,0.6,0,0.6,0.5,0.9c0.2,0.1,0.3,0.2,0.6,0.3c-0.2,0.3-0.4,0.3-0.7,0.2c-0.3-0.1-0.5-0.3-0.7-0.4
		c0,0,0-0.2,0-0.3C24.6,65.4,24.7,65.2,24.8,64.9C24.8,64.9,24.8,64.9,24.8,64.9z"/>
	<path class="st0" d="M25,71.7c-0.3-0.5-0.5-0.9-0.2-1.4c0,0.8,0.7,0.7,1.2,1C25.7,71.7,25.3,71.4,25,71.7z"/>
	<path class="st0" d="M28,76.7C27.5,77,27,77,26.4,77c0.1-0.2,0.1-0.5,0.2-0.6c0.1-0.1,0.3,0,0.5,0C27.4,76.5,27.7,76.6,28,76.7
		C28,76.7,28,76.7,28,76.7z"/>
	<path class="st0" d="M24.5,68.3c0.1-0.5,0.1-0.8,0.2-1.1c0.3,0,0.6,0.1,0.7,0.5C25.1,67.9,24.8,68.1,24.5,68.3z"/>
	<path class="st0" d="M26.9,71.6c0.1-0.2,0.2-0.4,0.4-0.7c0.2,0.2,0.5,0.4,0.7,0.5c0,0,0,0.1,0,0.1C27.6,71.6,27.2,71.6,26.9,71.6z"
		/>
	<path class="st0" d="M19.2,85.1c0.1-0.4,0.3-0.8,0.4-1.2c0.1,0.3,0.3,0.6,0.4,1C19.8,85,19.5,85,19.2,85.1
		C19.2,85.1,19.2,85.1,19.2,85.1z"/>
	<path class="st0" d="M11.6,114.5c0.1-0.8,0.9-0.7,1.1-1.2C12.5,113.8,12.4,114,11.6,114.5z"/>
	<path class="st0" d="M38.2,21c-0.4,0.4-0.7,0.2-1.1,0.2C37.5,20.8,37.5,20.8,38.2,21z"/>
	<path class="st0" d="M37.2,18.9c-0.2,0.4-0.3,0.8-0.5,1.2C36.5,19.6,36.7,19.2,37.2,18.9C37.2,19,37.2,18.9,37.2,18.9z"/>
	<path class="st0" d="M12.1,112.6c-0.1-0.6,0.5-0.3,0.6-0.6c0,0.2-0.1,0.4-0.1,0.6C12.5,112.6,12.3,112.6,12.1,112.6z"/>
	<path class="st0" d="M23.5,69.1c-0.5,0.1-0.6-0.1-0.4-0.6C23.3,68.8,23.4,69,23.5,69.1z"/>
	<path class="st0" d="M12.1,54.6c-0.5,0.1-0.5-0.2-0.5-0.5C12,54.1,12,54.3,12.1,54.6z"/>
	<path class="st0" d="M20.1,81.5c0.1-0.2,0.1-0.4,0.2-0.7c0.1,0.1,0.2,0.2,0.4,0.3c-0.2,0.2-0.4,0.3-0.5,0.4
		C20.2,81.6,20.1,81.5,20.1,81.5z"/>
	<path class="st0" d="M28.4,71.6c0.3-0.2,0.6-0.2,1,0.1C29,71.8,28.7,71.8,28.4,71.6z"/>
	<path class="st0" d="M13.9,54.7C13.9,54.7,13.9,54.7,13.9,54.7c-0.4,0.1-0.6,0-0.7-0.6C13.5,54.4,13.7,54.5,13.9,54.7z"/>
	<path class="st0" d="M11.8,51.3c-0.3,0-0.6,0.1-0.8-0.4c0.2,0.1,0.4,0.2,0.5,0.2c0.1,0,0.2,0.1,0.4,0.1
		C11.9,51.2,11.9,51.2,11.8,51.3z"/>
	<path class="st0" d="M20.5,83c-0.2,0.1-0.4,0.2-0.6,0.3c0.1-0.3,0.2-0.5,0.3-0.7C20.2,82.8,20.3,82.9,20.5,83z"/>
	<path class="st0" d="M12.9,52.8c-0.1,0.1-0.2,0.2-0.2,0.2c-0.1,0-0.2-0.1-0.2-0.1c0-0.1,0.1-0.2,0.1-0.2
		C12.7,52.6,12.8,52.7,12.9,52.8z"/>
	<path class="st0" d="M23.4,65.9c-0.1-0.1-0.2-0.3-0.3-0.5C23.4,65.5,23.4,65.7,23.4,65.9z"/>
	<path class="st0" d="M34,67.1c0,0.1,0,0.3,0,0.4c0,0-0.1,0-0.1,0c0-0.1-0.1-0.2-0.1-0.4C33.8,67.1,33.9,67.1,34,67.1z"/>
	<path class="st0" d="M23.4,67.6c0.1,0,0.2-0.1,0.4-0.1c0,0,0.1,0.1,0.1,0.1c-0.1,0.1-0.2,0.1-0.3,0.2
		C23.5,67.7,23.5,67.7,23.4,67.6z"/>
	<path class="st0" d="M50.7,22.4c-0.1-0.1-0.2-0.2-0.3-0.3c0,0,0.1-0.1,0.1-0.1c0.1,0.1,0.2,0.2,0.3,0.3
		C50.8,22.3,50.7,22.3,50.7,22.4z"/>
	<path class="st0" d="M26.2,49.6c0.2,0,0.3,0,0.5,0c0,0.1,0,0.2,0,0.2C26.4,49.8,26.4,49.8,26.2,49.6z"/>
	<path class="st0" d="M35.9,21c0.1-0.1,0.2-0.3,0.3-0.4C36.3,20.9,36,20.9,35.9,21C35.9,21,35.9,21,35.9,21z"/>
	<path class="st0" d="M10.9,54.2c0.1,0.1,0.2,0.2,0.3,0.3c0,0,0,0,0,0.1c-0.1,0-0.1,0-0.2-0.1C11,54.4,10.9,54.4,10.9,54.2
		C10.9,54.3,10.9,54.2,10.9,54.2z"/>
	<path class="st0" d="M25.5,49.8c0,0-0.1-0.1-0.1-0.1c0,0,0.1-0.1,0.1-0.1c0,0,0.1,0,0.1,0C25.6,49.7,25.5,49.8,25.5,49.8z"/>
	<path class="st0" d="M73.2,45.8c0.1,0.1,0.2,0.1,0.2,0.2c0,0,0,0-0.1,0.1C73.3,46,73.3,45.9,73.2,45.8
		C73.2,45.8,73.2,45.8,73.2,45.8z"/>
	<path class="st0" d="M60.7,42.6c0.2,0.1,0.3,0.1,0.5,0.2C60.7,43,60.7,43,60.7,42.6C60.7,42.6,60.7,42.6,60.7,42.6z"/>
	<path class="st0" d="M52.9,32.2c-0.6,0.6-1.3,0.3-2,0.3c0.3-0.5,0.6-0.3,0.9-0.3c0.3,0,0.7-0.1,1-0.1C52.8,32,52.9,32.1,52.9,32.2z
		"/>
	<path class="st0" d="M53.7,33.2c-0.1,0.6-0.5,0.4-0.9,0.5c-0.5,0.2-0.7-0.3-1.1-0.5C52.4,33.2,53.1,33.2,53.7,33.2z"/>
	<path class="st0" d="M49.1,26.9c0,0.1,0,0.2,0,0.4c-0.7-0.1-1.4-0.2-2.1-0.3c0.1-0.4,0.4-0.2,0.6-0.2c0.3,0,0.5,0,0.8,0
		C48.6,26.9,48.9,26.9,49.1,26.9C49.1,26.9,49.1,26.9,49.1,26.9z"/>
	<path class="st0" d="M52.6,34.2c0.5,0,0.9,0.1,1.4,0.1c-0.2,0.2-0.3,0.3-0.4,0.5C52.7,34.6,52.7,34.6,52.6,34.2z"/>
	<path class="st0" d="M56.6,37.4c0.5,0.1,0.9,0.1,1.3,0.1c-0.4,0.3-0.8,0.4-1.2,0.3C56.5,37.9,56.4,37.7,56.6,37.4z"/>
	<path class="st0" d="M57.9,40.3c-0.3,0-0.7-0.1-1-0.1C57.4,39.8,57.7,39.8,57.9,40.3C57.9,40.3,57.9,40.3,57.9,40.3z"/>
	<path class="st0" d="M44,26.9c0.3-0.4,0.7-0.1,1.1-0.1C44.7,27.1,44.3,27.1,44,26.9z"/>
	<path class="st0" d="M56.4,35.5c-0.3,0-0.6,0-0.8,0c0-0.1,0-0.1,0-0.2c0.3-0.1,0.6-0.2,0.9,0C56.4,35.4,56.4,35.5,56.4,35.5z"/>
	<path class="st0" d="M54.8,37.2c-0.4-0.1-0.6-0.2-0.9-0.3C54.7,36.7,54.7,36.7,54.8,37.2z"/>
	<path class="st0" d="M43.4,29.1c-0.2,0.2-0.4,0.3-0.7,0.1c0.2-0.1,0.4-0.2,0.6-0.4C43.4,28.9,43.4,29,43.4,29.1
		C43.4,29.1,43.4,29.1,43.4,29.1z"/>
	<path class="st0" d="M50.1,29c0.1,0,0.3-0.1,0.4-0.1c0.1,0,0.1,0,0.2,0.1c0,0,0,0.1,0,0.1c-0.2,0-0.4,0-0.6,0.1
		C50.1,29.1,50.1,29.1,50.1,29z"/>
	<path class="st0" d="M54.7,37.7c0.3,0,0.5,0.1,0.7,0.1C55.1,38,55.1,38,54.7,37.7z"/>
	<path class="st0" d="M54.9,35.4c0.2-0.2,0.3-0.2,0.4-0.1c0,0,0,0.1,0,0.2C55.1,35.7,55,35.6,54.9,35.4z"/>
	<path class="st0" d="M42.4,33.6c0.2,0,0.4-0.1,0.6-0.1c-0.1,0.4-0.3,0.3-0.6,0.3C42.4,33.7,42.4,33.7,42.4,33.6z"/>
	<path class="st0" d="M57,35.5c-0.1,0-0.3,0-0.4,0c0,0,0-0.1,0-0.1c0.1,0,0.2-0.1,0.4-0.1C57,35.3,57,35.4,57,35.5z"/>
	<path class="st0" d="M38.3,38.6c0.1,0,0.3,0,0.4,0c0,0,0,0.1,0,0.1c-0.2,0-0.3,0-0.5,0C38.3,38.7,38.3,38.6,38.3,38.6z"/>
	<path class="st0" d="M59.2,43.4c0.1,0,0.3,0,0.4,0c0,0.1,0,0.2,0,0.2c-0.1,0-0.3,0-0.4,0C59.2,43.6,59.2,43.5,59.2,43.4z"/>
	<path class="st0" d="M43,38.6c-0.2,0-0.3,0-0.5,0c0,0,0-0.1,0-0.1c0.2,0,0.3,0,0.5-0.1C43,38.5,43,38.5,43,38.6z"/>
	<path class="st0" d="M55.8,36.6c0.2,0,0.4,0,0.5,0C56.1,36.7,56.1,36.7,55.8,36.6z"/>
	<path class="st0" d="M57,37c-0.1-0.1-0.2-0.3-0.3-0.4c0,0,0.1,0,0.1-0.1c0.1,0.1,0.2,0.3,0.3,0.4C57.1,36.9,57,37,57,37z"/>
	<path class="st0" d="M36.3,41.3c0.1,0,0.3,0,0.4,0c0,0,0,0.1,0,0.1c-0.1,0-0.3,0-0.4,0.1C36.3,41.4,36.3,41.3,36.3,41.3z"/>
	<path class="st0" d="M41.9,32.6c-0.1,0-0.3,0-0.4-0.1c0,0,0-0.1,0-0.1c0.1,0,0.2,0,0.2,0c0.1,0,0.1,0,0.2,0.1
		C41.9,32.6,41.9,32.6,41.9,32.6z"/>
	<path class="st0" d="M43.9,32.3c0.1,0.1,0.1,0.1,0.1,0.2c0,0-0.1,0.1-0.1,0.1c0,0-0.1-0.1-0.1-0.1C43.8,32.4,43.8,32.4,43.9,32.3z"
		/>
	<path class="st0" d="M49.7,28c0,0.1-0.1,0.1-0.1,0.1c-0.1,0-0.1,0-0.2-0.1c0,0,0-0.1,0.1-0.1C49.5,27.9,49.6,28,49.7,28z"/>
	<path class="st0" d="M43.6,36c0.1,0,0.2-0.1,0.2-0.1c0,0,0,0.1,0.1,0.1c-0.1,0-0.2,0.1-0.3,0.1C43.6,36.1,43.6,36,43.6,36z"/>
	<path class="st0" d="M50.1,29.7c0.1,0.1,0.1,0.1,0.1,0.2c0,0.1-0.1,0.1-0.1,0.2c0-0.1-0.1-0.1-0.1-0.2C50,29.9,50.1,29.8,50.1,29.7
		z"/>
	<path class="st0" d="M38,43.3c-0.1,0-0.1,0.1-0.2,0.1c0,0-0.1,0-0.1,0c0,0,0.1-0.1,0.1-0.1C37.8,43.2,37.9,43.3,38,43.3z"/>
	<path class="st0" d="M49.9,32.2C49.9,32.3,49.9,32.3,49.9,32.2c0,0.1,0,0.1-0.1,0.2C49.8,32.4,49.8,32.3,49.9,32.2
		C49.8,32.3,49.9,32.2,49.9,32.2z"/>
	<path class="st0" d="M46.3,25.2c-0.1-0.1-0.3-0.2-0.1-0.5C46.2,24.9,46.3,25.1,46.3,25.2C46.3,25.2,46.3,25.2,46.3,25.2z"/>
	<path class="st0" d="M46,25.8c-0.1,0-0.1,0-0.1,0c0,0,0-0.1-0.1-0.2c0,0,0.1,0,0.1,0C45.9,25.7,45.9,25.8,46,25.8z"/>
	<path class="st0" d="M54.6,35.4c0,0,0,0.1,0,0.1c0,0-0.1-0.1-0.1-0.1C54.5,35.4,54.5,35.3,54.6,35.4C54.5,35.3,54.6,35.4,54.6,35.4
		z"/>
	<path class="st0" d="M41.9,29.1C41.9,29.1,41.9,29.2,41.9,29.1c-0.1,0.1-0.2,0-0.2,0c0,0,0.1-0.1,0.1-0.1
		C41.8,29,41.9,29,41.9,29.1z"/>
	<path class="st0" d="M16.5,105.4c0.2,0,0.3-0.1,0.5-0.1c0.1,0.2,0.3,0.3,0.4,0.5c-0.2,0.2-0.4,0.3-0.6,0
		C16.8,105.7,16.6,105.6,16.5,105.4C16.5,105.4,16.5,105.4,16.5,105.4z"/>
	<path class="st0" d="M15.7,120.7c0.4-0.5,0.4-0.5,1-0.2C16.3,120.5,16,120.6,15.7,120.7z"/>
	<path class="st0" d="M17.6,102c0.1-0.1,0.3-0.2,0.4-0.3c0,0.1,0,0.2,0,0.3c-0.1,0.1-0.2,0.1-0.4,0.2
		C17.6,102.1,17.6,102.1,17.6,102z"/>
	<path class="st0" d="M16.3,113.8c-0.2,0-0.3,0-0.6,0.1C16,113.5,16.2,113.6,16.3,113.8z"/>
	<path class="st0" d="M16.7,111.8c-0.3,0.1-0.4,0-0.4-0.3c0.1,0,0.2,0,0.2,0.1C16.7,111.7,16.7,111.8,16.7,111.8z"/>
	<path class="st0" d="M18.3,98.2c-0.1-0.1-0.2-0.1-0.3-0.2c0,0,0-0.1,0.1-0.1C18.2,98,18.3,98.1,18.3,98.2
		C18.3,98.2,18.3,98.2,18.3,98.2z"/>
	<path class="st0" d="M15.2,119.8c0.1,0.1,0.3,0.1,0.5,0.2C15.3,120.1,15.2,119.9,15.2,119.8C15.2,119.7,15.2,119.8,15.2,119.8z"/>
	<path class="st0" d="M17.3,116.4C17.3,116.4,17.2,116.5,17.3,116.4c-0.1,0.1-0.2,0-0.2,0c0,0,0.1-0.1,0.1-0.1
		C17.2,116.3,17.2,116.3,17.3,116.4z"/>
	<path class="st0" d="M28.8,97.8c0.3,0.6,0.8,0.3,1.4,0.5c-0.2,0.1-0.3,0.2-0.4,0.2c-0.4,0-0.8,0.1-1.1,0.1c-0.3,0-0.7,0.2-0.9-0.2
		c0-0.1-0.3,0-0.4,0c-0.2,0-0.4,0-0.5-0.1c-0.3-0.1-0.4-0.4-0.2-0.7c0.2-0.3,0.4-0.2,0.6,0c0.2,0.2,0.4,0.3,0.7,0.5
		C28.2,98.1,28.4,98.1,28.8,97.8z"/>
	<path class="st0" d="M26,97.8c0.1,0,0.2,0.1,0.3,0.1c0,0,0,0.1,0,0.1c-0.1,0-0.2,0-0.3-0.1C26,97.9,26,97.8,26,97.8z"/>
	<path class="st0" d="M26.5,100c-0.1,0-0.3,0-0.4,0.1c0-0.1,0-0.1,0-0.2C26.2,99.9,26.4,100,26.5,100C26.5,100,26.5,100,26.5,100z"
		/>
	<path class="st0" d="M28.3,40c0.1,0.1,0.1,0.1,0.1,0.2c-0.1,0-0.1,0.1-0.2,0.1c0,0-0.1-0.1-0.1-0.1C28.2,40.1,28.2,40.1,28.3,40z"
		/>
	<path class="st0" d="M33.7,26.3c-0.1-0.1-0.1-0.1-0.1-0.2c0,0,0.1,0,0.1,0c0,0,0.1,0,0.1,0C33.8,26.2,33.8,26.2,33.7,26.3z"/>
	<path class="st0" d="M28.3,106.1c-0.6,0.3-1.1,0.2-1.7,0c-0.3-0.1-0.6-0.1-0.9-0.1c-0.1,0-0.2-0.1-0.4-0.2c0.3-0.2,0.6-0.2,1-0.1
		C26.9,105.8,27.6,106,28.3,106.1z"/>
	<path class="st0" d="M50.1,44c0.1-0.1,0.1-0.2,0.2-0.2C50.3,44,50.3,44,50.1,44C50.1,44,50.1,44,50.1,44z"/>
	<path class="st0" d="M61.4,41.8c-0.1,0-0.3,0-0.4,0c0,0,0-0.1,0-0.1c0.1,0,0.3,0,0.4,0C61.4,41.7,61.4,41.7,61.4,41.8z"/>
</g>
</svg>
