<?xml version="1.0" encoding="utf-8"?>
<!-- Generator: Adobe Illustrator 27.1.1, SVG Export Plug-In . SVG Version: 6.00 Build 0)  -->
<svg version="1.1" id="Layer_1" xmlns="http://www.w3.org/2000/svg" xmlns:xlink="http://www.w3.org/1999/xlink" x="0px" y="0px"
	 viewBox="0 0 133 133" style="enable-background:new 0 0 133 133;" xml:space="preserve">
<g>
	<g>
		<g>
			<g>
				<path d="M43.7,96.9c31-11,39.1-23,39.3-29.1C83.4,55.2,56.8,44,31.3,33C22.2,29.2,13.5,25.4,6,21.7c-0.3,10.2,3.3,19.7,10.4,27
					c8.8,9.1,22.7,14.5,36.2,13l-4.4,5.2c-8.2,1.4-26-3.6-36.1-14C2.7,43.2-1.4,30.3,0.5,16.6l0.6-4.2l3.8,2
					c8.2,4.4,18.2,8.6,28.8,13.2C63.6,40.4,89.5,51.3,89,68c-0.4,11.9-14.6,24.1-47.1,35.6L43.7,96.9z"/>
			</g>
			<g>
				<path d="M44.9,23.5C39,19.6,33,15.4,24.4,10c-0.3,4.4-0.1,8.1,0.6,10.8l-6.4-3c-0.3-3.7,0-9.3,0.6-13.5L20,0l3.8,2.4
					C34.6,9.2,41.6,14,48.3,18.6C53.5,22.2,59.8,26.3,67,31l-1.9,6C57.9,32.3,50.2,27.2,44.9,23.5z"/>
			</g>
			<g>
				<path d="M99.7,35.3c0.1,4.5-7.1,4.5-7,0C92.6,30.7,99.8,30.7,99.7,35.3z"/>
			</g>
			<path d="M31,124.2v1.9l15.4,7h0.7c1.1,0,2.1-0.5,2.8-1.4c0.7-0.9,0.9-2,0.6-3.1c-0.3-1.3-0.7-3.1-1.1-5.3
				c-0.6-2.8-1.3-6.2-2.3-10.5l-5.8,1.4c1,4.1,1.7,7.6,2.2,10.3c0.1,0.3,0.2,0.6,0.2,0.8l-6.6-3c0-3.1,0-5.4,0.1-12.5
				c0-1.5,0.5-5.6,1.7-9.7c2.5-8.9,7.7-17.7,16.6-27.9C69.6,55.8,73.5,42.7,76,34c1.6-5.5,2.7-9.2,5.3-11c7.2-4.7,15.5-2.2,20.6,2.4
				c4.7,4.2,8.2,11.6,4.1,19.6l27,21.7l-20.5-21.6c3.1-8.4,0.7-17.6-6.5-24.1c-6.8-6.1-18-9.4-27.9-3H78c-4.4,3-5.9,7.9-7.7,14.2
				c-2.5,8.7-6,20.6-19.3,35.9C41.6,79,35.9,88.6,33.2,98.3c-1.2,4.5-1.9,9.1-1.9,11.3C31.2,118,31.2,119.7,31,124.2z"/>
		</g>
	</g>
</g>
</svg>
