<?xml version="1.0" encoding="utf-8"?>
<!-- Generator: Adobe Illustrator 27.1.1, SVG Export Plug-In . SVG Version: 6.00 Build 0)  -->
<svg version="1.1" id="Layer_1" xmlns="http://www.w3.org/2000/svg" xmlns:xlink="http://www.w3.org/1999/xlink" x="0px" y="0px"
	 viewBox="0 0 87 140" style="enable-background:new 0 0 87 140;" xml:space="preserve">
<style type="text/css">
	.st0{fill:#9B009E;}
</style>
<g>
	<path class="st0" d="M29.3,76.9c0.6-0.9,1.2-1.9,1.9-2.8c0.3-0.4,0.7-0.8,1-1.2c0.5-0.6,1-1.1,1.5-1.7c0.3-0.3,0.5-0.7,0.8-1.1
		c0.1-0.2,0.3-0.5,0.1-0.7c0,0,0-0.1,0-0.2c0.1-0.6,0.3-1.2,0.4-1.8c0-0.1,0.1-0.2,0.1-0.4c0-1.2-0.1-2.4,0-3.5c0-0.6,0-1.2-0.1-1.8
		c-0.1-0.8-0.1-1.5-0.3-2.3c-0.1-0.8-0.3-1.6-0.5-2.5c-0.1-0.5-0.4-0.9-0.3-1.4c0-0.1,0-0.1-0.1-0.2c-0.4-0.4-0.4-0.9-0.6-1.4
		c-1.5-4.3-3.2-8.5-5.1-12.6c-1-2.1-2-4.3-3.2-6.3c-1-1.7-2.1-3.3-3.1-5c-0.4-0.6-0.8-1.3-1.1-2c-0.7-1.3-1.7-2.2-2.8-3.1
		c-1-0.8-1.8-1.8-2.6-2.8c-0.3-0.4-0.3-0.6,0.1-0.9c0.3-0.3,0.7-0.6,1.1-0.8c1.6-0.9,3.3-1.7,5-2.5c2.3-1.1,4.6-1.9,7-2.6
		c1.3-0.4,2.6-0.7,4-1.1c0.5-0.1,0.9-0.2,1.4-0.2c0.6,0,0.9,0.2,0.9,0.9c0,0.8,0,1.6-0.1,2.4c0,0.4-0.1,0.9-0.2,1.3
		c-0.3,1.3-0.1,2.5,0.1,3.8c0.3,1.5,0.5,3.1,0.7,4.6c0.1,0.5,0.2,1,0.2,1.5c0.1,0.6,0.5,1,1.1,1.2c0.7,0.2,1.4,0.2,2.1-0.1
		c2.3-0.7,4.5-1.4,6.8-2.2c2.4-0.8,4.8-1.4,7.3-1.3c2.9,0,5.8,0.4,8.5,1.4c1.4,0.5,2.7,1.2,3.9,2.1c1.2,0.8,2.3,1.7,3.5,2.6
		c1.1,0.8,1.9,1.9,2.6,3c1.9,2.9,3.4,5.9,4.1,9.3c0.6,2.9,1.3,5.9,1.4,8.9c0,1,0.1,2,0.2,2.9c0,0.2,0,0.3,0,0.5
		c-0.3,1.4,0,2.8,0.1,4.2c0.1,1.7,0.3,3.4,0.7,5c0.3,1.1,0.5,2.2,0.9,3.3c0.7,1.9,1.6,3.7,2.3,5.5c1,2.5,1.9,5.1,2.5,7.8
		c0.2,0.7,0.2,1.3,0.3,2c0.1,1.9,0.3,3.7,0.4,5.6c0.1,2.4-0.2,4.7-0.8,7c-0.2,0.8-0.3,1.6-0.5,2.4c-0.3,1.2-0.6,2.3-1,3.5
		c-0.1,0.2-0.2,0.5-0.4,0.6c-0.5,0.5-1.1,1-1.6,1.6c-0.6,0.6-1.2,1.3-1.8,1.9c0.2,0.4,0.5,0.4,0.8,0.4c1.1,0,1.9,0.4,2.7,1.2
		c0.2,0.2,0.6,0.4,0.8,0.7c0.2,0.3,0.5,0.6,0.6,0.9c0.5,1.5,0.7,3,0.8,4.6c0,1.1-0.1,2.2-0.3,3.2c-0.1,0.4,0,0.8-0.1,1.2
		c-0.3,1-0.7,1.8-1.4,2.6c-0.3,0.3-0.7,0.6-1.1,0.9c0.1,0.2,0.1,0.4,0.2,0.6c-0.3,0.1-0.5,0.1-0.7,0.2c-0.6,0.2-1.2,0.4-1.8,0.6
		c0,0-0.1,0-0.1,0c-0.6-0.1-1.1,0.3-1.7,0.4c-1.2,0.1-2.5,0.3-3.7,0.4c-1.1,0.1-2.3,0.1-3.4,0.2c-0.8,0.1-1.5,0.1-2.3,0.2
		c-1,0.1-1.9,0.1-2.9,0.1c-1.4,0-2.7,0.1-4.1,0.1c-1.8,0-3.6,0-5.5,0c-1,0-2,0-2.9,0c-1.1,0-2.1-0.2-3.2-0.2c-1-0.1-2-0.2-2.9-0.2
		c-1.7,0-3.5-0.3-5.2-0.5c-1.5-0.2-2.9-0.3-4.4-0.4c-0.1,0-0.3-0.1-0.4-0.1c-0.2-0.1-0.3-0.2-0.5-0.1c-0.5,0.1-0.8-0.2-1.2-0.4
		c-0.3-0.1-0.6-0.3-1.1-0.5c0.3,0,0.6,0,1.1,0.1c-0.3-0.4-0.6-0.8-0.9-1.1c-0.6-0.7-0.8-1.6-1-2.5c-0.1-0.7-0.1-1.4,0-2.1
		c0.2-1.2,0.3-2.4,0.4-3.6c-0.1-0.2-0.4-0.2-0.3-0.5c0.2-0.7,0.2-1.5,0.6-2.2c0.1-0.2,0.3-0.3,0.5-0.5c0.1-0.1,0.2-0.2,0.3-0.3
		c0.6-0.6,1.4-0.8,2.1-1c0.2-0.1,0.5-0.2,0.8-0.3c-0.5-0.9-1-1.7-1.6-2.5c-0.7-0.9-1.3-1.9-2-2.8c-0.6-0.8-1.2-1.6-1.7-2.5
		c-0.6-0.9-1-1.8-1.5-2.7c-0.4-0.8-0.8-1.5-1.2-2.3c-0.7-1.3-1.1-2.8-1.6-4.2c0-0.1,0-0.2-0.1-0.3c-0.1,0.3-0.1,0.5-0.2,0.8
		c-0.4-0.7-0.8-1.3-1.2-1.9c-1-1.6-2.1-3-3.4-4.3c-0.8-0.9-1.5-1.9-2.4-2.7c-1.9-2-3.7-4-5.6-5.9c-1.2-1.2-2.4-2.4-3.7-3.5
		c-0.6-0.6-1.3-1.1-2-1.6c-0.8-0.6-1.6-1.2-2.4-1.8c-1-0.7-2-1.5-3-2.2c-0.1-0.1-0.2-0.1-0.3-0.2c-0.7-0.6-0.6-1.2,0.3-1.4
		C4,67,4.9,66.8,5.9,66.7c1.3-0.2,2.6-0.3,4-0.1c0.4,0.1,0.8,0.2,1.2,0.4c0.5,0.4,0.9,0.7,1.4,1.1c1.7,1.5,3.5,2.9,5.5,4
		c1.8,1,3.5,2,5.4,3c0.8,0.4,1.8,0.7,2.7,1.1c0.3,0.1,0.6,0.2,0.9,0.4c0.5,0.3,1.1,0.3,1.7,0.3C28.7,76.9,29,76.9,29.3,76.9z
		 M58.6,67.1C58.6,67.1,58.5,67.1,58.6,67.1c-0.5,0-0.8,0-1.2,0c-0.6,0.1-1.2,0.2-1.8,0.3c-0.1,0-0.2-0.1-0.3-0.1
		c-0.1,0.4-0.4,0.7-0.4,1.1c0.4,0.3,0.8,0.5,1.2,0.8c0.6-0.4,1.4-0.1,2-0.6c0.1,0.1,0.2,0.2,0.2,0.3c0.3-0.2,0.6-0.5,0.9-0.7
		c-0.2-0.3-0.4-0.5-0.6-0.7c0.1,0,0.2-0.1,0.2-0.1c0.1-0.1,0.1-0.2,0.2-0.3C58.8,67.2,58.7,67.2,58.6,67.1z M70.8,122.3
		c0.2-0.3,0.3-0.6,0.1-1c0.1,0.1,0.2,0.1,0.5,0.2c0-0.3,0.1-0.6,0-0.8c0-0.4-0.2-0.8,0.1-1.2c0-0.1,0-0.2,0-0.3
		c-0.1-0.6-0.2-1.2-0.3-1.8c-0.1-0.8-0.2-1.7-0.3-2.5c-0.1-0.7-0.2-1.4-0.2-2.1c0-0.5-0.3-0.8-0.7-1c-0.4-0.3-0.7-0.2-1,0.1
		c-0.1,0.2-0.2,0.4-0.4,0.7c0.2,0.7,0.4,1.5,0.6,2.4c-0.1,0-0.1,0-0.2,0c0,0.2,0.1,0.5,0.1,0.7c0,0,0.1,0,0.1,0c0,0,0.1-0.1,0.1-0.1
		c0.2,0.7,0.3,1.4,0.3,2.1c0,0.9-0.4,1.7-0.1,2.6c0,0.1,0,0.2,0,0.4c-0.1,0.3,0.1,0.6,0.4,0.7c0.1,0.5-0.2,1-0.1,1.6
		c0.4-0.1,0.5-0.2,0.5-0.5c0-0.3,0.1-0.5,0.1-0.8c0,0.2,0,0.3,0,0.5c0,0,0.1,0,0.1,0c0-0.2,0-0.3,0-0.5c0.3-1.1,0.5-2.2,0.5-3.4
		c0,0.5,0,1,0,1.5c0,0.6,0,1.2-0.1,1.8C70.6,121.6,70.7,121.9,70.8,122.3c-0.1,0.1-0.1,0.3-0.2,0.4c0,0,0.1,0,0.1,0
		C70.7,122.5,70.7,122.4,70.8,122.3z M35.2,115.9c-0.3,0.6-0.4,0.7-0.2,1.1C35.1,116.6,35.1,116.2,35.2,115.9
		c0.1-0.3,0.1-0.5,0.2-0.7c0,0-0.1,0-0.1,0C35.2,115.4,35.2,115.6,35.2,115.9z M54.5,67.9c0.2-0.2,0.1-0.4,0.1-0.7
		c-0.3,0.2-0.4,0.4-0.5,0.5C54.2,67.8,54.3,67.8,54.5,67.9c-0.1,0-0.2,0.1-0.1,0.3C54.4,68.1,54.4,68,54.5,67.9z M48.2,114.3
		c0.2-0.2,0.3-0.5,0.3-0.9c-0.2,0.1-0.4,0.2-0.5,0.2c-0.2-0.1-0.3-0.1-0.5-0.2c-0.2,0.1-0.4,0.3-0.6,0.4c0,0-0.1,0.1-0.1,0.2
		c-0.1,0.6-0.3,1.3-0.4,1.9c-0.1,0.5,0,1,0,1.4c0,0-0.1-0.1-0.2-0.3c-0.1,0.5-0.1,0.8-0.2,1.2c0,0.2,0,0.4,0,0.5
		c-0.3,0.7-0.2,1.4,0.1,2c0.2,0.5,0.1,1,0.1,1.5c0-0.1-0.1-0.2-0.1-0.3c0,0-0.1,0-0.1,0c0.1,0.3,0.2,0.6,0.3,0.9
		c0.6-0.4,0.5-1,0.3-1.5c-0.1-0.4-0.1-0.6,0.1-1c0,0.2,0.1,0.3,0.1,0.4c0.1-0.5,0.2-1,0.3-1.5c0.1-0.3,0.1-0.7,0.2-1
		c0-0.2,0-0.5-0.1-0.8c0-0.1,0.1-0.3,0.2-0.5c0.2-0.2,0.2-0.5,0.6-0.5c-0.1,0.3-0.2,0.6-0.3,0.8c0.5,0,1-0.1,1.5-0.1
		c0.3-0.5,0.3-1.1,0.2-1.7c0.2-0.1,0.2-0.3,0.2-0.6c-0.1,0.1-0.2,0.2-0.3,0.3c0.1-0.3,0.2-0.6,0.3-1c0,0.1,0,0.2,0.1,0.4
		c0.4-0.5,0.6-1,0.7-1.6c-0.5,0-0.7,0.3-0.8,0.7c0,0.2,0,0.4,0,0.5c-0.2-0.1-0.3-0.3-0.5-0.4c0-0.1,0-0.2,0-0.3c0,0-0.1,0-0.1,0
		c0,0.1,0,0.3,0,0.4c-0.4,0.5-0.6,1-0.7,1.6c0,0.2,0,0.4-0.3,0.5c-0.1-0.3,0-0.6,0.1-0.8c0.1-0.2,0.2-0.3,0-0.5
		C48.2,114.7,48.3,114.5,48.2,114.3z M62.1,119.9c-0.1,0.1-0.2,0.1-0.2,0.2c-0.1,0.4-0.1,0.8-0.2,1.2c0,0,0.1,0,0.1,0
		C61.9,120.9,62,120.4,62.1,119.9c0-0.2,0.1-0.4,0.1-0.6c0,0-0.1,0-0.1,0C62.1,119.6,62.1,119.7,62.1,119.9z M68.6,119
		c0.2,0.1,0.3,0.2,0.5,0.3c0.1-1.1,0.1-2.2,0.2-3.3c-0.5,0.2-0.7,0.5-0.7,1c0,0.6,0,1.3,0,1.9C68.6,118.9,68.6,118.9,68.6,119
		c-0.2,0.1-0.2,0.2,0,0.5C68.6,119.2,68.6,119.1,68.6,119z M39.8,113.4c-0.1,0-0.2,0-0.3,0c0.2-0.3,0.3-0.5,0.4-0.6
		c-0.6,0-0.9,0.5-1.2,0.9c-0.2,0.2-0.4,0.7-0.3,1.2c0.2-0.2,0.3-0.3,0.4-0.5c-0.1,0.3-0.2,0.6-0.3,1c-0.1,0.3-0.2,0.7-0.1,1
		c0,0.3-0.4,0.6,0.1,0.9c0.1-0.3,0.1-0.5,0.2-0.8C38.8,115.5,39.2,114.5,39.8,113.4L39.8,113.4c0,0.3,0,0.6-0.1,0.9
		c-0.4,1.1-0.9,2.3-1.3,3.4c-0.1,0-0.1-0.1-0.2-0.2c-0.3,0.8-0.4,1.7-0.1,2.1c0.1-0.4,0.1-0.8,0.2-1.2c0,0,0.1,0,0.1,0
		c0,0.3,0,0.5,0.1,0.7c0.2,0,0.3,0,0.3,0c0.1,0.3,0,0.6,0.3,0.8c0.2-0.5,0.2-1,0.3-1.5c0-0.4,0.2-0.8,0.3-1.2c0,0.1,0.1,0.3,0.1,0.4
		c0,0,0,0,0.1,0c0-0.2,0-0.4,0-0.7c-0.1,0.2-0.2,0.2-0.3,0.3c-0.1-0.7,0.1-1.4,0.4-2.1c0.4-0.8,0.8-1.6,1.1-2.6
		c-0.4,0-0.6,0.3-0.8,0.5C40.1,113.3,40,113.4,39.8,113.4z M48.4,120.7c-0.2-0.5,0-1.9,0.2-2.4c0,0,0,0,0,0c0,0.1,0,0.2,0,0.4
		c0.2-0.3,0.4-0.6,0.2-0.9c-0.4,0-0.7-0.1-1.1-0.1c-0.3,0.3-0.5,0.7-0.5,1.1c0,0.6,0.1,1.1,0.1,1.7c-0.1,0-0.3,0-0.4,0
		c0,0.2,0,0.3,0,0.4c0.1,0,0.2,0,0.3-0.1c0,0.3,0,0.5,0,0.8c0,0.5,0.1,0.9-0.1,1.4c-0.1,0.2,0.1,0.3,0.3,0.2
		c0.1-0.7,0.3-1.4,0.2-2.2c0,0.1-0.1,0.2-0.1,0.4c0,0-0.1,0-0.1,0c0-0.3-0.1-0.6-0.1-0.9c0.2-0.4,0.5-0.8,0.3-1.3c0.1,0,0.1,0,0.2,0
		c0,1.1,0,2.1,0,3.3c0.6-0.2,0.1-0.6,0.3-0.8c0.1,0,0.3,0,0.5,0C48.7,121.2,48.3,121,48.4,120.7c0.2,0,0.3-0.1,0.3-0.3
		c0-0.3,0-0.5-0.1-0.8c0,0,0,0-0.1,0C48.6,119.9,48.5,120.3,48.4,120.7z M53.7,120.9L53.7,120.9c0,0.2,0.1,0.4,0.1,0.6
		c0.1-0.4,0.2-0.7,0.2-1.1c0-0.1,0-0.3,0.1-0.3c0.3-0.2,0.3-0.5,0.3-0.8c0-0.1,0.1-0.1,0.1-0.2c0.4,0.4-0.2,0.8,0.1,1.2
		c0.1-0.2,0.2-0.4,0.2-0.5c0.1-1.2,0.2-2.4,0.3-3.6c0-0.5-0.1-0.8-0.5-1.1c-0.1,0.3-0.2,0.6-0.3,0.9c-0.1-0.2-0.2-0.3-0.3-0.6
		c-0.1,0.4-0.1,0.6-0.2,0.9c-0.2,1.2-0.3,2.5-0.5,3.7C53.5,120.3,53.4,120.7,53.7,120.9z M63.5,113.5L63.5,113.5c-0.1,0-0.3,0-0.4,0
		c-0.2,0.7,0,1.4,0.2,2.1c0,0.2,0.1,0.2,0.2,0.1l0,0c0,0.2-0.1,0.5-0.1,0.7c0.1,0.7-0.1,1.4-0.1,2.1c0,0.4-0.1,0.8,0.3,1.1
		c0.4-0.4,0.2-0.8,0.3-1.2c0,0,0.1,0,0.1,0c-0.1,0.9-0.2,1.7-0.2,2.6c0.4-0.5,0.5-1,0.5-1.6c0-0.1,0.1-0.2,0.1-0.3
		c0.1-0.1,0.2,0,0.4-0.1c-0.2-0.6-0.3-1.1-0.5-1.6c-0.1-0.2-0.1-0.3-0.1-0.5c0-1.2,0-2.3,0-3.5c0.1,0,0.2-0.1,0.3-0.2
		c-0.2-0.2-0.4-0.3-0.5-0.4c-0.3,0.1-0.5,0.1-0.8,0.2C63.4,113.2,63.4,113.3,63.5,113.5z M80.9,120.4L80.9,120.4
		c0,0.3,0.3,0.5,0,0.8c0,0,0,0.2,0,0.3c0.6-0.8,1.2-1.6,1.4-2.6c0.1-0.6,0.2-1.2,0.3-1.8c0.3-1.9,0.6-3.7-0.2-5.5
		c-0.2-0.5-0.2-1.1-0.7-1.5c-0.4-0.3-0.7-0.8-1.4-0.7c-0.1,0-0.2-0.1-0.3-0.2c-0.1,0-0.2,0-0.3-0.1c0,0,0,0.1,0,0.1
		c0.2,0.2,0.4,0.3,0.6,0.5c0,0.2,0,0.4,0.1,0.5c0.1,0.3,0.3,0.5,0.5,0.8c0.1,0.3,0.3,0.6,0.3,0.8c0.1,0.3,0.2,0.6,0.2,1
		c0,0.3,0.4,0.3,0.3,0.7c-0.1,0.5,0,1.1,0,1.7c0,0.1-0.1,0.3-0.1,0.4c0,0-0.1,0-0.1,0c0-0.1,0-0.3-0.1-0.4c-0.1,0.2-0.1,0.4-0.2,0.6
		c-0.1,0.8-0.3,1.5-0.4,2.3c-0.1,0.6-0.1,1.3-0.3,1.9C80.6,120.2,80.7,120.3,80.9,120.4z M71.1,54.7C71,54,70.9,53,70.8,52
		c-0.3-2.1-0.6-4.2-1.5-6.2c-0.7-1.6-1.5-3.1-2.3-4.7c-0.4-0.8-0.9-1.5-1.5-2.2c-0.7-0.9-1.5-1.7-2.3-2.4c-1.5-1.5-3.2-2.7-5.3-3.3
		c-2.5-0.7-5.1-1.1-7.7-0.7c-0.5,0.1-1,0.1-1.5,0.2c-2.3,0.3-4.4,0.9-6.3,2.3c-0.4,0.3-0.7,0.5-1.1,0.8c-0.9,0.6-1.7,1.4-2.2,2.4
		c-0.5,1.1-0.7,2.2-0.1,3.3c0.8,1.6,1.7,3.2,2.6,4.7c1.4,2.2,3,4.1,4.8,5.9c1.4,1.4,2.9,2.8,4.3,4.2c1.1,1.1,2.5,1.8,3.9,2.4
		c0.4,0.2,0.9,0.3,1.1,0.6c0.3,0.4,0.7,0.4,1.1,0.5c0.5,0,1,0,1.5,0.1c0.7,0.1,1.5,0.1,2.2,0.2c0.4,0,0.9,0.1,1.3,0.2
		c1.1,0,2.1,0.2,3.1,0.5c0.7,0.3,1.4,0.4,2.1,0.5c1,0.1,1.9-0.2,2.5-1c0.2-0.2,0.3-0.5,0.5-0.7C70.7,58.1,71,56.5,71.1,54.7z
		 M46.3,114.2c-0.9,0.7-1,1.6-1.3,2.5c-0.3-0.5,0.2-0.9,0-1.4c-0.1,0.2-0.2,0.4-0.2,0.5c-0.1,0.5-0.3,1-0.4,1.5
		c-0.1,0.2-0.1,0.5-0.1,0.8c0,1,0,2-0.1,3c0,0.5-0.2,1-0.1,1.4c0,0.2,0.1,0.4,0.2,0.6c0,0.1,0.2,0.1,0.3,0.1c0.1,0,0.1-0.2,0.1-0.2
		c0-0.2-0.1-0.4-0.1-0.6c0.4-0.2,0.5,0.3,0.8,0.4c0,0.2,0,0.3-0.1,0.6c0.2,0,0.3-0.1,0.4-0.1c0-0.1,0-0.3,0-0.5
		c0.1,0.3,0.2,0.6,0.3,0.8c0-0.3,0-0.7-0.1-1c-0.2-0.3-0.2-0.5-0.2-0.8c0-0.2,0-0.4,0-0.5c0-1.1,0-2.2,0.1-3.4c0-0.2,0-0.3-0.1-0.5
		c0-0.2-0.1-0.5,0-0.7C45.9,115.9,46.1,115.1,46.3,114.2z M77,116.1c0,0.1-0.1,0.4,0.2,0.4c0,0,0.1,0.2,0.1,0.2
		c0,0.3,0.1,0.6,0.1,0.9c0,1-0.2,2.1-0.5,3.1c-0.1,0.3-0.1,0.5,0.3,0.5c0.1-0.2,0.1-0.4,0.2-0.6c0.1-0.4,0-0.9,0-1.3
		c0-0.6,0.2-1.2,0.3-1.9c0-0.1,0-0.3,0-0.4c0-0.3,0-0.7-0.1-1c0-0.1,0-0.1,0-0.2c0,0.2,0.1,0.4,0.1,0.5c0,0,0,0,0.1,0
		c0-0.5,0.1-1,0.1-1.5c0.1,0.1,0.2,0.2,0.2,0.3c0.1-0.3,0.1-0.5,0.2-0.8c0.2,0.3-0.1,0.6,0.2,0.9c0.1-0.1,0.2-0.2,0.2-0.3
		c0.1-0.5,0.1-1.1,0.1-1.6c0-0.2,0-0.4-0.2-0.6c-0.1-0.1-0.2-0.4-0.1-0.5c0.1-0.4,0.2-0.9-0.1-1.3c-0.3-0.3-0.7-0.6-1.1-0.9
		c0,0-0.1,0-0.3,0.1c0.1,0.3,0.1,0.7,0.3,0.9c0.2,0.5,0.3,1,0.1,1.6c-0.2,0.8-0.4,1.7-0.3,2.5c0,0.3,0,0.5-0.1,0.8
		C77.2,116,77.1,116,77,116.1z M62.7,115.2c0,0-0.1,0-0.1,0c-0.1,0.9-0.2,1.8-0.3,2.8c0,0.1,0,0.2,0,0.4c0,0.6,0,1.2,0.1,1.8
		c0,0.1,0,0.2-0.1,0.2c-0.4,0.3-0.3,0.8-0.3,1.2c0,0.2,0.1,0.4,0.3,0.5c0.1,0,0.1-0.1,0.1-0.1c0-0.3,0-0.6,0-1
		c0.3,0.5,0.3,0.9,0.3,1.4c0,0.4-0.1,0.9,0.1,1.3c0.1-0.4,0.3-0.7,0.3-0.9c-0.2-0.2-0.3-0.3-0.4-0.4c-0.1-0.3,0.2-0.5,0.4-0.5
		c-0.1-0.7-0.2-1.4-0.1-2c0.1-0.6-0.4-1.2,0-1.8c-0.1-0.6-0.2-1.3-0.2-1.9c0,0-0.1,0-0.1,0c0,0.4,0.1,0.8,0.1,1.2
		C62.6,116.6,62.9,115.9,62.7,115.2z M77.9,120.2c0.1-0.3,0.2-0.7,0.3-1c0.3-1.1,0.6-2.1,0.6-3.2c0-0.3-0.1-0.4-0.4-0.6
		c-0.1,0.6-0.2,1.2-0.2,1.7c-0.1,0.6-0.1,1.3-0.4,1.9C77.7,119.4,77.6,119.8,77.9,120.2z M33.9,117.4c0.1-0.4,0.2-0.7,0.7-0.7
		c-0.1-0.2-0.2-0.3-0.3-0.4c-0.1,0.1-0.3,0.1-0.3,0.2c-0.1,0.1-0.2,0.3-0.2,0.5c-0.1,0.6-0.1,1.2-0.3,1.7c0,0.3,0,0.5,0.2,0.7
		c0,0,0.1,0,0.1,0c0-0.1,0-0.2-0.1-0.2c0-0.1,0-0.2-0.1-0.3c0.7-0.2,0.7-0.2,0.5-0.9C34.1,117.7,34,117.6,33.9,117.4z M34.7,120.4
		c0-0.2,0-0.4,0-0.7c0-0.2,0.1-0.4-0.1-0.7c-0.1,0.3-0.3,0.6-0.3,0.9c-0.1,0.3-0.4,0.5-0.2,0.8C34.2,120.7,34.4,120.6,34.7,120.4z
		 M34.7,115c-0.2,0.3-0.3,0.6-0.5,0.9C34.9,115.8,35,115.7,34.7,115z M38.3,120c-0.4,0.4-0.4,0.4-0.1,1
		C38.3,120.7,38.3,120.4,38.3,120z M71.8,45c0-0.9,0-0.9-0.4-1C71.5,44.3,71.7,44.6,71.8,45z M53.4,80.9c0.1,0.3,0.2,0.4,0.3,0.6
		c0.1-0.2,0.2-0.4,0.3-0.6C53.7,80.9,53.6,80.9,53.4,80.9z M38,115.8c-0.4,0.1-0.4,0.1-0.2,0.6C37.9,116.2,37.9,116,38,115.8z
		 M65.8,34.2C65.8,34.2,65.7,34.3,65.8,34.2c0,0.3,0.1,0.4,0.4,0.5C66.1,34.5,65.9,34.4,65.8,34.2z M69.7,123.1
		c-0.1-0.1-0.2-0.2-0.3-0.2c0,0-0.1,0.1-0.1,0.1c0,0.1,0.1,0.2,0.2,0.2C69.5,123.2,69.6,123.2,69.7,123.1z M34.6,118.7
		c0,0,0.1,0,0.1,0c0-0.2,0.1-0.3,0.1-0.5c0,0-0.1,0-0.1,0C34.7,118.4,34.7,118.5,34.6,118.7z M38,115.5c0.1,0,0.1,0,0.2,0
		c0-0.1,0-0.3,0-0.4c0,0-0.1,0-0.1,0C38.1,115.2,38.1,115.3,38,115.5z M55.7,114.6C55.7,114.6,55.6,114.6,55.7,114.6
		c-0.1,0.1-0.1,0.3-0.2,0.5c0,0,0.1,0,0.1,0C55.6,115,55.7,114.8,55.7,114.6z M80.3,121.9C80.3,121.9,80.3,121.9,80.3,121.9
		c-0.1,0.1-0.2,0.2-0.3,0.3c0,0,0.1,0,0.1,0C80.2,122.1,80.3,122,80.3,121.9z M37.6,117.5C37.6,117.5,37.6,117.5,37.6,117.5
		c0.1-0.2,0-0.3,0-0.5c0,0,0,0,0,0C37.6,117.2,37.6,117.4,37.6,117.5z M59.2,118.1C59.2,118.1,59.2,118.1,59.2,118.1
		c0-0.2,0-0.4,0-0.6c0,0,0,0,0,0C59.2,117.7,59.2,117.9,59.2,118.1z M55.4,114.2C55.4,114.2,55.3,114.2,55.4,114.2
		c-0.1,0.1-0.1,0.3-0.1,0.4c0,0,0.1,0,0.1,0C55.4,114.5,55.4,114.4,55.4,114.2z M33.4,39.8c-0.1,0-0.1,0-0.1,0.1
		c0.1,0.1,0.1,0.2,0.1,0.3c0,0,0,0,0.1,0C33.4,40,33.4,39.9,33.4,39.8z M37.6,118.4C37.6,118.4,37.6,118.4,37.6,118.4
		c0-0.1,0-0.2,0-0.3c0,0,0,0,0,0C37.6,118.2,37.6,118.3,37.6,118.4z M76.2,122.1C76.3,122.1,76.3,122.1,76.2,122.1
		c0.1,0,0.2-0.1,0.2-0.2c0,0-0.1,0-0.1,0C76.4,121.9,76.3,122,76.2,122.1z M44.9,123c0,0,0.1,0,0.1,0c0-0.1-0.1-0.2-0.1-0.3
		c0,0-0.1,0-0.1,0C44.8,122.8,44.9,122.9,44.9,123z M71.2,43.3c0,0,0.1,0,0.1,0c0-0.1-0.1-0.2-0.1-0.2c0,0-0.1,0-0.1,0
		C71.1,43.1,71.2,43.2,71.2,43.3z M57,27.3c0,0,0-0.1,0-0.1c-0.1,0-0.2,0-0.3,0c0,0,0,0,0,0.1C56.8,27.3,56.9,27.3,57,27.3z
		 M76.9,122.4C76.9,122.4,76.9,122.5,76.9,122.4c0.1,0,0.1-0.1,0.2-0.1C77,122.3,76.9,122.4,76.9,122.4z"/>
	<path class="st0" d="M75.1,125.5c-0.2,0-0.3,0-0.5,0c0,0,0,0,0-0.1C74.8,125.5,74.9,125.5,75.1,125.5
		C75.1,125.5,75.1,125.5,75.1,125.5z"/>
	<path class="st0" d="M31.8,123.5c0.1,0,0.2-0.1,0.4-0.1c0,0,0,0.1,0,0.1c-0.1,0.1-0.2,0.1-0.3,0.2
		C31.8,123.6,31.8,123.5,31.8,123.5z"/>
	<path class="st0" d="M40.3,113.2c-0.2,0.4-0.2,0.4-0.5,0.4c0,0,0,0,0,0c0,0,0-0.1,0-0.1C40,113.4,40.1,113.3,40.3,113.2z"/>
	<path class="st0" d="M58.6,67.1c0,0.2-0.1,0.4-0.1,0.5C58.2,67.4,58.2,67.4,58.6,67.1C58.5,67.1,58.6,67.1,58.6,67.1z"/>
	<path class="st0" d="M63.5,113.5c0-0.1,0.1-0.1,0.1-0.2c0.1,0.1,0.1,0.2,0.2,0.3c0,0-0.1,0.1-0.1,0.1
		C63.6,113.6,63.6,113.5,63.5,113.5C63.5,113.5,63.5,113.5,63.5,113.5z"/>
	<path class="st0" d="M70.4,121.4c0,0-0.1,0-0.1,0c0-0.5,0-1,0-1.5c0-0.3,0-0.5,0.2-0.7l0,0c0,0.1,0.1,0.2,0.1,0.2
		C70.3,120.1,70.5,120.7,70.4,121.4z"/>
	<path class="st0" d="M70.5,119.2c-0.3-0.4-0.3-0.8-0.2-1.3C70.5,118.4,70.6,118.8,70.5,119.2C70.5,119.2,70.5,119.2,70.5,119.2z"/>
	<path class="st0" d="M69.7,120.5c0-0.2,0-0.3,0-0.5c0,0,0,0,0.1,0C69.8,120.2,69.8,120.4,69.7,120.5
		C69.7,120.5,69.7,120.5,69.7,120.5z"/>
	<path class="st0" d="M70.2,116.1c0-0.1,0-0.2,0-0.3c0,0,0,0,0.1,0c0,0.1,0,0.2,0,0.3C70.2,116.1,70.2,116.1,70.2,116.1z"/>
	<path class="st0" d="M70.2,117.4c0-0.1,0-0.2,0-0.3c0,0,0,0,0,0C70.3,117.2,70.3,117.3,70.2,117.4
		C70.2,117.4,70.2,117.4,70.2,117.4z"/>
	<path class="st0" d="M80.9,120.4c0-0.2,0-0.4,0.1-0.7c0.5-1.6,1-3.3,1-5.1c0-0.1,0-0.1,0-0.2c0.3,0.5,0.3,0.5,0.1,1.1
		c-0.1,0.5-0.1,1-0.2,1.4C81.6,118.2,81.4,119.4,80.9,120.4C80.8,120.4,80.9,120.4,80.9,120.4z"/>
	<path class="st0" d="M81.8,111.3c0.2,0.3,0.3,0.6,0.2,0.9c-0.1-0.3-0.2-0.6-0.3-0.9C81.7,111.4,81.7,111.4,81.8,111.3z"/>
	<path class="st0" d="M82.2,112.9c0.1,0,0.2,0,0.3,0c0,0,0,0.1,0,0.1c-0.1,0-0.2,0-0.3,0C82.2,113,82.2,112.9,82.2,112.9z"/>
	<path class="st0" d="M44.9,118.3c0,1.1,0,2.2,0,3.2c-0.1,0-0.1,0-0.2,0C44.7,120.5,44.6,119.4,44.9,118.3z"/>
	<path class="st0" d="M45.6,118.6c0,0.3,0,0.6,0,0.9c0,0,0,0,0,0C45.5,119.2,45.5,118.9,45.6,118.6
		C45.6,118.6,45.6,118.6,45.6,118.6z"/>
	<path class="st0" d="M45.3,121.4c0-0.1,0-0.2,0-0.3c0,0,0,0,0,0C45.3,121.2,45.3,121.3,45.3,121.4
		C45.3,121.4,45.3,121.4,45.3,121.4z"/>
	<path class="st0" d="M78.6,113c0,0.1,0,0.1,0,0.2c0,0,0,0-0.1,0c0-0.1-0.1-0.1-0.1-0.2C78.5,113,78.5,113,78.6,113z"/>
	<path class="st0" d="M47.9,114.5c0,0.1,0.1,0.3,0.1,0.4c-0.1,0.1-0.2,0.1-0.2,0.2c-0.2,0.7-0.3,1.3-0.5,2c0-0.1-0.1-0.3-0.1-0.4
		c0.1-0.6,0.3-1.3,0.4-1.9C47.7,114.7,47.8,114.6,47.9,114.5C47.9,114.5,47.9,114.5,47.9,114.5z"/>
	<path class="st0" d="M47.1,118.1c-0.1,0.4-0.1,0.7-0.2,1.1c0,0-0.1,0-0.1,0c0.1-0.4,0.1-0.8,0.2-1.1C47,118.1,47,118.1,47.1,118.1z
		"/>
	<path class="st0" d="M47.9,114.5C47.9,114.5,47.9,114.5,47.9,114.5c-0.2-0.1-0.2-0.3,0-0.4c0.1-0.1,0.1-0.2,0.2-0.3
		c0,0.1,0.1,0.3,0.1,0.4C48.1,114.4,48,114.4,47.9,114.5z"/>
	<path class="st0" d="M46.7,115.8c0.1-0.2,0.1-0.5,0.2-0.7c0,0,0.1,0,0.1,0c-0.1,0.2-0.1,0.5-0.2,0.7
		C46.8,115.8,46.7,115.8,46.7,115.8z"/>
	<path class="st0" d="M46.6,118.6c0,0.1,0,0.2,0,0.3c0,0,0,0-0.1,0C46.5,118.7,46.5,118.7,46.6,118.6
		C46.5,118.6,46.5,118.6,46.6,118.6z"/>
	<path class="st0" d="M63.9,116.3c0,0.3,0,0.7,0,1c0,0,0,0-0.1,0C63.8,117,63.8,116.6,63.9,116.3C63.8,116.3,63.9,116.3,63.9,116.3z
		"/>
	<path class="st0" d="M63.5,115.8c0-0.3,0-0.6,0-0.8c0,0,0.1,0,0.1,0C63.6,115.2,63.6,115.5,63.5,115.8
		C63.5,115.8,63.5,115.8,63.5,115.8z"/>
	<path class="st0" d="M53.7,120.9c0-0.2,0-0.4,0-0.6c0,0,0.1,0,0.1,0C53.8,120.5,53.8,120.7,53.7,120.9
		C53.7,120.9,53.7,120.9,53.7,120.9z"/>
	<path class="st0" d="M54.3,116.7c0-0.1,0-0.2,0-0.3c0,0,0,0,0,0C54.3,116.6,54.3,116.7,54.3,116.7
		C54.3,116.7,54.3,116.7,54.3,116.7z"/>
	<path class="st0" d="M38.8,117.8c0,0.3,0,0.4-0.1,0.6C38.7,118.1,38.7,118.1,38.8,117.8z"/>
	<path class="st0" d="M55.5,68.4c-0.1-0.4-0.1-0.4,0.5-0.4c-0.1,0.1-0.2,0.2-0.3,0.3C55.6,68.3,55.5,68.3,55.5,68.4z"/>
	<path class="st0" d="M55.5,68.4c0.1,0,0.1-0.1,0.2-0.1c0,0.1,0.1,0.3,0.1,0.5C55.4,68.7,55.3,68.6,55.5,68.4z"/>
	<path class="st0" d="M63,120.4c0-0.4,0-0.7,0-1.1c0,0,0,0,0.1,0C63,119.7,63,120,63,120.4C63,120.4,63,120.4,63,120.4z"/>
	<path class="st0" d="M62.6,120.5c0-0.2,0-0.3,0.1-0.5c0,0,0,0,0.1,0c0,0.2,0,0.3,0,0.5C62.7,120.5,62.7,120.5,62.6,120.5z"/>
	<path class="st0" d="M48.9,116.9c0-0.1,0.1-0.3,0.1-0.5c0,0,0.1,0,0.1,0C49.1,116.6,49.1,116.8,48.9,116.9
		C49,117,49,117,48.9,116.9C49,117,49,117,48.9,116.9z"/>
	<path class="st0" d="M48,118.1c0,0.2,0.1,0.3,0.1,0.5c0,0-0.1,0-0.1,0c0-0.2-0.1-0.3-0.1-0.5C47.9,118.1,47.9,118.1,48,118.1z"/>
	<path class="st0" d="M48.9,117.7c-0.1,0.2-0.2,0.3-0.3,0.5C48.7,118,48.6,117.8,48.9,117.7z"/>
</g>
</svg>
