<?xml version="1.0" encoding="utf-8"?>
<!-- Generator: Adobe Illustrator 27.1.1, SVG Export Plug-In . SVG Version: 6.00 Build 0)  -->
<svg version="1.1" id="Layer_1" xmlns="http://www.w3.org/2000/svg" xmlns:xlink="http://www.w3.org/1999/xlink" x="0px" y="0px"
	 viewBox="0 0 87 140" style="enable-background:new 0 0 87 140;" xml:space="preserve">
<style type="text/css">
	.st0{fill:#EBFF27;}
</style>
<g>
	<path class="st0" d="M31.8,76.9c0.6-0.9,1.2-1.9,1.9-2.8c0.3-0.4,0.7-0.8,1-1.2c0.5-0.6,1-1.1,1.5-1.7c0.3-0.3,0.5-0.7,0.8-1.1
		c0.1-0.2,0.3-0.5,0.1-0.7c0,0,0-0.1,0-0.2c0.1-0.6,0.3-1.2,0.4-1.8c0-0.1,0.1-0.2,0.1-0.4c0-1.2-0.1-2.4,0-3.5c0-0.6,0-1.2-0.1-1.8
		c-0.1-0.8-0.1-1.5-0.3-2.3c-0.1-0.8-0.3-1.6-0.5-2.5c-0.1-0.5-0.4-0.9-0.3-1.4c0-0.1,0-0.1-0.1-0.2c-0.4-0.4-0.4-0.9-0.6-1.4
		c-1.5-4.3-3.2-8.5-5.1-12.6c-1-2.1-2-4.3-3.2-6.3c-1-1.7-2.1-3.3-3.1-5c-0.4-0.6-0.8-1.3-1.1-2c-0.7-1.3-1.7-2.2-2.8-3.1
		c-1-0.8-1.8-1.8-2.6-2.8c-0.3-0.4-0.3-0.6,0.1-0.9c0.3-0.3,0.7-0.6,1.1-0.8c1.6-0.9,3.3-1.7,5-2.5c2.3-1.1,4.6-1.9,7-2.6
		c1.3-0.4,2.6-0.7,4-1.1c0.5-0.1,0.9-0.2,1.4-0.2c0.6,0,0.9,0.2,0.9,0.9c0,0.8,0,1.6-0.1,2.4c0,0.4-0.1,0.9-0.2,1.3
		c-0.3,1.3-0.1,2.5,0.1,3.8c0.3,1.5,0.5,3.1,0.7,4.6c0.1,0.5,0.2,1,0.2,1.5c0.1,0.6,0.5,1,1.1,1.2c0.7,0.2,1.4,0.2,2.1-0.1
		c2.3-0.7,4.5-1.4,6.8-2.2c2.4-0.8,4.8-1.4,7.3-1.3c2.9,0,5.8,0.4,8.5,1.4c1.4,0.5,2.7,1.2,3.9,2.1c1.2,0.8,2.3,1.7,3.5,2.6
		c1.1,0.8,1.9,1.9,2.6,3c1.9,2.9,3.4,5.9,4.1,9.3c0.6,2.9,1.3,5.9,1.4,8.9c0,1,0.1,2,0.2,2.9c0,0.2,0,0.3,0,0.5
		c-0.3,1.4,0,2.8,0.1,4.2c0.1,1.7,0.3,3.4,0.7,5c0.3,1.1,0.5,2.2,0.9,3.3c0.7,1.9,1.6,3.7,2.3,5.5c1,2.5,1.9,5.1,2.5,7.8
		c0.2,0.7,0.2,1.3,0.3,2c0.1,1.9,0.3,3.7,0.4,5.6c0.1,2.4-0.2,4.7-0.8,7c-0.2,0.8-0.3,1.6-0.5,2.4c-0.3,1.2-0.6,2.3-1,3.5
		c-0.1,0.2-0.2,0.5-0.4,0.6c-0.5,0.5-1.1,1-1.6,1.6c-0.6,0.6-1.2,1.3-1.8,1.9c0.2,0.4,0.5,0.4,0.8,0.4c1.1,0,1.9,0.4,2.7,1.2
		c0.2,0.2,0.6,0.4,0.8,0.7c0.2,0.3,0.5,0.6,0.6,0.9c0.5,1.5,0.7,3,0.8,4.6c0,1.1-0.1,2.2-0.3,3.2c-0.1,0.4,0,0.8-0.1,1.2
		c-0.3,1-0.7,1.8-1.4,2.6c-0.3,0.3-0.7,0.6-1.1,0.9c0.1,0.2,0.1,0.4,0.2,0.6c-0.3,0.1-0.5,0.1-0.7,0.2c-0.6,0.2-1.2,0.4-1.8,0.6H81
		c-0.6-0.1-1.1,0.3-1.7,0.4c-1.2,0.1-2.5,0.3-3.7,0.4c-1.1,0.1-2.3,0.1-3.4,0.2c-0.8,0.1-1.5,0.1-2.3,0.2c-1,0.1-1.9,0.1-2.9,0.1
		c-1.4,0-2.7,0.1-4.1,0.1c-1.8,0-3.6,0-5.5,0c-1,0-2,0-2.9,0c-1.1,0-2.1-0.2-3.2-0.2c-1-0.1-2-0.2-2.9-0.2c-1.7,0-3.5-0.3-5.2-0.5
		c-1.5-0.2-2.9-0.3-4.4-0.4c-0.1,0-0.3-0.1-0.4-0.1c-0.2-0.1-0.3-0.2-0.5-0.1c-0.5,0.1-0.8-0.2-1.2-0.4c-0.3-0.1-0.6-0.3-1.1-0.5
		c0.3,0,0.6,0,1.1,0.1c-0.3-0.4-0.6-0.8-0.9-1.1c-0.6-0.7-0.8-1.6-1-2.5c-0.1-0.7-0.1-1.4,0-2.1c0.2-1.2,0.3-2.4,0.4-3.6
		c-0.1-0.2-0.4-0.2-0.3-0.5c0.2-0.7,0.2-1.5,0.6-2.2c0.1-0.2,0.3-0.3,0.5-0.5c0.1-0.1,0.2-0.2,0.3-0.3c0.6-0.6,1.4-0.8,2.1-1
		c0.2-0.1,0.5-0.2,0.8-0.3c-0.5-0.9-1-1.7-1.6-2.5c-0.7-0.9-1.3-1.9-2-2.8c-0.6-0.8-1.2-1.6-1.7-2.5c-0.6-0.9-1-1.8-1.5-2.7
		c-0.4-0.8-0.8-1.5-1.2-2.3c-0.7-1.3-1.1-2.8-1.6-4.2c0-0.1,0-0.2-0.1-0.3c-0.1,0.3-0.1,0.5-0.2,0.8c-0.4-0.7-0.8-1.3-1.2-1.9
		c-1-1.6-2.1-3-3.4-4.3c-0.8-0.9-1.5-1.9-2.4-2.7c-1.9-2-3.7-4-5.6-5.9c-1.2-1.2-2.4-2.4-3.7-3.5c-0.6-0.6-1.3-1.1-2-1.6
		c-0.8-0.6-1.6-1.2-2.4-1.8c-1-0.7-2-1.5-3-2.2c-0.1-0.1-0.2-0.1-0.3-0.2c-0.7-0.6-0.6-1.2,0.3-1.4c0.9-0.2,1.8-0.4,2.8-0.6
		c1.3-0.2,2.6-0.3,4-0.1c0.4,0.1,0.8,0.2,1.2,0.4c0.5,0.4,0.9,0.7,1.4,1.1c1.7,1.5,3.5,2.9,5.5,4c1.8,1,3.5,2,5.4,3
		c0.8,0.4,1.8,0.7,2.7,1.1c0.3,0.1,0.6,0.2,0.9,0.4c0.5,0.3,1.1,0.3,1.7,0.3C31.2,76.9,31.5,76.9,31.8,76.9z M61.1,67.1
		C61.1,67.1,61,67.1,61.1,67.1c-0.5,0-0.8,0-1.2,0c-0.6,0.1-1.2,0.2-1.8,0.3c-0.1,0-0.2-0.1-0.3-0.1c-0.1,0.4-0.4,0.7-0.4,1.1
		c0.4,0.3,0.8,0.5,1.2,0.8c0.6-0.4,1.4-0.1,2-0.6c0.1,0.1,0.2,0.2,0.2,0.3c0.3-0.2,0.6-0.5,0.9-0.7c-0.2-0.3-0.4-0.5-0.6-0.7
		c0.1,0,0.2-0.1,0.2-0.1c0.1-0.1,0.1-0.2,0.2-0.3C61.3,67.2,61.2,67.2,61.1,67.1z M73.3,122.3c0.2-0.3,0.3-0.6,0.1-1
		c0.1,0.1,0.2,0.1,0.5,0.2c0-0.3,0.1-0.6,0-0.8c0-0.4-0.2-0.8,0.1-1.2c0-0.1,0-0.2,0-0.3c-0.1-0.6-0.2-1.2-0.3-1.8
		c-0.1-0.8-0.2-1.7-0.3-2.5c-0.1-0.7-0.2-1.4-0.2-2.1c0-0.5-0.3-0.8-0.7-1c-0.4-0.3-0.7-0.2-1,0.1c-0.1,0.2-0.2,0.4-0.4,0.7
		c0.2,0.7,0.4,1.5,0.6,2.4c-0.1,0-0.1,0-0.2,0c0,0.2,0.1,0.5,0.1,0.7h0.1l0.1-0.1c0.2,0.7,0.3,1.4,0.3,2.1c0,0.9-0.4,1.7-0.1,2.6
		c0,0.1,0,0.2,0,0.4c-0.1,0.3,0.1,0.6,0.4,0.7c0.1,0.5-0.2,1-0.1,1.6c0.4-0.1,0.5-0.2,0.5-0.5s0.1-0.5,0.1-0.8c0,0.2,0,0.3,0,0.5H73
		c0-0.2,0-0.3,0-0.5c0.3-1.1,0.5-2.2,0.5-3.4c0,0.5,0,1,0,1.5c0,0.6,0,1.2-0.1,1.8C73.1,121.6,73.2,121.9,73.3,122.3
		c-0.1,0.1-0.1,0.3-0.2,0.4h0.1C73.2,122.5,73.2,122.4,73.3,122.3z M37.7,115.9c-0.3,0.6-0.4,0.7-0.2,1.1
		C37.6,116.6,37.6,116.2,37.7,115.9c0.1-0.3,0.1-0.5,0.2-0.7h-0.1C37.7,115.4,37.7,115.6,37.7,115.9z M56.9,67.9
		c0.2-0.2,0.1-0.4,0.1-0.7c-0.3,0.2-0.4,0.4-0.5,0.5C56.7,67.8,56.8,67.8,56.9,67.9c-0.1,0-0.2,0.1-0.1,0.3
		C56.9,68.1,56.9,68,56.9,67.9z M50.7,114.3c0.2-0.2,0.3-0.5,0.3-0.9c-0.2,0.1-0.4,0.2-0.5,0.2c-0.2-0.1-0.3-0.1-0.5-0.2
		c-0.2,0.1-0.4,0.3-0.6,0.4c0,0-0.1,0.1-0.1,0.2c-0.1,0.6-0.3,1.3-0.4,1.9c-0.1,0.5,0,1,0,1.4c0,0-0.1-0.1-0.2-0.3
		c-0.1,0.5-0.1,0.8-0.2,1.2c0,0.2,0,0.4,0,0.5c-0.3,0.7-0.2,1.4,0.1,2c0.2,0.5,0.1,1,0.1,1.5c0-0.1-0.1-0.2-0.1-0.3h-0.1
		c0.1,0.3,0.2,0.6,0.3,0.9c0.6-0.4,0.5-1,0.3-1.5c-0.1-0.4-0.1-0.6,0.1-1c0,0.2,0.1,0.3,0.1,0.4c0.1-0.5,0.2-1,0.3-1.5
		c0.1-0.3,0.1-0.7,0.2-1c0-0.2,0-0.5-0.1-0.8c0-0.1,0.1-0.3,0.2-0.5c0.2-0.2,0.2-0.5,0.6-0.5c-0.1,0.3-0.2,0.6-0.3,0.8
		c0.5,0,1-0.1,1.5-0.1c0.3-0.5,0.3-1.1,0.2-1.7c0.2-0.1,0.2-0.3,0.2-0.6c-0.1,0.1-0.2,0.2-0.3,0.3c0.1-0.3,0.2-0.6,0.3-1
		c0,0.1,0,0.2,0.1,0.4c0.4-0.5,0.6-1,0.7-1.6c-0.5,0-0.7,0.3-0.8,0.7c0,0.2,0,0.4,0,0.5c-0.2-0.1-0.3-0.3-0.5-0.4c0-0.1,0-0.2,0-0.3
		h-0.1c0,0.1,0,0.3,0,0.4c-0.4,0.5-0.6,1-0.7,1.6c0,0.2,0,0.4-0.3,0.5c-0.1-0.3,0-0.6,0.1-0.8c0.1-0.2,0.2-0.3,0-0.5
		C50.7,114.7,50.7,114.5,50.7,114.3z M64.6,119.9c-0.1,0.1-0.2,0.1-0.2,0.2c-0.1,0.4-0.1,0.8-0.2,1.2h0.1
		C64.4,120.9,64.5,120.4,64.6,119.9c0-0.2,0.1-0.4,0.1-0.6h-0.1C64.6,119.6,64.6,119.7,64.6,119.9z M71.1,119
		c0.2,0.1,0.3,0.2,0.5,0.3c0.1-1.1,0.1-2.2,0.2-3.3c-0.5,0.2-0.7,0.5-0.7,1C71.1,117.6,71.1,118.3,71.1,119
		C71,118.9,71.1,118.9,71.1,119c-0.2,0.1-0.2,0.2,0,0.5C71.1,119.2,71.1,119.1,71.1,119z M42.3,113.4c-0.1,0-0.2,0-0.3,0
		c0.2-0.3,0.3-0.5,0.4-0.6c-0.6,0-0.9,0.5-1.2,0.9c-0.2,0.2-0.4,0.7-0.3,1.2c0.2-0.2,0.3-0.3,0.4-0.5c-0.1,0.3-0.2,0.6-0.3,1
		c-0.1,0.3-0.2,0.7-0.1,1c0,0.3-0.4,0.6,0.1,0.9c0.1-0.3,0.1-0.5,0.2-0.8C41.3,115.5,41.7,114.5,42.3,113.4L42.3,113.4
		c0,0.3,0,0.6-0.1,0.9c-0.4,1.1-0.9,2.3-1.3,3.4c-0.1,0-0.1-0.1-0.2-0.2c-0.3,0.8-0.4,1.7-0.1,2.1c0.1-0.4,0.1-0.8,0.2-1.2h0.1
		c0,0.3,0,0.5,0.1,0.7c0.2,0,0.3,0,0.3,0c0.1,0.3,0,0.6,0.3,0.8c0.2-0.5,0.2-1,0.3-1.5c0-0.4,0.2-0.8,0.3-1.2c0,0.1,0.1,0.3,0.1,0.4
		c0,0,0,0,0.1,0c0-0.2,0-0.4,0-0.7c-0.1,0.2-0.2,0.2-0.3,0.3c-0.1-0.7,0.1-1.4,0.4-2.1c0.4-0.8,0.8-1.6,1.1-2.6
		c-0.4,0-0.6,0.3-0.8,0.5C42.6,113.3,42.5,113.4,42.3,113.4z M50.9,120.7c-0.2-0.5,0-1.9,0.2-2.4l0,0c0,0.1,0,0.2,0,0.4
		c0.2-0.3,0.4-0.6,0.2-0.9c-0.4,0-0.7-0.1-1.1-0.1c-0.3,0.3-0.5,0.7-0.5,1.1c0,0.6,0.1,1.1,0.1,1.7c-0.1,0-0.3,0-0.4,0
		c0,0.2,0,0.3,0,0.4c0.1,0,0.2,0,0.3-0.1c0,0.3,0,0.5,0,0.8c0,0.5,0.1,0.9-0.1,1.4c-0.1,0.2,0.1,0.3,0.3,0.2
		c0.1-0.7,0.3-1.4,0.2-2.2c0,0.1-0.1,0.2-0.1,0.4h-0.1c0-0.3-0.1-0.6-0.1-0.9c0.2-0.4,0.5-0.8,0.3-1.3c0.1,0,0.1,0,0.2,0
		c0,1.1,0,2.1,0,3.3c0.6-0.2,0.1-0.6,0.3-0.8c0.1,0,0.3,0,0.5,0C51.2,121.2,50.8,121,50.9,120.7c0.2,0,0.3-0.1,0.3-0.3
		c0-0.3,0-0.5-0.1-0.8c0,0,0,0-0.1,0C51,119.9,51,120.3,50.9,120.7z M56.2,120.9L56.2,120.9c0,0.2,0.1,0.4,0.1,0.6
		c0.1-0.4,0.2-0.7,0.2-1.1c0-0.1,0-0.3,0.1-0.3c0.3-0.2,0.3-0.5,0.3-0.8c0-0.1,0.1-0.1,0.1-0.2c0.4,0.4-0.2,0.8,0.1,1.2
		c0.1-0.2,0.2-0.4,0.2-0.5c0.1-1.2,0.2-2.4,0.3-3.6c0-0.5-0.1-0.8-0.5-1.1c-0.1,0.3-0.2,0.6-0.3,0.9c-0.1-0.2-0.2-0.3-0.3-0.6
		c-0.1,0.4-0.1,0.6-0.2,0.9c-0.2,1.2-0.3,2.5-0.5,3.7C56,120.3,55.9,120.7,56.2,120.9z M66,113.5L66,113.5c-0.1,0-0.3,0-0.4,0
		c-0.2,0.7,0,1.4,0.2,2.1c0,0.2,0.1,0.2,0.2,0.1l0,0c0,0.2-0.1,0.5-0.1,0.7c0.1,0.7-0.1,1.4-0.1,2.1c0,0.4-0.1,0.8,0.3,1.1
		c0.4-0.4,0.2-0.8,0.3-1.2h0.1c-0.1,0.9-0.2,1.7-0.2,2.6c0.4-0.5,0.5-1,0.5-1.6c0-0.1,0.1-0.2,0.1-0.3c0.1-0.1,0.2,0,0.4-0.1
		c-0.2-0.6-0.3-1.1-0.5-1.6c-0.1-0.2-0.1-0.3-0.1-0.5c0-1.2,0-2.3,0-3.5c0.1,0,0.2-0.1,0.3-0.2c-0.2-0.2-0.4-0.3-0.5-0.4
		c-0.3,0.1-0.5,0.1-0.8,0.2C65.8,113.2,65.9,113.3,66,113.5z M83.3,120.4L83.3,120.4c0,0.3,0.3,0.5,0,0.8c0,0,0,0.2,0,0.3
		c0.6-0.8,1.2-1.6,1.4-2.6c0.1-0.6,0.2-1.2,0.3-1.8c0.3-1.9,0.6-3.7-0.2-5.5c-0.2-0.5-0.2-1.1-0.7-1.5c-0.4-0.3-0.7-0.8-1.4-0.7
		c-0.1,0-0.2-0.1-0.3-0.2c-0.1,0-0.2,0-0.3-0.1v0.1c0.2,0.2,0.4,0.3,0.6,0.5c0,0.2,0,0.4,0.1,0.5c0.1,0.3,0.3,0.5,0.5,0.8
		c0.1,0.3,0.3,0.6,0.3,0.8c0.1,0.3,0.2,0.6,0.2,1c0,0.3,0.4,0.3,0.3,0.7c-0.1,0.5,0,1.1,0,1.7c0,0.1-0.1,0.3-0.1,0.4h-0.1
		c0-0.1,0-0.3-0.1-0.4c-0.1,0.2-0.1,0.4-0.2,0.6c-0.1,0.8-0.3,1.5-0.4,2.3c-0.1,0.6-0.1,1.3-0.3,1.9
		C83.1,120.2,83.2,120.3,83.3,120.4z M73.6,54.7C73.5,54,73.4,53,73.2,52c-0.3-2.1-0.6-4.2-1.5-6.2c-0.7-1.6-1.5-3.1-2.3-4.7
		c-0.4-0.8-0.9-1.5-1.5-2.2c-0.7-0.9-1.5-1.7-2.3-2.4c-1.5-1.5-3.2-2.7-5.3-3.3c-2.5-0.7-5.1-1.1-7.7-0.7c-0.5,0.1-1,0.1-1.5,0.2
		C48.9,33,46.8,33.5,45,35c-0.4,0.3-0.7,0.5-1.1,0.8c-0.9,0.6-1.7,1.4-2.2,2.4c-0.5,1.1-0.7,2.2-0.1,3.3c0.8,1.6,1.7,3.2,2.6,4.7
		c1.4,2.2,3,4.1,4.8,5.9c1.4,1.4,2.9,2.8,4.3,4.2c1.1,1.1,2.5,1.8,3.9,2.4c0.4,0.2,0.9,0.3,1.1,0.6c0.3,0.4,0.7,0.4,1.1,0.5
		c0.5,0,1,0,1.5,0.1c0.7,0.1,1.5,0.1,2.2,0.2c0.4,0,0.9,0.1,1.3,0.2c1.1,0,2.1,0.2,3.1,0.5c0.7,0.3,1.4,0.4,2.1,0.5
		c1,0.1,1.9-0.2,2.5-1c0.2-0.2,0.3-0.5,0.5-0.7C73.2,58.1,73.5,56.5,73.6,54.7z M48.8,114.2c-0.9,0.7-1,1.6-1.3,2.5
		c-0.3-0.5,0.2-0.9,0-1.4c-0.1,0.2-0.2,0.4-0.2,0.5c-0.1,0.5-0.3,1-0.4,1.5c-0.1,0.2-0.1,0.5-0.1,0.8c0,1,0,2-0.1,3
		c0,0.5-0.2,1-0.1,1.4c0,0.2,0.1,0.4,0.2,0.6c0,0.1,0.2,0.1,0.3,0.1s0.1-0.2,0.1-0.2c0-0.2-0.1-0.4-0.1-0.6c0.4-0.2,0.5,0.3,0.8,0.4
		c0,0.2,0,0.3-0.1,0.6c0.2,0,0.3-0.1,0.4-0.1c0-0.1,0-0.3,0-0.5c0.1,0.3,0.2,0.6,0.3,0.8c0-0.3,0-0.7-0.1-1
		c-0.2-0.3-0.2-0.5-0.2-0.8c0-0.2,0-0.4,0-0.5c0-1.1,0-2.2,0.1-3.4c0-0.2,0-0.3-0.1-0.5c0-0.2-0.1-0.5,0-0.7
		C48.4,115.9,48.6,115.1,48.8,114.2z M79.5,116.1c0,0.1-0.1,0.4,0.2,0.4l0.1,0.2c0,0.3,0.1,0.6,0.1,0.9c0,1-0.2,2.1-0.5,3.1
		c-0.1,0.3-0.1,0.5,0.3,0.5c0.1-0.2,0.1-0.4,0.2-0.6c0.1-0.4,0-0.9,0-1.3c0-0.6,0.2-1.2,0.3-1.9c0-0.1,0-0.3,0-0.4
		c0-0.3,0-0.7-0.1-1c0-0.1,0-0.1,0-0.2c0,0.2,0.1,0.4,0.1,0.5c0,0,0,0,0.1,0c0-0.5,0.1-1,0.1-1.5c0.1,0.1,0.2,0.2,0.2,0.3
		c0.1-0.3,0.1-0.5,0.2-0.8c0.2,0.3-0.1,0.6,0.2,0.9c0.1-0.1,0.2-0.2,0.2-0.3c0.1-0.5,0.1-1.1,0.1-1.6c0-0.2,0-0.4-0.2-0.6
		c-0.1-0.1-0.2-0.4-0.1-0.5c0.1-0.4,0.2-0.9-0.1-1.3c-0.3-0.3-0.7-0.6-1.1-0.9c0,0-0.1,0-0.3,0.1c0.1,0.3,0.1,0.7,0.3,0.9
		c0.2,0.5,0.3,1,0.1,1.6c-0.2,0.8-0.4,1.7-0.3,2.5c0,0.3,0,0.5-0.1,0.8C79.7,116,79.6,116,79.5,116.1z M65.2,115.2L65.2,115.2
		c-0.2,0.9-0.3,1.8-0.4,2.8c0,0.1,0,0.2,0,0.4c0,0.6,0,1.2,0.1,1.8c0,0.1,0,0.2-0.1,0.2c-0.4,0.3-0.3,0.8-0.3,1.2
		c0,0.2,0.1,0.4,0.3,0.5c0.1,0,0.1-0.1,0.1-0.1c0-0.3,0-0.6,0-1c0.3,0.5,0.3,0.9,0.3,1.4c0,0.4-0.1,0.9,0.1,1.3
		c0.1-0.4,0.3-0.7,0.3-0.9c-0.2-0.2-0.3-0.3-0.4-0.4c-0.1-0.3,0.2-0.5,0.4-0.5c-0.1-0.7-0.2-1.4-0.1-2s-0.4-1.2,0-1.8
		c-0.1-0.6-0.2-1.3-0.2-1.9h-0.1c0,0.4,0.1,0.8,0.1,1.2C65.1,116.6,65.4,115.9,65.2,115.2z M80.4,120.2c0.1-0.3,0.2-0.7,0.3-1
		c0.3-1.1,0.6-2.1,0.6-3.2c0-0.3-0.1-0.4-0.4-0.6c-0.1,0.6-0.2,1.2-0.2,1.7c-0.1,0.6-0.1,1.3-0.4,1.9
		C80.2,119.4,80.1,119.8,80.4,120.2z M36.4,117.4c0.1-0.4,0.2-0.7,0.7-0.7c-0.1-0.2-0.2-0.3-0.3-0.4c-0.1,0.1-0.3,0.1-0.3,0.2
		c-0.1,0.1-0.2,0.3-0.2,0.5c-0.1,0.6-0.1,1.2-0.3,1.7c0,0.3,0,0.5,0.2,0.7h0.1c0-0.1,0-0.2-0.1-0.2c0-0.1,0-0.2-0.1-0.3
		c0.7-0.2,0.7-0.2,0.5-0.9C36.6,117.7,36.5,117.6,36.4,117.4z M37.2,120.4c0-0.2,0-0.4,0-0.7c0-0.2,0.1-0.4-0.1-0.7
		c-0.1,0.3-0.3,0.6-0.3,0.9c-0.1,0.3-0.4,0.5-0.2,0.8C36.7,120.7,36.9,120.6,37.2,120.4z M37.2,115c-0.2,0.3-0.3,0.6-0.5,0.9
		C37.4,115.8,37.5,115.7,37.2,115z M40.8,120c-0.4,0.4-0.4,0.4-0.1,1C40.8,120.7,40.8,120.4,40.8,120z M74.3,45c0-0.9,0-0.9-0.4-1
		C74,44.3,74.1,44.6,74.3,45z M55.9,80.9c0.1,0.3,0.2,0.4,0.3,0.6c0.1-0.2,0.2-0.4,0.3-0.6C56.2,80.9,56.1,80.9,55.9,80.9z
		 M40.5,115.8c-0.4,0.1-0.4,0.1-0.2,0.6C40.4,116.2,40.4,116,40.5,115.8z M68.3,34.2C68.3,34.2,68.2,34.3,68.3,34.2
		c0,0.3,0.1,0.4,0.4,0.5C68.6,34.5,68.4,34.4,68.3,34.2z M72.2,123.1c-0.1-0.1-0.2-0.2-0.3-0.2l-0.1,0.1c0,0.1,0.1,0.2,0.2,0.2
		C72,123.2,72.1,123.2,72.2,123.1z M37.1,118.7L37.1,118.7c0.1-0.2,0.2-0.3,0.2-0.5h-0.1C37.2,118.4,37.1,118.5,37.1,118.7z
		 M40.5,115.5c0.1,0,0.1,0,0.2,0c0-0.1,0-0.3,0-0.4h-0.1C40.6,115.2,40.6,115.3,40.5,115.5z M58.2,114.6
		C58.1,114.6,58.1,114.6,58.2,114.6c-0.1,0.1-0.1,0.3-0.2,0.5h0.1C58.1,115,58.2,114.8,58.2,114.6z M82.8,121.9L82.8,121.9
		c-0.1,0.1-0.2,0.2-0.3,0.3h0.1C82.7,122.1,82.8,122,82.8,121.9z M40.1,117.5L40.1,117.5c0.1-0.2,0-0.3,0-0.5l0,0
		C40.1,117.2,40.1,117.4,40.1,117.5z M61.7,118.1L61.7,118.1c0-0.2,0-0.4,0-0.6l0,0C61.7,117.7,61.7,117.9,61.7,118.1z M57.9,114.2
		C57.9,114.2,57.8,114.2,57.9,114.2c-0.1,0.1-0.1,0.3-0.1,0.4h0.1C57.9,114.5,57.9,114.4,57.9,114.2z M35.9,39.8
		C35.8,39.8,35.8,39.8,35.9,39.8c0,0.2,0,0.3,0,0.4c0,0,0,0,0.1,0C35.9,40,35.9,39.9,35.9,39.8z M40.1,118.4L40.1,118.4
		c0-0.1,0-0.2,0-0.3l0,0C40.1,118.2,40.1,118.3,40.1,118.4z M78.7,122.1C78.8,122.1,78.8,122.1,78.7,122.1c0.1,0,0.2-0.1,0.2-0.2
		h-0.1C78.8,121.9,78.8,122,78.7,122.1z M47.4,123L47.4,123c0.1-0.1,0-0.2,0-0.3h-0.1C47.3,122.8,47.4,122.9,47.4,123z M73.7,43.3
		L73.7,43.3c0.1-0.1,0-0.2,0-0.2h-0.1C73.6,43.1,73.7,43.2,73.7,43.3z M59.5,27.3v-0.1c-0.1,0-0.2,0-0.3,0c0,0,0,0,0,0.1
		C59.3,27.3,59.4,27.3,59.5,27.3z M79.4,122.4C79.4,122.4,79.4,122.5,79.4,122.4c0.1,0,0.1-0.1,0.2-0.1
		C79.5,122.3,79.4,122.4,79.4,122.4z"/>
	<path class="st0" d="M77.6,125.5c-0.2,0-0.3,0-0.5,0c0,0,0,0,0-0.1C77.3,125.5,77.4,125.5,77.6,125.5L77.6,125.5z"/>
	<path class="st0" d="M34.3,123.5c0.1,0,0.2-0.1,0.4-0.1v0.1c-0.1,0.1-0.2,0.1-0.3,0.2C34.3,123.6,34.3,123.5,34.3,123.5z"/>
	<path class="st0" d="M42.8,113.2c-0.2,0.4-0.2,0.4-0.5,0.4l0,0v-0.1C42.5,113.4,42.6,113.3,42.8,113.2z"/>
	<path class="st0" d="M61.1,67.1c0,0.2-0.1,0.4-0.1,0.5C60.7,67.4,60.7,67.4,61.1,67.1C61,67.1,61.1,67.1,61.1,67.1z"/>
	<path class="st0" d="M66,113.5c0-0.1,0.1-0.1,0.1-0.2c0.1,0.1,0.1,0.2,0.2,0.3l-0.1,0.1C66.1,113.6,66.1,113.5,66,113.5L66,113.5z"
		/>
	<path class="st0" d="M72.9,121.4L72.9,121.4c-0.1-0.5-0.1-1-0.1-1.5c0-0.3,0-0.5,0.2-0.7l0,0c0,0.1,0.1,0.2,0.1,0.2
		C72.7,120.1,72.9,120.7,72.9,121.4z"/>
	<path class="st0" d="M73,119.2c-0.3-0.4-0.3-0.8-0.2-1.3C73,118.4,73.1,118.8,73,119.2L73,119.2z"/>
	<path class="st0" d="M72.2,120.5c0-0.2,0-0.3,0-0.5c0,0,0,0,0.1,0C72.3,120.2,72.3,120.4,72.2,120.5L72.2,120.5z"/>
	<path class="st0" d="M72.7,116.1c0-0.1,0-0.2,0-0.3c0,0,0,0,0.1,0C72.8,115.9,72.8,116,72.7,116.1
		C72.7,116.1,72.7,116.1,72.7,116.1z"/>
	<path class="st0" d="M72.7,117.4c0-0.1,0-0.2,0-0.3l0,0C72.7,117.2,72.8,117.3,72.7,117.4L72.7,117.4z"/>
	<path class="st0" d="M83.3,120.4c0-0.2,0-0.4,0.1-0.7c0.5-1.6,1-3.3,1-5.1c0-0.1,0-0.1,0-0.2c0.3,0.5,0.3,0.5,0.1,1.1
		c-0.1,0.5-0.1,1-0.2,1.4C84.1,118.2,83.9,119.4,83.3,120.4L83.3,120.4z"/>
	<path class="st0" d="M84.3,111.3c0.2,0.3,0.3,0.6,0.2,0.9c-0.1-0.3-0.2-0.6-0.3-0.9C84.2,111.4,84.2,111.4,84.3,111.3z"/>
	<path class="st0" d="M84.7,112.9c0.1,0,0.2,0,0.3,0v0.1C84.9,113,84.8,113,84.7,112.9L84.7,112.9z"/>
	<path class="st0" d="M47.4,118.3c0,1.1,0,2.2,0,3.2c-0.1,0-0.1,0-0.2,0C47.2,120.5,47.1,119.4,47.4,118.3z"/>
	<path class="st0" d="M48.1,118.6c0,0.3,0,0.6,0,0.9l0,0C48,119.2,48,118.9,48.1,118.6C48,118.6,48.1,118.6,48.1,118.6z"/>
	<path class="st0" d="M47.8,121.4c0-0.1,0-0.2,0-0.3l0,0C47.8,121.2,47.8,121.3,47.8,121.4L47.8,121.4z"/>
	<path class="st0" d="M81.1,113c0,0.1,0,0.1,0,0.2c0,0,0,0-0.1,0c0-0.1-0.1-0.1-0.1-0.2C81,113,81,113,81.1,113z"/>
	<path class="st0" d="M50.4,114.5c0,0.1,0.1,0.3,0.1,0.4c-0.1,0.1-0.2,0.1-0.2,0.2c-0.2,0.7-0.3,1.3-0.5,2c0-0.1-0.1-0.3-0.1-0.4
		c0.1-0.6,0.3-1.3,0.4-1.9C50.2,114.7,50.3,114.6,50.4,114.5L50.4,114.5z"/>
	<path class="st0" d="M49.6,118.1c-0.1,0.4-0.1,0.7-0.2,1.1h-0.1C49.4,118.8,49.4,118.4,49.6,118.1
		C49.5,118.1,49.5,118.1,49.6,118.1z"/>
	<path class="st0" d="M50.4,114.5L50.4,114.5c-0.2-0.1-0.2-0.3,0-0.4c0.1-0.1,0.1-0.2,0.2-0.3c0,0.1,0.1,0.3,0.1,0.4
		C50.6,114.4,50.5,114.4,50.4,114.5z"/>
	<path class="st0" d="M49.2,115.8c0.1-0.2,0.1-0.5,0.2-0.7h0.1C49.4,115.3,49.4,115.6,49.2,115.8L49.2,115.8z"/>
	<path class="st0" d="M49.1,118.6c0,0.1,0,0.2,0,0.3c0,0,0,0-0.1,0C49,118.7,49,118.7,49.1,118.6C49,118.6,49,118.6,49.1,118.6z"/>
	<path class="st0" d="M66.4,116.3c0,0.3,0,0.7,0,1c0,0,0,0-0.1,0C66.3,117,66.3,116.6,66.4,116.3C66.3,116.3,66.3,116.3,66.4,116.3z
		"/>
	<path class="st0" d="M66,115.8c0-0.3,0-0.6,0-0.8h0.1C66.1,115.2,66.1,115.5,66,115.8L66,115.8z"/>
	<path class="st0" d="M56.2,120.9c0-0.2,0-0.4,0-0.6h0.1C56.3,120.5,56.3,120.7,56.2,120.9L56.2,120.9z"/>
	<path class="st0" d="M56.7,116.7c0-0.1,0-0.2,0-0.3l0,0C56.8,116.6,56.8,116.7,56.7,116.7C56.8,116.7,56.8,116.7,56.7,116.7z"/>
	<path class="st0" d="M41.3,117.8c0,0.3,0,0.4-0.1,0.6C41.2,118.1,41.2,118.1,41.3,117.8z"/>
	<path class="st0" d="M58,68.4C57.9,68,57.9,68,58.5,68c-0.1,0.1-0.2,0.2-0.3,0.3C58.1,68.3,58,68.3,58,68.4z"/>
	<path class="st0" d="M58,68.4c0.1,0,0.1-0.1,0.2-0.1c0,0.1,0.1,0.3,0.1,0.5C57.9,68.7,57.8,68.6,58,68.4z"/>
	<path class="st0" d="M65.5,120.4c0-0.4,0-0.7,0-1.1c0,0,0,0,0.1,0C65.5,119.7,65.5,120,65.5,120.4L65.5,120.4z"/>
	<path class="st0" d="M65.1,120.5c0-0.2,0-0.3,0.1-0.5c0,0,0,0,0.1,0c0,0.2,0,0.3,0,0.5C65.2,120.5,65.2,120.5,65.1,120.5z"/>
	<path class="st0" d="M51.4,116.9c0-0.1,0.1-0.3,0.1-0.5h0.1C51.6,116.6,51.6,116.8,51.4,116.9C51.5,117,51.5,117,51.4,116.9
		C51.5,117,51.5,117,51.4,116.9z"/>
	<path class="st0" d="M50.5,118.1c0,0.2,0.1,0.3,0.1,0.5h-0.1C50.5,118.4,50.4,118.3,50.5,118.1C50.4,118.1,50.4,118.1,50.5,118.1z"
		/>
	<path class="st0" d="M51.4,117.7c-0.1,0.2-0.2,0.3-0.3,0.5C51.1,118,51.1,117.8,51.4,117.7z"/>
</g>
</svg>
