<?xml version="1.0" encoding="utf-8"?>
<!-- Generator: Adobe Illustrator 27.1.1, SVG Export Plug-In . SVG Version: 6.00 Build 0)  -->
<svg version="1.1" id="Layer_1" xmlns="http://www.w3.org/2000/svg" xmlns:xlink="http://www.w3.org/1999/xlink" x="0px" y="0px"
	 viewBox="0 0 60 60" style="enable-background:new 0 0 60 60;" xml:space="preserve">
<style type="text/css">
	.st0{fill:#FFFFFF;}
</style>
<g>
	<path class="st0" d="M30,0c0.4,0.3,0.6,0.8,0.5,1.3c0,0.4,0,0.9,0,1.3c0,0.5-0.4,0.7-0.8,0.8c-0.4,0-0.8-0.2-0.8-0.7
		c-0.1-0.7,0-1.4,0-2.1c0-0.2,0.3-0.4,0.5-0.6C29.5,0,29.8,0,30,0z"/>
	<path class="st0" d="M33.6,49.5c0-3.8,0-7.5,0-11.3c-2.6,0-5.2,0-7.9,0c0,0.2,0,0.5,0,0.7c0,2.5,0,5,0,7.5c0,0.7-0.3,1.1-0.9,1.1
		c-0.6,0-0.9-0.4-0.9-1.1c0-4,0-8,0-12c0-0.7,0.2-1.3,0.7-1.7c0.1-0.1,0.2-0.3,0.2-0.4c0-1.3,0-2.5-0.2-3.8
		c-0.2-1.3-0.9-2.4-1.8-3.4c-0.7-0.7-0.7-1.2-0.3-2c1.6-3,3.5-5.8,5.6-8.4c0.8-1,2-1,2.8,0c2.1,2.7,4,5.5,5.6,8.5
		c0.3,0.6,0.4,1.2-0.1,1.7c-1.7,1.9-2.4,4.1-2.2,6.7c0,0.5,0.1,1,0.5,1.4c0.3,0.3,0.4,1,0.4,1.5c0,4.8,0,9.5,0,14.3
		c0,0.2,0,0.5,0,0.7c1.5,0.4,2.9-0.7,2.9-2.2c0-1.3,0-2.7,0.1-4c0.3-2.7,1.4-5.1,3.2-7.1c2.3-2.5,3.9-5.3,4.5-8.6
		c0.8-4.2,0.1-8.1-2-11.8c-0.5-0.8-0.4-1.3,0.1-1.6c0.5-0.3,0.9-0.1,1.4,0.7c4.1,7,3.2,15.8-2.2,21.8c-1.8,2-3.1,4.3-3.4,7
		c-0.1,1-0.1,2-0.1,3c0,2.6-0.8,3.8-3.3,4.7c0,1.5,0,2.9,0,4.4c0,2.7-1.6,4.3-4.3,4.3c-2,0-3.9,0-5.9,0c-2.4,0-4.1-1.7-4.1-4.1
		c0-1.5,0-3,0-4.6c-0.3-0.1-0.7-0.2-1-0.4c-1.5-0.8-2.2-2.1-2.3-3.8c0-1.5-0.1-2.9-0.3-4.4c-0.3-2.1-1.3-4-2.8-5.6
		c-2.7-2.9-4.5-6.3-5-10.3c-0.9-7.6,1.7-13.7,7.9-18c7.4-5.2,17.5-4.1,23.8,2.3c0.2,0.2,0.4,0.6,0.4,0.8c0,0.3-0.3,0.7-0.5,0.7
		c-0.3,0.1-0.7,0-1-0.2c-0.8-0.6-1.4-1.3-2.2-1.9C29.5,3.1,15,9.1,13,21.6c-0.8,5.2,0.5,9.9,4.1,13.8c2.6,2.9,4,6.3,3.9,10.2
		c0,0.5,0,1.1,0,1.6c0.1,1.3,1,2.3,2.3,2.3c3.4,0,6.7,0,10.1,0C33.4,49.6,33.5,49.5,33.6,49.5z M28.8,17.1c-0.1,0-0.2,0.1-0.2,0.1
		c-1.4,2.2-2.9,4.4-4.3,6.6c-0.1,0.1,0,0.4,0.1,0.5c1,1.2,1.7,2.6,2,4.1c0.1,0.4,0.2,0.5,0.6,0.5c1.7,0,3.5,0,5.2,0
		c0.4,0,0.6-0.1,0.7-0.5c0.4-1.4,1-2.7,1.9-3.9c0.2-0.3,0.2-0.5,0-0.8c-1.3-2-2.7-4.1-4-6.1c-0.1-0.1-0.2-0.2-0.4-0.4
		c0,0.4,0,0.6,0,0.8c0,2,0,4.1,0,6.1c0,0.2,0,0.4,0,0.5c0,0.6-0.4,0.9-0.9,0.9c-0.5,0-0.8-0.4-0.9-0.9c0-0.2,0-0.4,0-0.5
		c0-2.1,0-4.1,0-6.2C28.8,17.5,28.8,17.3,28.8,17.1z M24.3,53.6c0.3,0,0.5,0,0.7,0c2.3,0,4.7,0,7,0c0.2,0,0.5,0,0.7,0
		c0.4,0.1,0.7,0.4,0.7,0.8c0,0.4-0.3,0.7-0.7,0.8c-0.2,0-0.4,0-0.6,0c-2.4,0-4.7,0-7.1,0c-0.2,0-0.4,0-0.7,0
		c-0.2,1.9,0.7,2.8,2.5,2.8c2,0,4,0,6,0c1.2,0,2.1-0.7,2.2-1.9c0.1-1.7,0-3.3,0-5c-3.6,0-7.1,0-10.7,0
		C24.3,52.1,24.3,52.8,24.3,53.6z M25.7,34.1c0,0.8,0,1.5,0,2.3c2.6,0,5.2,0,7.8,0c0-0.8,0-1.5,0-2.3C30.9,34.1,28.4,34.1,25.7,34.1
		z M32.6,30.6c-2,0-4,0-5.9,0c0,0.6,0,1.2,0,1.7c2,0,4,0,5.9,0C32.6,31.7,32.6,31.2,32.6,30.6z"/>
	<path class="st0" d="M13.3,6.9c0.3,0.1,0.5,0.2,0.7,0.3c0.4,0.4,0.8,0.8,1.1,1.2c0.3,0.4,0.3,0.9,0,1.2c-0.3,0.3-0.8,0.3-1.2,0
		c-0.4-0.4-0.8-0.8-1.2-1.2c-0.2-0.2-0.2-0.7-0.1-0.9C12.7,7.2,13,7.1,13.3,6.9z"/>
	<path class="st0" d="M44.8,9.9c-0.2-0.2-0.5-0.3-0.6-0.5c-0.1-0.2-0.1-0.7,0-0.9c0.4-0.5,0.8-1,1.3-1.4c0.3-0.3,0.7-0.3,1.1,0
		c0.3,0.3,0.5,0.7,0.2,1c-0.4,0.5-0.9,1-1.4,1.5C45.2,9.8,45,9.8,44.8,9.9z"/>
	<path class="st0" d="M13.2,42.5c-0.2-0.2-0.5-0.3-0.6-0.5c-0.1-0.3-0.1-0.7,0.1-0.9c0.3-0.5,0.8-0.9,1.2-1.3c0.3-0.3,0.8-0.3,1.1,0
		c0.3,0.3,0.5,0.7,0.2,1c-0.4,0.5-1,1-1.5,1.5C13.6,42.4,13.5,42.4,13.2,42.5z"/>
	<path class="st0" d="M46.9,41.7c-0.1,0.2-0.3,0.5-0.5,0.6c-0.3,0.1-0.7,0.1-0.9-0.1c-0.5-0.4-0.9-0.8-1.3-1.3
		c-0.3-0.3-0.3-0.8,0.1-1c0.2-0.2,0.8-0.4,1-0.2c0.6,0.5,1.1,1,1.6,1.6C46.8,41.3,46.8,41.4,46.9,41.7z"/>
	<path class="st0" d="M7.4,25.6c-0.3,0-0.5,0-0.8,0c-0.5,0-0.8-0.3-0.8-0.8c0-0.5,0.2-0.9,0.7-0.9c0.6-0.1,1.2-0.1,1.9,0
		c0.5,0,0.8,0.4,0.7,0.9c0,0.5-0.3,0.8-0.8,0.8C7.9,25.6,7.6,25.6,7.4,25.6z"/>
	<path class="st0" d="M52,25.6c-0.3,0-0.6,0-0.9,0c-0.5,0-0.7-0.3-0.8-0.8c0-0.5,0.2-0.8,0.7-0.9c0.7-0.1,1.3-0.1,2,0
		c0.5,0,0.7,0.4,0.7,0.9c0,0.5-0.3,0.8-0.8,0.8C52.5,25.6,52.2,25.6,52,25.6z"/>
</g>
</svg>
