<?xml version="1.0" encoding="utf-8"?>
<!-- Generator: Adobe Illustrator 27.1.1, SVG Export Plug-In . SVG Version: 6.00 Build 0)  -->
<svg version="1.1" id="Layer_1" xmlns="http://www.w3.org/2000/svg" xmlns:xlink="http://www.w3.org/1999/xlink" x="0px" y="0px"
	 viewBox="0 0 151 143" style="enable-background:new 0 0 151 143;" xml:space="preserve">
<style type="text/css">
	.st0{display:none;}
	.st1{display:inline;fill:#222222;}
	.st2{display:inline;}
	.st3{display:inline;fill-rule:evenodd;clip-rule:evenodd;fill:#FFFFFF;}
	.st4{fill:#1A1718;}
</style>
<g class="st0">
	<path class="st1" d="M141.5,16.3c-0.7-1.1-1.3-2.2-2-3.4c-2.8-4.7-5.7-9.5-8.7-11.1c-4.4-2.2-8.1-0.1-14.7,3.8
		c-6.1,3.6-13.3,7.7-20.2,11.7c-5,2.9-9.7,5.6-14.1,8.1C82,24.7,82,23.9,82,23c-0.1-2.2-0.9-3.9-2.3-5c-1.9-1.6-4.7-2.1-8.7-1.7
		c-7.8,0.9-12.8,4.7-18,10c-3.1,3.2-5.3,7.6-6.5,12.4c-0.4-3.2-0.6-6.7-0.6-12.6c0-0.7,0.1-1.9,0.3-3.2c0.4-3.4,1-8-0.3-11.3
		c-1.7-4.3-4.9-6.3-9.4-5.9c-5,0.5-8,5-8.8,13.3c-0.6,5.4-0.2,11.2,1,17.4c-2.2-3.4-4.7-6.6-7.5-9.6c-2.9-3.2-5.7-4.4-8.3-3.6
		C10,24,8.5,27.1,8.5,29.8c0,2.6,1,5,2,7.1c10.8,22.3,20.3,40.9,29.5,59c7.7,15.1,14.9,29.3,22.6,44.9c0.3,0.6,1.1,0.9,1.7,0.6
		c0.6-0.3,0.9-1.1,0.6-1.7c-7.7-15.6-14.9-29.9-22.6-45c-9.2-18-18.7-36.7-29.5-58.9c-0.9-1.9-1.8-3.9-1.7-6c0-1.6,0.9-3.6,2.6-4.1
		c1.6-0.4,3.5,0.5,5.7,2.9c5.7,6.1,10.3,13.5,13.2,21.3c0.2,0.7,1,1,1.6,0.8c0.7-0.2,1-1,0.8-1.6c-4.2-11.3-5.7-21-4.8-29.7
		c0.7-6.9,2.9-10.6,6.5-11c3.4-0.3,5.5,1,6.8,4.3c1,2.7,0.5,6.9,0.2,10c-0.2,1.4-0.3,2.6-0.3,3.5c0.1,11.5,0.6,14.3,2.4,22.3
		c0.1,0.6,0.8,1.1,1.4,1c0.7-0.1,1.1-0.7,1.1-1.4c-0.5-7.5,2-15.2,6.6-19.9c4.9-5.1,9.4-8.4,16.4-9.2c3.2-0.4,5.5,0,6.8,1.1
		c0.8,0.7,1.3,1.8,1.4,3.2c0.1,2.3-0.8,4-2.8,5.3c-1,0.7-2.4,1.2-3.9,1.7s-3.1,1.1-4.4,1.9c-5.2,3.3-9.8,11.1-7.8,20
		c1.5,6.4,10,19.3,21.8,22.2c5.8,1.4,13.8-3.4,16-5c2.8-1.9,7.9-4.5,10.4-1.3c2.4,3.1,1.1,6.7-0.4,8.3C102.3,82.8,96,85.5,88,88.8
		l-1.2,0.5c-0.3,0.1-0.6,0.4-0.7,0.7c-0.1,0.3-0.1,0.7,0,1c2.2,4.6,4.1,9,6.3,14.1c2.7,6.3,5.8,13.5,10.2,22.7
		c0.3,0.6,1.1,0.9,1.7,0.6h0.1c0.6-0.3,0.8-1.1,0.5-1.7c-4.4-9.2-7.5-16.3-10.2-22.6c-1.9-4.5-3.7-8.7-5.7-13
		c8.2-3.5,14.7-6.2,21-13.1c2.5-2.7,3.5-7.7,0.5-11.6c-0.9-1.2-2.1-1.9-3.4-2.3c1.5-0.8,3.1-1.8,4.7-2.7c4.6-2.7,9.5-5.6,14.3-8.5
		c4.2-2.6,8.3-5,11.9-7.1c8.9-5.2,10.9-6.4,11.9-10.1C150.9,33,148.4,27.4,141.5,16.3z M139.2,17.5c-8.3,4.8-16.7,9.7-24.9,14.5
		C103.8,38.1,93,44.4,82.5,50.4c-0.6-1.1-3.6-6.3-3.9-6.9c0.3-0.2,19.6-11.4,28.8-16.8c9.1-5.3,18.4-10.8,27.6-16.1
		C135.8,11.8,138.6,16.5,139.2,17.5z M81.1,28.8C86,26,91.3,22.9,97,19.6c6.9-4,14.1-8.1,20.3-11.7c6.3-3.7,9.1-5.4,12.3-3.7
		c1.3,0.7,2.7,2.3,4.1,4.3c-9.1,5.3-18.5,10.8-27.5,16.1C96.7,30,87,35.7,77.5,41.2c-1.1-2.4-1.7-4.7-1.2-7.4
		C76.6,32.2,78.2,30.4,81.1,28.8z M82.8,71.8c-10.6-2.6-18.6-14.5-19.9-20.2c-1.8-7.8,2.2-14.4,6.7-17.3c1-0.7,2.4-1.2,3.9-1.7
		c0.2-0.1,0.4-0.1,0.6-0.2c-0.1,0.3-0.2,0.6-0.3,1c-0.9,5.2,1.3,9.1,3.7,13.3c0.3,0.5,2.7,4.8,3.5,6.2l0,0l0,0
		c6.2,10.9,9.3,14.5,12.9,15.5c0.3,0.1,0.5,0.1,0.8,0.2C90.6,70.8,86,72.6,82.8,71.8z M145.3,28c2.5,5,2.5,6.7,2.3,7.2
		c-0.8,2.6-2.1,3.5-10.8,8.6c-3.6,2.1-7.6,4.5-11.9,7.1c-7.3,4.4-14.9,9-21.3,12.4c-4,2.2-6.4,3.4-9.1,2.7
		c-2.6-0.7-5.5-4.1-10.7-13.2l6-3.5c8.6-5,17.3-10,25.8-15c8.2-4.8,16.7-9.7,25-14.5C142.2,22.3,143.9,25.3,145.3,28z"/>
	<circle class="st2" cx="17.5" cy="75.5" r="16.5"/>
	<path class="st3" d="M26.6,68.6c0.4,0.4,0.5,1,0.1,1.4L16.2,81.7c-0.4,0.4-1,0.4-1.4,0.1l-6.1-5.7c-0.4-0.4-0.4-1-0.1-1.4
		c0.4-0.4,1-0.5,1.5-0.1l4.7,4.2c0.4,0.4,1,0.3,1.4-0.1l9-10C25.6,68.3,26.2,68.3,26.6,68.6z"/>
</g>
<g>
	<path class="st4" d="M16.7,127.1c14.3-1.1,28.6-2.2,42.7-5.1c3.2-0.6,5.4-3.2,7.9-5.1c22-17,45.2-32.4,68.4-47.8
		c3.6-2.6,8.2-4.9,9-9.6c1-7-2.4-13.5-4.3-20c-3.1-7.8-6.6-16-13.4-21.3c-1.7-1.4-3.6-3.2-5.9-2.1c-9.4,2.8-17.8,7.9-26,13.2
		c-8.2,5.2-16.3,10.5-24.4,16c-17.2,11.9-34.7,23.6-50,37.9c-5,4.6-6.1,11.6-8.3,17.7c-2.5,8.2-5.6,16.3-6.1,25
		C9.5,127.4,13.1,127.7,16.7,127.1z M77.5,104.6c-5.7,4.1-11.6,8-17,12.5c1.4-8-4.6-16.5-12.7-17.8c-3.1-0.6-6.1,0.6-9.1,1.4
		C59.8,88,79.6,73.5,100,60c4.7-3.2,9.8-5.4,14.6-8.5c1.7,2.7,3.3,5.2,4.3,8.3c1.7,4.4,1.9,9.2,3.8,13.5
		C107.4,83.4,92.4,93.8,77.5,104.6z M98.9,31.2c7.3,2.8,15.2,5.6,20.2,12.1c6.2,7.2,8.3,16.6,9.8,25.7c-1.5,1-3,1.9-4.5,2.9
		c-1.7-7.2-2.8-14.7-7.2-20.7C111.9,43,103.8,36.5,94,34.5C95.6,33.4,97.3,32.3,98.9,31.2z M56.2,60.1C68,51.8,79.8,43.5,91.9,35.7
		c8.3,2.2,15.7,7.1,21.1,13.8c-14.1,7.3-26.8,17-39.8,25.9C62,83.4,50.4,90.8,39.4,99.1c-0.2-3.5-0.3-7.4-2.8-10.1
		c-3-3.2-7.8-3.6-11.9-3.4C34.6,76.5,45.1,67.8,56.2,60.1z M21.9,88.7c4.3-0.4,9.7-0.9,12.9,2.7c2.4,3.4,1.3,7.8,1.5,11.7
		c2.2,2.1,4.7-0.4,7-0.9c4.9-1.2,10.6,1.2,12.8,5.9c1.9,2.9,1.7,6.6,2.3,9.9c-9.8,1.9-19.7,3.4-29.6,4.2c-1.5-4-3.2-8.2-6.7-10.8
		c-2.4-1.7-5.2-2.6-8-3.3C16.6,101.6,18.5,94.8,21.9,88.7z"/>
	<path class="st4" d="M86.9,84.3c0.7,1.1,1,2.8,2.5,3.2c1.6,0.1,3-0.2,4.6-0.4C92.2,85,89.7,83.8,86.9,84.3z"/>
	<path class="st4" d="M86.2,89.2c-1.6-0.3-3.1,0.2-4.6,0.4c1.9,2.6,5,2.9,8.1,2.5C88.6,91,87.6,89.8,86.2,89.2z"/>
	<path class="st4" d="M78.9,94.8c2.1,0.3,4.2,0.6,6.3,0.6c-1.9-0.9-3.9-1.6-6-2.2C79.1,93.7,79,94.4,78.9,94.8z"/>
</g>
</svg>
