<?xml version="1.0" encoding="utf-8"?>
<!-- Generator: Adobe Illustrator 27.1.1, SVG Export Plug-In . SVG Version: 6.00 Build 0)  -->
<svg version="1.1" id="Layer_1" xmlns="http://www.w3.org/2000/svg" xmlns:xlink="http://www.w3.org/1999/xlink" x="0px" y="0px"
	 viewBox="0 0 60 60" style="enable-background:new 0 0 60 60;" xml:space="preserve">
<style type="text/css">
	.st0{fill:#FFFFFF;}
</style>
<g>
	<path class="st0" d="M0,6.9C0.2,6.3,0.3,5.6,0.6,5C1.3,3.2,3.1,1.4,6,1.4c14.5,0,29.1,0.1,43.6,0c3.6,0,5.8,2.8,6,5.6
		c0,0.5,0.1,1,0.1,1.5c0,8,0,16,0,24c0,0.3,0.1,0.7,0.3,0.9c1.4,1.2,1.3,3.2,0.1,4.2c0,0-0.1,0.1-0.1,0.1c0.2,0.6,0.5,1.2,0.7,1.8
		c0.1,0.2,0.3,0.3,0.5,0.3C59,40,60,41,60,42.7c0,0.6,0,1.3,0,1.9c0,1.5-1.1,2.6-2.6,2.6c-0.4,0-0.6,0.1-0.7,0.5
		c0,0.1-0.1,0.3-0.1,0.4c-0.4,0.7-0.6,1.3,0.1,2.1c0.7,0.8,0.5,2.2-0.3,3c-0.5,0.6-1.1,1.2-1.7,1.7c-1,0.9-2.5,0.9-3.6,0
		c-0.3-0.3-0.6-0.3-0.9-0.1c0,0,0,0-0.1,0c-1,0.3-1.7,0.7-1.8,1.9c-0.1,1.1-1.3,1.8-2.4,1.8c-0.7,0-1.4,0-2.2,0
		c-1.5,0-2.6-1-2.7-2.5c0-0.5-0.2-0.7-0.7-0.8c-0.9-0.4-1.6-0.7-2.5,0.1c-0.8,0.7-2.1,0.4-2.9-0.3c-0.6-0.6-1.2-1.1-1.7-1.7
		c-0.9-1-0.9-2.5,0-3.6c0.3-0.3,0.3-0.6,0.1-0.9c-0.1-0.2-0.2-0.5-0.3-0.7c-0.3-0.9-0.3-0.9-1.3-0.9c-2.9,0-5.8,0-8.7,0
		c-0.8,0-1.3-0.4-1.4-1c-0.1-0.8,0.4-1.4,1.3-1.4c2,0,4,0,6,0c0.2,0,0.4,0,0.7,0c0-0.8,0-1.5,0-2.1c0-1.8,0.9-2.8,2.7-2.9
		c0.2,0,0.4-0.2,0.5-0.4c0.3-0.6,0.5-1.1,0.7-1.8c-0.1-0.1-0.3-0.3-0.4-0.5c-0.9-1-0.9-2.5,0.1-3.5c0.5-0.5,1-1.1,1.6-1.6
		c1.1-1,2.6-1.1,3.7-0.1c0.3,0.3,0.5,0.3,0.9,0.1c0.1-0.1,0.2-0.1,0.4-0.2c0.9-0.2,1.3-0.6,1.4-1.6c0.1-1.1,1.1-1.8,2.1-1.9
		c0.8-0.1,1.7-0.1,2.5,0c1.5,0.1,2.5,1,2.6,2.5c0,0.4,0.1,0.6,0.5,0.7c0.5,0.1,0.9,0.4,1.4,0.5c0.2,0.1,0.4,0,0.5-0.1
		c0.6-0.6,1.4-0.9,2.3-0.9c0-4,0-7.9,0-11.9c-17,0-33.9,0-51,0c0,0.2,0,0.4,0,0.6c0,6.8,0,13.6,0,20.4c0,0.7,0.1,1.5,0.4,2.2
		c0.6,1.4,1.6,2.2,3.2,2.1c2.1,0,4.1,0,6.2,0c0.9,0,1.4,0.4,1.4,1.2c0,0.7-0.5,1.2-1.4,1.2c-2,0-4-0.1-6,0c-3.6,0.2-5.6-2.6-6.1-5.1
		C0.1,42,0,41.9,0,41.7C0,30.1,0,18.5,0,6.9z M2.4,17c17,0,34,0,51,0c0-0.5,0-0.9,0-1.4c0-2.7,0-5.5,0-8.2c-0.1-2.3-1.6-3.7-3.8-3.7
		c-14.4,0-28.9,0-43.3,0C4.1,3.8,2.7,4.9,2.5,7c-0.2,1.4-0.1,2.8-0.1,4.3C2.3,13.1,2.4,15,2.4,17z M54.7,51.5
		c-0.1-0.1-0.1-0.2-0.2-0.3c-0.2-0.2-0.5-0.5-0.7-0.7c-0.5-0.6-0.6-1-0.2-1.7c0.4-0.9,0.8-1.9,1.2-2.8c0.3-0.8,0.6-1.1,1.4-1.1
		c1.6,0,1.4,0.2,1.4-1.4c0-1.4,0.2-1.2-1.2-1.3c-0.1,0-0.1,0-0.2,0c-0.8,0-1.2-0.3-1.4-1.1c-0.3-0.9-0.7-1.9-1.1-2.7
		c-0.4-0.9-0.4-1.2,0.3-2c1-1.1,1-0.8,0-1.8c-1-1-1-1-2,0c-0.6,0.6-1,0.6-1.8,0.2c-0.9-0.4-1.8-0.8-2.7-1.1
		c-0.9-0.3-1.2-0.6-1.2-1.6c0-1.3,0-1.3-1.3-1.3c-1.4,0-1.4,0-1.4,1.4c0,0.9-0.3,1.2-1.1,1.4c-0.9,0.3-1.8,0.7-2.6,1.1
		c-1,0.5-1.3,0.5-2.1-0.3c-1-1-0.8-1-1.8,0c-1,1-1,1,0,2c0.6,0.6,0.6,1,0.2,1.8c-0.4,0.9-0.8,1.8-1.1,2.7c-0.3,0.9-0.6,1.2-1.6,1.2
		c-1.3,0-1.3,0-1.3,1.3c0,1.6-0.2,1.4,1.4,1.4c0.9,0,1.2,0.3,1.5,1.1c0.3,0.9,0.7,1.8,1.1,2.6c0.5,0.9,0.5,1.3-0.3,2
		c-0.9,0.9-0.9,0.9,0,1.8c1,1,1,1,2,0c0.6-0.6,1-0.6,1.8-0.2c0.8,0.4,1.6,0.8,2.5,1.1c1.3,0.4,1.5,0.6,1.5,1.9c0,1,0,1,1,1
		c0,0,0,0,0.1,0c1.6,0,1.6,0,1.6-1.6c0-0.7,0.3-1,1-1.3c0.7-0.2,1.5-0.5,2.1-0.8c1.8-0.8,1.8-0.8,3.2,0.5c0.1,0.1,0.4,0.2,0.4,0.2
		c0.6-0.5,1.1-1.1,1.7-1.6C54.7,51.6,54.7,51.6,54.7,51.5z"/>
	<path class="st0" d="M26.4,32.1c-0.9-1.1-1.8-2.1-2.7-3.1c-0.6-0.6-0.6-1.3,0-1.8c0.5-0.5,1.2-0.4,1.8,0.2c1,1.1,2.1,2.3,3.1,3.5
		c0.7,0.8,0.7,1.6,0,2.4c-1,1.2-2.1,2.4-3.2,3.5c-0.5,0.6-1.3,0.6-1.8,0.2c-0.5-0.5-0.5-1.2,0-1.7C24.5,34.2,25.5,33.2,26.4,32.1z"
		/>
	<path class="st0" d="M9.3,32.1c0.9,1,1.7,1.9,2.6,2.9c0.1,0.1,0.3,0.3,0.4,0.4c0.3,0.5,0.3,1.1-0.2,1.5c-0.4,0.4-1.1,0.4-1.5,0
		c-1.2-1.3-2.4-2.7-3.6-4c-0.5-0.5-0.4-1.3,0.1-1.9c1.1-1.3,2.2-2.5,3.3-3.8c0.5-0.5,1.2-0.5,1.7-0.1c0.5,0.4,0.5,1.1,0.1,1.7
		c-0.7,0.8-1.5,1.6-2.2,2.5C9.8,31.6,9.6,31.9,9.3,32.1z"/>
	<path class="st0" d="M20.2,27.4c-0.3,1.1-0.6,2.4-0.9,3.7c-0.5,2-0.9,3.9-1.4,5.9c0,0.1-0.1,0.2-0.1,0.3c-0.2,0.7-0.8,1-1.4,0.9
		c-0.6-0.1-1-0.7-0.9-1.4c0.4-1.9,0.9-3.9,1.4-5.8c0.3-1.3,0.6-2.5,0.9-3.8c0.1-0.5,0.4-0.9,0.9-1.1C19.5,25.9,20.2,26.5,20.2,27.4z
		"/>
	<path class="st0" d="M18.9,46c0,0.7-0.5,1.2-1.2,1.2c-0.6,0-1.2-0.6-1.2-1.2c0-0.6,0.5-1.1,1.2-1.2C18.4,44.9,18.9,45.4,18.9,46z"
		/>
	<path class="st0" d="M40.4,14.4c-1.8,0-3.6,0-5.4,0c-2,0-3.6-1.6-3.8-3.6c-0.2-1.9,1-3.7,2.9-4.2c0.4-0.1,0.8-0.2,1.2-0.2
		c3.4,0,6.8,0,10.2,0c1.7,0,3,0.8,3.7,2.3c0.7,1.5,0.5,2.9-0.6,4.2c-0.8,1-1.8,1.4-3.1,1.4C43.8,14.4,42.1,14.4,40.4,14.4
		C40.4,14.4,40.4,14.4,40.4,14.4z M40.4,8.9c-1.7,0-3.5,0-5.2,0c-1,0-1.7,0.7-1.7,1.6c0,0.9,0.7,1.6,1.7,1.6c3.4,0,6.9,0,10.3,0
		c0.7,0,1.2-0.3,1.5-0.9c0.5-1.1-0.2-2.3-1.5-2.3C43.8,8.8,42.1,8.9,40.4,8.9z"/>
	<path class="st0" d="M25.2,10.5c0,2.2-1.8,3.9-4,3.9c-2.2,0-4-1.8-4-4c0-2.2,1.8-3.9,4-3.9C23.4,6.5,25.2,8.3,25.2,10.5z
		 M22.8,10.5c0-0.9-0.7-1.6-1.6-1.6c-0.9,0-1.6,0.7-1.6,1.5c0,0.9,0.7,1.6,1.6,1.6C22.1,12.1,22.8,11.3,22.8,10.5z"/>
	<path class="st0" d="M7,10.5c0-2.2,1.8-4,4-4c2.2,0,3.9,1.8,3.9,3.9c0,2.2-1.8,4-4,4C8.8,14.4,7,12.6,7,10.5z M12.6,10.4
		c0-0.9-0.7-1.6-1.6-1.6c-0.9,0-1.6,0.7-1.6,1.6c0,0.9,0.7,1.6,1.6,1.6C11.8,12.1,12.6,11.3,12.6,10.4z"/>
	<path class="st0" d="M37.7,43.5c0-4,3.2-7.2,7.2-7.2c4,0,7.2,3.3,7.2,7.2c0,3.9-3.3,7.2-7.2,7.2C40.9,50.7,37.7,47.5,37.7,43.5z
		 M40.1,43.5c0,2.7,2.2,4.9,4.9,4.9c2.7,0,4.8-2.2,4.8-4.9c0-2.7-2.2-4.8-4.8-4.8C42.2,38.7,40.1,40.8,40.1,43.5z"/>
</g>
</svg>
