<?xml version="1.0" encoding="utf-8"?>
<!-- Generator: Adobe Illustrator 27.1.1, SVG Export Plug-In . SVG Version: 6.00 Build 0)  -->
<svg version="1.1" id="Layer_1" xmlns="http://www.w3.org/2000/svg" xmlns:xlink="http://www.w3.org/1999/xlink" x="0px" y="0px"
	 viewBox="0 0 47 50" style="enable-background:new 0 0 47 50;" xml:space="preserve">
<g>
	<path d="M0.1,2.5C0.5,1.9,1,1.8,1.4,2.4C4,5.6,6.5,8.8,9,11.9c0.4,0.5,0.3,1-0.2,1.2c-0.4,0.1-0.7-0.1-0.9-0.4
		C6,10.4,4.2,8.1,2.3,5.7C1.6,4.8,0.8,3.9,0.1,3C0.1,2.8,0.1,2.7,0.1,2.5z"/>
	<path d="M47.1,3.1c-2.5,3.2-5,6.3-7.4,9.5c-0.1,0.1-0.2,0.2-0.3,0.3c-0.3,0.4-0.7,0.4-1,0.2c-0.3-0.3-0.3-0.6,0-1
		c0.5-0.7,1-1.3,1.6-2c2-2.5,3.9-5,5.9-7.5c0.5-0.6,0.9-0.6,1.4,0C47.1,2.8,47.1,2.9,47.1,3.1z"/>
	<path d="M0.1,20.3c0.4-0.5,0.6-0.6,1.2-0.3c0.9,0.5,1.9,1,2.8,1.5c0.5,0.3,0.7,0.6,0.5,1C4.4,22.9,4,23,3.5,22.7
		c-0.9-0.5-1.9-1-2.8-1.5c-0.2-0.1-0.4-0.3-0.6-0.5C0.1,20.6,0.1,20.4,0.1,20.3z"/>
	<path d="M47.1,20.7c-0.2,0.2-0.4,0.4-0.7,0.5c-0.9,0.5-1.8,1-2.7,1.5c-0.2,0.1-0.6,0.1-0.8,0c-0.2-0.1-0.3-0.4-0.3-0.7
		c0-0.2,0.2-0.4,0.4-0.5c1-0.6,2-1.1,3-1.7c0.4-0.2,0.7-0.1,1.1,0.4C47.1,20.4,47.1,20.6,47.1,20.7z"/>
	<path d="M14,16.4c0-1,0-1.9,0-2.8c0-2.1,1.7-3.5,3.7-3.3c0.9,0.1,1.7,0.6,2.2,1.3c0.1,0.1,0.2,0.2,0.3,0.4c0.8-0.7,1.7-1,2.8-0.9
		c1,0.2,1.8,0.7,2.4,1.7c0.8-0.7,1.8-1.1,2.8-0.9c1.1,0.2,1.8,0.8,2.4,1.6c0.5-0.2,1-0.6,1.5-0.7c2-0.5,4,0.9,4.1,3.1
		c0.1,1.7,0,3.5,0,5.2c0,0.3,0,0.5-0.1,0.8c-0.4,0.8-0.3,1.6-0.3,2.5c0,0.4,0,0.8,0,1.2c0,0.5-0.3,0.8-0.7,0.8
		c-0.4,0-0.7-0.3-0.7-0.8c0-0.5,0-1,0-1.5c-1.8,0.7-3.3,0.2-4.3-1.3c-1.5,1.2-3,1.2-4.5,0.1c0.4,1.3,0.1,2.4-1,3.3
		c0.4,0.4,0.7,0.9,1.1,1.3c0.9,1.1,1.4,2.3,1.4,3.8c0,1.2,0,2.5,0,3.7c0,0.5-0.2,0.9-0.7,0.9c-0.4,0-0.7-0.3-0.7-0.9
		c0-1.2,0-2.4,0-3.5c0-1.2-0.4-2.2-1.1-3.1c-0.4-0.5-0.8-0.9-1.1-1.3c-0.8,0.2-1.6,0.5-2.5,0.7c-1.3,0.2-2.6,0-3.8-0.6
		c-0.8-0.4-1.7-0.8-2.5-1.2c-0.5-0.2-0.6-0.6-0.4-1c0.2-0.4,0.6-0.5,1.1-0.3c0.8,0.4,1.5,0.8,2.3,1.1c1.7,0.8,3.4,0.8,5.1-0.1
		c0.3-0.1,0.6-0.3,0.8-0.5c0.5-0.3,0.9-0.7,0.9-1.3c0-0.6-0.4-1-0.9-1.2c-2.4-1.3-4.7-2.5-7.1-3.8c-0.3-0.2-0.7-0.4-1-0.5
		c-1.5-0.7-3.1-0.4-4.2,0.9c-0.1,0.2-0.4,0.4-0.6,0.4c-0.2,0-0.5-0.1-0.7-0.3c-0.2-0.2-0.2-0.5,0-0.8c0.8-1.2,2-1.9,3.5-2
		C13.6,16.4,13.8,16.4,14,16.4z M29.7,17.7c0-0.9,0-1.7,0-2.6c0-1.1-0.8-1.9-1.9-1.9c-1,0-1.9,0.8-2,1.8c0,1.8,0,3.5,0,5.3
		c0,1.1,0.9,1.9,1.9,1.9c1.1,0,1.9-0.8,1.9-2C29.7,19.4,29.7,18.5,29.7,17.7z M31,18.4c0,0.8,0,1.6,0,2.4c0,0,0,0.1,0,0.1
		c0,1.1,0.8,1.9,1.9,1.9c1.1,0,1.9-0.8,1.9-1.9c0-1.6,0-3.3,0-4.9c0-1.1-0.9-1.9-1.9-1.9c-1.1,0-1.9,0.8-1.9,2
		C31,16.8,31,17.6,31,18.4z M24.2,21.3c0.1-0.4,0.2-0.8,0.2-1.1c0-1.9,0-3.9,0-5.8c0-1.1-0.8-1.9-1.9-2c-1.1,0-1.9,0.8-2,1.9
		c0,1.6,0,3.2,0,4.8c0,0.1,0.1,0.3,0.2,0.4C21.9,20.1,23,20.7,24.2,21.3z M19.2,18.7c0-0.7,0-1.3,0-1.8c0-1.2,0-2.3,0-3.5
		c-0.1-1-1-1.7-2-1.7c-1,0-1.8,0.8-1.8,1.8c0,1,0,2,0,3c0,0.1,0.1,0.3,0.2,0.3C16.8,17.4,18,18,19.2,18.7z"/>
	<path d="M32.3,43.9c0-1.1,0-2.3,0-3.4c0-0.4,0.1-0.9,0.3-1.2c1.4-2,1.9-4.1,1.7-6.5c-0.1-1.4,0-2.7,0-4.1c0-0.6,0.2-0.9,0.7-0.9
		c0.4,0,0.7,0.3,0.7,0.9c0,2,0,4,0,6c0,1.4-0.3,2.7-1.1,3.9c-0.8,1.1-1.1,2.3-1,3.6c0.1,1.8,0,3.6,0,5.4c0,0.6-0.2,0.9-0.7,0.9
		c-0.4,0-0.7-0.3-0.7-0.9C32.3,46.3,32.3,45.1,32.3,43.9z"/>
	<path d="M6.8,26.9c0-1.2,0.2-2.4,0.7-3.4c0.3-0.7,0.7-1.4,1-2.1c0.2-0.5,0.6-0.6,1-0.4c0.4,0.2,0.5,0.6,0.3,1.1
		c-0.3,0.6-0.5,1.1-0.8,1.6c-1.4,2.8-0.9,5.8,1.2,8.2c0.8,0.9,1.7,1.9,2.5,2.8c0.1,0.1,0.1,0.2,0.2,0.2c0.2,0.3,0.2,0.7-0.1,0.9
		c-0.3,0.2-0.7,0.3-0.9,0c-1.2-1.4-2.5-2.8-3.7-4.3C7.2,30.1,6.8,28.5,6.8,26.9z"/>
	<path d="M17.4,44c0,1.2,0,2.3,0,3.5c0,0.6-0.2,0.8-0.7,0.9c-0.4,0-0.7-0.3-0.7-0.9c0-2.2,0-4.4,0-6.5c0-0.3-0.1-0.6-0.3-0.9
		c-0.6-0.6-1.2-1.3-1.8-2c-0.4-0.4-0.4-0.8-0.1-1.1c0.3-0.3,0.7-0.3,1.1,0.2c0.7,0.8,1.5,1.6,2.1,2.4c0.2,0.2,0.3,0.5,0.3,0.8
		C17.4,41.7,17.4,42.8,17.4,44z"/>
	<path d="M16.3,7.9c-0.2,0.2-0.3,0.5-0.5,0.5c-0.2,0.1-0.5,0-0.7-0.1c-0.1,0-0.2-0.2-0.3-0.3c-1.1-1.7-2.1-3.3-3.2-5
		c0-0.1-0.1-0.2-0.1-0.2c-0.2-0.4-0.1-0.7,0.2-0.9c0.3-0.2,0.6-0.1,0.9,0.2c0.1,0.2,0.2,0.4,0.4,0.5c1,1.5,2,3.1,3,4.6
		C16.1,7.4,16.1,7.6,16.3,7.9z"/>
	<path d="M31.8,8.5c-0.6,0-0.9-0.4-0.8-0.8c0-0.1,0.1-0.3,0.2-0.4c1.1-1.7,2.2-3.4,3.2-5C34.5,2.2,34.6,2,34.7,2
		c0.3,0,0.6-0.1,0.8,0c0.2,0.1,0.2,0.5,0.3,0.7c0,0.1-0.1,0.2-0.1,0.3c-1.1,1.7-2.2,3.4-3.3,5C32.2,8.3,31.9,8.4,31.8,8.5z"/>
	<path d="M2.5,46.4C2.3,46.2,2,46.1,2,45.9c-0.1-0.2-0.1-0.5,0.1-0.7c0.2-0.3,0.4-0.5,0.7-0.8c1-1.2,2.1-2.4,3.1-3.6
		c0.3-0.3,0.5-0.4,0.9-0.3c0.4,0.2,0.5,0.7,0.1,1.2c-0.9,1.1-1.8,2.1-2.7,3.2c-0.3,0.4-0.6,0.8-1,1.1C3,46.1,2.8,46.2,2.5,46.4z"/>
	<path d="M45.6,45.6c-0.2,0.2-0.3,0.5-0.5,0.6c-0.2,0.1-0.5,0-0.7-0.1c-0.2-0.1-0.4-0.4-0.6-0.6c-1.1-1.3-2.2-2.5-3.2-3.8
		c-0.2-0.2-0.3-0.5-0.3-0.7c0-0.2,0.3-0.5,0.5-0.5c0.2,0,0.6,0.1,0.8,0.3c0.9,0.9,1.7,1.9,2.5,2.9c0.4,0.5,0.8,0.9,1.2,1.4
		C45.4,45.2,45.5,45.4,45.6,45.6z"/>
	<path d="M1,33.9c-0.2-0.2-0.4-0.3-0.5-0.6c-0.2-0.3,0-0.6,0.3-0.8c0.4-0.3,0.9-0.6,1.4-0.8c0.5-0.3,1-0.6,1.5-0.9
		c0.4-0.2,0.8-0.2,1,0.2c0.2,0.4,0.1,0.7-0.3,1c-0.9,0.6-1.9,1.1-2.8,1.7C1.4,33.8,1.2,33.8,1,33.9z"/>
	<path d="M43.2,30.6c0.3,0.1,0.4,0.2,0.6,0.2c0.9,0.5,1.8,1.1,2.7,1.6c0.5,0.3,0.6,0.7,0.4,1c-0.2,0.4-0.6,0.4-1.1,0.2
		C44.9,33.1,44,32.5,43,32c-0.3-0.2-0.5-0.5-0.3-0.8C42.8,30.9,43.1,30.8,43.2,30.6z"/>
	<path d="M21.7,6c-0.2,0.2-0.4,0.5-0.6,0.6c-0.3,0.1-0.6,0-0.8-0.3c-0.3-0.8-0.6-1.6-0.8-2.5c-0.1-0.3,0.1-0.6,0.4-0.7
		c0.3-0.1,0.7-0.1,0.8,0.2C21.1,4.1,21.4,5,21.7,6z"/>
	<path d="M26.8,3c0.6,0,0.9,0.4,0.8,0.9c-0.2,0.8-0.5,1.6-0.8,2.4c-0.1,0.4-0.5,0.5-0.8,0.4c-0.3-0.1-0.5-0.5-0.4-0.8
		c0.2-0.8,0.5-1.5,0.8-2.3C26.4,3.2,26.7,3.1,26.8,3z"/>
	<path d="M9.5,36.8c0.2,0.1,0.4,0.2,0.5,0.4c0.1,0.2,0.1,0.5,0,0.7c-0.3,0.5-0.8,1-1.2,1.4c-0.3,0.3-0.6,0.3-0.9,0
		c-0.3-0.2-0.4-0.6-0.1-0.9C8.1,38,8.6,37.5,9,37C9.1,36.9,9.3,36.9,9.5,36.8z"/>
	<path d="M39.7,38.9c-0.1,0.1-0.3,0.4-0.5,0.5c-0.2,0.1-0.6,0-0.7-0.1c-0.4-0.4-0.8-0.9-1.2-1.4c-0.2-0.3-0.2-0.6,0.1-0.8
		c0.2-0.3,0.6-0.3,0.8-0.1c0.5,0.5,0.9,1.1,1.4,1.6C39.7,38.6,39.7,38.7,39.7,38.9z"/>
</g>
</svg>
