<?xml version="1.0" encoding="utf-8"?>
<!-- Generator: Adobe Illustrator 27.1.1, SVG Export Plug-In . SVG Version: 6.00 Build 0)  -->
<svg version="1.1" id="Layer_1" xmlns="http://www.w3.org/2000/svg" xmlns:xlink="http://www.w3.org/1999/xlink" x="0px" y="0px"
	 viewBox="0 0 151 143" style="enable-background:new 0 0 151 143;" xml:space="preserve">
<style type="text/css">
	.st0{display:none;}
	.st1{display:inline;fill:#222222;}
	.st2{display:inline;}
	.st3{display:inline;fill-rule:evenodd;clip-rule:evenodd;fill:#FFFFFF;}
	.st4{fill:#1A1718;}
</style>
<g class="st0">
	<path class="st1" d="M141.5,16.3c-0.7-1.1-1.3-2.2-2-3.4c-2.8-4.7-5.7-9.5-8.7-11.1c-4.4-2.2-8.1-0.1-14.7,3.8
		c-6.1,3.6-13.3,7.7-20.2,11.7c-5,2.9-9.7,5.6-14.1,8.1C82,24.7,82,23.9,82,23c-0.1-2.2-0.9-3.9-2.3-5c-1.9-1.6-4.7-2.1-8.7-1.7
		c-7.8,0.9-12.8,4.7-18,10c-3.1,3.2-5.3,7.6-6.5,12.4c-0.4-3.2-0.6-6.7-0.6-12.6c0-0.7,0.1-1.9,0.3-3.2c0.4-3.4,1-8-0.3-11.3
		c-1.7-4.3-4.9-6.3-9.4-5.9c-5,0.5-8,5-8.8,13.3c-0.6,5.4-0.2,11.2,1,17.4c-2.2-3.4-4.7-6.6-7.5-9.6c-2.9-3.2-5.7-4.4-8.3-3.6
		C10,24,8.5,27.1,8.5,29.8c0,2.6,1,5,2,7.1c10.8,22.3,20.3,40.9,29.5,59c7.7,15.1,14.9,29.3,22.6,44.9c0.3,0.6,1.1,0.9,1.7,0.6
		c0.6-0.3,0.9-1.1,0.6-1.7c-7.7-15.6-14.9-29.9-22.6-45c-9.2-18-18.7-36.7-29.5-58.9c-0.9-1.9-1.8-3.9-1.7-6c0-1.6,0.9-3.6,2.6-4.1
		c1.6-0.4,3.5,0.5,5.7,2.9c5.7,6.1,10.3,13.5,13.2,21.3c0.2,0.7,1,1,1.6,0.8c0.7-0.2,1-1,0.8-1.6c-4.2-11.3-5.7-21-4.8-29.7
		c0.7-6.9,2.9-10.6,6.5-11c3.4-0.3,5.5,1,6.8,4.3c1,2.7,0.5,6.9,0.2,10c-0.2,1.4-0.3,2.6-0.3,3.5c0.1,11.5,0.6,14.3,2.4,22.3
		c0.1,0.6,0.8,1.1,1.4,1c0.7-0.1,1.1-0.7,1.1-1.4c-0.5-7.5,2-15.2,6.6-19.9c4.9-5.1,9.4-8.4,16.4-9.2c3.2-0.4,5.5,0,6.8,1.1
		c0.8,0.7,1.3,1.8,1.4,3.2c0.1,2.3-0.8,4-2.8,5.3c-1,0.7-2.4,1.2-3.9,1.7s-3.1,1.1-4.4,1.9c-5.2,3.3-9.8,11.1-7.8,20
		c1.5,6.4,10,19.3,21.8,22.2c5.8,1.4,13.8-3.4,16-5c2.8-1.9,7.9-4.5,10.4-1.3c2.4,3.1,1.1,6.7-0.4,8.3C102.3,82.8,96,85.5,88,88.8
		l-1.2,0.5c-0.3,0.1-0.6,0.4-0.7,0.7c-0.1,0.3-0.1,0.7,0,1c2.2,4.6,4.1,9,6.3,14.1c2.7,6.3,5.8,13.5,10.2,22.7
		c0.3,0.6,1.1,0.9,1.7,0.6h0.1c0.6-0.3,0.8-1.1,0.5-1.7c-4.4-9.2-7.5-16.3-10.2-22.6c-1.9-4.5-3.7-8.7-5.7-13
		c8.2-3.5,14.7-6.2,21-13.1c2.5-2.7,3.5-7.7,0.5-11.6c-0.9-1.2-2.1-1.9-3.4-2.3c1.5-0.8,3.1-1.8,4.7-2.7c4.6-2.7,9.5-5.6,14.3-8.5
		c4.2-2.6,8.3-5,11.9-7.1c8.9-5.2,10.9-6.4,11.9-10.1C150.9,33,148.4,27.4,141.5,16.3z M139.2,17.5c-8.3,4.8-16.7,9.7-24.9,14.5
		C103.8,38.1,93,44.4,82.5,50.4c-0.6-1.1-3.6-6.3-3.9-6.9c0.3-0.2,19.6-11.4,28.8-16.8c9.1-5.3,18.4-10.8,27.6-16.1
		C135.8,11.8,138.6,16.5,139.2,17.5z M81.1,28.8C86,26,91.3,22.9,97,19.6c6.9-4,14.1-8.1,20.3-11.7c6.3-3.7,9.1-5.4,12.3-3.7
		c1.3,0.7,2.7,2.3,4.1,4.3c-9.1,5.3-18.5,10.8-27.5,16.1C96.7,30,87,35.7,77.5,41.2c-1.1-2.4-1.7-4.7-1.2-7.4
		C76.6,32.2,78.2,30.4,81.1,28.8z M82.8,71.8c-10.6-2.6-18.6-14.5-19.9-20.2c-1.8-7.8,2.2-14.4,6.7-17.3c1-0.7,2.4-1.2,3.9-1.7
		c0.2-0.1,0.4-0.1,0.6-0.2c-0.1,0.3-0.2,0.6-0.3,1c-0.9,5.2,1.3,9.1,3.7,13.3c0.3,0.5,2.7,4.8,3.5,6.2l0,0l0,0
		c6.2,10.9,9.3,14.5,12.9,15.5c0.3,0.1,0.5,0.1,0.8,0.2C90.6,70.8,86,72.6,82.8,71.8z M145.3,28c2.5,5,2.5,6.7,2.3,7.2
		c-0.8,2.6-2.1,3.5-10.8,8.6c-3.6,2.1-7.6,4.5-11.9,7.1c-7.3,4.4-14.9,9-21.3,12.4c-4,2.2-6.4,3.4-9.1,2.7
		c-2.6-0.7-5.5-4.1-10.7-13.2l6-3.5c8.6-5,17.3-10,25.8-15c8.2-4.8,16.7-9.7,25-14.5C142.2,22.3,143.9,25.3,145.3,28z"/>
	<circle class="st2" cx="17.5" cy="75.5" r="16.5"/>
	<path class="st3" d="M26.6,68.6c0.4,0.4,0.5,1,0.1,1.4L16.2,81.7c-0.4,0.4-1,0.4-1.4,0.1l-6.1-5.7c-0.4-0.4-0.4-1-0.1-1.4
		c0.4-0.4,1-0.5,1.5-0.1l4.7,4.2c0.4,0.4,1,0.3,1.4-0.1l9-10C25.6,68.3,26.2,68.3,26.6,68.6z"/>
</g>
<g>
	<path class="st4" d="M9.8,64.4C8.5,66.8,7,69,5.6,71.3c-1.1,1.5-0.4,3.5-0.3,5.2c5-2.5,9.8-5.3,14.6-8.1c2,2,4.5,3.9,5,6.9
		c0.7,3.8,1.1,7.8,2.3,11.5c1.7,6.1,5,11.7,9.2,16.3c6.1,6.5,13.9,11.2,21.7,15.5c10.5,5.4,22.2,9.1,34.1,8.1
		c4.2-0.7,8.6,1.7,12.6-0.5c2.1-0.9,2.8-3.8,5.3-4c3.1-0.5,6.4-0.5,9.4-1.8c2.8-1.1,5.8-3,6.6-6.1c4.4,0.2,8.9,0.6,13.2-0.4
		c2.4-0.6,4.9-2,5.8-4.5c0-3.1-3.2-4.6-5.6-5.5c4.1-0.6,8.8-1.9,11.2-5.6c1.2-1.6-0.4-3.4-1.8-4.2c-4-2.3-8.6-3.3-13.1-4.4
		c-7.7-1.9-15.6-2.3-23.5-2.1c5.8-2.2,10.9-5.8,15.2-10.2c2.1-2.2,4.8-4.3,5.4-7.5c0.3-1.9-1.4-3.2-2.6-4.3c2.5-1.4,5.2-2.7,7.2-4.9
		c1.3-1.6,2.2-4.2,0.5-5.9c-2.2-2.5-5.8-2.5-8.9-2.5c2.4-2,5.3-4,5.6-7.3c0-1.4-1.3-2-2.4-2.4c-3.1-1-6.4,0-9.4,0.7
		c2.5-2.4,4.9-4.9,6.6-8c0.8-1.5,1.4-3.4,0.7-5.1c-0.9-1.4-2.8-1.7-4.4-1.6c-4.4,0.3-8.7,1.6-12.9,3c1.1-2,2.8-4.4,1.7-6.7
		c-1.2-2.3-4.3-2.3-6.5-1.7c0.5-1.6,1.5-3.2,1.3-4.9c-0.7-2.6-4.1-2.9-6.3-2.2c-5.5,1.7-10,5.6-14.1,9.6c-3.9,3.9-7.6,8-11.1,12.2
		c-4,4.8-7.5,10.1-11.4,15c-2.3-3.1-5.1-5.9-8.5-7.7c-5.9-3.3-12.2-6.4-19-7c-5.6-0.5-11.6,0.2-16.4,3.3c-3.8,2.4-5.9,6.6-7.2,10.8
		C10.5,55,4.8,56.4,0,59.7c0.3,0.7,0,2.1,1,2.3C4,62.7,6.9,63.4,9.8,64.4z M53.3,113.6c-7.2-4.2-14.4-8.9-19.2-15.8
		c-3.8-5.2-5.8-11.4-6.8-17.7c4.4-1.8,8.8-3.8,13.7-3.8c6.1-0.3,11.7,2.6,17.1,5.3c5.5,2.7,9.9,7.2,14.5,11.1
		c4.3,4.5,8.8,9.1,11.3,14.9c2.7,5.1,3.3,11.1,3.6,16.8C75.4,123.5,63.7,119.7,53.3,113.6z M116.4,33.2c4-1.1,8.1-2.5,12.2-1.8
		c-1.8,6.2-7.8,9.7-11.9,14.2c0.5,0.8,1,1.6,1.6,2.4c4.5-1.3,9.1-3.6,13.9-2.5c-1.8,2.5-4.5,4.1-6.4,6.5c-0.8,0.8,0.2,2.1,0.9,2.6
		c3.5,0.3,7.5-0.3,10.4,2.2c-2,4.1-6.6,5.4-10,8c0.4,2.1,2.6,2.8,3.9,4.3c-0.1,1.8-1.7,3-2.8,4.3c-4.5,4.3-9.3,8.6-15.1,11.2
		c-4.6,2.1-9.5,3.8-14.5,4.7c-4.7,1-9.6,0.1-14.2-1.2c-4.5-1.6-8.7-4.3-11.8-8c-2.7-2.9-5.4-6-6.8-9.8c-0.3-2.8,0.5-5.9,2.5-8
		c6.6-6.8,14.3-12.4,22.2-17.5C98.4,39.7,107.3,36.1,116.4,33.2z M18.8,51.5c1.7-4.3,5.4-7.6,9.9-8.8c7.4-2.1,15.4-0.5,22.4,2.7
		c4.2,2,8.6,3.9,11.9,7.3c2.1,2.2,4.4,4.2,6.2,6.6c-2.2,2.7-5.6,4.8-6.3,8.5c-1.1,3.9,1.8,7.2,3.7,10.3c2.6,3.3,5.5,6.7,9.1,8.9
		c8.3,5.2,18.9,6.4,28.1,3.5c1.7-0.4,3.3-1.2,5-1.3c7.6,0.9,15.4,0.7,22.9,2.5c5.7,1.4,11.6,2.5,16.6,5.7c-3.9,3.3-9.2,2.8-13.8,4.2
		c-1.8,0.3-1.6,2.6-1.1,3.9c2.7,1.4,6,1.7,8.3,3.9c-6.4,2.9-13.6,1.5-20.3,0.9c-0.6,1.7-0.2,3.4,0.9,4.9c-2.7,1.6-5.7,2.3-8.7,2.6
		c-2.5,0.3-5.3,0.3-7.3,2.1c-1.1,0.9-1.8,2.4-3.2,2.9c-4.3,1.1-8.6,2.7-13.1,1.8c-1.1-6.2-2-12.5-5.2-18.1
		c-2.2-4.7-5.8-8.6-9.3-12.4c-2.5-3-5.7-5.2-8.5-7.8c-5-4.6-11.3-7.7-17.5-10.3c-7.3-3.1-15.7-1.7-22.5,2c-0.4-2.6-0.8-5.3-2.5-7.4
		c-2.1-2.7-5-4.9-6.3-8.2C16.6,58.9,17.5,54.9,18.8,51.5z"/>
	<path class="st4" d="M101.3,79.2c4.6,0,9.2-1.5,13.1-3.8c1.8-1.1,3.7-3.1,3.3-5.4c-0.4-2.2-2.7-3.2-4.6-4c2.3-1.5,5.2-2.9,6.1-5.8
		c-0.5-3.3-4.6-2.9-7.1-2.7c1.9-2,3.9-4.1,4.7-6.7c0.6-1.9-1.5-3.4-3.2-3.6c-4.2-0.5-8.4,1.3-11.8,3.6c0,0.5,0,1.5,0,2
		c3.9-1.9,8.2-3.6,12.6-2.6c-1.7,3-4.2,5.3-6.5,7.6c-1.1,0.9-1.1,2.4-0.8,3.7c3.1-0.5,6-1.7,9.2-1.3c-1.8,1.7-4,2.9-6,4.4
		c-0.8,0.6-0.8,1.7-0.8,2.6c2.1,1.3,5.1,0.9,6.4,3.4C112.3,75.2,106.4,76.9,101.3,79.2z"/>
	<path class="st4" d="M111.8,110.2c-0.5-1.8-1.2-3.9-3.3-4.4C109.1,107.6,110.1,109.2,111.8,110.2z"/>
	<path class="st4" d="M106.9,113.3c-0.7-1.5-1.5-2.9-2.5-4.2c-0.6,0.2-1.2,0.5-1.8,0.7C103.9,111.2,105.4,112.3,106.9,113.3z"/>
	<path class="st4" d="M96.5,61.9c0.7,3.9-5.4,3.7-5.2,7.4c2.4,0.2,4.9,0.7,6.4,2.7c-2.1,3.1-5.4,4.9-8.2,7.1c4.4,0,9.6-1.9,11.4-6.2
		c0.5-2.9-2.4-4.8-4.9-5.6c1.1-1.1,2.4-2.2,2.7-3.8c0.5-1.7-0.5-3.7-2.2-4.3c-2.7-1.1-5.7-0.3-8,1.3C91.1,60.6,94.8,59.3,96.5,61.9z
		"/>
	<path class="st4" d="M103.1,116.5c-0.5-2.2-1.5-4.3-3.6-5.1C100.1,113.4,101.4,115.2,103.1,116.5z"/>
	<path class="st4" d="M83.7,68.3c1.6,0.9,4.1,1.4,4.6,3.5c-0.6,2.3-2.7,3.8-4,5.6c2.8-1,6.2-3.2,5.9-6.5C89,68.4,86,67.9,83.7,68.3z
		"/>
	<path class="st4" d="M68.5,116.3c0.1-2.1,0.4-4.5-1.3-6C67.5,112.3,67.9,114.3,68.5,116.3z"/>
	<path class="st4" d="M63.3,107.7c0.1,2.6,0.6,5.3,1.3,7.8C64.9,112.9,65.9,109.4,63.3,107.7z"/>
	<path class="st4" d="M33.9,53.2c0.5-2-2.3-3.1-3.9-2.3c-3.1,0.6-4.2,4.2-2.7,6.7C30.1,57.6,33.2,56,33.9,53.2z"/>
</g>
</svg>
