<?xml version="1.0" encoding="utf-8"?>
<!-- Generator: Adobe Illustrator 27.1.1, SVG Export Plug-In . SVG Version: 6.00 Build 0)  -->
<svg version="1.1" id="Layer_1" xmlns="http://www.w3.org/2000/svg" xmlns:xlink="http://www.w3.org/1999/xlink" x="0px" y="0px"
	 viewBox="0 0 60 60" style="enable-background:new 0 0 60 60;" xml:space="preserve">
<style type="text/css">
	.st0{fill:#FFFFFF;}
</style>
<g>
	<path class="st0" d="M0.1,25.7c0.1-0.3,0.2-0.6,0.3-0.9c0.6-1.3,1.6-2.2,3-2.5c0.4-0.1,0.6-0.2,0.8-0.6c1.8-5.2,4.8-9.5,9.2-12.9
		c0.1,0,0.1-0.1,0.2-0.1c0.5-0.3,1-0.3,1.3,0.1c0.3,0.4,0.2,0.9-0.2,1.3c-0.9,0.8-1.8,1.6-2.7,2.4c-0.4,0.3-0.7,0.7-1.1,1.1
		c0.3,0,0.4,0.1,0.5,0.1c3.1,0,6.2,0,9.3,0c0.2,0,0.6-0.1,0.7-0.3c1.8-2.9,3.8-5.7,6.2-8.3c-0.8,0.1-1.7,0.2-2.5,0.4
		c-2.3,0.4-4.5,1.2-6.6,2.3c0,0-0.1,0-0.1,0.1c-0.6,0.3-1.1,0.2-1.4-0.3c-0.2-0.5,0-1,0.5-1.2c1.3-0.6,2.5-1.2,3.9-1.6
		c14.2-4.6,29,2.5,34.2,16.4c0.3,0.8,0.6,1.4,1.6,1.6c1.7,0.4,2.8,2.1,2.8,3.8c0,2.7,0,5.3,0,8c0,2-1.4,3.6-3.4,4
		c-0.4,0.1-0.6,0.2-0.7,0.7c-1.6,4.8-4.3,8.8-8.2,12.1c-0.1,0.1-0.2,0.2-0.3,0.2c-0.4,0.3-0.9,0.3-1.3,0c-0.3-0.4-0.3-0.9,0.1-1.3
		c0.8-0.8,1.6-1.5,2.4-2.3c0.1-0.1,0.2-0.3,0.4-0.5c-0.3,0-0.4,0-0.6,0c-3.1,0-6.1,0-9.2,0c-0.2,0-0.6,0.2-0.7,0.4
		c-1.7,2.9-3.7,5.6-6,8c0,0.1-0.1,0.1-0.1,0.2c0,0.1,0,0.1,0.1,0.2c1.5-0.3,2.9-0.6,4.4-0.9c2-0.5,3.9-1.3,5.7-2.3
		c0.2-0.1,0.4-0.3,0.6-0.3c0.3,0.1,0.8,0.2,0.9,0.4c0.1,0.2,0,0.7-0.1,1c0,0.1-0.2,0.2-0.4,0.3c-4.7,2.6-9.7,3.8-15,3.6
		c-11.3-0.6-21-8.2-24.4-18.7c-0.1-0.2-0.3-0.4-0.5-0.5c-1.9-0.4-3.1-1.5-3.5-3.4c0,0,0-0.1-0.1-0.1C0.1,31.8,0.1,28.7,0.1,25.7z
		 M30.1,36.6c8.5,0,17,0,25.5,0c1.7,0,2.7-1,2.7-2.7c0-2.4,0-4.9,0-7.3c0-1.6-1-2.6-2.6-2.6c-17.1,0-34.1,0-51.2,0
		c-1.7,0-2.6,1-2.7,2.7c0,2.3,0,4.7,0,7c0,2,0.9,2.9,2.9,2.9C13.2,36.6,21.7,36.6,30.1,36.6z M40.9,22.1c0-0.1,0-0.2,0-0.3
		c-0.9-2.1-1.8-4.2-2.8-6.3c-0.1-0.2-0.4-0.3-0.6-0.3c-4.9,0-9.8,0-14.8,0c-0.4,0-0.6,0.1-0.7,0.4c-0.9,2-1.7,4-2.6,6
		c-0.1,0.1-0.1,0.3-0.1,0.5C26.5,22.1,33.7,22.1,40.9,22.1z M41.1,38.4c-7.4,0-14.6,0-21.8,0c0.1,0.2,0.1,0.3,0.1,0.4
		c0.9,2,1.7,4,2.6,6c0.2,0.4,0.4,0.5,0.9,0.5c4.7,0,9.4,0,14.2,0c0.7,0,1.1-0.2,1.3-0.8C39.3,42.5,40.2,40.5,41.1,38.4z M40,45.2
		c0.2,0,0.2,0,0.3,0c3.3,0,6.7,0,10,0c0.2,0,0.5-0.2,0.6-0.4c0.9-1.6,1.8-3.3,2.7-4.9c0.3-0.5,0.4-1.1,0.6-1.6c-0.1,0-0.2,0-0.3,0
		c-3.6,0-7.2,0-10.8,0c-0.4,0-0.4,0.2-0.5,0.5c-0.5,1.3-0.9,2.6-1.5,3.8C40.9,43.5,40.4,44.3,40,45.2z M20.2,15.3
		c-0.1,0-0.2-0.1-0.3-0.1c-3.4,0-6.8,0-10.1,0c-0.2,0-0.5,0.2-0.6,0.4c-0.9,1.6-1.8,3.3-2.7,4.9c-0.3,0.5-0.4,1.1-0.6,1.6
		c0.1,0,0.2,0.1,0.2,0.1c3.6,0,7.3,0,10.9,0c0.4,0,0.4-0.2,0.5-0.5c0.7-1.8,1.4-3.5,2.1-5.3C19.9,16,20,15.7,20.2,15.3z M40,15.2
		c0.1,0.2,0.1,0.3,0.1,0.3c0.9,2.1,1.7,4.2,2.6,6.3c0.2,0.4,0.4,0.4,0.7,0.4c3.5,0,6.9,0,10.4,0c0.2,0,0.3,0,0.6,0
		c-0.1-0.2-0.1-0.4-0.2-0.6c-0.8-2.1-1.8-4.1-3.1-5.9c-0.2-0.3-0.5-0.5-0.9-0.5c-3.2,0-6.4,0-9.6,0C40.4,15.2,40.2,15.2,40,15.2z
		 M20.2,45.2c-0.1-0.1-0.1-0.2-0.1-0.3c-0.9-2.1-1.7-4.2-2.6-6.3c-0.2-0.4-0.4-0.4-0.7-0.4c-3.5,0-6.9,0-10.4,0c-0.2,0-0.3,0-0.5,0
		c0,0.1,0,0.2,0,0.2C6.8,40.9,7.9,43,9.3,45c0.1,0.2,0.4,0.3,0.6,0.3c3.3,0,6.6,0,9.9,0C19.9,45.3,20.1,45.3,20.2,45.2z M49.3,13.4
		c-4.6-5-10.1-7.9-16.8-8.6c0.1,0.2,0.2,0.3,0.3,0.3c2.3,2.4,4.3,5,6,7.9c0.2,0.3,0.4,0.4,0.8,0.4c3,0,6.1,0,9.1,0
		C48.8,13.4,49,13.4,49.3,13.4z M11.1,47c0,0,0,0.1-0.1,0.1c4.4,4.9,9.9,7.7,16.7,8.5c-0.1-0.2-0.2-0.2-0.2-0.3
		c-2.4-2.4-4.3-5.1-6.1-8C21.3,47.2,21,47,20.8,47c-1.9,0-3.7,0-5.6,0C13.8,47,12.5,47,11.1,47z M30.1,5c-2.7,2.5-4.9,5.3-6.8,8.4
		c4.6,0,9,0,13.6,0C35,10.3,32.8,7.5,30.1,5z M36.9,47.1c-4.6,0-9,0-13.6,0c1.9,3.1,4.1,5.9,6.8,8.4C32.8,53,35,50.2,36.9,47.1z"/>
	<path class="st0" d="M30.1,29.5c-0.5,1.4-1,2.7-1.5,4c-0.2,0.5-0.4,0.9-1,0.9c-0.5,0-0.8-0.4-0.9-0.8c-0.7-2.1-1.5-4.1-2.2-6.2
		c-0.1-0.2-0.1-0.4-0.1-0.6c0-0.4,0.3-0.7,0.8-0.8c0.5-0.1,0.8,0.2,1,0.6c0.4,1.2,0.9,2.4,1.3,3.6c0.1,0.2,0.2,0.4,0.3,0.7
		c0.5-1.4,1-2.7,1.5-4c0.2-0.5,0.4-0.9,0.9-0.9c0.6,0,0.8,0.4,0.9,0.9c0.5,1.3,1,2.6,1.5,4.1c0.5-1.4,1-2.6,1.4-3.9
		c0.1-0.2,0.1-0.3,0.2-0.5c0.2-0.5,0.7-0.7,1.1-0.5c0.5,0.2,0.7,0.6,0.5,1.1c-0.6,1.6-1.1,3.2-1.7,4.8c-0.2,0.6-0.4,1.1-0.6,1.7
		c-0.1,0.4-0.4,0.7-0.9,0.7c-0.5,0-0.7-0.3-0.9-0.7c-0.5-1.3-0.9-2.5-1.4-3.8C30.2,29.8,30.2,29.8,30.1,29.5z"/>
	<path class="st0" d="M14.7,31c0.5-1.5,1-2.7,1.5-4c0.2-0.5,0.4-0.9,0.9-0.9c0.6,0,0.8,0.4,0.9,0.9c0.5,1.3,1,2.6,1.5,4.1
		c0.5-1.4,1-2.7,1.5-4c0.1-0.2,0.1-0.3,0.2-0.5c0.2-0.4,0.6-0.6,1-0.4c0.5,0.2,0.7,0.5,0.6,1c-0.1,0.4-0.3,0.9-0.4,1.3
		c-0.6,1.8-1.3,3.5-1.9,5.3c-0.2,0.4-0.4,0.8-0.9,0.8c-0.5,0-0.8-0.3-0.9-0.8c-0.4-1.2-0.8-2.3-1.3-3.5c-0.1-0.2-0.1-0.4-0.3-0.6
		c-0.5,1.4-1,2.7-1.5,4c-0.2,0.5-0.4,0.9-0.9,0.9c-0.6,0-0.8-0.4-0.9-0.9c-0.7-2-1.5-4-2.2-6c0-0.1-0.1-0.2-0.1-0.3
		c-0.2-0.5,0-1,0.5-1.1c0.5-0.2,0.9,0,1.1,0.6c0.5,1.2,0.9,2.4,1.3,3.6C14.5,30.4,14.5,30.6,14.7,31z"/>
	<path class="st0" d="M45.6,31c0.5-1.4,1-2.6,1.4-3.8c0.1-0.2,0.1-0.4,0.2-0.5c0.2-0.5,0.7-0.7,1.1-0.5c0.5,0.2,0.7,0.6,0.5,1.1
		c-0.3,1-0.7,2-1.1,3c-0.4,1.1-0.8,2.2-1.2,3.4c-0.2,0.5-0.4,0.9-0.9,0.9c-0.6,0-0.8-0.4-1-0.9c-0.5-1.3-0.9-2.6-1.5-4
		c-0.2,0.5-0.3,0.9-0.5,1.2c-0.4,1-0.7,2-1.1,3c-0.1,0.4-0.4,0.7-0.9,0.7c-0.4,0-0.7-0.3-0.9-0.7c-0.8-2.2-1.6-4.3-2.4-6.5
		c-0.2-0.6,0-1,0.5-1.2c0.5-0.2,0.9,0,1.1,0.6c0.5,1.4,1,2.8,1.6,4.3c0.5-1.3,0.9-2.5,1.4-3.8c0.1-0.2,0.1-0.4,0.2-0.5
		c0.2-0.2,0.5-0.6,0.8-0.6c0.4-0.1,0.7,0.2,0.9,0.6c0.4,1.1,0.8,2.3,1.2,3.4C45.3,30.3,45.4,30.6,45.6,31z"/>
</g>
</svg>
