<?xml version="1.0" encoding="utf-8"?>
<!-- Generator: Adobe Illustrator 27.1.1, SVG Export Plug-In . SVG Version: 6.00 Build 0)  -->
<svg version="1.1" id="Layer_1" xmlns="http://www.w3.org/2000/svg" xmlns:xlink="http://www.w3.org/1999/xlink" x="0px" y="0px"
	 viewBox="0 0 60 60" style="enable-background:new 0 0 60 60;" xml:space="preserve">
<style type="text/css">
	.st0{fill:#FFFFFF;}
</style>
<g>
	<path class="st0" d="M32.3,12.6c0.2,0,0.4,0,0.7,0c7.2,0,14.5,0,21.7,0c1.2,0,1.5,0.3,1.5,1.5c0,7.1,0,14.1,0,21.3
		c0,2.1-1.3,3.4-3.4,3.5c-1,0-2.1,0-3,0c-0.2,0.7-0.4,1.2-0.7,1.9c0,0.1,0.1,0.4,0.2,0.5c0.8,0.9,1.5,1.8,2.2,2.7
		c0.8,1,1.3,2.1,1.1,3.4c-0.1,0.2-0.1,0.5-0.3,0.8c-0.8,1.4-1.6,2.8-2.5,4.3c-0.5,1-1.4,1.4-2.5,1.4c-1.4,0-2.8-0.2-4.2-0.4
		c-0.1,0-0.2,0-0.3-0.1c-0.5-0.1-0.9-0.1-1.2,0.4c-0.7,1.1-1.8,1.2-2.8,1c-1.9-0.3-3.4-1.2-4.5-2.7c-0.3-0.5-0.4-1.2-0.8-1.9
		c-0.8,0.1-1.6,0.1-2.5,0.2c-2.6,0.1-5.3,0.2-7.8-0.5c-5-1.4-9-6.1-9.6-11.3c-0.9-6.8,2.6-12.7,9.1-15.2c0.3-0.1,0.4-0.3,0.4-0.7
		c0-2.8,0-5.6,0-8.4c0-0.9-0.3-1.8-0.5-2.6c-0.1-0.7-0.3-1.3-0.5-2c-0.3-1.1-0.1-1.4,1-1.8c4.6-1.2,9.3-2.5,13.9-3.7
		c5-1.3,10.2-2.7,15.2-4.1c1.3-0.3,1.6-0.1,2,1.1c0.3,1.2,0.7,2.5,1,3.7c0.3,1.1,0,1.4-1,1.8c-7.1,1.9-14.2,3.8-21.3,5.7
		C32.5,12.5,32.4,12.5,32.3,12.6L32.3,12.6z M39.2,40.2c0.2-0.4,0.4-0.8,0.7-1.2c0.3-0.7,1-1.3,1-2c0-0.7-0.5-1.4-0.9-2.1
		c-1.1-2.3-2.2-4.6-3.9-6.5c-3-3.2-6.7-4.5-11-3.6c-6.4,1.1-10.4,6.9-9.5,13.5c0.7,4.6,4.3,8.7,8.9,9.8c3.3,0.8,6.7,0.3,10,0
		c0.1,0,0.3-0.1,0.3-0.2c0.4-0.8,1-1.6,1.4-2.4c-0.1-0.1-0.2-0.2-0.3-0.2c-3.2-1.8-6.2-3.5-9.4-5.3c-0.2-0.1-0.4-0.2-0.7-0.3
		c-0.8-0.2-1.4,0.1-1.8,0.9c-0.3,0.9,0,1.9,0.8,2.2c0.7,0.4,1.4,0.2,2.1-0.7c0.4-0.5,1-0.7,1.5-0.3c0.5,0.3,0.5,0.9,0.2,1.5
		c-0.9,1.3-2.5,2-4.1,1.5c-1.5-0.4-2.6-2-2.6-3.6s1-3.2,2.5-3.6c1.2-0.3,2.2,0,3.2,0.5c3.2,1.8,6.5,3.6,9.6,5.4
		c0.3-0.5,0.7-1.1,0.9-1.6c-0.2-0.1-0.4-0.2-0.7-0.3c-3.1-1.8-6.1-3.4-9.2-5.2c-2-1.1-2.4-3.4-1.2-5.4c1.1-1.8,3.2-2.2,5-0.9
		c1.5,1.1,2.1,3.3,1.1,4.8c-0.3,0.5-0.9,0.7-1.4,0.4c-0.4-0.2-0.7-0.8-0.4-1.3c0.1-0.2,0.1-0.3,0.2-0.5c0.2-0.9-0.3-1.8-1.2-2
		c-0.9-0.2-1.5,0.2-1.8,1.1s0,1.5,0.9,2.1c3.1,1.8,6.2,3.4,9.3,5.2C38.9,40,39,40.1,39.2,40.2z M54.1,19.6c-9.8,0-19.4,0-29,0
		c0,1,0,2.1,0,3.1c0.1,0,0.1,0,0.2,0c0.2,0,0.3,0,0.5,0c4.2-0.3,7.8,0.8,10.8,3.5c2,1.8,3.2,3.9,4.4,6.2c0.4,0.9,0.9,1.8,1.3,2.7
		c1.3-0.7,2.5-0.4,3.7,0c0.8,0.3,1.4,0.9,2.2,1.3c0.2,0.1,0.4,0.3,0.7,0.3c1.3,0,2.5,0,3.8,0c1,0,1.4-0.4,1.4-1.4c0-5,0-10.1,0-15.1
		C54.1,20.1,54.1,19.9,54.1,19.6z M39.4,53c0.2-0.1,0.5-0.3,0.8-0.7c0.5-0.9,1.1-1.9,1.6-2.7c1.9-3.3,3.7-6.5,5.6-9.8
		c0.1-0.3,0.2-0.8,0.1-1c-0.8-1.2-2-2-3.5-2c-0.2,0-0.5,0.2-0.7,0.4c-2.5,4.3-4.9,8.5-7.3,12.8c-0.1,0.2-0.1,0.7,0,0.9
		C36.7,52.1,37.8,52.7,39.4,53z M43,51.4c1.3,0.2,2.5,0.3,3.7,0.5c0.8,0.1,1.3-0.2,1.8-1c0.7-1.2,1.3-2.3,2-3.4
		c0.2-0.4,0.3-0.9,0.1-1.3c-0.8-1.1-1.6-2.2-2.4-3.4C46.3,45.7,44.7,48.5,43,51.4z M24.7,12.4c2.5-0.7,4.9-1.3,7.5-2
		c-1.4-0.7-2.6-1.2-3.8-1.8c-0.1,0-0.2-0.1-0.3-0.1c-1.3,0.3-2.6,0.7-4.1,1.1C24.3,10.7,24.5,11.5,24.7,12.4z M25.2,17.6
		c0.3,0,0.7,0,0.9,0c1,0,2,0.2,2.8-0.1c0.9-0.3,1.5-1.1,2.3-1.6c0.4-0.3,0.8-0.7,1.2-1c-2.5,0-4.9,0-7.2,0
		C25.2,15.7,25.2,16.6,25.2,17.6z M31.3,7.8c1.4,0.7,2.6,1.2,3.8,1.6c0.1,0,0.2,0.1,0.3,0.1c1.4-0.4,3-0.8,4.4-1.2
		c-1.1-0.7-2.4-1.2-3.6-1.8c-0.1,0-0.2,0-0.2,0C34.5,6.9,32.9,7.4,31.3,7.8z M40.6,17.3c0,0,0,0.1,0.1,0.1c1.1,0,2.3,0,3.4,0
		c0.9,0,1.6-0.2,2.3-0.8c0.8-0.7,1.5-1.3,2.5-2c-1.8,0-3.2,0-4.7,0c-0.1,0-0.2,0-0.3,0.1C42.8,15.7,41.7,16.6,40.6,17.3z M48.1,6.2
		c-1.2-0.5-2.3-1-3.4-1.5c-0.4-0.2-0.9-0.2-1.3-0.1c-1.3,0.3-2.6,0.8-4.1,1.1c1.4,0.7,2.6,1.2,3.8,1.8c0.1,0,0.2,0.1,0.3,0
		C45,7,46.4,6.6,48.1,6.2z M40.7,14.7c-1.1,0-2,0.1-3,0c-1.4-0.1-2.5,0.2-3.5,1.2c-0.5,0.5-1.2,1-2,1.6c1.6,0,3.2,0,4.7,0
		c0.1,0,0.2,0,0.3-0.1C38.3,16.6,39.4,15.7,40.7,14.7z M54.1,14.8c-1.1-0.1-2-0.1-2.8,0.7c-0.7,0.7-1.4,1.1-2.1,1.6
		c-0.1,0.1-0.3,0.1-0.4,0.2c0.1,0,0.1,0.1,0.2,0.1c1.8,0,3.4,0,5.2,0C54.1,16.6,54.1,15.7,54.1,14.8z M47.2,3.5
		c1.1,0.5,2.2,0.9,3.1,1.4s1.6,0.3,2.5,0c-0.2-0.9-0.4-1.8-0.7-2.6C50.5,2.7,48.9,3.1,47.2,3.5z"/>
	<path class="st0" d="M19.1,22.1c-0.2,0.2-0.4,0.7-0.8,0.8c-0.4,0.2-0.9,0.1-1.1-0.3c-0.9-1.4-1.8-3-2.6-4.4c-0.2-0.4-0.1-1,0.3-1.2
		c0.4-0.3,0.9-0.2,1.3,0.1c0.1,0.1,0.2,0.3,0.3,0.4c0.8,1.2,1.4,2.4,2.2,3.6C18.9,21.4,18.9,21.6,19.1,22.1z"/>
	<path class="st0" d="M21.9,59.8c-0.7,0-1.2-0.5-1.1-1.2c0.3-1.5,0.8-3.2,1.2-4.7c0.1-0.5,0.7-0.9,1.2-0.8c0.5,0.1,0.9,0.7,0.8,1.2
		c-0.3,1.5-0.8,3.1-1.1,4.6C22.6,59.4,22.3,59.8,21.9,59.8z"/>
	<path class="st0" d="M13,46.4c-0.1,0.1-0.3,0.5-0.5,0.7c-1.3,0.9-2.6,1.6-3.9,2.4c-0.5,0.3-1.2,0.2-1.5-0.3
		c-0.3-0.5-0.1-1.1,0.4-1.4c1.3-0.8,2.6-1.6,3.9-2.4C12.2,44.9,13.1,45.3,13,46.4z"/>
	<path class="st0" d="M5.5,30.6c1.1,0.2,2.3,0.5,3.5,0.9c0.4,0.1,0.9,0.2,1.2,0.3c0.5,0.2,0.9,0.7,0.8,1.2c-0.1,0.5-0.5,0.9-1.2,0.8
		C8.2,33.5,6.6,33,5,32.6c-0.5-0.1-0.8-0.5-0.7-1.1C4.4,30.9,4.8,30.6,5.5,30.6z"/>
</g>
</svg>
