<?xml version="1.0" encoding="utf-8"?>
<!-- Generator: Adobe Illustrator 27.1.1, SVG Export Plug-In . SVG Version: 6.00 Build 0)  -->
<svg version="1.1" id="Layer_1" xmlns="http://www.w3.org/2000/svg" xmlns:xlink="http://www.w3.org/1999/xlink" x="0px" y="0px"
	 viewBox="0 0 47 50" style="enable-background:new 0 0 47 50;" xml:space="preserve">
<g>
	<path d="M0.1,30.8c0.1-0.6,0.1-1.2,0.2-1.8c0.6-3.7,2.3-6.8,4.9-9.4c0.4-0.4,0.8-0.4,1.1-0.1c0.3,0.3,0.3,0.7-0.1,1.1
		c-1.4,1.3-2.5,2.9-3.3,4.6c-1,2.2-1.5,4.5-1.4,7c0.1,3.9,1.5,7.4,4.3,10.2c2.4,2.6,5.4,4.1,8.9,4.6c4.4,0.6,8.4-0.4,11.8-3.1
		c2.8-2.2,4.6-5.1,5.5-8.6c-5.3,0.4-10-1.1-13.7-4.9c-3.8-3.8-5.3-8.4-4.9-13.8c-0.8,0.3-1.6,0.5-2.3,0.8c-0.6,0.3-1.3,0.6-1.9,0.9
		c-0.6,0.3-1.2-0.1-1-0.6c0-0.3,0.3-0.5,0.5-0.7c1.4-0.8,2.9-1.4,4.6-1.8c0.3-0.1,0.5-0.2,0.5-0.5c1.8-6.7,6-11,12.8-12.7
		c7.6-1.9,15.9,2.4,19.1,9.6c0.8,1.8,1.3,3.6,1.4,5.5c0,0.1,0,0.2,0.1,0.4c0,0.7,0,1.5,0,2.2c0,0.1-0.1,0.3-0.1,0.4
		c-0.2,2.5-1,4.9-2.3,7c-2.5,4.1-6.1,6.7-10.8,7.8c-0.3,0.1-0.4,0.2-0.5,0.5c-0.6,2.7-1.8,5.1-3.5,7.1c-2.3,2.8-5.3,4.6-8.8,5.5
		c-1,0.3-2.1,0.4-3.1,0.5c-0.6,0-1.3,0-1.9,0c-0.1,0-0.2-0.1-0.3-0.1c-2.2-0.1-4.2-0.7-6.2-1.7c-5.3-2.7-8.4-7-9.3-12.8
		c-0.1-0.5-0.1-0.9-0.2-1.4C0.1,32,0.1,31.4,0.1,30.8z M40.4,6.8C36.3,10.9,32.2,15,28.2,19c0.5,0.5,1,1,1.5,1.5
		c4-4,8.1-8.1,12.2-12.2C41.4,7.8,40.9,7.3,40.4,6.8z M33.9,32c0.2-0.1,0.3-0.2,0.4-0.4c3.6-3.6,7.2-7.2,10.8-10.7
		c0.4-0.4,0.6-0.8,0.6-1.3c0-0.8,0-1.6,0-2.5c-0.1,0-0.2,0-0.2,0.1c-3.9,3.9-7.8,7.8-11.7,11.7c-0.1,0.1-0.2,0.2-0.1,0.3
		C33.7,30.1,33.8,31,33.9,32z M37.3,4.7c-4.1,4.1-8.2,8.1-12.2,12.2c0.6,0.4,1.2,0.8,1.8,1.2C31,14,35.1,10,39.2,5.9
		C38.5,5.5,37.9,5.1,37.3,4.7z M42.9,9.6c-4.1,4.1-8.2,8.2-12.3,12.2c0.4,0.6,0.8,1.2,1.2,1.9c0.1-0.2,0.2-0.3,0.4-0.4
		c2.5-2.5,5.1-5.1,7.6-7.6c1.3-1.3,2.6-2.6,3.9-3.9c0.1-0.1,0.2-0.3,0.2-0.4C43.6,10.7,43.2,10.1,42.9,9.6z M16.6,14.9
		c0.9,0.1,1.7,0.2,2.6,0.2c0.2,0,0.5-0.1,0.7-0.2c3.8-3.8,7.6-7.5,11.4-11.3c0.1-0.1,0.2-0.2,0.3-0.3c-1,0-1.8,0-2.7,0
		c-0.4,0-0.6,0.2-0.9,0.4c-3.6,3.6-7.3,7.3-10.9,10.9C16.9,14.6,16.8,14.7,16.6,14.9z M44.7,12.9c-0.1,0-0.1-0.1-0.2-0.1
		c-0.1,0.2-0.2,0.3-0.3,0.5c-2.8,2.8-5.6,5.6-8.4,8.4c-1,1-2,2-3,3c-0.1,0.1-0.2,0.3-0.2,0.4c0.2,0.7,0.5,1.4,0.8,2.2
		c0.1,0,0.1,0,0.1-0.1c3.9-3.9,7.8-7.8,11.8-11.7c0.1-0.1,0.2-0.3,0.1-0.4C45.1,14.4,44.9,13.7,44.7,12.9z M35.8,4.1
		c-0.8-0.2-1.4-0.4-2.1-0.6c-0.3-0.1-0.5,0-0.7,0.2c-3.8,3.8-7.7,7.6-11.5,11.5c-0.1,0.1-0.2,0.2-0.3,0.3c0.7,0.2,1.3,0.4,1.9,0.7
		c0.3,0.1,0.5,0.1,0.7-0.2c3.8-3.8,7.7-7.7,11.5-11.5C35.6,4.4,35.7,4.3,35.8,4.1z M27.1,20c-2.9,2.9-5.8,5.8-8.7,8.7
		c0.5,0.5,1,1,1.5,1.5c2.9-2.9,5.8-5.8,8.7-8.6C28.1,21,27.6,20.5,27.1,20z M29.6,22.8c-2.8,2.8-5.6,5.6-8.4,8.4
		c0.6,0.4,1.3,0.8,1.9,1.2c2.6-2.6,5.1-5.1,7.6-7.6C30.4,24,30,23.4,29.6,22.8z M17.6,27.6c2.8-2.8,5.6-5.6,8.4-8.4
		c-0.4-0.3-0.7-0.5-1.1-0.7c-1-0.6-1-0.6-1.8,0.2c-2.2,2.2-4.3,4.3-6.5,6.5c-0.1,0.1-0.2,0.4-0.2,0.5C16.8,26.3,17.2,26.9,17.6,27.6
		z M34.6,33.3c5.2-1.4,9.4-6,10.4-10.4C41.6,26.4,38.1,29.9,34.6,33.3z M24.6,33c0.8,0.2,1.5,0.5,2.3,0.7c0.1,0,0.2-0.1,0.3-0.1
		c1.6-1.6,3.2-3.1,4.7-4.7c0.1-0.1,0.2-0.2,0.2-0.3c-0.2-0.8-0.4-1.6-0.7-2.3C29.1,28.4,26.9,30.7,24.6,33z M15.7,24
		c2.3-2.3,4.5-4.5,6.8-6.7c-0.7-0.2-1.4-0.4-2.1-0.6c-0.1,0-0.3,0-0.4,0.1c-1.6,1.5-3.1,3.1-4.6,4.6c-0.1,0.1-0.2,0.3-0.1,0.4
		C15.3,22.6,15.5,23.3,15.7,24z M25.6,3.8c-4.8,1.3-9,5.7-10.1,10.1C18.8,10.6,22.2,7.2,25.6,3.8z M28.9,33.9c0.9,0,1.9,0,2.9,0
		c0.2,0,0.6-0.3,0.6-0.5c0.1-1,0-2,0-2.9C31.2,31.6,30.1,32.7,28.9,33.9z M18.2,16.4c-1,0-1.9,0-2.9,0c-0.2,0-0.5,0.2-0.5,0.4
		c0,1,0,2,0,3C16,18.6,17.1,17.5,18.2,16.4z"/>
</g>
</svg>
