<?xml version="1.0" encoding="utf-8"?>
<!-- Generator: Adobe Illustrator 27.1.1, SVG Export Plug-In . SVG Version: 6.00 Build 0)  -->
<svg version="1.1" id="Layer_1" xmlns="http://www.w3.org/2000/svg" xmlns:xlink="http://www.w3.org/1999/xlink" x="0px" y="0px"
	 viewBox="0 0 60 60" style="enable-background:new 0 0 60 60;" xml:space="preserve">
<style type="text/css">
	.st0{fill:#FFFFFF;}
</style>
<g>
	<path class="st0" d="M10,34.7c1.7-0.4,3.3-0.8,5-1.2c1.6-0.3,3.2-0.6,4.7-0.8c0.6-0.1,1.2,0.3,1.2,0.9c0.1,0.5-0.3,1-0.9,1.1
		c-3.2,0.4-6.3,1-9.3,2c-0.5,0.2-0.7,0.4-0.7,1c0,4,0,8,0,11.9c0,1.3-0.6,1.6-1.8,1.2C6.1,50,4,49,2.3,47.5c-1.5-1.3-2.4-3-2.3-5.1
		C0,32.2,0,22,0,11.7c0-2.1,0.8-3.7,2.3-5C4.4,4.9,7,3.8,9.7,3c4.7-1.5,9.6-2.3,14.5-2.6C29-0.1,33.8,0,38.6,0.6
		C44,1.2,49.2,2.2,54.1,4.5c1.8,0.8,3.4,1.9,4.6,3.4c0.8,1,1.2,2.2,1.2,3.5c0,10.4,0,20.8,0,31.2c0,1.8-0.6,3.2-1.9,4.5
		c-1.9,1.9-4.3,3-6.8,3.9c-0.8,0.3-1.3-0.3-1.3-1.2c0-4,0-8,0-12c0-0.7-0.2-0.9-0.8-1.1c-1.4-0.3-2.7-0.7-4.1-1.1
		c-0.7-0.2-1.1-0.7-0.9-1.2c0.1-0.6,0.7-0.9,1.4-0.7c1.5,0.4,2.9,0.7,4.5,1.1c0-0.2,0-0.5,0-0.7c0-5.2,0-10.5,0-15.7
		c0-1,0.1-1.1,1-1.5c1.8-0.7,3.5-1.4,5-2.7c0.4-0.4,0.9-0.8,1.2-1.2c1-1.3,1.1-2.6,0-3.9c-0.7-0.8-1.5-1.5-2.4-2
		c-2.4-1.5-5-2.4-7.7-3.1C40.8,2.5,34.5,2,28,2.1c-4.8,0.1-9.5,0.6-14.1,1.7c-3.2,0.8-6.4,1.7-9.2,3.6c-0.7,0.5-1.4,1.2-2,2
		c-0.9,1.1-0.9,2.3,0,3.5C3.6,14.2,5,15,6.4,15.7c0.9,0.4,1.8,0.8,2.7,1.2c0.8,0.3,1,0.5,1,1.4c0,5.2,0,10.5,0,15.7
		C10,34.2,10,34.5,10,34.7z M58,15.2c-1.6,1.5-3.5,2.4-5.4,3.2c-0.5,0.2-0.6,0.4-0.6,0.9c0,9.5,0,19,0,28.5c0,0.2,0,0.4,0,0.6
		c1.5-0.3,4.1-2,5.1-3.2c1.2-1.5,1.2-2.9-0.1-4.3c-0.7-0.7-1.6-1.3-2.4-1.9c-0.6-0.4-0.8-0.9-0.5-1.5c0.3-0.5,0.9-0.6,1.6-0.2
		c0.8,0.5,1.5,1,2.3,1.6C58,31,58,23.2,58,15.2z M8,48.5c0-0.3,0-0.4,0-0.6c0-9.6,0-19.2,0-28.7c0-0.4-0.1-0.6-0.5-0.7
		c-1.9-0.8-3.7-1.7-5.3-3.1H2.1c0,7.8,0,15.7,0,23.5c0.8-0.6,1.6-1.1,2.4-1.7C5,36.8,5.6,37,5.9,37.5s0.2,1-0.3,1.4
		c-0.2,0.1-0.4,0.2-0.5,0.3c-0.8,0.7-1.7,1.4-2.4,2.2c-0.9,1.1-0.8,2.3,0,3.4C3.9,46.6,5.9,47.5,8,48.5z"/>
	<path class="st0" d="M24,32.9c-2-0.9-3.7-2.1-5-3.8c-1.9-2.3-2.9-4.9-3-7.9c-0.1-2.8,0-5.6,0-8.4c0-1.7,1.4-3,3-3s3,1.3,3,3
		c0,2.6,0,5.2,0,7.7c0,4.2,3,7.2,7.2,7.2c1.9,0,3.8-0.1,5.7,0.1c3.8,0.3,7,3.7,7,7.5c0.1,4.5,0,9,0,13.4c0,1.7-1.4,3-3.1,2.9
		c-0.3,0-0.6-0.1-0.9-0.1c0,1.6,0,3.1,0,4.7c0,0.8,0,1.6,0,2.4c0,0.6-0.4,1-1,1s-0.9-0.4-1-1c0-0.1,0-0.2,0-0.3c0-7.1,0-14.2,0-21.3
		c0-0.2,0-0.3,0-0.5c0.1-0.5,0.5-0.9,1-0.8c0.5,0,0.8,0.3,1,0.8c0,0.2,0,0.4,0,0.6c0,3.7,0,7.4,0,11.1c0,0.2,0,0.4,0,0.6
		c0.1,0.5,0.4,0.8,0.9,0.8c0.6,0,0.9-0.3,1-0.8c0-0.2,0-0.4,0-0.6c0-4.1,0-8.2,0-12.2c0-3.8-2.6-6.3-6.4-6.3c-1.5,0-3,0-4.5,0
		c-5.2,0-9.1-4-9.1-9.2c0-2.4,0-4.9,0-7.3c0-0.2,0-0.4,0-0.6c-0.1-0.5-0.5-0.9-1-0.9s-0.9,0.4-1,0.9c0,0.4,0,0.7,0,1.1
		c0,2.3,0,4.5,0,6.8c0.1,4.9,2.4,8.3,6.9,10.3c0.8,0.3,1.2,0.8,1.1,1.7c0,8.5,0,17.1,0,25.6c0,0.2,0,0.3,0,0.5c0,0.6-0.4,1-1,1
		s-1-0.4-1-1c0-0.2,0-0.4,0-0.6c0-8.2,0-16.4,0-24.7C24,33.5,24,33.2,24,32.9z"/>
	<path class="st0" d="M31,13.9c3.3,0,6,2.7,6,6s-2.7,6-6,6s-6-2.7-6-6S27.7,13.9,31,13.9z M35,19.9c0-2.2-1.8-4-4-4s-4,1.8-4,4
		s1.8,4,4,4S35,22.1,35,19.9z"/>
	<path class="st0" d="M26.1,13c-0.1,0.7-0.3,1.5-0.5,2.2s-0.7,0.9-1.3,0.7c-0.5-0.2-0.8-0.7-0.6-1.3c0.6-2.2,0.1-4-1.6-5.5
		c-1.6-1.3-3.7-1.5-5.6-0.5c-0.3,0.1-0.6,0.4-0.8,0.3c-0.4-0.1-0.8-0.4-0.9-0.7c-0.2-0.4,0-0.9,0.4-1.2c1.1-0.7,2.3-1,3.6-1
		C22.8,5.9,26,9.1,26.1,13z"/>
	<path class="st0" d="M32,55.9c0,1,0,1.9,0,2.9c0,0.7-0.4,1.2-1,1.1c-0.6,0-1-0.4-1-1.1c0-1.9,0-3.8,0-5.7c0-0.7,0.4-1.2,1-1.2
		s1,0.5,1,1.1C32,54,32,55,32,55.9z"/>
	<path class="st0" d="M14.3,11.2c-0.1,0.4-0.2,0.8-0.2,1.1c-0.1,1.1,0.1,2.1,0.6,3.1c0.3,0.6,0.1,1.1-0.4,1.4s-1.1,0.1-1.4-0.5
		c-1-1.8-1.2-3.6-0.5-5.5c0.2-0.6,0.7-0.8,1.2-0.7C14.1,10.3,14.3,10.6,14.3,11.2z"/>
	<path class="st0" d="M38.4,9.5c0.3,0,0.7,0.1,1,0.1c0.5,0.1,0.9,0.6,0.8,1.1c-0.1,0.5-0.5,0.9-1.1,0.9c-0.3,0-0.6-0.1-0.9-0.1
		c-0.7-0.1-1.1-0.5-1.1-1.1C37.2,9.8,37.7,9.5,38.4,9.5z"/>
	<path class="st0" d="M37.6,5.4c0.2,0,0.6,0.1,0.9,0.1c0.5,0.1,0.9,0.5,0.9,1s-0.5,0.9-1,0.9c-0.4,0-0.8,0-1.2-0.1
		c-0.5-0.1-0.8-0.6-0.7-1.1C36.5,5.7,36.9,5.4,37.6,5.4z"/>
	<path class="st0" d="M44.2,7.5c-0.1,0.1-0.4,0.6-0.6,0.6c-0.6,0-1.3-0.1-1.9-0.4c-0.2-0.1-0.3-0.7-0.2-1c0-0.5,0.6-0.7,1.5-0.5
		C43.8,6.4,44.2,6.7,44.2,7.5z"/>
	<path class="st0" d="M47.1,7.1c0.6,0.2,1,0.3,1.4,0.5C49,7.8,49.1,8.2,49,8.7s-0.5,0.8-1,0.7S47.1,9.2,46.6,9
		c-0.4-0.2-0.6-0.7-0.4-1.1C46.5,7.6,46.8,7.4,47.1,7.1z"/>
	<path class="st0" d="M33.3,9.2c0.8,0,1.3,0.4,1.3,1s-0.5,1-1.3,1s-1.2-0.4-1.2-1C32.1,9.5,32.6,9.1,33.3,9.2z"/>
	<path class="st0" d="M33.3,7.2c-0.8,0-1.3-0.4-1.3-1s0.5-1,1.2-1c0.8,0,1.3,0.4,1.3,1S34,7.2,33.3,7.2z"/>
	<path class="st0" d="M53.1,10.1c0,0.5-0.5,1-1,1c-0.7,0-1.4-0.6-1.4-1.2c0-0.6,0.4-1,1-1C52.4,8.9,53.1,9.5,53.1,10.1z"/>
	<path class="st0" d="M43.8,10.4c0.9,0,1.4,0.5,1.3,1.1c-0.1,0.7-0.6,1-1.6,0.8C43.6,11.7,43.7,11.1,43.8,10.4z"/>
</g>
</svg>
