<?xml version="1.0" encoding="UTF-8"?>
<svg id="Layer_2" data-name="Layer 2" xmlns="http://www.w3.org/2000/svg" viewBox="0 0 200 54.58">
  <defs>
    <style>
      .cls-1 {
        fill: #e7ff00;
      }
    </style>
  </defs>
  <g id="Layer_1-2" data-name="Layer 1">
    <g>
      <g>
        <path class="cls-1" d="m71.59,18.23h5.27l8.71,22.19h-5.15c-.98-2.61-3.47-4.34-6.26-4.34h-4.55l-1.62,4.34h-5.11l8.71-22.19Zm-.63,14.26h6.5l-3.25-8.72-3.25,8.72Z"/>
        <path class="cls-1" d="m84.03,25.2h4.4l4.36,10.55,3.21-10.55h4.87l2.97,10.62h.04l4.32-10.62h4.4l-6.42,15.21h-4.63l-3.25-10.65-3.21,10.65h-4.63l-6.42-15.21Z"/>
        <path class="cls-1" d="m111.56,32.81c0-4.6,3.01-7.92,7.84-7.92,3.05,0,5.66,1.33,6.54,4.44h.08v-11.73h4.91v22.82h-4.91v-3.93h-.08c-.87,2.79-3.09,4.25-6.38,4.25-4.75,0-8-3.04-8-7.92Zm9.74,4.41c2.18,0,4.59-1.01,4.71-3.42v-2.44c-.4-2.09-2.5-3.07-4.56-3.07-2.77,0-4.95,1.81-4.95,4.66,0,2.47,1.9,4.28,4.79,4.28Z"/>
        <path class="cls-1" d="m135.67,18.16h0c1.37,0,2.48,1.12,2.48,2.49h0c0,1.38-1.12,2.49-2.5,2.48h0c-1.36,0-2.46-1.1-2.48-2.46h0c-.02-1.39,1.11-2.53,2.5-2.52Zm-2.29,7.04h4.87v15.21h-4.87v-15.21Z"/>
        <path class="cls-1" d="m163.57,28.09c-2.61,0-4.32,1.24-4.71,4.06v8.27h-4.91v-8.75c0-2.54-1.58-3.58-4.04-3.58-2.61,0-4.24,1.2-4.75,4.06v8.27h-4.87v-15.21h2.05l2.83,4.56h.12c.75-3.2,2.93-4.88,6.73-4.88,3.45,0,6.5,1.39,6.81,4.94h.08c.75-3.23,2.97-4.94,6.81-4.94,3.64,0,6.85,1.58,6.85,5.61v9.92h-4.91v-8.75c0-2.54-1.62-3.58-4.08-3.58Z"/>
        <path class="cls-1" d="m173.55,32.81c0-4.6,3.01-7.92,7.84-7.92,3.05,0,5.66,1.33,6.54,4.47h.08l2.5-4.15h2.41v15.21h-4.91v-3.93h-.08c-.87,2.79-3.09,4.25-6.38,4.25-4.75,0-8-3.04-8-7.92Zm9.78,4.41c2.18,0,4.56-1.01,4.67-3.42v-2.16c-.24-2.28-2.38-3.36-4.52-3.36-2.77,0-4.99,1.81-4.99,4.66,0,2.47,1.98,4.28,4.83,4.28Z"/>
      </g>
      <g>
        <polygon class="cls-1" points="13.64 54.56 0 54.58 10.97 29.82 24.54 29.98 13.64 54.56"/>
        <path class="cls-1" d="m45.5,18.19l-4.08,3.93,2.69-6.95-6.23-14.05-.49-1.11-13.57.15,6.97,15.73-6.24,14.09h.99c7.02,0,13.38,4.13,16.22,10.54h0s13.64,0,13.64,0l-9.89-22.33Z"/>
      </g>
      <path class="cls-1" d="m193.36,21.64c0-1.83,1.47-3.32,3.32-3.32s3.32,1.49,3.32,3.32-1.47,3.32-3.32,3.32-3.32-1.47-3.32-3.32Zm6.02,0c0-1.51-1.2-2.69-2.7-2.7-1.51.02-2.69,1.2-2.7,2.7.02,1.51,1.2,2.7,2.7,2.7s2.7-1.2,2.7-2.7Zm-3.95-2.05h1.33c.87,0,1.39.44,1.39,1.18,0,.58-.36.98-.92,1.1l1.01,1.64h-.63l-.98-1.59h-.6v1.59h-.6v-3.92Zm2.14,1.2c0-.45-.36-.63-.79-.63h-.75v1.25h.75c.41,0,.79-.15.79-.62Z"/>
    </g>
  </g>
</svg>