<?xml version="1.0" encoding="utf-8"?>
<!-- Generator: Adobe Illustrator 27.1.1, SVG Export Plug-In . SVG Version: 6.00 Build 0)  -->
<svg version="1.1" id="Layer_1" xmlns="http://www.w3.org/2000/svg" xmlns:xlink="http://www.w3.org/1999/xlink" x="0px" y="0px"
	 viewBox="0 0 36 34" style="enable-background:new 0 0 36 34;" xml:space="preserve">
<g>
	<g>
		<g>
			<g>
				<path d="M24.2,26.4c-8.2-2.9-11.8-6-11.9-9c-0.1-4.2,6.4-7,14-10.2C29,6,31.5,4.9,33.6,3.9l1-0.5l0.1,1.1
					c0.5,3.5-0.6,6.7-2.9,9.2c-2.6,2.6-7.1,3.9-9.1,3.5l-1.1-1.3c3.4,0.4,6.9-1,9.1-3.3c1.8-1.8,2.7-4.2,2.6-6.8
					c-1.9,0.9-4.1,1.9-6.4,2.9c-6.4,2.8-13.1,5.6-13,8.8c0.1,1.5,2.1,4.6,9.9,7.3L24.2,26.4z"/>
			</g>
			<g>
				<path d="M18.3,9.6L17.9,8c1.8-1.2,3.4-2.2,4.7-3.1c1.7-1.2,3.5-2.4,6.2-4.1l0.9-0.6L30,1.3c0.1,1.1,0.2,2.5,0.1,3.4l-1.6,0.8
					c0.2-0.7,0.2-1.6,0.1-2.7c-2.2,1.4-3.7,2.4-5.2,3.4C22.1,7.1,20.2,8.4,18.3,9.6z"/>
			</g>
			<g>
				<path d="M11.4,9.1c0,1.1-1.8,1.1-1.8,0C9.6,8,11.4,8,11.4,9.1z"/>
			</g>
			<path d="M26.9,27.9c0-0.6-0.2-1.7-0.5-2.8c-0.7-2.5-2.1-4.9-4.5-7.6c-3.3-3.9-4.2-6.9-4.9-9.1c-0.5-1.6-0.8-2.8-1.9-3.6l0,0
				C12.6,3.1,9.8,3.9,8,5.5c-1.8,1.6-2.4,4-1.7,6.1L1.2,17L8,11.6c-1-2-0.2-3.9,1-4.9c1.3-1.2,3.4-1.8,5.2-0.6
				c0.7,0.5,0.9,1.4,1.3,2.8c0.6,2.2,1.6,5.5,5.2,9.6c2.2,2.6,3.6,4.8,4.2,7c0.3,1,0.4,2.1,0.4,2.5c0,1.8,0,2.4,0,3.2l-1.7,0.8
				c0-0.1,0-0.1,0-0.2c0.1-0.7,0.3-1.6,0.6-2.6l-1.5-0.3c-0.3,1.1-0.4,2-0.6,2.7c-0.1,0.6-0.2,1-0.3,1.3c-0.1,0.3,0,0.6,0.2,0.8
				c0.2,0.2,0.4,0.4,0.7,0.4l0.2,0l3.9-1.8v-0.5C26.9,30.4,26.9,30,26.9,27.9z"/>
		</g>
	</g>
</g>
</svg>
