<?xml version="1.0" encoding="utf-8"?>
<!-- Generator: Adobe Illustrator 27.1.1, SVG Export Plug-In . SVG Version: 6.00 Build 0)  -->
<svg version="1.1" id="Layer_1" xmlns="http://www.w3.org/2000/svg" xmlns:xlink="http://www.w3.org/1999/xlink" x="0px" y="0px"
	 viewBox="0 0 417 579" style="enable-background:new 0 0 417 579;" xml:space="preserve">
<style type="text/css">
	.st0{fill:#D9D9D9;filter:url(#Adobe_OpacityMaskFilter);}
	.st1{mask:url(#mask0_2181_53_00000125594994522476700040000004771110828798874776_);}
	.st2{fill:#FFEB88;}
	.st3{fill:#C8E904;}
	.st4{fill:#080C0D;}
</style>
<defs>
	<filter id="Adobe_OpacityMaskFilter" filterUnits="userSpaceOnUse" x="2" y="3" width="412.8" height="575">
		<feColorMatrix  type="matrix" values="1 0 0 0 0  0 1 0 0 0  0 0 1 0 0  0 0 0 1 0"/>
	</filter>
</defs>
<mask maskUnits="userSpaceOnUse" x="2" y="3" width="412.8" height="575" id="mask0_2181_53_00000125594994522476700040000004771110828798874776_">
	<rect class="st0" width="417" height="579"/>
</mask>
<g class="st1">
	<path class="st2" d="M227,354.3c3.4,8.6,8,16.2,16.8,20.4c11.5,5.5,24.4,2.4,30.9-8.7c12.4-21.2-1.5-53.8,14.9-73.9
		c17.2-21,50.1,1.8,71.4-6.7c56.5-22.6,72.5-115.1,28.5-156.2c-13.5-12.6-32.6-20.6-50-26.3c-20.2-6.7-24-26.4-30.9-43.9
		c-8.4-21-22.6-38.4-42.9-48.9c-21.5-11.1-46-11.1-60.8,11.5c-16.6,25.6-2.9,59.5-10.8,87.2c-10,34.9-65.3,25.8-82.1,57.8
		c-12.8,24.3-10.7,56.1-1.1,80.9c12,30.9,41.3,41.8,69.9,52.9c13.2,5.1,26.4,12.3,34.3,24.4C220.7,333.4,223.1,344.5,227,354.3z"/>
	<path class="st3" d="M174.1,466.2c4.8,1.5,9.6,2.2,14.4-0.1c6.2-3,9.4-9.5,6.9-16c-4.7-12.5-23.2-17.8-26.1-31.6
		c-3-14.5,18-20.6,21.7-32.5c9.8-31.6-23.8-70.1-56.2-65.6c-10,1.4-19.9,6.7-28.2,12.1c-9.7,6.2-19.4,1.1-29.2-2
		c-11.8-3.7-24-3.6-35.3,1.4c-12.1,5.3-20.5,15.6-16,29.6c5.1,15.8,24.1,21.6,33.1,34.4c11.3,16.2-11.5,36.4-3.7,54.5
		c5.9,13.7,20,23.8,33.8,28.2c17.2,5.5,31.8-3.1,46.3-11.4c6.7-3.8,14.2-6.9,22.1-6.1C163.1,461.7,168.6,464.4,174.1,466.2z"/>
	<path class="st4" d="M158.3,103c-13.8-5.8-27-11.2-38.9-16.3c-6-2.6-11.6-5-16.9-7.3c-2.6-1.2-5.2-2.3-7.7-3.3
		c-1.2-0.5-2.4-1.1-3.6-1.6c-1.2-0.5-2.3-1.1-3.4-1.6c-8.9-4.1-16.1-7.5-21-10c-4.9-2.4-7.6-3.9-7.5-4.1c0.1-0.2,3,0.8,8,2.8
		c5.1,2,12.4,5.1,21.5,8.9c1.1,0.5,2.3,0.9,3.4,1.5c1.2,0.5,2.4,1,3.7,1.5c2.5,1,5,2,7.7,3.1c5.3,2.2,11,4.5,17,7
		c12,5,25.2,10.3,39,16.1c9.4,4,17.8,7.6,25.2,10.8c3.7,1.6,7.2,3.2,10.5,4.6c3.3,1.4,6.4,2.8,9.2,4.3c2.8,1.5,5.3,3.1,7.4,4.8
		c2.1,1.7,3.9,3.6,5.1,5.4c1.3,1.9,2.2,3.7,2.8,5.5c0.6,1.7,1,3.3,1.1,4.7c0.1,0.8-0.7,0.8-0.9,0.2c-0.3-1.3-0.8-2.8-1.5-4.4
		c-0.7-1.6-1.7-3.3-3-4.9c-1.3-1.6-3-3.3-5.1-4.8c-2.1-1.5-4.5-2.9-7.2-4.2c-2.8-1.3-5.8-2.5-9.1-3.9c-1.6-0.7-3.4-1.3-5.2-2.1
		c-1.8-0.7-3.6-1.5-5.5-2.3C176,110.5,167.6,106.9,158.3,103z"/>
	<path class="st4" d="M233.3,152.6c-1.1-1.8-2.5-3.3-3.9-4.7c-1.5-1.4-3-2.7-4.5-3.8c-1.5-1.1-3.1-2.1-4.5-3.1
		c-1.5-0.9-2.8-1.8-4.1-2.4c-2.5-1.5-4.6-2.6-6.1-3.4c-1.4-0.9-2.2-1.4-2.1-1.6c0.1-0.2,1-0.1,2.7,0.4c1.6,0.5,3.9,1.3,6.7,2.5
		c1.4,0.6,2.9,1.3,4.4,2.2c1.6,0.8,3.2,1.8,4.9,3c1.7,1.1,3.4,2.4,5,4c1.6,1.5,3.2,3.3,4.5,5.4c0.8,1.4,1.6,2.9,2,4.4
		c0.2,0.7,0.3,1.5,0.5,2.2c0.1,0.4,0.1,0.7,0.1,1.1c0,0.4,0,0.7,0,1.1c0,2.7-0.8,5-1.6,6.8c-0.5,0.9-0.9,1.7-1.3,2.4
		c-0.2,0.4-0.4,0.7-0.6,1c-0.2,0.3-0.5,0.6-0.7,0.8c-0.2,0.3-0.4,0.5-0.6,0.8c-0.2,0.3-0.4,0.4-0.6,0.7c-0.4,0.4-0.7,0.7-1,1
		c-0.1,0.2-0.8-0.3-0.7-0.5c0.2-0.4,0.4-0.8,0.7-1.3c0.1-0.2,0.3-0.5,0.4-0.7c0.1-0.2,0.2-0.5,0.4-0.8c0.1-0.3,0.3-0.6,0.4-0.9
		c0.1-0.3,0.3-0.7,0.4-1c0.3-0.7,0.6-1.5,0.8-2.3c0.5-1.7,0.9-3.7,0.7-5.9c0-0.3-0.1-0.5-0.1-0.8c0-0.3-0.1-0.6-0.1-0.8
		c-0.2-0.6-0.2-1.2-0.5-1.7C234.6,154.9,234,153.8,233.3,152.6z"/>
	<path class="st4" d="M243.4,190c-3.7-5.9-8.5-10.7-13.1-14.7c-4.6-4-9.2-7.2-13.1-9.8c-7.8-5.1-13.1-7.5-12.9-8
		c0.1-0.2,1.6,0.1,4,1c2.5,1,6,2.5,10.2,4.8c4.1,2.3,8.9,5.4,13.9,9.4c2.5,2,4.9,4.3,7.3,6.8c2.4,2.5,4.7,5.3,6.7,8.5
		c2.7,4.3,4.4,8.8,4.9,12.9c0.5,4.1-0.1,7.9-1.2,10.8c-0.5,1.5-1.2,2.8-1.9,3.9c-0.2,0.3-0.3,0.6-0.5,0.8c-0.2,0.3-0.4,0.5-0.5,0.8
		c-0.4,0.5-0.7,1-1,1.4c-1.3,1.7-2.6,2.9-3.6,3.8c-0.2,0.2-0.8-0.3-0.6-0.6c0.8-1.1,1.7-2.4,2.8-4.2c1-1.8,2.1-4,2.8-6.7
		c0.7-2.7,1-6,0.4-9.6C247.4,198,245.9,194,243.4,190z"/>
	<path class="st4" d="M242.5,227.9c-7.5-6.8-14.4-13.3-20.9-19.2c-1.6-1.4-3.2-2.9-4.7-4.3c-1.6-1.4-3-2.7-4.5-4
		c-1.5-1.3-2.8-2.5-4.2-3.7c-0.7-0.6-1.4-1.2-2-1.7c-0.7-0.5-1.3-1.1-1.9-1.6c-10-8.5-16.6-13.3-16.3-13.7c0.2-0.2,1.9,0.8,5.1,2.7
		c0.8,0.5,1.7,1,2.6,1.7c0.9,0.6,2,1.3,3,2.1c1.1,0.8,2.2,1.5,3.4,2.4c1.2,0.9,2.4,1.9,3.8,2.8c0.7,0.5,1.3,1,2,1.5
		c0.7,0.5,1.4,1.1,2.1,1.7c1.4,1.1,2.9,2.3,4.4,3.6c1.5,1.3,3,2.5,4.6,3.9c1.6,1.3,3.2,2.8,4.8,4.2c6.6,5.8,13.6,12.3,21.1,19
		c20.2,18.5,32.8,28.1,38.7,32.5c0.4,0.3,0,0.9-0.5,0.7c-1.6-0.9-3.7-2.1-6.2-3.7c-1.3-0.8-2.6-1.7-4.1-2.7c-0.8-0.5-1.5-1-2.3-1.5
		c-0.8-0.5-1.6-1.1-2.5-1.8c-0.8-0.6-1.7-1.2-2.6-1.9c-0.9-0.7-1.9-1.4-2.8-2.1c-1-0.7-1.9-1.5-3-2.3c-1-0.8-2.1-1.6-3.1-2.5
		c-2.1-1.8-4.4-3.6-6.7-5.6c-1.2-1-2.4-2-3.6-3.1C245,230.2,243.7,229.1,242.5,227.9z"/>
	<path class="st4" d="M190.9,223.6c-6.7-4.6-13.4-8.4-19.8-11.2c-3.2-1.4-6.3-2.4-9.3-3.2c-3-0.7-5.8-1.2-8.4-1.3
		c-5.2-0.2-9.4,0.7-12.2,1.6c-2.8,0.9-4.3,1.6-4.4,1.4c-0.1-0.2,1.2-1.3,4-2.7c1.4-0.6,3.2-1.3,5.3-1.9c2.1-0.5,4.6-0.9,7.4-1
		s5.8,0.2,9,0.9c3.2,0.7,6.5,1.7,9.9,3c6.8,2.7,13.7,6.6,20.6,11.3c4.7,3.2,8.7,6.3,12.1,9.1c3.5,2.8,6.4,5.4,8.9,7.7
		c5.1,4.6,8.4,7.9,10.6,10c0.3,0.3-0.2,0.9-0.5,0.7c-2.5-1.7-6.4-4.5-11.7-8.6c-2.7-2.1-5.8-4.5-9.3-7.1
		C199.5,229.7,195.5,226.8,190.9,223.6z"/>
	<path class="st4" d="M253.9,271.4c-6.2-3.6-11.7-7.4-16.6-11.1c-4.8-3.7-9.1-7.3-12.5-10.3c-6.9-6.2-10.7-10.4-10.4-10.8
		c0.4-0.4,4.7,3.2,12,8.9c3.6,2.8,7.9,6.1,12.9,9.6c4.9,3.5,10.4,7.2,16.4,10.7c8.2,4.6,15.1,7.5,20.5,8.3c2.7,0.4,5.1,0.2,6.9-0.5
		c0.5-0.1,0.9-0.3,1.3-0.5c0.4-0.2,0.8-0.4,1.1-0.6c0.2-0.1,0.3-0.2,0.5-0.3c0.2-0.1,0.3-0.2,0.4-0.3c0.3-0.2,0.5-0.5,0.8-0.6
		c0.2-0.2,0.8,0.3,0.7,0.5c-0.2,0.3-0.4,0.6-0.7,0.9c-0.1,0.1-0.2,0.3-0.4,0.4c-0.1,0.1-0.3,0.3-0.5,0.4c-0.3,0.3-0.7,0.6-1.1,0.9
		c-0.4,0.3-0.8,0.6-1.3,0.8c-1.9,1-4.7,1.6-7.7,1.5c-3.1-0.1-6.5-0.9-10.2-2.2C262.1,275.7,258.2,273.8,253.9,271.4z"/>
	<path class="st4" d="M285.3,265.2c-0.9-1.5-1.8-2.9-2.9-4.2c-1.1-1.3-2.2-2.5-3.3-3.6c-2.2-2.2-4.3-4.1-6.1-5.7
		c-3.6-3.1-6.1-4.6-6-5.1c0.1-0.2,0.9-0.1,2.2,0.3s3.1,1.4,5.2,2.7c2.1,1.3,4.5,3.1,6.9,5.3c1.2,1.1,2.5,2.4,3.6,3.8
		c1.2,1.4,2.3,2.9,3.3,4.7c0.7,1.2,1.2,2.4,1.5,3.6c0.3,1.2,0.5,2.5,0.3,3.8c-0.1,1.2-0.6,2.4-1.3,3.3c-0.6,0.9-1.4,1.5-2.1,2
		c-1.5,0.9-2.9,1.3-4,1.6c-1.1,0.2-2.1,0.3-2.8,0.3c-0.2,0-0.3-0.8-0.2-0.8c0.6-0.3,1.4-0.6,2.4-1.1c0.9-0.5,2-1.1,3-2
		c1-0.9,1.7-2.1,1.8-3.6C287.1,269.2,286.5,267.3,285.3,265.2z"/>
	<path class="st4" d="M35.7,123.6c-4.8-3.9-9.5-7.5-13.7-10.8c-4.2-3.3-8-6.4-11-9.2c-6.1-5.5-9.3-9.4-9-9.7
		c0.4-0.4,4.2,2.9,10.6,7.8c3.2,2.5,7.1,5.4,11.4,8.5c4.3,3.2,9.1,6.7,13.9,10.7c6.6,5.4,11.4,10.2,14.7,14.2c0.9,1,1.6,2,2.3,2.8
		c0.7,0.9,1.3,1.7,1.8,2.4c1,1.5,1.8,2.8,2.4,3.8c0.2,0.3-0.5,0.7-0.7,0.5c-0.8-0.8-1.8-1.9-3-3.2c-0.6-0.6-1.3-1.3-2.1-2.1
		c-0.8-0.8-1.6-1.7-2.5-2.5C47.2,133.3,42.3,128.9,35.7,123.6z"/>
	<path class="st4" d="M79.2,177c-3.6-4.8-6.9-9.5-9.7-13.8c-2.9-4.3-5.3-8.3-7.4-11.6c-4.1-6.7-6.4-10.9-6-11.2
		c0.4-0.3,3.5,3.5,8.1,9.8c4.6,6.3,10.7,15.2,17.8,24.7c4.9,6.5,8.8,11.4,12,15.2c0.7,1,1.5,1.8,2.2,2.6c0.7,0.8,1.3,1.5,1.8,2.2
		c1.1,1.3,2.1,2.4,2.8,3.3c0.2,0.2-0.4,0.8-0.6,0.6c-0.9-0.7-2-1.5-3.4-2.7c-0.7-0.6-1.4-1.2-2.2-1.9c-0.8-0.7-1.7-1.5-2.5-2.4
		C88.5,188.4,84.1,183.5,79.2,177z"/>
	<path class="st4" d="M84.6,241.4c3.6-6.2,7.1-12,9.9-17.4c2.8-5.4,4.9-10.5,5.8-14.9c0.4-2.2,0.6-4.2,0.4-5.9
		c-0.2-1.7-0.7-3.2-1.2-4.3c-0.3-0.6-0.6-1-0.8-1.5c-0.3-0.4-0.5-0.7-0.7-1c-0.4-0.5-0.6-0.9-0.5-1c0.1-0.1,0.4,0.1,1,0.5
		c0.3,0.2,0.6,0.5,1,0.8c0.3,0.4,0.8,0.8,1.2,1.4c0.8,1.1,1.6,2.7,2,4.7c0.4,1.9,0.4,4.2,0.1,6.6c-0.7,4.9-2.7,10.2-5.4,15.9
		c-2.7,5.6-6.2,11.5-9.8,17.7c-4.9,8.4-8.7,15-10.6,20.3c-0.9,2.7-1.4,5-1.1,6.9c0.1,0.9,0.4,1.8,0.7,2.5c0.1,0.2,0.2,0.3,0.3,0.5
		c0.1,0.2,0.2,0.3,0.3,0.4c0.2,0.3,0.4,0.5,0.6,0.8c0.2,0.2-0.3,0.9-0.6,0.6c-0.3-0.2-0.6-0.4-0.9-0.7c-0.1-0.1-0.3-0.3-0.4-0.4
		c-0.1-0.2-0.3-0.3-0.4-0.5c-0.5-0.8-1-1.7-1.3-2.8c-0.6-2.2-0.4-5,0.4-8C76.1,256.8,79.7,249.8,84.6,241.4z"/>
	<path class="st4" d="M105.7,261.1c-1.5,2.6-3,5.1-4.7,7.4c-1.6,2.3-3.3,4.5-5.3,6.4c-1.9,1.9-3.9,3.6-6.2,4.6
		c-1.2,0.5-2.4,0.9-3.6,1c-1.2,0.1-2.5-0.1-3.5-0.4c-2.1-0.8-3.6-2.1-4.7-3.3c-1.1-1.2-1.8-2.4-2.3-3.4c-0.5-1-0.9-1.8-1-2.3
		c-0.2-0.6-0.2-0.9-0.1-0.9c0.1,0,0.4,0.2,0.7,0.6c0.3,0.5,0.9,1.1,1.5,1.9c0.7,0.8,1.5,1.8,2.6,2.8c1,1,2.4,1.9,4,2.3
		c1.6,0.4,3.4,0.1,5.1-0.8c1.8-0.9,3.5-2.4,5.1-4.2c3.3-3.6,6.3-8.3,9.2-13.3c2-3.4,3.7-6.6,5.2-9.4c1.5-2.8,2.8-5.3,4-7.4
		c2.3-4.3,4.1-7.2,5.4-9c0.2-0.2,0.9,0.1,0.7,0.4c-0.8,2-2,5.2-3.8,9.7c-0.9,2.3-2.1,4.8-3.4,7.7
		C109.4,254.3,107.8,257.5,105.7,261.1z"/>
	<path class="st4" d="M133.5,214.5c-3.5,2.8-6.2,6.4-8.4,9.9c-2.2,3.4-4,6.7-5.5,9.5c-1.5,2.8-2.9,5-3.9,6.4c-1,1.5-1.8,2.2-1.9,2.1
		c-0.2-0.1,0.1-1.1,0.7-2.7c0.7-1.6,1.6-4,2.9-6.9c1.3-2.9,2.8-6.4,5-10c2.1-3.7,5-7.7,8.9-10.9c2.7-2.2,5.5-3.7,8.1-4.6
		c2.6-0.9,5-1.2,7.1-1.4c4.1-0.3,6.9,0.3,8.7,0.7c0.2,0,0.2,0.8-0.1,0.8c-1.8,0.1-4.6,0.3-8.3,1.1c-1.9,0.4-4,0.9-6.3,1.9
		C138.3,211.2,135.9,212.6,133.5,214.5z"/>
	<path class="st4" d="M225.8,322.9c4.9-7.8,10.2-14.9,15.6-20.9s11-10.8,16.2-14.1c5.2-3.3,10-4.9,13.4-5.5c0.4-0.1,0.8-0.1,1.2-0.2
		c0.4,0,0.7-0.1,1.1-0.1c0.7-0.1,1.2-0.1,1.7-0.1c0.9,0,1.4,0.1,1.4,0.2c0,0.3-1.8,0.5-5,1.5c-3.2,1-7.6,2.9-12.4,6.3
		c-4.8,3.4-10,8.2-15.1,14.1c-5.1,6-10.2,13-15.1,20.7c-3.4,5.2-6.2,10-8.7,14.3c-2.5,4.3-4.7,8.1-6.5,11.4
		c-3.8,6.6-6.5,11.2-8.2,14.1c-0.2,0.4-0.9,0-0.7-0.4c1.3-3.1,3.4-8,6.7-14.9c1.6-3.4,3.6-7.4,6-11.8
		C219.6,333.1,222.4,328.3,225.8,322.9z"/>
	<path class="st4" d="M275.9,305.3c2-4.1,3.8-8.1,4.6-11.8c0.5-1.8,0.6-3.6,0.4-5c-0.2-1.5-0.9-2.6-1.9-3.2c-1-0.7-2.3-1-3.4-1.2
		c-1.1-0.2-2.1-0.3-3-0.3c-1.7-0.1-2.6-0.1-2.7-0.4c-0.1-0.2,0.9-0.6,2.6-1c0.9-0.2,1.9-0.3,3.3-0.3c1.3,0,2.8,0.2,4.5,1.1
		c0.8,0.4,1.6,1.1,2.2,1.9c0.6,0.8,1.1,1.8,1.3,2.9c0.5,2.1,0.3,4.2-0.1,6.3c-0.8,4.2-2.6,8.4-4.7,12.7c-1.5,2.9-2.8,5.4-4.2,7.6
		c-1.3,2.2-2.5,4-3.6,5.6c-2.2,3.2-3.8,5.4-4.8,6.7c-0.1,0.2-0.8-0.2-0.7-0.4c0.6-1.6,1.7-4.1,3.4-7.6
		C270.7,315.3,273.1,310.9,275.9,305.3z"/>
	<path class="st4" d="M254.9,377.9c-0.5-4.4-0.8-8.8-0.6-13c0.1-4.2,0.6-8.3,1.3-12.1c0.7-3.8,1.7-7.4,2.8-10.6
		c0.6-1.6,1.1-3.2,1.7-4.6c0.3-0.7,0.6-1.5,0.9-2.2c0.3-0.7,0.6-1.4,0.9-2c2.4-5.3,4.8-9.3,6.5-12.1c1.8-2.7,2.9-4.1,3.1-4
		c0.2,0.1-0.5,1.8-1.9,4.7c-1.3,2.9-3.4,7.1-5.4,12.4c-0.2,0.7-0.5,1.3-0.8,2c-0.3,0.7-0.5,1.4-0.8,2.1c-0.5,1.5-1,3-1.5,4.6
		c-0.9,3.2-1.7,6.6-2.4,10.3c-1.2,7.3-1.5,15.6-0.3,24.1c0.8,5.8,1.8,11,2.9,15.6s2.1,8.6,3,12.1c1.8,7,3,12,3.6,15.2
		c0.1,0.4-0.6,0.6-0.8,0.2c-1.1-3-2.9-7.8-5.2-14.7c-1.2-3.4-2.4-7.4-3.7-12.1C256.8,389.2,255.7,383.9,254.9,377.9z"/>
	<path class="st4" d="M192.7,397.8c1.2-7.4,3.1-14.2,5.3-20.3c0.3-0.8,0.6-1.5,0.8-2.2c0.3-0.7,0.5-1.5,0.9-2.2
		c0.6-1.4,1.2-2.8,1.7-4.1c0.6-1.3,1.2-2.6,1.8-3.7c0.3-0.6,0.6-1.2,0.8-1.8c0.3-0.6,0.6-1.1,0.9-1.7c0.6-1.1,1.1-2.1,1.6-3.1
		c0.5-1,1-1.9,1.5-2.7c0.5-0.8,0.9-1.6,1.3-2.3c0.4-0.7,0.8-1.3,1.2-1.9c1.5-2.3,2.4-3.5,2.6-3.4c0.2,0.1-0.3,1.5-1.4,4
		c-0.3,0.6-0.6,1.3-0.9,2c-0.3,0.8-0.7,1.5-1.1,2.4c-0.4,0.9-0.8,1.8-1.3,2.7c-0.4,1-0.9,2-1.4,3.2c-0.2,0.5-0.5,1.1-0.7,1.7
		c-0.2,0.6-0.5,1.2-0.7,1.8c-0.5,1.2-1,2.5-1.5,3.7c-0.5,1.3-1,2.7-1.5,4.1c-0.3,0.7-0.5,1.4-0.8,2.1c-0.2,0.7-0.5,1.5-0.8,2.2
		c-1.9,6-3.8,12.7-4.9,19.8c-1.6,9.7-1.9,17.5-1.9,23.6c0,0.4,0,0.7-0.1,1.1c0,0.4,0,0.7,0,1.1c0,0.7,0,1.4,0,2c0,0.6,0,1.3,0,1.8
		c0,0.6,0,1.2,0,1.7c0.1,2.1,0.1,3.9,0.2,5.3c0,0.4-0.8,0.5-0.8,0.1c-0.3-1.3-0.6-3.1-1-5.2c-0.1-0.5-0.2-1.1-0.3-1.7
		c-0.1-0.6-0.2-1.2-0.3-1.9c-0.1-0.7-0.1-1.3-0.2-2c0-0.3-0.1-0.7-0.1-1.1c0-0.4-0.1-0.7-0.1-1.1C191.2,415.9,191,407.9,192.7,397.8
		z"/>
	<path class="st4" d="M142.9,314.2c1,0.9,2,1.9,3,2.8c1,0.9,2,1.8,3,2.7c0.5,0.5,1,0.9,1.5,1.3c0.5,0.5,1,0.8,1.5,1.3
		c1,0.8,2,1.6,3.1,2.4c4.1,3.2,8.1,6.1,12,8.9c7.8,5.6,14.8,10.6,20.6,15.1c5.8,4.5,10.2,8.4,13.1,11.2c1.5,1.4,2.5,2.6,3.3,3.4
		c0.7,0.8,1,1.3,0.9,1.4c-0.4,0.4-7-5.7-18.8-14c-5.9-4.2-13.1-8.9-21-14.4c-3.9-2.7-8.1-5.7-12.2-8.8c-1.1-0.8-2.1-1.6-3.1-2.4
		c-0.5-0.4-1.1-0.8-1.6-1.3c-0.5-0.4-1-0.9-1.5-1.3c-1-0.9-2-1.8-3.1-2.7c-1-0.9-2-1.9-3-2.8c-5.5-5.2-10.2-9.9-14.6-14
		c-4.4-4.1-8.4-7.4-12-10.1c-7.3-5.4-13-8.3-16.7-9.9c-0.5-0.2-0.2-1,0.3-0.8c1,0.3,2.1,0.7,3.3,1.1c0.3,0.1,0.6,0.2,1,0.4
		c0.3,0.1,0.6,0.3,1,0.4c0.7,0.3,1.4,0.6,2.2,0.9c0.8,0.3,1.5,0.8,2.3,1.1c0.4,0.2,0.8,0.4,1.2,0.6c0.2,0.1,0.4,0.2,0.6,0.3
		c0.2,0.1,0.4,0.2,0.6,0.3c0.9,0.5,1.7,1,2.7,1.5c0.9,0.6,1.8,1.2,2.8,1.8c3.9,2.6,8.1,5.8,12.7,9.8
		C132.6,304.3,137.4,309,142.9,314.2z"/>
	<path class="st4" d="M74.7,285c0.2-1.7,1-3.5,2.3-4.7c1.3-1.2,2.9-1.9,4.4-2.2c1.5-0.3,3-0.3,4.4-0.2c1.4,0.1,2.7,0.3,4,0.6
		c5,1.2,9.1,3.1,12.5,4.9c3.3,1.7,5.9,3.4,7.6,4.6c1.7,1.2,2.6,2,2.5,2.2c-0.1,0.2-1.2-0.2-3.1-1c-1.9-0.8-4.6-2.1-8-3.6
		c-3.4-1.4-7.5-3-12.1-3.9c-2.3-0.4-4.8-0.7-6.9-0.2c-1.1,0.2-2,0.7-2.7,1.4c-0.7,0.7-1.1,1.6-1.2,2.7c-0.2,1.5,0.1,3.1,0.5,4.6
		c0.5,1.5,1.1,2.9,1.8,4.2c1.4,2.6,3,4.7,4.4,6.4c2.9,3.5,5.4,5.6,7,7c0.2,0.2-0.3,0.8-0.5,0.7c-1-0.5-2.1-1.1-3.5-2.1
		c-1.4-1-3.1-2.2-4.8-3.9c-1.7-1.7-3.6-3.8-5.3-6.5c-0.8-1.4-1.7-3-2.2-4.7C74.9,289.3,74.4,287.3,74.7,285z"/>
	<path class="st4" d="M144.2,352.5c-8.3-6.6-16-13.1-23-19c-7-5.9-13.4-11.2-18.7-15.7c-10.6-8.9-17.3-14.3-17-14.7
		c0.3-0.4,7.5,4.4,18.5,12.8c5.5,4.2,12,9.3,19.2,15.1c7.1,5.8,15,12.1,23.2,18.8c11.2,9,20.2,16.1,27.1,21.4
		c0.9,0.7,1.7,1.3,2.5,1.9c0.8,0.6,1.6,1.2,2.3,1.8c1.5,1.1,2.9,2.2,4.1,3.1c2.5,1.9,4.5,3.4,6.1,4.5c0.4,0.3,0,1-0.5,0.7
		c-1.7-1-3.9-2.2-6.6-3.8c-1.3-0.8-2.8-1.7-4.3-2.7c-0.8-0.5-1.6-1-2.5-1.6c-0.8-0.6-1.7-1.2-2.6-1.8
		C164.7,368.4,155.4,361.6,144.2,352.5z"/>
	<path class="st4" d="M127.8,364.5c1.3-3.2,3.4-5.8,5.7-7.6c2.3-1.8,4.6-2.9,6.7-3.5c2.1-0.6,3.8-0.7,5-0.7c0.6,0,1.1,0.1,1.4,0.2
		c0.3,0.1,0.5,0.2,0.5,0.3c0.1,0.5-2.5,0.9-6,2.5c-1.7,0.8-3.7,2-5.5,3.7c-1.8,1.7-3.5,3.8-4.5,6.4c-1.4,3.5-1.5,6.7-1.5,9.1
		c0.1,2.4,0.4,4.2,0.5,5.3c0,0.1-0.7,0.4-0.8,0.3c-0.6-1-1.6-2.6-2.2-5.3c-0.3-1.3-0.6-2.9-0.5-4.7
		C126.5,368.8,126.9,366.7,127.8,364.5z"/>
	<path class="st4" d="M152.6,420.8c-9.4-11.6-16.3-23.3-20.5-32.2c-2.1-4.4-3.4-8.2-4.1-10.9c-0.7-2.6-0.8-4.2-0.6-4.3
		c0.2-0.1,0.8,1.3,1.9,3.8c1.1,2.5,2.8,6,5,10.2c4.6,8.4,11.7,19.7,21,31.1c6.3,7.7,11.8,13.4,16.5,17c2.4,1.8,4.6,3,6.5,3.5
		c1.9,0.5,3.5,0.2,4.6-0.5c0.3-0.2,0.8,0.4,0.5,0.7c-0.5,0.5-1.2,1-2.2,1.3c-0.9,0.3-2,0.4-3.2,0.2c-2.4-0.3-4.9-1.4-7.6-3.1
		C165,434.3,159,428.7,152.6,420.8z"/>
	<path class="st4" d="M185.3,421.4c1,1.5,1.9,3,2.7,4.5c0.8,1.5,1.5,3.1,2,4.7c0.2,0.8,0.3,1.7,0.4,2.5c0,0.9-0.1,1.8-0.4,2.6
		c-0.3,0.8-0.8,1.6-1.3,2.1c-0.5,0.6-1.1,1-1.7,1.3c-1.2,0.6-2.2,0.9-3.2,1.1c-1,0.2-1.8,0.3-2.4,0.3c-1.3,0-2-0.1-2.1-0.4
		c0-0.3,0.6-0.6,1.8-1c0.6-0.2,1.3-0.5,2.1-0.8c0.8-0.3,1.7-0.8,2.4-1.3c0.8-0.6,1.4-1.3,1.6-2.2c0.2-0.9,0.1-2.1-0.3-3.3
		c-0.4-1.2-1.1-2.6-1.8-3.9c-0.8-1.4-1.7-2.8-2.6-4.2c-2.6-3.8-4.7-7-6.1-9.5c-1.4-2.5-2.2-4.4-2.7-5.7c-0.1-0.2,0.6-0.6,0.7-0.4
		c0.9,1,2.2,2.4,4.1,4.6C180.2,414.6,182.5,417.4,185.3,421.4z"/>
	<path class="st4" d="M167.4,398.9c-3.5-6.9-6.8-13-9.4-17.3c-1.2-2.2-2.3-3.9-2.9-5.2c-0.7-1.3-0.9-2.1-0.7-2.2
		c0.2-0.1,0.8,0.4,1.9,1.4c1,1,2.4,2.6,3.9,4.7c3.1,4.1,6.8,10.2,10.4,17.1c2.4,4.7,4.1,8.6,5.2,11.6c1.2,3,1.9,5.2,2.3,6.6
		c0,0.2-0.6,0.5-0.7,0.4c-0.9-1.2-2.2-3-3.8-5.8C171.8,407.2,169.8,403.6,167.4,398.9z"/>
	<path class="st4" d="M112.8,399.9c-0.6-2.1-0.9-4.2-0.9-6.3c0-2.1,0.4-4.1,1.1-5.9c0.7-1.8,1.7-3.4,2.8-4.7c1.1-1.3,2.4-2.3,3.6-3
		c2.4-1.5,4.6-2.2,6.1-2.5c0.8-0.2,1.3-0.2,1.8-0.2c0.4,0,0.6,0.1,0.7,0.2c0,0.1-0.1,0.3-0.5,0.5c-0.3,0.2-0.9,0.5-1.5,0.8
		c-1.3,0.7-3.2,1.6-5,3.2s-3.8,3.8-4.8,6.8c-0.5,1.5-0.7,3.1-0.7,4.8c0,1.7,0.3,3.5,0.8,5.3c0.7,2.5,1.7,4.6,2.6,6.5
		s1.9,3.5,2.7,4.9c1.7,2.8,3,4.7,3.8,6c0.1,0.2-0.5,0.7-0.6,0.6c-1.2-1-3-2.4-5.2-5.1c-1.1-1.3-2.3-2.9-3.5-4.8
		C114.8,405,113.6,402.7,112.8,399.9z"/>
	<path class="st4" d="M149.2,445.7c-9.7-9.3-17.6-18.5-22.9-25.5c-5.3-7-8.1-11.6-7.8-11.9c0.4-0.3,3.9,3.8,9.7,10.3
		c5.8,6.5,13.8,15.4,23.4,24.5c6.5,6.2,11.9,11,16,14.5c2.1,1.8,3.9,3.2,5.4,4.5c1.5,1.2,2.8,2.2,3.7,3c0.3,0.2-0.1,0.9-0.5,0.7
		c-1.1-0.6-2.5-1.3-4.2-2.3c-1.6-1-3.7-2.2-6-3.9C161.5,456.5,155.8,452,149.2,445.7z"/>
	<path class="st4" d="M185.4,463.8c0.8-1.1,1.2-2.7,1.3-4.3c0.1-1.6,0-3.3-0.2-4.8c-0.4-3.1-1.3-5.8-2.1-8.1c-1.8-4.5-3.9-6.6-3.6-7
		c0.1-0.2,1,0.1,2.1,1.1c1.1,0.9,2.5,2.6,3.8,4.9c1.3,2.3,2.5,5.2,3.1,8.6c0.3,1.7,0.5,3.6,0.4,5.6c-0.1,1-0.2,2-0.5,3.1
		c-0.3,1-0.7,2.1-1.5,3.1c-0.5,0.7-1.1,1.3-1.8,1.7s-1.5,0.7-2.2,0.9c-1.5,0.3-2.9,0.1-4-0.2c-2.3-0.6-3.9-1.7-5.3-2.6
		c-2.7-1.9-4.2-3.6-5.1-4.7c-0.1-0.2,0.4-0.7,0.5-0.7c1.2,0.6,3.2,1.8,5.9,3.1c1.4,0.6,3,1.3,4.7,1.7c0.9,0.1,1.8,0.2,2.6,0
		C184.2,464.9,184.9,464.5,185.4,463.8z"/>
	<path class="st4" d="M274.6,469.6c-2.2-7.9-3.7-15.6-4.7-22.7c-1.1-7-1.9-13.3-2.6-18.6c-0.7-5.3-1.2-9.5-1.8-12.4
		c-0.5-2.9-1-4.5-0.7-4.6c0.2-0.1,1.1,1.4,2,4.3c1,2.9,2,7.2,2.9,12.4c2,10.5,4,25.1,8.3,40.7c1.5,5.3,3,10,4.5,14.1
		c1.5,4.1,3,7.7,4.3,10.7c2.8,6.1,5,10.2,6.5,12.8c0.2,0.3-0.5,0.8-0.7,0.5c-1.9-2.3-4.8-6.2-8.1-12.1c-1.6-3-3.4-6.5-5-10.7
		C277.7,479.8,276.1,475,274.6,469.6z"/>
	<path class="st4" d="M107.5,425.8c-0.7-1.6-1.2-3.3-1.5-5c-0.3-1.7-0.4-3.4-0.1-5.1c0.3-1.7,1-3.2,2-4.4c1-1.2,2.2-1.9,3.3-2.5
		c0.3-0.1,0.5-0.2,0.8-0.4c0.3-0.1,0.6-0.2,0.8-0.2c0.3-0.1,0.5-0.1,0.8-0.2c0.2-0.1,0.5-0.1,0.7-0.1c0.9-0.2,1.7-0.1,2.3-0.2
		c1.3,0.1,2,0.3,2,0.5c0,0.3-0.7,0.5-1.8,0.9c-1.1,0.4-2.8,0.9-4.4,1.9c-0.8,0.5-1.6,1.2-2.1,2c-0.6,0.9-0.9,1.9-1.1,3.1
		c-0.3,2.4,0.4,5.4,1.6,8.2c0.8,2,1.7,3.7,2.5,5.2c0.8,1.5,1.6,2.9,2.4,4c1.4,2.3,2.5,3.9,3.2,5c0.1,0.1-0.4,0.7-0.6,0.6
		c-1-0.7-2.7-1.9-4.6-4c-1-1-2-2.3-3.1-3.9C109.5,429.9,108.4,428,107.5,425.8z"/>
	<path class="st4" d="M132.2,456.2c-7.3-6.6-12.8-13.5-16.5-18.7c-3.7-5.2-5.6-8.6-5.2-8.9c0.4-0.3,3.1,2.6,7.2,7.4
		c4.1,4.7,9.8,11.3,16.9,17.6c4.8,4.3,8.9,7.4,12.1,9.6c0.4,0.3,0.8,0.6,1.2,0.8c0.4,0.3,0.8,0.5,1.1,0.7c0.7,0.5,1.4,0.9,1.9,1.3
		c1.2,0.7,2.2,1.3,2.9,1.8c0.2,0.1-0.1,0.8-0.3,0.8c-0.8-0.3-2-0.6-3.4-1c-0.7-0.3-1.4-0.6-2.2-0.9c-0.4-0.2-0.8-0.4-1.3-0.5
		c-0.4-0.2-0.9-0.5-1.3-0.6C141.7,463.6,137.2,460.7,132.2,456.2z"/>
	<path class="st4" d="M162.9,464.4c-0.2,1.2-0.6,2.4-1.4,3.5c-0.8,1.1-2,1.8-3.2,2c-1.2,0.3-2.2,0.2-3.1,0c-0.4-0.1-0.9-0.2-1.2-0.3
		c-0.2-0.1-0.4-0.1-0.6-0.2c-0.2-0.1-0.4-0.2-0.5-0.2c-1.3-0.6-2.2-1.3-2.8-1.8c-0.6-0.5-0.8-0.9-0.7-1.1c0.1-0.2,0.6-0.2,1.3-0.1
		c0.8,0.1,1.7,0.4,3,0.6c0.2,0,0.3,0.1,0.5,0.1c0.2,0,0.3,0.1,0.5,0.1c0.3,0.1,0.6,0.1,1,0.1c0.6,0,1.3,0,1.9-0.2
		c0.5-0.2,0.9-0.5,1.3-1c0.3-0.5,0.6-1.2,0.7-2c0.2-1.1,0.1-2.2,0.1-3.2c0-1-0.2-1.9-0.2-2.7c-0.2-1.6-0.4-2.7-0.5-3.5
		c0-0.1,0.7-0.5,0.7-0.4c0.6,0.6,1.4,1.5,2.2,3.1c0.4,0.8,0.8,1.8,1,3C162.9,461.4,163.1,462.8,162.9,464.4z"/>
	<path class="st4" d="M166.6,506.3c-10.3-7.8-19.5-16-27.2-24.3c-3.8-4.1-7.2-8.2-10.3-12.2c-0.7-1-1.5-2-2.2-3c-0.7-1-1.3-2-2-3
		c-0.3-0.5-0.6-0.9-1-1.4c-0.3-0.5-0.6-1-0.9-1.5c-0.6-0.9-1.1-1.9-1.7-2.8c-0.5-0.9-1-1.8-1.5-2.7c-0.2-0.4-0.5-0.9-0.7-1.3
		s-0.4-0.9-0.6-1.3c-0.4-0.9-0.8-1.7-1.2-2.5c-0.4-0.8-0.7-1.6-1-2.4c-0.3-0.8-0.6-1.5-0.9-2.3c-0.2-0.7-0.5-1.5-0.8-2.1
		c-0.2-0.7-0.4-1.3-0.6-2c-0.2-0.6-0.3-1.2-0.5-1.8c-0.3-1.1-0.6-2.2-0.7-3c-0.2-0.9-0.3-1.7-0.4-2.3c-0.2-1.2-0.2-1.9-0.1-1.9
		c0.1,0,0.4,0.6,0.8,1.8c0.2,0.6,0.4,1.3,0.7,2.2c0.3,0.8,0.7,1.8,1,2.9c1.6,4.4,4.3,10.6,8.7,17.6c0.6,0.9,1.2,1.8,1.8,2.7
		c0.3,0.4,0.6,0.9,0.9,1.4c0.3,0.4,0.7,0.9,1,1.3c0.7,0.9,1.3,1.9,2,2.8c0.7,0.9,1.5,1.9,2.2,2.8c3,3.8,6.5,7.8,10.3,11.8
		c7.7,7.9,16.8,16,27,23.7c6.9,5.3,13.3,9.7,19.2,13.5c5.8,3.8,11,7,15.6,9.6c9.2,5.3,15.8,8.7,20,10.8c0.6,0.3,0.2,1-0.3,0.8
		c-4.4-1.7-11.4-4.5-20.9-9.4c-4.8-2.5-10.1-5.5-16.1-9.1C180.1,516,173.6,511.6,166.6,506.3z"/>
	<path class="st4" d="M244.7,561.2c-7.9-7.3-14.7-14-19.8-18.7c-1.3-1.2-2.4-2.3-3.4-3.2c-1-0.9-1.9-1.8-2.6-2.5
		c-1.4-1.4-2.1-2.2-1.9-2.4c0.1-0.2,1.1,0.3,2.8,1.4c0.8,0.6,1.8,1.2,3,2c1.2,0.8,2.4,1.8,3.8,2.8c5.6,4.3,12.8,10.8,20.6,18
		c2.7,2.5,5,4.7,7.1,6.7c2.1,2,3.9,3.7,5.5,5.3c0.4,0.4,0.8,0.8,1.2,1.1c0.4,0.4,0.7,0.7,1.1,1c0.7,0.7,1.3,1.2,1.9,1.8
		c1.1,1.1,2,2,2.7,2.7c0.2,0.2-0.3,0.8-0.5,0.7c-0.9-0.5-1.9-1.2-3.2-2.1c-0.7-0.4-1.4-0.9-2.2-1.5c-0.4-0.3-0.8-0.5-1.2-0.9
		c-0.4-0.3-0.8-0.6-1.3-1c-1.8-1.4-3.8-2.9-6-4.8C249.8,565.8,247.3,563.7,244.7,561.2z"/>
	<path class="st4" d="M239.2,201.6c-0.2-2.4-0.8-4.6-1.1-6.3c-0.3-1.7-0.4-2.9,0-3.1c0.5-0.2,1.3,0.6,2.3,2.2c0.5,0.8,1,1.8,1.4,2.9
		c0.5,1.2,0.8,2.5,0.9,4c0.1,2.1-0.3,3.7-0.9,4.8c-0.1,0.3-0.3,0.5-0.4,0.7c-0.2,0.2-0.3,0.4-0.4,0.6c-0.3,0.3-0.6,0.6-0.8,0.8
		c-0.1,0.1-0.7-0.3-0.7-0.4c0-0.3,0-0.6,0-1c0-0.2,0-0.4,0-0.6c0-0.2,0-0.5,0-0.7C239.4,204.5,239.4,203.2,239.2,201.6z"/>
	<path class="st4" d="M136.3,372.1c-0.9-1.2-1.4-2.2-1.8-3c-0.1-0.4-0.3-0.8-0.3-1.1c0-0.3,0-0.6,0.2-0.8c0.1-0.2,0.4-0.3,0.7-0.2
		c0.3,0,0.8,0.2,1.2,0.4c0.9,0.5,1.9,1.5,2.7,2.6c0.3,0.4,0.5,0.7,0.6,1c0.2,0.3,0.3,0.6,0.4,0.9c0.2,0.6,0.2,1,0.2,1.4
		c0,0.1-0.5,0.7-0.5,0.7c-0.4,0-0.9,0-1.6-0.3c-0.3-0.1-0.6-0.3-1-0.6C136.9,372.8,136.6,372.4,136.3,372.1z"/>
	<path class="st4" d="M124.1,398.8c-1.2-1.5-2-2.8-2.7-3.8c-0.2-0.3-0.3-0.5-0.4-0.7c-0.1-0.2-0.2-0.4-0.2-0.6
		c-0.1-0.4-0.1-0.7,0-0.9c0.1-0.2,0.4-0.2,0.9-0.2c0.2,0,0.4,0.1,0.7,0.2c0.1,0.1,0.3,0.1,0.4,0.2c0.1,0.1,0.2,0.1,0.4,0.2
		c1.2,0.7,2.4,1.9,3.6,3.3c0.4,0.5,0.7,0.9,1,1.3c0.3,0.4,0.5,0.8,0.6,1.1c0.3,0.7,0.5,1.3,0.6,1.7c0,0.1-0.5,0.7-0.5,0.7
		c-0.4,0-1.1-0.1-1.9-0.5c-0.4-0.2-0.8-0.5-1.3-0.8C125,399.6,124.5,399.2,124.1,398.8z"/>
	<path class="st4" d="M225.4,158.8c-0.9-2.3-1.7-4.3-2.3-5.9c-0.1-0.2-0.1-0.4-0.2-0.6c-0.1-0.2-0.1-0.4-0.2-0.5
		c-0.1-0.3-0.2-0.6-0.2-0.9c-0.1-0.5-0.1-0.8,0.1-1s0.5-0.1,1,0.2c0.2,0.1,0.5,0.3,0.8,0.6c0.1,0.1,0.3,0.2,0.4,0.4
		c0.1,0.2,0.3,0.3,0.4,0.5c1.2,1.3,2.5,3.4,3.5,6c0.7,1.7,0.9,3.1,1,4.2c0.1,1.1,0,1.9-0.1,2.5c0,0.1-0.7,0.3-0.8,0.3
		c-0.4-0.4-0.9-1-1.5-1.9C226.7,161.6,226,160.4,225.4,158.8z"/>
	<path class="st4" d="M112.5,422c-0.1-0.3,0-0.6,0-0.9c0-0.3,0.1-0.6,0.2-0.9c0.1-0.2,0.2-0.5,0.3-0.7c0-0.1,0.1-0.2,0.1-0.3
		c0.1-0.1,0.1-0.2,0.1-0.2c0.4-0.7,0.8-1.2,1.2-1.5c0.7-0.7,1.4-1.2,1.8-1c0.5,0.2,0.6,0.9,0.4,2.1c-0.1,0.6-0.3,1.2-0.5,1.8l0,0.2
		l0,0.2c-0.1,0.1,0,0.2-0.1,0.3c0,0.2,0,0.3,0,0.5c0.1,0.5,0.3,1.3,0.4,2c0.1,0.7,0.2,1.2,0.1,1.6c0,0.1-0.6,0.5-0.7,0.5
		c-0.4-0.1-0.9-0.3-1.6-0.7c-0.3-0.2-0.6-0.6-1-1c-0.2-0.3-0.3-0.5-0.5-0.8C112.7,422.9,112.6,422.5,112.5,422z"/>
	<path class="st4" d="M255.6,484.2c0.4-0.9,0.7-1.8,1.1-2.7c0.4-0.8,0.7-1.7,1.1-2.4c0.4-0.7,0.7-1.5,1.1-2.2
		c0.4-0.7,0.7-1.3,1.1-1.8c1.4-2.2,2.5-3.4,2.9-3.2c0.4,0.2,0.2,1.8-0.7,4.2c-0.4,1.2-0.9,2.6-1.4,4.1c-0.3,0.8-0.6,1.6-0.9,2.4
		c-0.3,0.8-0.6,1.7-1,2.6c-0.4,1.2-0.9,2.3-1.4,3.2c-0.4,0.9-0.8,1.8-1.2,2.5c-0.7,1.4-1.4,2.4-1.9,3c-0.1,0.1-0.8-0.2-0.8-0.3
		c0-0.7,0-1.9,0.3-3.6c0.1-0.8,0.3-1.7,0.6-2.7C254.8,486.5,255.2,485.4,255.6,484.2z"/>
	<path d="M322.4,198.9l-17.6,3.5c-2-1.3-3.8-3.2-5.6-5.9c-1.7-2.7-2.6-5.8-2.6-9.4s0.9-6.3,2.8-8c2-1.9,4.8-3.2,8.5-4.2l13.6-3.3
		c3-0.9,5.2-2.1,6.6-3.5c1.4-1.4,2.1-3.4,2.1-5.9c0-2.2-1.1-4.2-3.3-6.1c-2.1-2-5.7-3-11-3c-4.6,0-9.1,0.6-13.4,1.7
		c-4.2,1.2-7.5,2.6-10.1,4.3c-1.9-1.5-3.5-3.4-5-5.6c-1.4-2.2-2.1-4.8-2.1-7.6c0-6.1,3.2-10.6,9.7-13.4c6.6-2.9,14.9-4.3,25-4.3
		c9.2,0,16.8,1.4,22.9,4.3c6.1,2.9,10.8,6.9,13.9,12c3.1,5.1,4.7,11,4.7,17.6c0,10.1-3.3,18.1-9.9,24
		C345.3,192,335.5,196.3,322.4,198.9z M299.1,225.5c0-4.8,1.5-8.6,4.5-11.6c3-3.1,7.1-4.7,12.2-4.7c5.1,0,9.2,1.6,12.2,4.7
		c3,3,4.5,6.9,4.5,11.6c0,4.8-1.5,8.7-4.5,11.8c-3,3-7.1,4.5-12.2,4.5c-5.1,0-9.2-1.5-12.2-4.5C300.6,234.2,299.1,230.3,299.1,225.5
		z"/>
</g>
</svg>
